<?xml version="1.0" encoding="utf-8"?>
<!DOCTYPE svg PUBLIC "-//W3C//DTD SVG 1.1//EN" "http://www.w3.org/Graphics/SVG/1.1/DTD/svg11.dtd">
<svg width="279px" height="510px" viewBox="0, 0, 279, 510" class="svgDam" xmlns="http://www.w3.org/2000/svg" xmlns:xlink="http://www.w3.org/1999/xlink" xmlns:xml="http://www.w3.org/XML/1998/namespace" version="1.1">
  <g id="MapArea">
    <g id="Key_Area">
      <path d="M137.36 509.99 L137.39 510 L124.02 507.47 L103.59 488.42 L68.31 443.6 L0 419.67 L42.41 81.58 L79.44 15 L114.7 30.38 L121.48 26.25 L177.04 0 L206.04 16.97 L231.96 36.1 L272.21 82.76 L275.41 87.34 L277.8 93.12 L278.05 98.63 L276.55 108.23 L275.76 111.09 L274.11 117.08 L272.08 126.35 L268.44 138.29 L265.85 151.9 L263.28 206.5 L262.01 231.08 L258.68 268.36 L255.44 278.69 L249.78 293.05 L227.19 334.4 L200.5 374.02 L184.18 404.21 L182.02 406.13 L178.91 406.6 L176.76 406.11 L173.98 405.05 L169.82 412.62 L171.28 414.34 L173.45 419.48 L173.21 420.95 L152.88 458.84 L146.98 476.29 L143.41 488.38 L142.3 492.66 L137.36 509.99 z" class="polygon_1" style="fill:#571D6D;" />
    </g>
    <g id="SiteLine" style="fill:none;" />
    <g id="SitePoint">
      <circle cx="93" cy="317" r="6" id="Dam_S2197" style="fill:#ECEBEA;stroke:#AAAAAA;">
        <title>七美水庫 ：無檢測資料</title>
      </circle>
    </g>
    <g id="Mark" class="Heilight">
      <g transform="translate(93, 317) translate(-14, -14)" id="gMark" class="HeilightTrans">
        <path d="M17.2 27.5 L17.2 23.4 L22.8 23.4 L23.3 23.4 L23.3 22.9 L23.3 17.3 L27.4 17.3 L27.4 27.6 L17.2 27.5 z M0.5 27.5 L0.5 17.2 L4.6 17.2 L4.6 22.8 L4.6 23.3 L5.1 23.3 L10.1 23.3 L10.1 27.4 L0.5 27.5 z M27.5 10.2 L23.4 10.2 L23.4 5.2 L23.4 4.6 L22.9 4.6 L17.3 4.6 L17.3 0.5 L27.6 0.5 L27.6 10.2 z M4.6 10.2 L0.5 10.2 L0.5 0.5 L10.2 0.5 L10.2 4.6 L5.2 4.6 L4.6 4.6 L4.6 5.1 L4.6 10.2 z" class="st0" style="fill:#FF800E;" />
        <path d="M17.7 27 L27 27 L27 17.7 L23.9 17.7 L23.9 22.8 L23.9 23.8 L22.9 23.8 L17.8 23.8 L17.8 27 M1 27 L9.7 27 L9.7 23.9 L5.1 23.9 L4.1 23.9 L4.1 22.9 L4.1 17.8 L1 17.8 L1 27 M27 9.7 L27 1 L17.7 1 L17.7 4.1 L22.8 4.1 L23.8 4.1 L23.8 5.1 L23.8 9.6 L27 9.6 M4.1 9.7 L4.1 5.1 L4.1 4.1 L5.1 4.1 L9.6 4.1 L9.6 1 L1 1 L1 9.7 L4.1 9.7 M28 28 L28 28 L28 28 L16.7 28 L16.7 22.9 L22.8 22.9 L22.8 16.8 L28 16.8 L28 28 L28 28 z M10.7 28 L10.7 28 L10.7 28 L0 28 L0 16.7 L5.1 16.7 L5.1 22.8 L10.6 22.8 L10.6 28 L10.7 28 z M28 10.7 L28 10.7 L28 10.7 L22.9 10.7 L22.9 5.1 L16.8 5.1 L16.8 0 L28 0 L28 10.7 L28 10.7 z M5.1 10.7 L5.1 10.7 L0 10.7 L0 0 L10.7 0 L10.7 5.1 L5.1 5.1 L5.1 10.7 L5.1 10.7 z" class="st1" style="fill:#B55600;" />
      </g>
    </g>
  </g>
</svg>