<?xml version="1.0" encoding="utf-8"?>
<!DOCTYPE svg PUBLIC "-//W3C//DTD SVG 1.1//EN" "http://www.w3.org/Graphics/SVG/1.1/DTD/svg11.dtd">
<svg width="575px" height="470px" viewBox="0, 0, 575, 470" class="svgDam" xmlns="http://www.w3.org/2000/svg" xmlns:xlink="http://www.w3.org/1999/xlink" xmlns:xml="http://www.w3.org/XML/1998/namespace" version="1.1">
  <g id="MapArea">
    <g id="Key_Area">
      <path d="M67.35 0 L131.04 36.01 L130.67 38.81 L124.58 49.59 L157.67 68.05 L181.06 81.98 L266.4 132.25 L309.24 158.37 L364 187.95 L441.03 230 L453.07 235.82 L500.59 265.74 L518.47 279.03 L531.92 292.73 L544.52 308.6 L555.08 326.95 L566.75 354.88 L572.33 377.04 L573.7 388.76 L573.58 403.14 L564.6 434.44 L571.06 439.31 L575 440.65 L567.77 447.63 L562.78 451.94 L547.6 459.41 L522.57 467.92 L506.94 469.17 L493.78 462.97 L459.27 438.91 L444.28 431.68 L427.41 430.68 L399.64 433.98 L385.93 439.01 L377.9 443.18 L371.66 448.65 L361.81 456.57 L350.82 461.53 L338.18 464.59 L301.14 466.1 L264.57 465.51 L246.5 459.52 L240.77 455.9 L233.09 448.78 L228.96 444.01 L210.16 431.88 L199.23 431.42 L182.18 431.98 L169.26 432.23 L164.48 430.27 L159.13 427.36 L151.39 422.31 L142.75 414.56 L129.37 400.14 L97.57 368.15 L87.09 358.49 L82.65 355.59 L67.22 356.98 L50.25 360.24 L31.52 361.03 L11.26 360 L0 356.32 L5.84 320.28 L23.94 223.19 L37.88 151.45 L62.46 156.12 L66.5 135.72 L41.53 130.98 L67.35 0 z" class="polygon_1" style="fill:#519B56;" />
    </g>
    <g id="SiteLine" style="fill:none;" />
    <g id="SitePoint">
      <circle cx="96.88818" cy="170.5809" r="6" id="Dam_S2121" style="fill:#ECEBEA;stroke:#AAAAAA;">
        <title>儲水沃上壩 ：無檢測資料</title>
      </circle>
    </g>
    <g id="Mark" class="Heilight">
      <g transform="translate(96.88818, 170.5809) translate(-14, -14)" id="gMark" class="HeilightTrans">
        <path d="M17.2 27.5 L17.2 23.4 L22.8 23.4 L23.3 23.4 L23.3 22.9 L23.3 17.3 L27.4 17.3 L27.4 27.6 L17.2 27.5 z M0.5 27.5 L0.5 17.2 L4.6 17.2 L4.6 22.8 L4.6 23.3 L5.1 23.3 L10.1 23.3 L10.1 27.4 L0.5 27.5 z M27.5 10.2 L23.4 10.2 L23.4 5.2 L23.4 4.6 L22.9 4.6 L17.3 4.6 L17.3 0.5 L27.6 0.5 L27.6 10.2 z M4.6 10.2 L0.5 10.2 L0.5 0.5 L10.2 0.5 L10.2 4.6 L5.2 4.6 L4.6 4.6 L4.6 5.1 L4.6 10.2 z" class="st0" style="fill:#FF800E;" />
        <path d="M17.7 27 L27 27 L27 17.7 L23.9 17.7 L23.9 22.8 L23.9 23.8 L22.9 23.8 L17.8 23.8 L17.8 27 M1 27 L9.7 27 L9.7 23.9 L5.1 23.9 L4.1 23.9 L4.1 22.9 L4.1 17.8 L1 17.8 L1 27 M27 9.7 L27 1 L17.7 1 L17.7 4.1 L22.8 4.1 L23.8 4.1 L23.8 5.1 L23.8 9.6 L27 9.6 M4.1 9.7 L4.1 5.1 L4.1 4.1 L5.1 4.1 L9.6 4.1 L9.6 1 L1 1 L1 9.7 L4.1 9.7 M28 28 L28 28 L28 28 L16.7 28 L16.7 22.9 L22.8 22.9 L22.8 16.8 L28 16.8 L28 28 L28 28 z M10.7 28 L10.7 28 L10.7 28 L0 28 L0 16.7 L5.1 16.7 L5.1 22.8 L10.6 22.8 L10.6 28 L10.7 28 z M28 10.7 L28 10.7 L28 10.7 L22.9 10.7 L22.9 5.1 L16.8 5.1 L16.8 0 L28 0 L28 10.7 L28 10.7 z M5.1 10.7 L5.1 10.7 L0 10.7 L0 0 L10.7 0 L10.7 5.1 L5.1 5.1 L5.1 10.7 L5.1 10.7 z" class="st1" style="fill:#B55600;" />
      </g>
    </g>
  </g>
</svg>