<?xml version="1.0" encoding="utf-8"?>
<!DOCTYPE svg PUBLIC "-//W3C//DTD SVG 1.1//EN" "http://www.w3.org/Graphics/SVG/1.1/DTD/svg11.dtd">
<svg width="575px" height="456px" viewBox="0, 0, 575, 456" class="svgDam" xmlns="http://www.w3.org/2000/svg" xmlns:xlink="http://www.w3.org/1999/xlink" xmlns:xml="http://www.w3.org/XML/1998/namespace" version="1.1">
  <g id="MapArea">
    <g id="Key_Area">
      <path d="M206.17 44.72 L221.88 45.02 L235.93 48.98 L244.75 51.05 L279.06 54.28 L286.49 54.21 L293.84 55.26 L300.95 57.41 L307.67 60.6 L311.86 60.6 L316.02 60.09 L320.09 59.1 L332.54 60.81 L344.78 63.69 L357.22 63.39 L369.53 65.21 L372.96 66.95 L376.64 68.07 L380.46 68.55 L384.31 68.36 L388.07 67.52 L394.7 67.01 L401.32 67.66 L407.73 69.43 L409.88 71.16 L412.28 72.52 L414.86 73.49 L417.56 74.03 L420.31 74.13 L423.05 73.8 L425.71 72.78 L428.5 72.24 L431.34 72.18 L443.51 76.03 L455.99 78.67 L462.34 78.54 L468.64 79.25 L474.79 80.81 L480.68 83.18 L499.35 85.45 L517.73 89.46 L553.08 102.73 L556.62 102.99 L560.1 103.74 L563.44 104.96 L565.4 106.59 L567.06 108.54 L568.36 110.74 L569.26 113.14 L571.9 117.77 L573.77 122.78 L574.81 128.02 L575 133.36 L574.33 138.66 L572.81 143.79 L570.5 148.6 L567.44 152.97 L565.18 169.44 L560.78 185.48 L554.34 200.79 L545.96 215.13 L535.79 228.25 L527.62 242.81 L517.21 255.84 L504.83 267 L433.57 307.23 L418.72 316.4 L404.95 327.15 L392.43 339.33 L381.31 352.82 L360.52 362.39 L313.84 359.22 L295.34 355.69 L294.53 361.14 L293.94 361.58 L235.04 404.78 L221.21 411.13 L200.13 418.56 L182.76 424.41 L174.8 447.27 L151.01 455.48 L130.09 385.2 L92.32 251.32 L19.33 270.96 L0 199.58 L71.34 177.37 L37.59 54.47 L6.85 51.61 L15.01 1.16 L45.2 5.53 L62.44 2.81 L73.94 0 L77.88 12.87 L105.22 31.23 L114.65 33.21 L160.41 39.86 L184.27 41.89 L196.86 44.54 L206.17 44.72 z" class="polygon_1" style="fill:#571D6D;" />
    </g>
    <g id="SiteLine" style="fill:none;" />
    <g id="SitePoint">
      <circle cx="78.79639" cy="194.2478" r="6" id="Dam_S2120" style="fill:#ECEBEA;stroke:#AAAAAA;">
        <title>儲水沃水庫 ：無檢測資料</title>
      </circle>
    </g>
    <g id="Mark" class="Heilight">
      <g transform="translate(78.79639, 194.2478) translate(-14, -14)" id="gMark" class="HeilightTrans">
        <path d="M17.2 27.5 L17.2 23.4 L22.8 23.4 L23.3 23.4 L23.3 22.9 L23.3 17.3 L27.4 17.3 L27.4 27.6 L17.2 27.5 z M0.5 27.5 L0.5 17.2 L4.6 17.2 L4.6 22.8 L4.6 23.3 L5.1 23.3 L10.1 23.3 L10.1 27.4 L0.5 27.5 z M27.5 10.2 L23.4 10.2 L23.4 5.2 L23.4 4.6 L22.9 4.6 L17.3 4.6 L17.3 0.5 L27.6 0.5 L27.6 10.2 z M4.6 10.2 L0.5 10.2 L0.5 0.5 L10.2 0.5 L10.2 4.6 L5.2 4.6 L4.6 4.6 L4.6 5.1 L4.6 10.2 z" class="st0" style="fill:#FF800E;" />
        <path d="M17.7 27 L27 27 L27 17.7 L23.9 17.7 L23.9 22.8 L23.9 23.8 L22.9 23.8 L17.8 23.8 L17.8 27 M1 27 L9.7 27 L9.7 23.9 L5.1 23.9 L4.1 23.9 L4.1 22.9 L4.1 17.8 L1 17.8 L1 27 M27 9.7 L27 1 L17.7 1 L17.7 4.1 L22.8 4.1 L23.8 4.1 L23.8 5.1 L23.8 9.6 L27 9.6 M4.1 9.7 L4.1 5.1 L4.1 4.1 L5.1 4.1 L9.6 4.1 L9.6 1 L1 1 L1 9.7 L4.1 9.7 M28 28 L28 28 L28 28 L16.7 28 L16.7 22.9 L22.8 22.9 L22.8 16.8 L28 16.8 L28 28 L28 28 z M10.7 28 L10.7 28 L10.7 28 L0 28 L0 16.7 L5.1 16.7 L5.1 22.8 L10.6 22.8 L10.6 28 L10.7 28 z M28 10.7 L28 10.7 L28 10.7 L22.9 10.7 L22.9 5.1 L16.8 5.1 L16.8 0 L28 0 L28 10.7 L28 10.7 z M5.1 10.7 L5.1 10.7 L0 10.7 L0 0 L10.7 0 L10.7 5.1 L5.1 5.1 L5.1 10.7 L5.1 10.7 z" class="st1" style="fill:#B55600;" />
      </g>
    </g>
  </g>
</svg>