<?xml version="1.0" encoding="utf-8"?>
<!DOCTYPE svg PUBLIC "-//W3C//DTD SVG 1.1//EN" "http://www.w3.org/Graphics/SVG/1.1/DTD/svg11.dtd">
<svg width="567px" height="510px" viewBox="0, 0, 567, 510" class="svgDam" xmlns="http://www.w3.org/2000/svg" xmlns:xlink="http://www.w3.org/1999/xlink" xmlns:xml="http://www.w3.org/XML/1998/namespace" version="1.1">
  <g id="MapArea">
    <g id="Key_Area">
      <path d="M274.55 0 L274.55 0 L338.99 25.12 L340.61 25.76 L422.71 56.93 L486.08 80.97 L552.17 105.86 L553.01 107.4 L554.18 108.83 L555.12 110.43 L555.25 111 L555.29 111.59 L555.22 112.18 L555.06 112.75 L554.8 113.28 L554.46 113.76 L551.46 117.26 L548.94 121.13 L546.94 125.29 L544.95 141.95 L544.57 158.72 L542.76 165.46 L540.4 172.02 L537.55 178.49 L533.66 184.4 L531.94 186.35 L529.98 188.04 L527.8 189.45 L525.44 190.53 L521.73 191.03 L518.1 191.96 L514.61 193.3 L510.62 197.35 L507.22 201.92 L506.21 202.73 L505.33 203.67 L504.58 204.73 L504 205.89 L503.57 207.11 L502.62 209.48 L502.08 211.98 L501.98 214.53 L502.3 217.06 L503.06 219.5 L505.26 226 L508.27 232.15 L512.62 237.04 L517.65 241.21 L523.25 244.58 L526.27 246.11 L529.45 247.26 L532.74 248.03 L548.97 256.02 L565.68 262.93 L566.3 263.67 L553.08 304.62 L551.66 310.04 L550.5 316.25 L551.13 319.39 L551.03 319.53 L551.02 319.7 L550.96 319.92 L548.87 323.85 L546.31 332.91 L545.22 339.59 L543.01 343.28 L542.68 344.29 L542.03 345.22 L540.13 345.64 L523.85 338.61 L517.25 336.32 L504.08 329.95 L499.27 325.05 L491.01 319.67 L488.89 317.36 L485.91 309.54 L485.53 307.7 L484.69 305.93 L482.74 304.68 L480.34 304.6 L471.31 307.92 L465.2 310.81 L461.72 313.51 L459.07 317.36 L458.1 319.54 L457.67 321.81 L457.91 324.02 L461.12 334.11 L461.59 337.51 L461.46 347.58 L461.02 350.89 L456.08 364.17 L453.18 367.22 L449.81 369.73 L448.15 370.4 L443.4 370.53 L441.05 369.29 L439.83 368.21 L436.75 363.55 L430.99 356.85 L426.82 350.05 L421.13 343.21 L419.4 340.31 L410.76 332.05 L402.93 328.29 L400.24 327.64 L394.13 328.38 L390.85 329.31 L377.28 339.06 L366.87 348.25 L363.64 352.03 L361.61 355.4 L359.68 361.29 L359.48 363.49 L360.31 368.33 L362.48 376.07 L363.83 382.4 L366.25 388.73 L367.83 395.09 L377.13 415.79 L381.9 422.59 L384.24 429.37 L390.92 442.93 L394.61 447.39 L402.53 463.31 L407.39 469.55 L412.11 480.2 L412.34 483.83 L411.57 487.73 L402.95 494.16 L393.66 499.56 L383.82 503.87 L373.55 507.02 L360.71 508.9 L347.78 509.86 L334.81 509.89 L320.24 510 L305.7 508.96 L272.3 505.23 L254.4 503.74 L249.59 502.8 L245 501.07 L240.76 498.58 L235.96 494.37 L231.86 489.47 L228.56 483.98 L225.46 465.88 L225.46 462.44 L225.9 459.03 L226.78 455.71 L228.08 452.53 L230.84 450.2 L233.19 447.45 L235.07 444.36 L236.43 441 L236.96 438.82 L237.13 436.57 L236.92 434.33 L236.35 432.15 L231.86 418.93 L223.78 407.68 L223.3 407.44 L222.78 407.27 L222.25 407.19 L221.71 407.19 L221.18 407.27 L220.66 407.44 L220.18 407.68 L213.04 411.49 L205.58 414.62 L204.23 415.07 L202.82 415.29 L201.4 415.29 L199.99 415.06 L198.02 414.29 L196.17 413.25 L194.49 411.96 L193 410.45 L189.53 404.23 L186.76 397.68 L181.64 387.62 L176.98 377.34 L172.81 368.18 L168.05 359.32 L167.08 357.87 L165.91 356.59 L164.55 355.5 L163.49 354.86 L162.35 354.38 L161.15 354.07 L159.92 353.95 L149.91 353.22 L139.91 353.91 L133.43 354.15 L127.04 355.31 L115.06 355.44 L106.32 355.13 L97.61 354.24 L80.89 352.62 L70.02 350.44 L59.34 347.49 L52.64 344.86 L46.34 341.37 L40.56 337.06 L35.4 332.02 L27.55 326.36 L20.49 319.74 L14.32 312.26 L12.27 307.78 L9.56 303.67 L6.26 300.02 L4.18 297.27 L2.49 294.26 L1.23 291.04 L0.44 287.67 L0 283.8 L0.18 279.91 L1.01 277.36 L1.5 274.72 L1.75 274.04 L2.09 273.4 L2.53 272.83 L3.05 272.33 L3.64 271.91 L4.28 271.59 L4.97 271.37 L7.86 271.03 L10.78 271.18 L15.45 272.54 L19.88 274.56 L23.91 276.03 L28.11 276.92 L32.38 277.2 L40.75 276.8 L49.01 275.37 L56.69 275.46 L64.32 274.47 L66.45 274.02 L68.5 273.26 L70.43 272.22 L72.19 270.92 L78.57 266.11 L84.18 263.19 L90.2 261.24 L96.45 260.34 L107.7 255.65 L118.37 249.74 L127.41 243.23 L137.19 237.88 L143.93 232.15 L151.52 227.63 L159.75 224.45 L190.15 217.84 L202.01 217.71 L213.81 216.53 L219.83 215.22 L225.72 213.38 L230.3 211.17 L234.45 208.2 L237.09 205.26 L239.23 201.94 L240.82 198.32 L242.82 191.65 L244.05 184.8 L244.11 173.04 L242.9 161.34 L242.49 152.3 L243.16 143.28 L244.91 134.41 L249.38 120.85 L255.01 107.74 L261.55 94.54 L268.86 81.76 L272.9 73.65 L275.96 65.12 L278.1 50.93 L279.45 36.65 L279.11 19.66 L279.02 14.55 L278.21 9.51 L276.71 4.62 L274.55 0 z" class="polygon_1" style="fill:#571D6D;" />
    </g>
    <g id="SiteLine" style="fill:none;" />
    <g id="SitePoint">
      <circle cx="364" cy="73" r="6" id="Dam_S2116" style="fill:#ECEBEA;stroke:#AAAAAA;">
        <title>勝利水庫 ：無檢測資料</title>
      </circle>
    </g>
    <g id="Mark" class="Heilight">
      <g transform="translate(364, 73) translate(-14, -14)" id="gMark" class="HeilightTrans">
        <path d="M17.2 27.5 L17.2 23.4 L22.8 23.4 L23.3 23.4 L23.3 22.9 L23.3 17.3 L27.4 17.3 L27.4 27.6 L17.2 27.5 z M0.5 27.5 L0.5 17.2 L4.6 17.2 L4.6 22.8 L4.6 23.3 L5.1 23.3 L10.1 23.3 L10.1 27.4 L0.5 27.5 z M27.5 10.2 L23.4 10.2 L23.4 5.2 L23.4 4.6 L22.9 4.6 L17.3 4.6 L17.3 0.5 L27.6 0.5 L27.6 10.2 z M4.6 10.2 L0.5 10.2 L0.5 0.5 L10.2 0.5 L10.2 4.6 L5.2 4.6 L4.6 4.6 L4.6 5.1 L4.6 10.2 z" class="st0" style="fill:#FF800E;" />
        <path d="M17.7 27 L27 27 L27 17.7 L23.9 17.7 L23.9 22.8 L23.9 23.8 L22.9 23.8 L17.8 23.8 L17.8 27 M1 27 L9.7 27 L9.7 23.9 L5.1 23.9 L4.1 23.9 L4.1 22.9 L4.1 17.8 L1 17.8 L1 27 M27 9.7 L27 1 L17.7 1 L17.7 4.1 L22.8 4.1 L23.8 4.1 L23.8 5.1 L23.8 9.6 L27 9.6 M4.1 9.7 L4.1 5.1 L4.1 4.1 L5.1 4.1 L9.6 4.1 L9.6 1 L1 1 L1 9.7 L4.1 9.7 M28 28 L28 28 L28 28 L16.7 28 L16.7 22.9 L22.8 22.9 L22.8 16.8 L28 16.8 L28 28 L28 28 z M10.7 28 L10.7 28 L10.7 28 L0 28 L0 16.7 L5.1 16.7 L5.1 22.8 L10.6 22.8 L10.6 28 L10.7 28 z M28 10.7 L28 10.7 L28 10.7 L22.9 10.7 L22.9 5.1 L16.8 5.1 L16.8 0 L28 0 L28 10.7 L28 10.7 z M5.1 10.7 L5.1 10.7 L0 10.7 L0 0 L10.7 0 L10.7 5.1 L5.1 5.1 L5.1 10.7 L5.1 10.7 z" class="st1" style="fill:#B55600;" />
      </g>
    </g>
  </g>
</svg>