<?xml version="1.0" encoding="utf-8"?>
<!DOCTYPE svg PUBLIC "-//W3C//DTD SVG 1.1//EN" "http://www.w3.org/Graphics/SVG/1.1/DTD/svg11.dtd">
<svg width="575px" height="411px" viewBox="0, 0, 575, 411" class="svgDam" xmlns="http://www.w3.org/2000/svg" xmlns:xlink="http://www.w3.org/1999/xlink" xmlns:xml="http://www.w3.org/XML/1998/namespace" version="1.1">
  <g id="MapArea">
    <g id="Key_Area">
      <path d="M372.48 28.74 L361.13 13.93 L379.14 0 L393.69 15.13 L393.96 15.19 L398.1 16.14 L444.45 60.66 L532.45 175.54 L557.56 225.45 L559.49 231.08 L575 251.33 L554.76 266.92 L541.65 252.3 L540.79 253.11 L539.91 255.39 L538.31 257.52 L536.23 259.13 L533.8 259.78 L531.73 260.83 L527.25 262.1 L522.76 263 L518.28 264.3 L515.87 265.56 L513.76 267.35 L511.75 270.02 L510.38 272.25 L509.99 272.88 L508.47 274.05 L504.69 275.58 L500.17 279.06 L492.68 281.87 L490.75 282.48 L486.7 283.12 L477.73 285.51 L475.79 285.81 L462.03 288.68 L455.3 291.67 L450.79 294.13 L444.08 298.23 L441.77 299.24 L437.29 300.41 L428.3 303.49 L414.87 305.47 L410.39 306.48 L401.44 307.36 L396.97 307.16 L392.51 306.58 L388.06 305.54 L379.17 302.75 L376.94 302.4 L374.71 302.44 L370.23 303.25 L365.73 304.98 L356.72 309.79 L354.51 310.32 L347.77 310.77 L343.29 311.66 L338.8 313.19 L336.39 314.38 L334.28 315.97 L319.35 332.73 L313.57 339.81 L312.88 341.61 L311.76 350.58 L310.49 352.88 L308.84 355.02 L307.01 356.79 L304.77 358.06 L297.85 360.06 L295.49 361.18 L293.34 362.65 L291.82 364.44 L290.57 366.43 L289.05 368.19 L284.17 371.28 L282.34 372.44 L279.76 373.88 L273.04 375.22 L270.8 375.43 L266.34 374.79 L257.43 373.06 L252.97 372.94 L248.48 374.1 L241.34 374.64 L233.71 380.48 L229.06 381.65 L217.01 386.49 L212.53 387.65 L208.05 388.26 L204.24 389.32 L199.08 390.76 L196.86 390.8 L193.72 390.21 L187.06 380.89 L181.94 375.47 L180.48 374.32 L178.75 373.57 L177.01 373.32 L174.72 373.88 L172.51 375.21 L167.98 379.59 L163.45 383.06 L148.01 391.55 L145.38 396.28 L143.3 398.21 L136.76 401.7 L127.66 406.05 L122.86 407.8 L104.94 410.39 L80.39 410.03 L78.18 409.75 L69.24 407.71 L64.77 407.85 L58.09 406.95 L55.86 406.4 L51.4 405.96 L46.95 404.97 L33.58 403.07 L15.77 399.24 L11.32 397.97 L6.88 396.1 L5.08 394.81 L3.67 393.05 L2.8 391.61 L1.62 388.63 L0.57 381.56 L0 359.1 L0.41 354.61 L0.87 352.93 L1.82 351.41 L3.13 350.19 L7.63 348.18 L10.86 345.79 L12.51 343.69 L14.71 339.16 L15.18 336.88 L15.63 325.62 L16.17 323.42 L18.85 318.5 L21.8 314.12 L24.15 310.07 L25.03 309.24 L33.32 303.67 L34.38 302.53 L34.88 301.25 L34.63 299.77 L30.85 292.21 L30.76 290.68 L31.29 289.08 L32.28 287.74 L41.68 278.9 L45.07 276.41 L48.85 274.52 L51.12 273.96 L53.48 273.97 L55.48 274.63 L57.9 276.85 L60.12 277.76 L62.35 278.05 L64.59 277.81 L66.83 277.16 L71.33 274.96 L73.73 272.94 L75.87 270.61 L78 268.88 L84.89 265.17 L89.4 262.19 L91.82 260.16 L93.94 257.81 L99.48 248.38 L109.5 235.06 L112.15 230.61 L115.06 223.95 L116.19 217.2 L116.68 212.72 L117.85 208.24 L118.08 203.75 L125.24 201.29 L125.99 194.43 L126.76 190.98 L128.98 186.82 L132.76 181.53 L137.7 177.11 L148.94 169.49 L153.45 166.75 L160.18 163.56 L162.45 162.83 L171.41 161.31 L175.35 159.74 L176.82 158.58 L181.69 150.86 L185.04 147.29 L192.07 140.57 L194.03 137.58 L196.14 133.12 L196.69 130.92 L197.12 124.15 L198.43 119.68 L199.26 118.45 L201.47 116.35 L202.56 114.69 L203.34 112.87 L204 106.3 L204.81 104 L206.94 100.29 L211.19 95.13 L211.94 92.95 L213.34 79.49 L212.97 75.85 L212.24 73.08 L211 70.47 L210.16 69.63 L208 65.86 L207.51 63.81 L207.41 56.94 L208.6 50.19 L211.95 41.24 L213.01 39.06 L216.77 33.1 L218.13 31.92 L220.84 30.83 L222.59 31.89 L235.94 35.8 L258.13 45 L280.31 55.19 L284.76 56.31 L289.22 56.79 L293.69 56.68 L325.04 51.97 L334.01 49.88 L339.99 47.91 L340.83 47.64 L343 46.43 L347.52 42.83 L354.22 36.62 L356.58 34.83 L361.08 32.61 L365.58 30.76 L372.36 28.79 L372.48 28.74 L372.48 28.74 z" class="polygon_1" style="fill:#571D6D;" />
    </g>
    <g id="SiteLine" style="fill:none;" />
    <g id="SitePoint">
      <circle cx="81" cy="286" r="6" id="Dam_S2118" style="fill:#ECEBEA;stroke:#AAAAAA;">
        <title>后沃水庫 ：無檢測資料</title>
      </circle>
    </g>
    <g id="Mark" class="Heilight">
      <g transform="translate(81, 286) translate(-14, -14)" id="gMark" class="HeilightTrans">
        <path d="M17.2 27.5 L17.2 23.4 L22.8 23.4 L23.3 23.4 L23.3 22.9 L23.3 17.3 L27.4 17.3 L27.4 27.6 L17.2 27.5 z M0.5 27.5 L0.5 17.2 L4.6 17.2 L4.6 22.8 L4.6 23.3 L5.1 23.3 L10.1 23.3 L10.1 27.4 L0.5 27.5 z M27.5 10.2 L23.4 10.2 L23.4 5.2 L23.4 4.6 L22.9 4.6 L17.3 4.6 L17.3 0.5 L27.6 0.5 L27.6 10.2 z M4.6 10.2 L0.5 10.2 L0.5 0.5 L10.2 0.5 L10.2 4.6 L5.2 4.6 L4.6 4.6 L4.6 5.1 L4.6 10.2 z" class="st0" style="fill:#FF800E;" />
        <path d="M17.7 27 L27 27 L27 17.7 L23.9 17.7 L23.9 22.8 L23.9 23.8 L22.9 23.8 L17.8 23.8 L17.8 27 M1 27 L9.7 27 L9.7 23.9 L5.1 23.9 L4.1 23.9 L4.1 22.9 L4.1 17.8 L1 17.8 L1 27 M27 9.7 L27 1 L17.7 1 L17.7 4.1 L22.8 4.1 L23.8 4.1 L23.8 5.1 L23.8 9.6 L27 9.6 M4.1 9.7 L4.1 5.1 L4.1 4.1 L5.1 4.1 L9.6 4.1 L9.6 1 L1 1 L1 9.7 L4.1 9.7 M28 28 L28 28 L28 28 L16.7 28 L16.7 22.9 L22.8 22.9 L22.8 16.8 L28 16.8 L28 28 L28 28 z M10.7 28 L10.7 28 L10.7 28 L0 28 L0 16.7 L5.1 16.7 L5.1 22.8 L10.6 22.8 L10.6 28 L10.7 28 z M28 10.7 L28 10.7 L28 10.7 L22.9 10.7 L22.9 5.1 L16.8 5.1 L16.8 0 L28 0 L28 10.7 L28 10.7 z M5.1 10.7 L5.1 10.7 L0 10.7 L0 0 L10.7 0 L10.7 5.1 L5.1 5.1 L5.1 10.7 L5.1 10.7 z" class="st1" style="fill:#B55600;" />
      </g>
    </g>
  </g>
</svg>