<?xml version="1.0" encoding="utf-8"?>
<!DOCTYPE svg PUBLIC "-//W3C//DTD SVG 1.1//EN" "http://www.w3.org/Graphics/SVG/1.1/DTD/svg11.dtd">
<svg width="256px" height="510px" viewBox="0, 0, 256, 510" class="svgDam" xmlns="http://www.w3.org/2000/svg" xmlns:xlink="http://www.w3.org/1999/xlink" xmlns:xml="http://www.w3.org/XML/1998/namespace" version="1.1">
  <g id="MapArea">
    <g id="Key_Area">
      <path d="M254.61 153.67 L254.5 165.71 L255.65 183.24 L255.21 191.74 L253.93 207.89 L249.59 245.17 L246.72 256.35 L237.76 280.19 L233.62 297.59 L231.74 302 L228.14 307.41 L225.94 314.08 L223.02 323.01 L217.77 335.68 L213.28 348.26 L211.74 354.37 L209.77 363.41 L208.31 369.91 L203.41 388.29 L199.88 399.95 L198.28 404.36 L189.79 423.06 L187.14 428.3 L186.05 430.65 L172.94 450.15 L167.87 457.19 L146.51 484.29 L141.8 489.2 L133.33 496.65 L126.28 500.58 L122.11 502.1 L116.1 505.85 L110.58 508.48 L103.96 509.86 L96.94 510 L88.5 508.41 L75.86 504.74 L69.7 502.43 L65.98 499.99 L54.29 491.8 L47.87 487.69 L43.9 482.36 L34.54 470.62 L29.3 459.82 L27.08 453.25 L25.17 444.91 L23.48 435.7 L25.75 412.09 L29.37 378.28 L29.86 358.9 L30.5 323.24 L30.48 300.83 L29.54 287 L30.13 276.7 L32.88 267.05 L38.48 251.59 L39.1 247.5 L38.53 239.4 L37.72 235.83 L37 233.74 L28.78 218.72 L26.47 213 L23.61 203.24 L21.7 198.96 L19.35 193.71 L14.18 185.42 L10.01 178.78 L3.14 170.44 L1.1 167.44 L0.69 166.11 L0 163.59 L0 163.59 L10.18 139.83 L26.38 124.89 L24.37 104.79 L113.83 92.65 L112.54 83.37 L79.1 87.99 L68.73 9.77 L145.03 0 L153.91 78.16 L149.91 78.55 L151.02 87.6 L243.8 75.01 L248.93 92.66 L240.06 94.34 L239.99 94.35 L254.45 125.22 L254.81 132.51 L254.61 153.67 z" class="polygon_1" style="fill:#571D6D;" />
    </g>
    <g id="SiteLine" style="fill:none;" />
    <g id="SitePoint">
      <circle cx="100" cy="143" r="6" id="Dam_S2128" style="fill:#ECEBEA;stroke:#AAAAAA;">
        <title>坂里水庫 ：無檢測資料</title>
      </circle>
    </g>
    <g id="Mark" class="Heilight">
      <g transform="translate(100, 143) translate(-14, -14)" id="gMark" class="HeilightTrans">
        <path d="M17.2 27.5 L17.2 23.4 L22.8 23.4 L23.3 23.4 L23.3 22.9 L23.3 17.3 L27.4 17.3 L27.4 27.6 L17.2 27.5 z M0.5 27.5 L0.5 17.2 L4.6 17.2 L4.6 22.8 L4.6 23.3 L5.1 23.3 L10.1 23.3 L10.1 27.4 L0.5 27.5 z M27.5 10.2 L23.4 10.2 L23.4 5.2 L23.4 4.6 L22.9 4.6 L17.3 4.6 L17.3 0.5 L27.6 0.5 L27.6 10.2 z M4.6 10.2 L0.5 10.2 L0.5 0.5 L10.2 0.5 L10.2 4.6 L5.2 4.6 L4.6 4.6 L4.6 5.1 L4.6 10.2 z" class="st0" style="fill:#FF800E;" />
        <path d="M17.7 27 L27 27 L27 17.7 L23.9 17.7 L23.9 22.8 L23.9 23.8 L22.9 23.8 L17.8 23.8 L17.8 27 M1 27 L9.7 27 L9.7 23.9 L5.1 23.9 L4.1 23.9 L4.1 22.9 L4.1 17.8 L1 17.8 L1 27 M27 9.7 L27 1 L17.7 1 L17.7 4.1 L22.8 4.1 L23.8 4.1 L23.8 5.1 L23.8 9.6 L27 9.6 M4.1 9.7 L4.1 5.1 L4.1 4.1 L5.1 4.1 L9.6 4.1 L9.6 1 L1 1 L1 9.7 L4.1 9.7 M28 28 L28 28 L28 28 L16.7 28 L16.7 22.9 L22.8 22.9 L22.8 16.8 L28 16.8 L28 28 L28 28 z M10.7 28 L10.7 28 L10.7 28 L0 28 L0 16.7 L5.1 16.7 L5.1 22.8 L10.6 22.8 L10.6 28 L10.7 28 z M28 10.7 L28 10.7 L28 10.7 L22.9 10.7 L22.9 5.1 L16.8 5.1 L16.8 0 L28 0 L28 10.7 L28 10.7 z M5.1 10.7 L5.1 10.7 L0 10.7 L0 0 L10.7 0 L10.7 5.1 L5.1 5.1 L5.1 10.7 L5.1 10.7 z" class="st1" style="fill:#B55600;" />
      </g>
    </g>
  </g>
</svg>