<?xml version="1.0" encoding="utf-8"?>
<!DOCTYPE svg PUBLIC "-//W3C//DTD SVG 1.1//EN" "http://www.w3.org/Graphics/SVG/1.1/DTD/svg11.dtd">
<svg width="575px" height="487px" viewBox="0, 0, 575, 487" class="svgDam" xmlns="http://www.w3.org/2000/svg" xmlns:xlink="http://www.w3.org/1999/xlink" xmlns:xml="http://www.w3.org/XML/1998/namespace" version="1.1">
  <g id="MapArea">
    <g id="Key_Area">
      <path d="M60.35 485.71 L58.79 486.09 L49.23 477.62 L49.54 477.05 L50.94 475.72 L51.12 475.56 L61.13 484.78 L60.35 485.71 z" class="polygon_1" style="fill:#571D6D;" />
      <path d="M319.13 61.37 L317.46 62.91 L316.11 63.55 L313.54 64.07 L311.4 64.43 L308.19 64.47 L303.95 64.15 L301.65 64.27 L299.2 63.95 L296.54 63.39 L294.89 62.35 L294.06 61.15 L293.7 59.68 L293.03 58.21 L292.44 56.26 L291.61 54.31 L290.54 53.12 L288.44 50.81 L285.3 47.79 L283.31 45.8 L281.18 44.29 L278.4 42.42 L274.62 40.49 L272.6 39.81 L269.39 39.06 L267.69 38.82 L263.77 38.26 L262.54 38.14 L261.78 38.26 L261.31 38.82 L261.03 39.3 L260.83 39.37 L260.4 39.37 L260.12 38.98 L258.26 37.11 L256.1 35.02 L254.79 33.67 L254 32.6 L253.84 31.56 L253.84 30.41 L254.16 29.02 L255.15 26.37 L255.9 24.38 L257.53 21.32 L260.06 18.01 L262.61 15.25 L262.96 14.69 L263.2 14.09 L263.32 13.42 L263.12 12.7 L262.45 12.46 L261.66 12.42 L260.03 12.46 L258.76 12.62 L257.22 13.5 L254.11 15.13 L251.38 16.96 L248.33 19.47 L245.3 21.33 L244.06 22.23 L243.13 22.64 L242.32 22.87 L241.39 22.96 L240.52 23.18 L239.53 23.53 L238.66 24.2 L238.32 24.84 L238.03 26.01 L237.91 26.74 L237.74 28.15 L237.71 29.75 L237.91 30.45 L238.11 31.15 L238.29 32.02 L238.72 33.48 L239.21 34.85 L239.94 36.93 L240.35 38.3 L240.44 39.79 L240.44 41.47 L240.52 42.64 L240.79 44.09 L241.31 44.76 L241.75 45.4 L242.62 46.3 L243.69 47 L244.35 47.56 L245.43 48.23 L246.79 48.92 L248.5 49.68 L250.36 50.5 L251.79 51.15 L253.82 51.53 L255.1 51.96 L256.11 52.63 L257.27 53.77 L257.85 54.64 L258.63 55.52 L259.93 56.64 L260.71 56.96 L261.98 57.31 L263.2 57.8 L264.56 58.38 L265.2 59.08 L266.36 60.13 L267.09 60.98 L268.14 62.36 L268.48 62.85 L268.6 63.12 L268.8 63.35 L269.01 63.41 L269.3 63.44 L269.67 63.23 L270.28 62.91 L271.21 62.71 L271.67 62.8 L272.51 63.06 L273.45 63.51 L274.58 64.32 L275.51 65.34 L276.03 66.74 L276.67 68.31 L277.34 69.77 L277.89 71.28 L279.27 74.91 L280.13 77.87 L280.53 79.86 L280.71 82.3 L280.94 84.7 L281.3 87.37 L281.39 89.04 L281.16 90.83 L280.8 93.14 L280.71 94.23 L280.26 95.54 L279.58 97.03 L278.41 99.14 L277.64 99.96 L276.79 100.82 L276.11 101.86 L275.53 102.85 L274.85 104.66 L274.49 106.29 L274.49 107.38 L274.49 108.51 L274.49 109.77 L274.4 111.04 L273.86 112.69 L272.66 115.34 L270.4 118.87 L269.15 120.64 L267.95 122.28 L266.29 123.89 L264.85 125.41 L263.78 126.86 L262.9 128.44 L259.38 132.92 L257.62 135.44 L254.35 140.05 L252.44 142.48 L249.8 145.05 L247.41 147.8 L245.03 150.72 L243.53 152.67 L241.86 154.62 L240.97 156.66 L240.53 159.05 L240.53 160.74 L241.33 162.42 L243.35 165.47 L244.41 166.09 L245.56 166 L246.26 165.92 L247.23 166.09 L249.18 166.89 L250.76 167.86 L253.06 168.66 L258.53 170.26 L263.65 171.68 L267.71 172.3 L269.73 171.85 L275.47 169.63 L277.22 168.57 L278.22 167.72 L279.17 166.66 L280.65 164.85 L281.51 162.06 L282.15 160.2 L282.46 157.87 L282.57 156.54 L282.46 154.79 L282.31 153.52 L282.57 152.03 L283.31 151.45 L284.31 150.07 L285.05 148.79 L285.11 147.27 L285.74 145.2 L286.17 143.76 L285.9 140.08 L285.96 137.83 L286.07 136.68 L286.47 135.36 L287.22 133.51 L288.19 130.98 L290.55 124.99 L291.47 122.59 L291.87 120.98 L292.27 119.82 L293.13 119.13 L294.1 118.15 L295.37 116.83 L295.76 116.08 L295.86 115.46 L295.86 114.82 L295.43 113.8 L294.97 112.66 L294.63 111.58 L294.48 110.53 L294.51 109 L294.88 107.74 L295.37 107.06 L298.19 104.87 L299.75 103.39 L302.44 101.81 L305.9 100.21 L307.9 99.19 L310.38 97.86 L312.58 97.02 L313.83 96.87 L315.43 96.56 L317.55 96.25 L319.28 95.37 L320.31 94.96 L323.76 94.73 L325.94 94.96 L328.47 94.85 L331.17 94.85 L333.41 95.25 L335.59 95.6 L336.97 95.77 L338.24 95.83 L339.54 95.7 L340.28 95.41 L341.14 94.84 L341.72 93.91 L342.41 92.7 L343.38 91.95 L343.96 91.55 L344.53 91.55 L345.4 91.84 L346.37 92.47 L347.23 93.57 L349.88 96.97 L352.52 101.19 L354.49 104.73 L355.87 106.69 L356.9 107.55 L357.71 107.84 L358.51 107.96 L359.08 107.44 L359.72 106.75 L359.6 105.42 L359.31 102.65 L358.8 100.48 L358.6 98.58 L359.12 96.87 L358.99 93.74 L358.6 90.79 L358.41 89.15 L358.47 87.9 L358.93 86.46 L359.52 85.14 L360.63 83.76 L361.67 82.45 L365.42 78.62 L368.69 76.45 L371.5 74.94 L373.2 74.81 L375.43 75.07 L378.3 75.8 L380.46 76.26 L381.79 76.4 L383.56 75.94 L385.65 76.07 L386.76 76.86 L388.27 78.04 L390.62 79.16 L393.1 79.88 L395.59 81.32 L396.5 81.46 L397.74 81.39 L399.18 81.98 L402.06 83.17 L403.16 83.99 L406.38 86.69 L408.22 87.49 L409.91 87.7 L411.39 88.28 L412.39 89.61 L413.65 91.35 L414.39 92.78 L414.5 94.32 L414.02 96.47 L413.07 99.54 L412.17 101.61 L410.75 103.73 L409.22 105.58 L406.79 108.36 L405.1 110.42 L401.94 113.01 L399.72 114.76 L398.62 115.98 L397.4 117.45 L396.61 119.03 L396.35 120.94 L396.45 122.42 L396.77 124.33 L397.35 126.02 L397.98 127.82 L399.04 130.51 L400.68 133.58 L403 137.34 L404.84 140.04 L407.89 143.78 L408.96 145.32 L412.58 149.38 L417.29 154.5 L422.73 160.06 L425.24 161.93 L428.28 164.19 L432.93 167.88 L439.36 171.92 L443.17 174.11 L446.66 176.22 L451.93 179.27 L454.02 180.63 L456.25 181.8 L457.88 182.06 L459.36 182.37 L460.18 182.67 L461.15 183.7 L461.76 184.57 L462.27 185.65 L463.6 186.57 L465.49 187.6 L469.34 189.83 L473.63 191.73 L475.93 193.01 L477.92 194.45 L481.9 196.91 L487.75 200.37 L493.67 204.01 L498.22 206.58 L501.31 208.7 L502.84 209.63 L505.14 210.24 L507.74 210.71 L510.09 211.78 L513.73 213.39 L515.57 213.95 L516.95 214.16 L518.23 214.41 L520.32 214.88 L521.45 215.03 L523.13 215.44 L524.66 215.75 L526.3 216.06 L528.09 216.98 L529.26 217.65 L530.87 218.84 L531.98 219.28 L533.29 219.42 L535.13 219.52 L536.78 219.62 L537.51 220.25 L539.2 221.86 L539.88 222.88 L540.12 224.15 L541.24 224.73 L542.84 224.88 L544.73 225.17 L546.09 225.17 L547.98 225.17 L548.95 225.32 L549.77 225.61 L550.21 225.95 L550.3 226.39 L549.96 226.73 L549.43 226.87 L548.66 227.02 L547.64 227.07 L546.57 226.92 L542.87 226.02 L541.96 225.95 L541.41 226.05 L541.13 226.3 L540.68 226.96 L540.68 227.41 L540.92 230.22 L540.75 233.85 L539.82 243.83 L539.47 247.48 L538.67 252.4 L538.3 254.26 L538.21 254.86 L536.68 263.04 L535.77 266.32 L534.7 271.44 L534.04 273.78 L533.34 276.16 L532.89 278.57 L532.79 280.49 L533 282.09 L532.86 283.97 L532.86 285.3 L532.89 287.08 L533.13 290.11 L533.69 293.17 L534.38 296.44 L534.8 298.71 L534.97 301.46 L535.22 304.11 L535.08 307.24 L535.32 309.06 L535.61 312.21 L536.68 313.6 L538 314.16 L539.87 314.86 L542.37 315.45 L543.93 315.48 L545.75 315.28 L548.04 314.34 L548.98 313.95 L550.16 313.19 L551.31 311.6 L552.25 310.38 L552.94 308.88 L553.46 307.62 L553.57 306.58 L553.84 305.5 L554.34 303.8 L555.24 301.54 L556.98 297.98 L558.82 295.23 L559.27 294.77 L559.68 294.39 L559.96 294.25 L560.66 294.15 L560.9 293.9 L561.22 293.35 L561.91 292.31 L562.96 290.95 L564.24 288.65 L565.49 286.38 L566.74 284.61 L568.38 282.14 L568.97 281.33 L569.53 280.36 L570.33 278.02 L571.33 275.51 L572.03 273.53 L572.65 271.71 L573.14 271.23 L573.45 271.05 L573.97 271.19 L574.25 271.57 L574.32 272.2 L574.32 273.46 L574.04 275.27 L573.87 276.66 L573.62 278.2 L573.35 279.56 L572.93 281.16 L572.27 282.48 L570.98 284.12 L569.49 286.49 L567.93 289.27 L566.39 292.43 L564.31 296.78 L562.53 299.46 L559.62 304.72 L558.15 307.6 L556.17 310.81 L554.51 313.84 L553.64 315.48 L552.48 317.35 L550.96 318.88 L549.98 319.96 L548.49 321.25 L547.55 321.85 L546.55 322.3 L545.33 322.54 L543.4 322.51 L541.01 322.65 L539.59 322.76 L537.68 322.97 L536.67 323.38 L536.05 323.98 L535.87 324.47 L535.77 324.99 L536.01 326.03 L537.09 327.73 L538.06 329.3 L539.24 331.11 L540.64 332.54 L542.55 333.66 L544.02 334.16 L545.99 335.03 L547.94 335.8 L549.91 336.25 L553.68 337.12 L559.66 338.28 L561.4 338.52 L563.06 338.7 L564.59 338.77 L566.22 338.8 L569.17 338.7 L570.87 338.52 L572.4 338.14 L573.51 337.93 L574.17 337.83 L574.48 337.83 L574.93 337.93 L575 338.11 L574.93 338.35 L574.79 338.59 L574.17 338.94 L572.99 339.4 L571.29 339.74 L568.89 339.88 L563.69 339.74 L560.13 339.29 L556 338.84 L552.84 338 L550.69 337.37 L547.93 336.77 L545.47 336.07 L543.45 335.19 L540.53 333.83 L538.52 332.47 L536.96 331.46 L535.05 329.34 L533.63 327.52 L532.78 325.55 L532.43 323.77 L531.98 321.4 L531.95 319.38 L531.7 317.54 L531.53 316.26 L531.32 314.48 L530.97 312.66 L530.63 310.92 L530.38 308.77 L530.14 306.85 L529.79 304.83 L529.31 302.11 L528.93 300.44 L527.74 297.74 L527.55 295.55 L527.55 293.51 L527.79 290.58 L527.84 287.61 L528.04 285.42 L528.28 282.79 L527.94 280.13 L527.99 278.04 L527.99 275.61 L528.18 273.49 L529.49 268.28 L530.46 264.63 L531 261.56 L532.65 252.62 L533.09 245.92 L534.11 239.07 L534.69 233.96 L534.59 232.16 L534.2 230.99 L533.71 229.6 L533.51 228.09 L532.94 227.24 L532.35 226.87 L531.33 226.29 L530.26 225.75 L528.96 225.36 L527.45 225.32 L526.53 225.12 L525.32 224.54 L523.67 224.34 L521.39 223.95 L519.99 223.46 L516.54 222.27 L511.86 220.41 L507.88 218.56 L502.92 215.84 L498.12 213.38 L487.63 207.03 L480.02 202.41 L474.61 199.49 L472.48 198.4 L471.09 197.37 L469.88 196.9 L469.32 197 L468.63 196.57 L467.79 195.08 L465.88 193.87 L463.7 192.33 L461.4 190.96 L459.82 190.16 L458.57 189.84 L457.17 189.65 L456.01 188.72 L454.15 187.22 L449.16 184.4 L443.53 181.22 L436.24 176.78 L430.27 172.93 L425.9 169.29 L421.51 165.76 L418.07 162.82 L415.75 161.18 L412.59 158.57 L408.48 154.43 L405.46 150.97 L402.16 146.72 L398.39 142.85 L397.45 141.79 L395.24 139.2 L393.66 137.03 L391.75 133.12 L389.8 127.88 L388.38 123.27 L387.32 120.64 L387.17 119.06 L387.22 118.1 L387.69 117.15 L388.8 115.88 L390.7 114.29 L392.33 112.97 L394.7 111.43 L396.24 110.13 L397.35 108.44 L399.3 106.11 L401.41 103.3 L402.62 100.6 L403.36 98.12 L403.41 96.79 L403.41 95.15 L402.76 93.83 L401.65 92.39 L400.32 91.27 L397.72 89.55 L395.33 88.15 L393.01 87.26 L391.51 86.76 L389.57 86.65 L387.3 86.59 L386.08 86.43 L384.47 86.09 L382 84.93 L379.56 84.15 L378.12 83.87 L373.8 83.43 L370.36 83.43 L367.75 83.48 L366.81 83.82 L365.65 84.43 L365.09 85.27 L365.09 86.27 L365.98 87.88 L367.26 89.78 L368.2 91.61 L368.92 93.73 L369.25 95.73 L369.31 97.18 L369.14 97.9 L368.67 99.8 L368.13 102.35 L367.92 103.58 L368.04 104.77 L368.37 105.97 L368.37 106.87 L368.01 108.17 L367.64 109.7 L367.39 110.74 L366.49 111.9 L365.21 112.95 L363.78 114.03 L362.77 114.53 L361.53 114.79 L360.38 114.9 L358.86 114.79 L357.2 114.62 L354.98 114.17 L352.67 113.6 L351.04 112.87 L349.94 112.31 L349.37 111.16 L349.3 110.21 L349.36 108.82 L349.18 107.38 L348.67 106.4 L347.75 105.48 L346.48 104.84 L345.05 104.44 L344.01 104.44 L343.21 104.38 L342.52 104.26 L341.72 103.74 L340.72 103.29 L337.33 102.77 L335.49 102.88 L333.19 103.23 L329 104.09 L326.3 104.79 L324.23 105.19 L320.67 105.94 L317.61 106.78 L316.38 107.02 L314.81 107.33 L313.37 107.7 L312.27 108.01 L311.62 108.32 L311.16 108.72 L310.79 109.23 L310.76 110.25 L310.67 110.89 L310.57 111.51 L310.45 112.03 L310.3 112.31 L310.11 112.4 L309.81 112.34 L309.53 111.91 L308.98 111.29 L308.43 111.02 L307.9 110.99 L307.32 111.14 L306.8 111.51 L306.31 112.06 L305.02 114.78 L303.45 117.29 L301.58 121.23 L300.96 123.08 L300.5 124.58 L300.28 126.31 L299.58 128.59 L298.87 130.67 L298.62 132.24 L298.38 133.75 L297.98 134.61 L297.49 135.57 L296.78 136.65 L296.04 137.99 L295.37 139.53 L295.22 140.23 L295.64 140.62 L296.27 141.26 L296.53 141.68 L296.43 142.26 L296.06 142.9 L295.16 144.42 L293.89 147.82 L292.14 153.95 L290.71 158.62 L289.5 163.24 L288.64 168.53 L288.16 170.44 L287.37 171.98 L286.63 173.2 L285.78 173.99 L283.78 175.37 L281.93 176.01 L277.65 177.13 L272.68 178.72 L269.08 179.63 L266.59 180.24 L261.41 180.18 L259.05 180.18 L256.81 179.51 L254.69 178.36 L252.63 176.96 L250.87 176.29 L250.02 176.29 L248.38 176.59 L246.93 177.38 L246.14 177.75 L245.36 177.81 L244.63 177.26 L242.02 175.92 L240.27 174.65 L236.37 170.53 L234.86 168.22 L234.01 166.15 L233.7 164.38 L233.89 161.46 L234.13 158.24 L234.43 155.44 L234.61 152.35 L234.92 149.37 L235.64 147.18 L235.95 145.72 L236.49 144.74 L237.34 143.4 L238.4 140.76 L238.69 139.93 L239.37 137.74 L240.33 135.77 L241.4 134.44 L242.58 132.84 L244.62 129.4 L245.12 128.07 L245.51 127.28 L245.94 126.67 L246.67 126.22 L247.52 125.76 L248.49 125.36 L249.84 124.57 L251.24 123.57 L251.99 122.89 L252.23 122.28 L252.38 121.52 L252.13 120.68 L252.1 120 L252.17 119.5 L252.42 118.75 L252.96 118.1 L253.42 117.71 L254.03 116.92 L254.38 115.95 L255.24 115.27 L256.45 114.62 L257.45 114.23 L258.74 114.01 L259.92 113.73 L261.18 113.17 L262.07 112.38 L263.32 111.02 L264.53 109.33 L265.25 107.97 L265.75 106.78 L265.93 105.96 L265.88 104.37 L265.98 102.18 L265.93 100.51 L265.83 98.99 L265.83 98.11 L265.88 97.38 L266.3 96.59 L267.28 95.66 L267.96 94.92 L268.74 94.14 L269.31 93.1 L269.88 91.03 L270.24 89.32 L269.88 87.17 L269.73 85.11 L269.88 83.34 L269.94 81.46 L269.94 80.1 L269.78 78.96 L269.47 78.23 L267.91 75.93 L266.29 73.86 L265.51 72.92 L265.1 72.3 L264.47 70.52 L263.69 68.91 L262.92 68.07 L261.25 67.18 L258.24 65.83 L255.69 65.2 L253.12 64.29 L250.99 63.35 L249.07 62.31 L246.83 60.64 L243.61 58.76 L241.9 57.51 L238.37 56.62 L236.42 55.66 L235.23 54.67 L233.62 53.16 L231.85 51.96 L229.88 51.39 L226.08 50.86 L224.03 50.75 L221.95 50.64 L218.73 50.43 L216.91 50.75 L215.25 51.48 L212.86 52.78 L210.73 53.82 L209.11 55.1 L207.29 56.04 L206.46 56.67 L205.26 57.81 L203.55 59.12 L202.35 60.74 L199.65 63.55 L197.87 65.57 L195.79 67.92 L193.4 70.11 L191.58 71.78 L188.36 73.4 L185.76 74.71 L183.58 75.49 L181.09 76.22 L179.74 76.11 L176.94 75.33 L174.4 74.29 L172.74 73.45 L170.76 71.94 L169.2 70.32 L167.9 68.29 L166.71 66.04 L165.57 64.74 L164.22 63.49 L161.64 62.16 L160.5 61.95 L159.04 62.05 L157.43 61.63 L155.82 60.9 L153.79 60.17 L152.24 59.86 L151.2 59.91 L148.7 60.12 L146.36 60.59 L144.23 60.75 L142.62 61.53 L141.3 62.86 L139.48 64.58 L137.61 66.2 L136.42 67.29 L135.27 68.91 L134.34 69.75 L133.87 71.05 L133.71 71.94 L133.72 73.03 L133.46 74.18 L133.14 75.59 L132.99 76.46 L132.99 77.4 L133.14 78.6 L133.46 79.54 L134.03 80.84 L134.81 82.46 L135.59 83.87 L136.52 85.49 L136.78 86.66 L136.78 87.97 L137.04 89.17 L137.67 90.58 L138.81 92.35 L140.06 93.81 L141.36 95.17 L142.14 95.93 L142.56 96.71 L142.82 97.54 L142.87 98.64 L142.97 99.79 L143.18 100.78 L143.44 101.61 L143.96 102.45 L144.33 103.07 L144.74 103.65 L144.79 104.07 L144.69 104.54 L144.48 105 L143.91 105.42 L143.24 106 L142.72 106.52 L142.25 107.14 L141.88 107.88 L141.62 108.49 L141.52 109.43 L141.47 110.37 L141.36 111.05 L140.85 111.88 L140.33 112.56 L139.39 113.82 L138.4 115.43 L137.57 116.63 L135.24 119.61 L134.51 120.86 L134.09 121.85 L133.73 122.53 L133.62 123.26 L133.83 124.1 L134.51 124.62 L135.18 124.72 L135.81 124.77 L136.43 124.72 L137.63 124.56 L138.77 123.99 L140.02 123 L141.11 121.85 L143.03 120.28 L144.74 119.29 L146.3 118.56 L147.45 118.25 L148.9 118.3 L150.51 118.61 L151.5 118.88 L152.33 119.55 L153.37 120.18 L154.36 120.86 L155.24 121.38 L158.07 122.64 L159.62 123.53 L160.82 124.2 L162.07 125.56 L162.9 126.97 L163.83 128.17 L164.88 129.97 L165.86 132 L165.99 134.07 L165.66 135.74 L165.59 137.41 L165.73 138.69 L166.06 139.96 L166.96 141.93 L167.62 142.59 L168.69 142.88 L170.21 142.84 L170.79 142.8 L171.73 142.47 L179.4 146.11 L182.4 147.64 L184.42 149.29 L186.18 150.61 L186.92 151.35 L188 152.25 L188.9 153.9 L190.09 155.59 L191.57 157.12 L192.81 158.23 L194.49 159.93 L195.81 161.37 L196.79 162.48 L197.77 163.91 L199.69 167.45 L201.05 170.84 L202.05 173.83 L202.76 176 L203.27 179.12 L203.32 181.4 L203.42 183.11 L203.62 183.87 L203.87 184.48 L204.22 184.88 L204.78 185.44 L205.18 187.06 L205.18 187.56 L204.98 188.98 L205.18 190.19 L205.64 193.02 L206.34 196.25 L206.9 198.93 L208.06 202.9 L209.12 207.1 L210.68 210.69 L211.84 212.56 L212.5 213.22 L212.65 213.78 L212.65 214.79 L212.85 216.15 L213.5 217.96 L213.81 219.32 L214.11 221.7 L215.11 224.18 L216.42 226.1 L216.98 227.87 L217.28 229.59 L217.58 230.6 L217.7 232.04 L217.35 233.81 L217.5 234.57 L217.86 235.03 L218.46 235.13 L219.72 235.08 L221.58 234.01 L223.9 232.85 L225.36 232.5 L226.82 232.45 L228.03 232.14 L228.88 231.94 L229.74 232.09 L230.14 232.75 L230.14 234.32 L229.64 235.58 L228.58 237.61 L227.52 238.82 L225.5 240.22 L223.34 241.58 L222.28 242.19 L221.73 242.85 L221.63 243.66 L221.63 244.26 L221.78 246.03 L221.68 247.3 L221.43 248.46 L221.22 249.93 L221.38 250.99 L221.88 252.74 L222.13 254.66 L222.33 257.55 L222.28 259.62 L222.99 261.44 L223.35 263.32 L223.76 265.92 L223.93 267.02 L224.05 268.85 L224.25 269.66 L224.95 271.02 L227.07 273.63 L228.53 274.74 L229.38 275.86 L229.64 276.56 L229.33 277.93 L228.13 280 L227.57 281.06 L227.37 281.82 L227.57 282.38 L228.28 283.14 L229.49 283.95 L230.89 284.35 L231.55 284.96 L232.14 285.87 L232.58 287.08 L232.63 288.65 L232.31 289.77 L231.33 291.93 L231.24 293.41 L231.24 294.98 L232.01 297.75 L232.41 300.13 L233.13 301.66 L236.03 304.62 L236.88 305.34 L237.2 305.79 L236.85 307.17 L236.49 308.69 L236.58 309.46 L237.28 310.78 L238.62 312.85 L239.65 314.19 L240.51 316.1 L241.14 318.17 L241.36 320.05 L241.17 321.69 L241.46 322.64 L242.31 323.47 L243.51 323.59 L244.42 323.5 L245.24 323.4 L245.72 323.12 L246.22 322.71 L247.31 321.66 L248.57 320.87 L250.34 320.04 L253.78 319.34 L254.76 319.15 L255.74 319.19 L255.93 319.53 L256.15 320.67 L255.86 322.32 L255.61 323.34 L255.29 324.45 L254.79 325.33 L253.75 326.16 L253.09 326.76 L252.74 327.39 L252.75 328.25 L253.05 329.45 L252.99 330.46 L252.83 331.35 L252.45 332.05 L251.92 332.46 L251.22 332.87 L250.05 333.25 L249 333.84 L248.52 334.41 L247.96 335.17 L247.26 336.06 L246.79 336.5 L246.19 336.88 L245.12 337.07 L243.25 337.55 L242.31 338.08 L241.57 338.63 L241.04 339.58 L240.63 340.11 L240.19 340.34 L239.71 340.37 L238.61 340.21 L237.25 340.31 L236.33 341.12 L235.92 341.53 L235.55 342.96 L235.43 345.5 L235.1 348.12 L234.78 350.77 L233.74 353.25 L232.48 355.08 L230.22 357.86 L228.55 359.51 L227.22 360.17 L224.32 361.19 L221.61 362.17 L219 362.36 L217.2 362.2 L213.85 361.79 L211.9 361.38 L210.35 361.13 L208.65 361.1 L208.21 361.13 L207.39 361.54 L204.58 363.03 L203.63 363.54 L202.64 363.83 L200.62 363.96 L198.34 364.56 L193.5 365.64 L190.22 366.28 L188.21 367.68 L186.76 368.71 L185.05 368.09 L182.89 366.91 L181.71 365.92 L181.45 365.2 L180.55 363.48 L180.24 362.87 L179.79 362.56 L179.07 362.37 L176.36 361.7 L174.85 361.2 L174.09 360.94 L172.7 360.25 L171.88 360.02 L171.22 359.93 L170.23 359.95 L169.55 359.93 L168.91 359.93 L168.34 360.54 L168.16 362.01 L168.42 363.27 L168.69 363.74 L169.57 365.14 L170.4 368.01 L170.43 369.14 L170.53 370.13 L170.78 371.05 L170.46 372.15 L169.74 372.73 L168.92 373.36 L167.94 373.64 L166.93 373.87 L165.54 373.71 L164.91 373.39 L164.47 372.41 L164.22 370.87 L163.21 370.37 L161.48 368.85 L159.74 367.05 L158.83 364.84 L158.16 362.51 L158.26 360.4 L158.45 358.85 L158.96 357.57 L159.66 355.77 L160.62 353.84 L160.69 352.55 L160.43 351.72 L159.98 351.27 L158.76 350.94 L156.9 350.62 L154.47 350.24 L152.1 349.98 L148.57 349.08 L146.97 348.43 L143.21 347.85 L139.37 346.95 L135.97 346.11 L134.69 345.86 L133.54 345.92 L132.25 345.92 L129.88 345.6 L128.34 344.96 L127.21 344.28 L126.1 343.28 L125.33 342.25 L125.12 340.85 L124.69 340.06 L124.11 339.42 L123.34 338.97 L123.09 338.33 L123.22 337.81 L123.54 337.17 L123.54 336.27 L123.06 335.21 L122.55 334.82 L121.32 334.56 L120.74 333.91 L119.9 332.75 L119.32 331.71 L119.13 330.81 L119.19 329.71 L119.32 327.96 L119.32 326.08 L118.87 324.52 L118.29 323.88 L117.32 323.42 L115.39 323.1 L113.78 323.1 L111.01 323.55 L108.23 324.53 L105.33 325.37 L103.53 326.02 L100.26 326.22 L97.81 326.09 L96.27 326.28 L93.17 327.19 L91.3 327.77 L89.52 327.9 L87.45 327.81 L86.01 327.64 L81.89 327.58 L80.53 327.84 L77.5 328.55 L74.6 329.65 L70.26 331.76 L63.49 335.32 L59.17 337.91 L56.46 339.79 L48.65 345.12 L46.02 347.77 L42.49 350.82 L39.63 354.08 L38.5 356.18 L37.97 358.23 L37.91 360.71 L38.16 362.16 L38.72 362.91 L39.29 363.51 L40.81 363.83 L41.62 364.26 L42.47 364.97 L44.76 367.52 L47.34 369.47 L49.6 370.71 L51.05 371.17 L54.5 371.5 L56.65 371.11 L59.83 370.64 L61.63 370.18 L62.94 369.79 L63.31 369.29 L63.95 368.65 L65.15 367.23 L66.06 366.13 L67.3 365.57 L68.43 365.35 L69.56 365.42 L71.12 365.71 L72.17 367.02 L73.09 368.33 L74.16 370.8 L75.61 373.21 L76.67 374.95 L77.57 376.32 L79.05 377.1 L80.15 377.6 L81.35 377.81 L82.76 378.23 L84.92 378.66 L86.12 378.87 L87.42 378.91 L88.48 378.87 L89.75 378.52 L90.94 377.61 L92.43 376.41 L93.66 375.52 L94.65 375.09 L95.6 375.02 L96.63 375.34 L98.01 375.59 L98.75 375.52 L99.28 375.16 L100.55 374.17 L101.75 373.35 L102.6 372.89 L103.62 372.82 L104.88 372.25 L106.68 370.79 L107.99 370.15 L109.36 369.83 L111.06 369.97 L113.28 370.54 L115.37 371.57 L116.14 372.46 L116.5 373.17 L116.39 373.73 L116.07 374.16 L115.51 374.76 L115.01 375.22 L114.28 376.28 L113.22 379.13 L113.1 380.24 L111.91 381.87 L111.68 382.7 L111.68 383.24 L111.97 383.71 L113.8 383.84 L116.68 383.85 L118.28 384.38 L119.4 385.63 L120.47 386.11 L121.77 386.11 L124.26 384.26 L125.62 383.07 L126.21 383.13 L128.11 383.79 L129.29 384.92 L130.78 386.7 L132.26 388.25 L133.63 389.53 L135.71 392.06 L136.45 393.01 L137.61 393.38 L138.8 393.63 L139.8 393.31 L141.31 392.94 L142.27 392.86 L143.01 393.11 L143.53 393.75 L143.85 394.82 L144.4 395.62 L145.48 397.03 L146.63 399.02 L147.52 400.13 L148.43 401.67 L148.8 402.29 L148.8 403.56 L148.95 404.53 L149.72 406.45 L150.64 408.49 L151.45 409.86 L152 411.07 L152.22 413.2 L152.3 414.32 L152.2 415.73 L151.92 417 L151.58 418.46 L151.14 420.02 L151.38 421.11 L152.05 422.36 L153.19 423.62 L154.11 424.62 L154.9 425.12 L155.67 425.44 L156.44 425.51 L157.15 425.44 L157.87 425.49 L158.81 425.64 L159.95 425.86 L161.39 426.03 L162.4 426.06 L163.71 425.96 L165.62 425.78 L166.78 425.46 L167.99 425.06 L169.2 425.19 L170.24 425.44 L172.07 425.73 L174.28 426.63 L176.09 427.35 L178.14 428.02 L180.31 428.4 L182.93 428.69 L184.91 428.64 L186.36 428.8 L187.72 429.1 L189.06 429.47 L190.19 429.62 L190.89 429.5 L191.7 429.27 L192.34 428.73 L193.3 427.25 L194.43 426.28 L195.47 425.83 L196.9 425.56 L198.16 425.56 L199.08 425.86 L200.36 426.8 L201.54 427.5 L202.18 428.02 L203.25 429.04 L204.41 429.81 L204.95 429.98 L205.4 430.03 L205.64 429.71 L206.26 429.43 L207.35 428.54 L208.36 427.4 L209.28 426.68 L210.07 426.23 L210.9 426.01 L211.61 425.98 L212.72 426.01 L213.98 425.71 L215.32 425.49 L216.33 425.49 L216.93 425.71 L217.47 426.58 L218.21 427.62 L219.36 430.2 L219.9 432.06 L221.29 435.02 L222.33 438.07 L222.72 438.81 L223.76 439.83 L225.94 440.72 L227.59 441.57 L228.71 442.26 L229.4 442.96 L229.6 443.55 L229.57 444.27 L229.25 444.74 L228.63 444.94 L227.84 445.04 L227.05 444.94 L226.56 444.64 L225.84 443.63 L225.42 442.83 L224.95 442.48 L224.33 442.29 L223.34 442.14 L221 441.81 L219.54 441.62 L218.7 441.54 L217.93 441.62 L217.29 441.94 L216.33 442.44 L215.56 443.01 L214.55 443.83 L214.18 444.15 L213.68 444.17 L213.31 444.02 L213.04 443.78 L212.92 443.23 L213.02 442.63 L213.24 441.89 L213.76 441.19 L214.33 440.65 L215 440.09 L215.72 439.52 L216.19 438.8 L216.51 438.2 L216.76 437.61 L216.83 437.08 L216.81 436.64 L216.61 436.31 L215.83 435.83 L214.92 435.11 L214.42 434.39 L214.05 433.69 L213.73 432.8 L213.14 431.86 L212.35 431.14 L211.68 430.81 L211.16 430.67 L210.59 430.69 L210.15 431.01 L209.75 431.56 L209.62 432.41 L209.55 433.13 L209.15 434.23 L208.58 435.59 L207.57 436.61 L206.71 437.11 L205.84 437.21 L205 437.13 L204.33 436.83 L201.05 434.75 L200.06 433.76 L199.37 432.69 L198.9 432.24 L198.45 432.09 L198.08 432.09 L197.64 432.27 L197.22 432.74 L196.58 433.83 L195.24 435.62 L194.18 437.03 L193.19 437.83 L192.57 437.98 L191.83 438.03 L191.12 437.73 L190.21 437.51 L189.49 437.13 L188.7 436.39 L187.71 435.74 L186.28 435.1 L185.56 434.78 L184.7 434.33 L183.98 434.18 L183.51 434.18 L183.26 434.33 L183.11 434.78 L183.04 435.2 L182.99 435.99 L182.87 436.89 L182.76 437.86 L182.54 439.08 L181.83 439.82 L181.13 440.35 L180.47 440.79 L179.7 440.94 L179.38 440.84 L178.98 440.5 L178.61 439.97 L178.23 438.65 L177.89 437.98 L177.22 437.5 L176.73 436.98 L176.36 436.39 L175.49 435.67 L174.55 435.15 L173.63 434.42 L172.69 433.55 L172.39 433.28 L171.87 433.21 L171.53 433.43 L171.2 433.8 L170.73 434.55 L170.46 435.09 L170.02 435.39 L169.35 435.59 L168.68 435.74 L168.14 435.71 L167.5 435.64 L166.25 434.84 L165.83 434.4 L165.36 434.07 L164.84 433.87 L164.37 433.75 L163.8 433.82 L163.41 434 L163.01 434.4 L162.47 434.69 L161.87 434.79 L161.18 434.79 L160.51 434.67 L159.8 434.1 L159.35 433.6 L158.78 433.1 L158.24 432.91 L157.67 432.73 L156.97 432.75 L156.38 432.95 L155.78 433.3 L155.29 433.27 L154.62 433.15 L153.56 432.98 L152.47 432.88 L150.76 432.45 L149.16 432.07 L147.99 431.83 L146.8 431.12 L146.06 430.24 L145.81 429.37 L145.72 428.47 L145.72 427.05 L145.57 426 L145.33 425.26 L144.24 424.79 L143.68 424.27 L143.63 423.65 L143.86 423.08 L144.34 422.37 L144.52 421.57 L144.29 420.95 L143.63 419.67 L142.17 418.2 L141.41 417.54 L140.99 416.97 L141.03 416.5 L141.17 415.98 L141.88 415.55 L142.91 415.47 L143.47 414.95 L143.29 413.91 L142.96 413.15 L142.2 412.58 L141.54 412.25 L140.88 412.39 L140.31 412.91 L139.65 413.48 L139.09 413.95 L138.33 414.29 L136.4 414.43 L134.84 414.19 L133.76 413.76 L133.52 413.34 L133.48 412.77 L133.66 412.25 L134.8 411.4 L135.98 410.5 L136.31 409.97 L136.02 409.45 L135.55 408.98 L134.84 408.74 L133.48 408.74 L131.45 409.41 L130.41 409.55 L128.52 408.13 L126.19 406.78 L124.92 405.59 L124.26 404.88 L122.99 404.22 L120.72 403.37 L118.98 402.9 L115.74 401.99 L114.28 401.37 L112.44 400.14 L110.18 398.86 L108.72 397.96 L107.63 397.54 L106.26 397.3 L104.61 397.25 L103.25 397.54 L102.49 398.15 L101.78 399.48 L101.45 400.43 L101.5 401.8 L101.64 402.75 L101.88 403.79 L102.07 404.74 L101.98 405.26 L100.62 408.63 L100.14 409.56 L98.94 410.53 L97.39 411.24 L96.17 411.61 L95.69 411.68 L95.03 411.27 L94.55 410.83 L94.07 409.42 L93.55 407.83 L93.07 407.16 L92.56 406.75 L91.97 406.71 L91.27 407.01 L90.71 407.64 L90.16 408.46 L89.75 409.46 L88.79 412.64 L88.17 414.5 L87.95 415.02 L87.5 415.31 L87.1 415.5 L86.65 415.5 L85.95 415.46 L84.88 415.09 L83.63 414.61 L83.11 414.57 L82.78 414.68 L82.41 415.02 L81.97 415.54 L81.56 416.02 L81.1 416.35 L80.32 416.68 L79.51 416.83 L78.7 416.9 L77.37 417.42 L76.59 417.98 L75.49 418.83 L74.53 419.87 L73.94 420.94 L73.31 422.13 L72.98 423.09 L72.5 424.32 L72.13 426.19 L72.24 427.08 L72.2 428.34 L71.72 429.19 L70.98 429.71 L69.65 430.1 L68.4 430.91 L67.62 431.76 L66.85 432.99 L66.55 433.8 L66.48 434.32 L66.66 435.4 L67.22 436.19 L68.18 437.01 L69.32 437.6 L70.06 438.46 L71.06 439.6 L71.58 440.58 L72.02 441.36 L72.24 442.29 L72.69 443.77 L73.34 444.62 L74.94 446.51 L75.77 447.6 L75.94 447.96 L76.09 448.61 L77.12 450.9 L78.12 452.57 L78.71 454.24 L79.82 457 L80.19 457.78 L80.36 460.44 L80.4 461.14 L80.63 463.23 L81.26 464.67 L81.74 465.53 L83.03 466.73 L83.07 467.44 L82.92 468.03 L82.18 469.03 L81.63 470.66 L81.26 471.85 L80.93 473.48 L80.25 474.68 L79.33 476.13 L78.19 477.21 L77.52 477.54 L77.04 477.69 L76.53 477.69 L76.08 477.65 L75.6 477.43 L74.98 477.06 L73.87 476.35 L73.43 476.06 L72.95 475.83 L72.58 475.83 L72.17 476.06 L72.06 476.54 L72.09 477.41 L72.27 478.63 L72.57 479.71 L72.68 480.82 L72.68 481.71 L72.49 482.75 L72.09 483.6 L71.46 484.19 L71.02 484.6 L70.43 484.82 L69.87 484.86 L69.36 484.95 L69.3 485 L69.06 485.01 L68.29 484.86 L67.55 484.6 L66.85 484.12 L65.63 483.01 L65.22 482.86 L64.74 482.82 L63.97 483.15 L62.75 483.9 L62.05 484.56 L61.87 484.78 L51.86 475.56 L53.45 474.16 L54.92 472.68 L56.53 471.02 L58.01 469.68 L58.82 468.86 L59.46 468.08 L60.45 467.04 L61.08 466.18 L61.22 465.62 L60.94 465.05 L60.27 464.38 L59.28 463.42 L57.91 462.07 L56.46 460.97 L52.88 458.4 L51.75 457.55 L48.9 456.1 L46.99 454.93 L44.89 454.06 L42.17 452.82 L40.44 451.97 L37.86 450.48 L35.48 449.19 L34.14 448.66 L32.83 448.34 L31.7 448.16 L30.29 448.16 L29.27 448.27 L28.6 448.63 L28.03 449.51 L27.47 450.08 L27 450.12 L26.51 449.63 L25.44 448.61 L24.54 448.23 L23.69 448.01 L22.65 447.92 L21.7 448.11 L20.45 448.63 L19.38 449.34 L18.64 450.11 L18.24 450.4 L17.24 450.47 L16.04 450.99 L14.93 451.33 L14.31 451.4 L13.55 451.23 L13.29 450.97 L12.68 450.97 L12.63 450.71 L12.73 450.47 L12.96 450.14 L13.15 449.9 L13.06 449.52 L12.61 449.02 L11.87 448.81 L10.51 448.61 L9.24 448.11 L6.78 447.28 L5.07 446.26 L4.19 445.51 L3.86 444.72 L3.88 443.28 L3.88 441.64 L3.93 441.02 L3.81 440.85 L2.94 440.95 L2.09 441.19 L1.35 441.11 L0.79 440.95 L0.33 440.58 L0.05 439.91 L0 439.49 L0.24 438.8 L0.61 437.82 L1.37 436.68 L1.68 435.74 L1.85 434.7 L1.82 433.91 L1.51 432.94 L1.06 432.09 L0.88 431.07 L0.8 430.43 L1.02 429.51 L1.16 428.63 L1.44 428.25 L1.94 428.06 L2.79 428.06 L3.29 428.1 L3.71 428.06 L4.21 427.94 L4.8 427.63 L5.23 427.2 L5.92 426.17 L6.75 425.15 L7.84 423.89 L9.48 421.91 L9.92 421.24 L10.23 420.6 L10.63 419.65 L10.96 418.08 L11.51 417.1 L11.87 416.62 L12.41 416.24 L13.07 415.86 L13.95 415.69 L14.75 415.39 L15.04 415.01 L15.16 414.57 L15.13 414.28 L14.97 413.88 L14.49 413.33 L14 412.71 L13.52 411.93 L13.24 411.12 L12.79 410.53 L12.43 409.79 L12.13 409.22 L11.96 408.63 L11.91 408.07 L11.94 407.66 L12.17 407.4 L12.77 407.19 L13.31 406.95 L13.38 406.81 L13.24 406.5 L13.03 406.24 L12.5 406 L11.91 405.36 L11.72 404.74 L11.7 404.05 L11.82 403.63 L12.17 403.31 L12.6 403.21 L13.45 403.26 L14.49 403.66 L15.7 403.99 L16.55 404.14 L16.98 404.16 L17.9 404.21 L18.63 404.07 L18.87 403.95 L19.03 403.76 L19.03 403.42 L18.8 403 L18.49 402.02 L18.37 401.48 L18.35 400.93 L18.45 399.53 L18.38 398.49 L18.11 397.66 L17.76 397.04 L17.55 396.47 L17.33 396.04 L17.33 395.57 L17.38 395.07 L17.38 394.35 L17.29 394.02 L16.88 393.88 L15.77 393.69 L14.83 393.62 L13.95 393.36 L12.15 393.06 L11.25 392.92 L10.3 392.87 L9.66 392.82 L9.19 392.66 L8.79 392.33 L8.65 392.09 L8.55 391.71 L8.6 391.52 L9.05 391.35 L9.92 391.19 L11.11 390.95 L12.1 390.76 L12.67 390.69 L12.97 390.45 L13.25 390.19 L13.23 390.12 L12.22 388.95 L11.87 388.12 L11.65 387.8 L11.56 386.54 L11.39 385.27 L11.35 385.01 L11.2 384.76 L10.79 384.35 L10.3 384.06 L9.87 383.89 L9.24 383.65 L8.15 382.7 L7.57 381.81 L7.35 381.11 L7.3 380.61 L7.35 380.09 L7.41 379.56 L7.71 378.86 L8.21 377.75 L9.07 376.68 L9.51 375.96 L9.79 374.57 L9.93 373.6 L9.93 372.57 L9.65 371.35 L9.57 370.76 L9.71 370.37 L9.9 370.21 L10.2 370.21 L10.67 370.26 L11.37 370.6 L12.8 370.96 L13.75 371.11 L14.31 370.86 L14.89 370.11 L15.52 369.28 L16.21 368.31 L16.93 367.11 L18.04 365.83 L19.23 364.42 L19.95 363.65 L21.36 362.32 L22.25 361.46 L22.77 360.65 L23.69 359.46 L24.63 357.99 L25.72 356.87 L26.3 356.68 L27.07 356.47 L28.17 355.05 L29.11 353.36 L30.64 350.62 L31.72 348.81 L32.72 347.2 L34.01 345.59 L35.37 344.4 L36.5 343.09 L38.06 341.76 L38.72 340.76 L39 339.84 L39.47 338.98 L40.08 338.29 L40.66 337.76 L41.47 337.14 L41.94 336.41 L42.43 335.69 L42.88 335 L43.24 334.41 L43.73 333.58 L44.52 332.87 L46.88 330.62 L48.15 329.25 L48.81 328.29 L49.53 327.54 L50.16 326.9 L50.88 325.66 L51.91 323.97 L52.11 323.34 L52.16 322.8 L51.93 322.23 L51.64 321.65 L50.88 321.23 L49.65 320.66 L48.99 320.23 L48.74 319.78 L48.7 319.39 L48.93 319.01 L49.13 318.46 L49.52 318.15 L49.93 317.88 L50.69 317.7 L52.09 317.68 L53.33 317.82 L54.65 318.49 L56.32 318.87 L58.12 319.73 L59.71 320.37 L60.27 321.06 L61.8 321.21 L62.32 321.33 L62.96 321.19 L63.89 320.65 L64.32 319.95 L65.1 318.97 L66.05 318.09 L67.03 317 L68.47 315.12 L70.53 312.35 L71.61 310.96 L72 310.53 L72.7 310.31 L73.13 310.31 L73.7 310.62 L74.4 311.44 L74.92 312.25 L75.39 313.15 L75.47 313.66 L75.78 314.12 L76.07 314.57 L76.58 314.97 L77.89 315.6 L79.39 315.99 L80.35 316.21 L80.97 316.34 L81.59 316.38 L82.58 316.11 L83.67 315.77 L84.31 315.56 L84.76 315.48 L85.92 315.69 L86.45 315.75 L87.35 315.81 L87.91 315.77 L88.46 315.48 L89.18 314.81 L90.34 313.19 L90.78 312.57 L90.83 311.87 L90.83 310.89 L90.78 309.8 L90.72 308.63 L90.47 307.87 L90.79 306.86 L91.32 305.58 L91.64 304.38 L91.75 303.9 L92.02 303.08 L91.37 301.63 L91.06 301.06 L91.39 300.79 L92.19 300.83 L92.97 300.24 L93.42 299.55 L94.61 298.13 L96.25 295.07 L98.19 292.83 L99.32 291.18 L100.7 289.87 L101.85 289.26 L103.11 288.85 L103.51 288.72 L103.76 288.53 L103.87 288.31 L103.93 287.79 L103.96 287.35 L103.93 286.7 L103.92 286.22 L103.93 285.81 L104.02 285.57 L104.23 285.5 L104.61 285.56 L104.91 285.72 L105.25 285.86 L105.53 285.9 L105.81 285.88 L105.95 285.76 L106.14 285.48 L106.9 284.78 L108.47 283.54 L108.83 283.28 L109.55 283.24 L109.81 283.52 L110.11 284.04 L110.51 284.96 L110.89 285.7 L111.53 287.32 L111.75 288.66 L111.94 292.44 L111.64 293.36 L110.36 295.04 L107.19 297.96 L105.66 299.44 L104.43 300.39 L102.97 303.4 L102.21 304.9 L101.33 307.24 L100.8 308.37 L100.44 310.22 L100.39 311 L100.47 311.44 L100.66 311.69 L100.94 311.81 L101.39 311.81 L102 311.44 L102.44 311.02 L103.08 310.27 L103.83 309.27 L104.89 308.07 L105.95 307.09 L106.86 306.22 L108.11 305.5 L108.98 305.02 L110.5 304.57 L111.64 304.07 L112.34 303.46 L113.08 302.73 L113.56 302.18 L114 301.9 L114.47 301.79 L114.89 301.9 L115.6 302.46 L116.51 303.57 L117.34 303.99 L118.04 304.69 L119.09 306.89 L121.02 310.76 L121.66 311.15 L122.52 311.12 L123.3 310.96 L124.12 310.89 L125.35 311.1 L127.34 312.84 L128.36 313.47 L129.25 313.74 L129.67 314.17 L129.95 314.87 L130.08 315.9 L130.45 316.82 L130.89 317.46 L131.72 318.33 L132.5 319.11 L134.18 320.16 L135.74 321.27 L136.98 322.25 L137.82 322.67 L138.54 322.92 L139.54 322.95 L140.21 322.89 L141.01 322.75 L141.84 322 L142.85 320.48 L143.13 319.53 L143.16 318.97 L143.04 318.41 L142.68 317.94 L142.27 317.41 L142.07 316.93 L142.04 316.49 L142.16 316.13 L142.43 315.73 L142.94 315.36 L143.46 315.02 L143.82 314.66 L144.16 314.24 L144.8 312.71 L146.38 309.06 L147.13 307.61 L147.66 306.89 L148.1 306.41 L148.58 305.91 L149.44 305.41 L150.75 304.51 L151.53 303.87 L152.53 302.78 L153.61 301.3 L155.28 298.58 L156.81 296.07 L159.48 292.06 L160.37 290.89 L161.12 289.55 L161.56 288.63 L161.98 287.87 L162.2 287.18 L162.12 286.4 L161.7 284.87 L161.15 283 L161 281.81 L160.96 281.29 L161.37 281.06 L161.93 281.06 L163.23 281.18 L164.71 281.36 L165.27 282.03 L165.6 282.7 L166.01 283.53 L166.31 284.53 L166.72 285.73 L166.98 286.66 L166.77 288.18 L166.6 289.24 L166.63 290.16 L166.68 292.19 L166.99 293.11 L167.27 294.25 L168.04 295.31 L168.38 295.79 L168.38 296.54 L168.32 297.15 L168.1 297.63 L168.04 297.74 L167.26 298.2 L165.31 299.68 L163.48 300.9 L162.15 301.8 L161.41 302.43 L160.85 302.65 L160.28 303.1 L159.91 303.51 L159.77 304.03 L159.8 304.32 L159.82 304.73 L159.72 305.33 L159.61 306.62 L159.53 307.06 L158.67 307.73 L158.36 308.24 L157.78 309.52 L156.25 310.24 L154.04 310.6 L153.52 311.39 L153.52 312.33 L153.63 313.38 L153.66 314.53 L153.49 315.59 L153.07 316.85 L152.66 318 L152.33 318.78 L151.91 320.4 L151.23 322.9 L150.77 323.99 L150.47 324.55 L149.93 325.57 L149.52 326.5 L149.08 327.17 L149.05 327.55 L149.31 328.05 L149.77 328.53 L150.37 328.99 L151.53 329.69 L153 330.32 L154.78 331 L155.93 331.48 L157.87 332.02 L159.43 332.3 L159.87 332.35 L160.36 332.28 L161.05 332.04 L161.82 331.83 L162.93 331.46 L163.67 331.28 L164.35 331.32 L165.56 331.93 L166.16 332.34 L166.69 333.02 L167.09 333.32 L168.03 333.95 L169.17 334.41 L170.21 334.88 L171.2 335.15 L171.85 335.29 L172.33 335.18 L172.8 334.99 L173.3 334.93 L174.24 334.28 L175.52 333.58 L176.24 333.1 L177.07 332.43 L178.18 331.15 L178.81 330.76 L179.29 330.57 L180.08 330.39 L180.7 330.29 L181.12 330.06 L182.33 329.15 L183.21 328.55 L184.09 328.06 L184.88 327.88 L185.73 327.67 L186.35 327.6 L187.23 327.67 L187.7 327.74 L188.46 327.99 L189.06 328.2 L189.59 328.6 L190.49 329.22 L191.14 329.67 L191.41 329.88 L193.08 329.82 L194.87 329.11 L196.67 328.75 L199.37 327.62 L200.66 326.69 L203.1 325.72 L207.32 324.62 L208.5 324.19 L213.87 321.18 L215.85 319.87 L216.93 318.96 L217.78 317.94 L218.01 316.41 L218.06 315.68 L218.35 314.99 L219.25 314.08 L220.1 313.23 L220.16 312.38 L220.16 311.24 L219.88 310.45 L219.2 309.42 L218.91 308.57 L218.63 307.6 L218.63 305.96 L218.91 304.02 L218.91 303.06 L218.18 301.72 L217.72 300.87 L217.5 299.84 L217.67 298.93 L217.95 297.97 L218.12 297 L218.01 296.21 L217.55 295.35 L216.76 294.39 L216.03 293.59 L215.52 292.85 L215.4 292.23 L215.35 291.32 L215.29 290.07 L215.35 288.76 L215.12 287.68 L214.64 286.16 L213.52 284.75 L213.22 283.49 L212.71 281.11 L212.51 278.99 L211.96 277.07 L211.81 275.8 L211.25 275.04 L210.9 274.34 L210.75 273.78 L210.9 273.17 L211.71 272.16 L212.11 271.5 L212.26 270.54 L212.51 269.04 L212.15 268.13 L212.47 267.01 L211.9 266.06 L211.8 264.03 L211.55 262.31 L211.55 260.9 L211.3 259.33 L210.74 258.39 L210.69 257.59 L210.49 256.48 L210.39 254.86 L210.28 253.29 L209.33 251.47 L208.92 249.65 L208.52 247.47 L207.81 245.98 L207.36 244.81 L206.5 243.85 L205.45 243.25 L204.84 242.44 L204.69 241.38 L204.79 238.09 L204.78 233.1 L204.78 232.03 L204.78 231.33 L204.68 230.92 L204.28 230.62 L202.92 230.26 L201.91 229.71 L201.71 229.35 L201.76 228.85 L202.42 227.53 L202.31 226.65 L202.31 225.49 L201.96 224.02 L201.96 223.16 L202.16 222 L202.57 221.29 L202.97 220.28 L203.22 219.17 L203.17 217.7 L202.92 216.18 L201.56 212.96 L200.5 211.09 L198.99 209.02 L197.68 206.08 L196.37 204.16 L195.56 202.8 L195.36 202.34 L195.66 201.68 L196.57 201.48 L197.28 201.13 L197.68 200.42 L196.87 198.35 L196.61 197.44 L196.51 196.33 L196.41 194.76 L196.36 192.84 L196.51 191.12 L196.01 189.39 L195.35 187.12 L194.39 185.35 L193.64 183.98 L192.73 182.41 L191.32 180.95 L190.16 179.45 L189.3 178.34 L188.6 177.02 L188.45 175.5 L188.5 173.63 L188.6 171.66 L188.04 170.57 L187.18 168.9 L186.38 167.13 L184.26 163.89 L182.25 160.51 L181.09 159.34 L178.95 158.61 L177.69 158.41 L174.77 158.15 L172.35 157.65 L170.79 157.34 L168.38 156.28 L166.06 154.97 L160.37 151.28 L157.5 148.32 L154.93 147.43 L153.31 146.78 L151.59 146.44 L149.08 146.14 L146.91 145.6 L140.89 142.18 L138.48 140.8 L136.86 140.2 L135.97 140.2 L133.71 140.65 L131.74 141.04 L129.82 141.14 L127.56 140.85 L126.23 140.4 L123.75 139.23 L122.43 138.39 L121.46 137.41 L120.8 136.22 L120.23 134.9 L119.75 134.01 L119.35 133.09 L119.04 131.98 L118.96 130.83 L119.18 129.24 L119.22 127.94 L119.09 126.61 L118.78 124.89 L118.12 123.61 L117.19 122.94 L116.62 122.37 L116.23 121.75 L116.09 120.56 L115.96 119.59 L115.92 118.79 L116.27 118.35 L116.97 117.29 L117.63 116.6 L119.13 115.45 L120.27 114.34 L121.64 113.06 L123.22 111.82 L124.01 110.81 L124.8 109.62 L125.42 108.03 L126.13 106.63 L126.52 105.87 L126.52 104.81 L126.65 103.44 L126.48 102.34 L126.21 100.84 L125.69 99.73 L124.84 98.69 L124.45 97.85 L124.4 97.01 L124.36 94.76 L124.1 93.21 L123.26 92.46 L122.56 91.84 L121.37 90.78 L120.44 89.55 L119.3 87.82 L117.4 83.2 L116.87 81.3 L116.39 79.18 L116.17 77.15 L116.08 76.27 L116.26 75.21 L117.27 73.54 L118.5 72.12 L119.43 70.89 L120 69.78 L120.3 67.79 L120.22 64.19 L120.22 63.04 L120.22 61.67 L120.44 61.18 L121.18 60.96 L122.06 61.18 L122.68 61.32 L123.12 61.05 L124.13 60.26 L124.7 59.06 L125.15 57.67 L125.59 56.22 L125.67 55.29 L125.5 54.49 L125.1 53.74 L124.53 52.51 L124.35 51.98 L124.4 51.53 L124.66 51.22 L125.23 51.14 L125.72 51.58 L126.64 52.11 L127.78 52.33 L129.1 52.51 L130.71 52.23 L131.94 51.74 L133.04 51.43 L135.06 50.9 L136.82 50.51 L138.32 50.11 L139.02 49.62 L140.56 48.83 L141.75 48.16 L142.72 47.14 L143.2 46.26 L143.42 45.47 L143.82 44.58 L144 43.79 L144.04 43.21 L144.17 43.04 L144.52 42.95 L144.87 43.08 L145.01 43.35 L145.23 44.1 L145.23 44.94 L145.49 45.64 L145.84 46.08 L146.33 46.26 L146.9 46.35 L147.51 46.26 L149.52 45.85 L150.62 45.36 L152.16 44.7 L153.3 44.17 L153.88 43.82 L154.54 43.73 L155.15 43.73 L155.59 43.99 L156.21 44.43 L159.68 45.89 L164.87 48.45 L167.88 49.85 L169.38 50.65 L170.57 51.44 L172.15 53.25 L173.21 54 L174.09 54.62 L174.83 55.2 L175.19 55.68 L175.23 56.26 L175.27 57.05 L175.19 57.85 L175.1 58.55 L175.05 59.39 L175.32 60.01 L175.71 60.41 L176.52 61.23 L177.44 61.89 L178.72 62.33 L180 62.66 L181.14 62.69 L181.8 62.38 L183.07 61.67 L184.39 60.39 L185.63 59.29 L187.03 57.56 L188.54 55.43 L190.44 52.91 L192.37 50.61 L193.88 48.77 L194.76 47.8 L196.34 46.61 L197.7 45.37 L199.24 43.56 L201.05 40.82 L201.63 40.35 L202.6 39.69 L204.32 38.98 L205.46 38.23 L206.25 37.61 L207.04 37.3 L207.92 37.26 L209.15 37.39 L210.41 37.68 L210.92 37.71 L211.74 37.71 L212.39 37.62 L212.93 37.59 L213.77 37.59 L214.39 37.71 L214.96 37.96 L215.89 38.24 L216.71 38.36 L217.58 38.61 L218.32 38.61 L219.08 38.61 L220.24 38.44 L222.57 38.16 L225.7 37.96 L227 37.76 L228.05 37.45 L230.05 37.11 L231.6 36.68 L232.65 36.26 L233.15 35.81 L233.72 35.24 L233.84 34.09 L233.7 33.04 L233.36 32.16 L232.85 30.72 L232.01 29.36 L231.7 27.97 L231.59 26.7 L231.67 25.79 L232.09 24.68 L232.86 23.15 L234.1 21.34 L235 19.27 L235.42 17.63 L235.79 16.26 L236.46 14.92 L237.53 13.53 L238.93 12.02 L239.64 11.39 L240.75 10.75 L241.42 10.23 L242.45 10.15 L243.4 10.11 L246.17 10.15 L247.24 10.15 L248.35 9.91 L249.23 9.44 L253.88 6.95 L254.99 6.71 L255.82 6.59 L257.09 6.15 L260.34 5.24 L261.76 4.64 L263.11 4.08 L263.78 3.96 L264.34 4.16 L267.92 5.63 L270.14 6.83 L271.05 7.82 L271.85 8.62 L272.2 9.53 L272.4 10.57 L272.4 11.76 L272.2 14.85 L272.12 16.6 L271.61 17.56 L271.21 18.19 L270.78 18.43 L269.95 18.43 L269.47 18.59 L268.76 18.87 L268.12 19.35 L267.37 20.14 L266.22 21.49 L265.22 22.92 L263.56 24.99 L260.79 28.65 L259.48 30.24 L259.08 30.76 L259.24 31.16 L260.27 31.76 L263.09 33.23 L264.75 34.22 L266.02 34.7 L268.35 35.46 L269.11 35.58 L269.62 35.34 L270.69 35.3 L271.01 35.42 L271.64 35.54 L272.47 35.46 L273.8 34.88 L274.99 34.56 L275.9 34.48 L276.89 34.48 L277.61 34.68 L277.92 35.08 L278.44 36.03 L278.83 37.59 L279.39 38.26 L280.59 38.66 L282.6 40.02 L284.14 41.33 L288.16 45.01 L288.84 46.17 L290.1 48.28 L291.13 49.19 L292.76 50.34 L293.71 51.5 L294.86 53.35 L295.46 55.14 L295.89 56.97 L296.29 58.28 L296.84 59.68 L297.77 60.65 L298.8 61 L301.77 61.44 L305.06 61.6 L307.48 61.56 L310.92 61.52 L312.47 61.28 L314.77 60.88 L315.72 60.01 L316.79 58.78 L317.46 57.66 L319.37 54.79 L320.59 52.6 L322.15 50.15 L324.4 47.55 L326.57 44.62 L327.73 42.91 L328.41 40.8 L328.55 38.82 L328.34 37.05 L327.53 34.93 L325.76 31.04 L323.99 27.61 L322.97 25.35 L321.75 22.69 L320.93 21.12 L320.46 19.76 L320.46 18.6 L321.54 14.5 L322.97 11.77 L325.02 9.43 L327.87 6.34 L330.86 2.79 L333.03 0 L338.41 0.21 L335.96 2.44 L335.19 2.93 L333.84 4.82 L331.9 6.7 L330.5 8.02 L328.76 9.86 L327.21 11.55 L326.25 12.73 L325.47 13.79 L324.81 14.79 L324.46 16.02 L323.89 17.6 L323.68 18.48 L323.55 19.79 L323.68 20.8 L325.38 24.08 L326.82 27.72 L328.31 30.94 L328.26 30.94 L329.58 34.27 L330.85 38.5 L331.24 40.3 L331.37 41.4 L331.24 42.23 L330.81 43.07 L329.84 44.78 L328.53 46.12 L326.69 48 L325.03 50.07 L323.72 51.73 L322.8 53.22 L322.14 54.57 L321.62 55.93 L320.88 58.03 L320.09 59.92 L319.13 61.37 z" class="polygon_1" style="fill:#571D6D;" />
    </g>
    <g id="SiteLine" style="fill:none;" />
    <g id="SitePoint">
      <circle cx="58" cy="448" r="6" id="Dam_S2202" style="fill:#ECEBEA;stroke:#AAAAAA;">
        <title>大埔水庫 ：無檢測資料</title>
      </circle>
    </g>
    <g id="Mark" class="Heilight">
      <g transform="translate(58, 448) translate(-14, -14)" id="gMark" class="HeilightTrans">
        <path d="M17.2 27.5 L17.2 23.4 L22.8 23.4 L23.3 23.4 L23.3 22.9 L23.3 17.3 L27.4 17.3 L27.4 27.6 L17.2 27.5 z M0.5 27.5 L0.5 17.2 L4.6 17.2 L4.6 22.8 L4.6 23.3 L5.1 23.3 L10.1 23.3 L10.1 27.4 L0.5 27.5 z M27.5 10.2 L23.4 10.2 L23.4 5.2 L23.4 4.6 L22.9 4.6 L17.3 4.6 L17.3 0.5 L27.6 0.5 L27.6 10.2 z M4.6 10.2 L0.5 10.2 L0.5 0.5 L10.2 0.5 L10.2 4.6 L5.2 4.6 L4.6 4.6 L4.6 5.1 L4.6 10.2 z" class="st0" style="fill:#FF800E;" />
        <path d="M17.7 27 L27 27 L27 17.7 L23.9 17.7 L23.9 22.8 L23.9 23.8 L22.9 23.8 L17.8 23.8 L17.8 27 M1 27 L9.7 27 L9.7 23.9 L5.1 23.9 L4.1 23.9 L4.1 22.9 L4.1 17.8 L1 17.8 L1 27 M27 9.7 L27 1 L17.7 1 L17.7 4.1 L22.8 4.1 L23.8 4.1 L23.8 5.1 L23.8 9.6 L27 9.6 M4.1 9.7 L4.1 5.1 L4.1 4.1 L5.1 4.1 L9.6 4.1 L9.6 1 L1 1 L1 9.7 L4.1 9.7 M28 28 L28 28 L28 28 L16.7 28 L16.7 22.9 L22.8 22.9 L22.8 16.8 L28 16.8 L28 28 L28 28 z M10.7 28 L10.7 28 L10.7 28 L0 28 L0 16.7 L5.1 16.7 L5.1 22.8 L10.6 22.8 L10.6 28 L10.7 28 z M28 10.7 L28 10.7 L28 10.7 L22.9 10.7 L22.9 5.1 L16.8 5.1 L16.8 0 L28 0 L28 10.7 L28 10.7 z M5.1 10.7 L5.1 10.7 L0 10.7 L0 0 L10.7 0 L10.7 5.1 L5.1 5.1 L5.1 10.7 L5.1 10.7 z" class="st1" style="fill:#B55600;" />
      </g>
    </g>
  </g>
</svg>