<?xml version="1.0" encoding="utf-8"?>
<!DOCTYPE svg PUBLIC "-//W3C//DTD SVG 1.1//EN" "http://www.w3.org/Graphics/SVG/1.1/DTD/svg11.dtd">
<svg width="575px" height="312px" viewBox="0, 0, 575, 312" class="svgDam" xmlns="http://www.w3.org/2000/svg" xmlns:xlink="http://www.w3.org/1999/xlink" xmlns:xml="http://www.w3.org/XML/1998/namespace" version="1.1">
  <g id="MapArea">
    <g id="Key_Area">
      <path d="M287.73 3.72 L290.3 0 L531.36 40.36 L537.63 41.45 L542.99 43.84 L548.36 48.45 L553.58 60.86 L560.46 75.11 L574.43 107.51 L575 112.15 L574.65 116.04 L572.64 121.43 L555.41 147.84 L544.96 164.39 L509.95 218.13 L507.39 222.04 L499.14 235.06 L486.86 253.84 L469.26 280.44 L460.47 295.13 L455.52 302.2 L451.08 299.8 L448.13 300 L443.35 302.25 L441.32 302.25 L437.45 305.05 L435.44 307.66 L431.76 309.9 L430.66 311.57 L428.26 311.58 L423.08 308.45 L416.98 304.95 L416.24 304.58 L408.09 295.9 L396.64 291.5 L393.86 290.21 L385.19 289.32 L369.65 276.03 L363.16 269.75 L358.55 268.1 L351.34 265.35 L348.57 265.18 L344.69 263.89 L319.41 259.73 L297.44 255.93 L283.97 253.02 L272.15 251.03 L264.77 249.95 L258.68 248.86 L252.59 247.59 L230.07 242.3 L226.38 242.5 L220.29 242.16 L215.87 243.85 L181.25 256.98 L179.05 259.21 L175.91 258.85 L170.2 261.84 L164.67 263.17 L147.49 256.75 L109.99 242.06 L110.9 239.83 L110.16 238.73 L58.8 218.16 L73.04 183.05 L84.18 156.85 L97.29 160.88 L97.84 159.02 L79.74 152.79 L44.65 142.74 L24.91 142.27 L7.21 142.71 L0.2 141.63 L0 139.22 L11.99 139.35 L24.72 139.67 L39.11 140.16 L44.46 140.14 L58.68 143.98 L79.18 150.38 L83.61 151.66 L86.75 152.02 L99.31 155.68 L100.2 149.18 L100.55 146.03 L101.49 103.55 L107.7 89.24 L121.89 87.51 L132.77 86.73 L136.64 87.45 L146.45 94.27 L176.98 116.59 L185.3 122.3 L185.5 126.75 L190.31 129.7 L216.36 95.83 L223.52 87.09 L251.4 50.8 L287.73 3.72 z" class="polygon_1" style="fill:#571D6D;" />
    </g>
    <g id="SiteLine" style="fill:none;" />
    <g id="SitePoint">
      <circle cx="406" cy="139" r="6" id="Dam_S2105" style="fill:#ECEBEA;stroke:#AAAAAA;">
        <title>太湖水庫 ：無檢測資料</title>
      </circle>
    </g>
    <g id="Mark" class="Heilight">
      <g transform="translate(406, 139) translate(-14, -14)" id="gMark" class="HeilightTrans">
        <path d="M17.2 27.5 L17.2 23.4 L22.8 23.4 L23.3 23.4 L23.3 22.9 L23.3 17.3 L27.4 17.3 L27.4 27.6 L17.2 27.5 z M0.5 27.5 L0.5 17.2 L4.6 17.2 L4.6 22.8 L4.6 23.3 L5.1 23.3 L10.1 23.3 L10.1 27.4 L0.5 27.5 z M27.5 10.2 L23.4 10.2 L23.4 5.2 L23.4 4.6 L22.9 4.6 L17.3 4.6 L17.3 0.5 L27.6 0.5 L27.6 10.2 z M4.6 10.2 L0.5 10.2 L0.5 0.5 L10.2 0.5 L10.2 4.6 L5.2 4.6 L4.6 4.6 L4.6 5.1 L4.6 10.2 z" class="st0" style="fill:#FF800E;" />
        <path d="M17.7 27 L27 27 L27 17.7 L23.9 17.7 L23.9 22.8 L23.9 23.8 L22.9 23.8 L17.8 23.8 L17.8 27 M1 27 L9.7 27 L9.7 23.9 L5.1 23.9 L4.1 23.9 L4.1 22.9 L4.1 17.8 L1 17.8 L1 27 M27 9.7 L27 1 L17.7 1 L17.7 4.1 L22.8 4.1 L23.8 4.1 L23.8 5.1 L23.8 9.6 L27 9.6 M4.1 9.7 L4.1 5.1 L4.1 4.1 L5.1 4.1 L9.6 4.1 L9.6 1 L1 1 L1 9.7 L4.1 9.7 M28 28 L28 28 L28 28 L16.7 28 L16.7 22.9 L22.8 22.9 L22.8 16.8 L28 16.8 L28 28 L28 28 z M10.7 28 L10.7 28 L10.7 28 L0 28 L0 16.7 L5.1 16.7 L5.1 22.8 L10.6 22.8 L10.6 28 L10.7 28 z M28 10.7 L28 10.7 L28 10.7 L22.9 10.7 L22.9 5.1 L16.8 5.1 L16.8 0 L28 0 L28 10.7 L28 10.7 z M5.1 10.7 L5.1 10.7 L0 10.7 L0 0 L10.7 0 L10.7 5.1 L5.1 5.1 L5.1 10.7 L5.1 10.7 z" class="st1" style="fill:#B55600;" />
      </g>
    </g>
  </g>
</svg>