<?xml version="1.0" encoding="utf-8"?>
<!DOCTYPE svg PUBLIC "-//W3C//DTD SVG 1.1//EN" "http://www.w3.org/Graphics/SVG/1.1/DTD/svg11.dtd">
<svg width="491px" height="510px" viewBox="0, 0, 491, 510" class="svgDam" xmlns="http://www.w3.org/2000/svg" xmlns:xlink="http://www.w3.org/1999/xlink" xmlns:xml="http://www.w3.org/XML/1998/namespace" version="1.1">
  <g id="MapArea">
    <g id="Key_Area">
      <path d="M200.13 8.42 L209.13 11.54 L212.53 12.75 L223.36 16.67 L223.41 16.69 L223.44 16.7 L214.61 38.11 L214.9 40.71 L218.52 43.73 L237.96 47.49 L248.66 49.33 L258.48 50.08 L275.97 38.66 L288.78 33.09 L302.73 32.25 L320.15 32.23 L335.13 39.2 L341.77 41.21 L346.21 39.47 L355.01 38.94 L358.61 36.79 L372.08 30.35 L426.2 14.96 L432.3 12.96 L462.88 6.63 L463.93 6.42 L465.49 6.24 L477.52 4.25 L484.81 3.69 L490.39 12.4 L489.46 33.23 L470.24 39.83 L436.19 76.76 L433.94 78.97 L422.6 88.57 L413.17 97.47 L412.27 100.17 L414.04 105.98 L405.86 152.98 L398.07 158.44 L395.14 160.45 L393.34 163.62 L392.01 166.85 L387 193.04 L386.51 196.03 L385.23 202.3 L380.6 209.7 L374.93 217.98 L372.93 218.01 L353.71 228.84 L346.94 232.58 L328.02 245.17 L323.4 248.71 L317.43 254.88 L316.06 255.8 L313.95 257.6 L308.37 258.95 L301.88 262.48 L296.7 262.8 L289.69 265.72 L273.96 265.85 L271.34 263.6 L256.83 261.55 L251.29 261.7 L239.31 265.96 L237.09 271.57 L232.86 281.24 L233.39 284.86 L242.06 304.34 L251.32 332.42 L251.95 338.32 L253.81 387.61 L255.09 403.16 L260.92 453.09 L258.27 454.58 L243.88 451.57 L234.32 444.69 L223.82 432.28 L213.28 409.57 L199.95 390.56 L188.61 381.42 L184.48 380.11 L168 385.79 L153.33 393.34 L147.88 399.46 L141.57 412.83 L140.21 419.11 L139.29 433.14 L127.96 449.39 L113.34 452.17 L106.17 454.66 L100.46 457.79 L80.82 478.56 L79.86 482.57 L62.41 498.21 L63.48 504.11 L64.08 506.35 L60.86 508.92 L56.01 509.87 L54.56 510 L41.02 505.65 L38.64 497.13 L38.9 487.14 L37.79 482.72 L39.02 479.22 L39.41 475.86 L41.8 470.64 L45.01 460.9 L48.38 447.28 L46.86 426.07 L48.05 411.23 L53.37 394.27 L67.05 383.37 L75.55 375.86 L79.37 371.71 L84.1 362.36 L89.14 347.65 L87.57 340.71 L85.32 334.86 L86.08 328.26 L78.95 313.94 L72.69 306.72 L63.38 299.51 L39.96 278.87 L35.73 279.56 L29.08 277.28 L22.92 275.65 L5.62 263.37 L0 259.39 L2.21 255.55 L4.48 252.15 L64.65 161.87 L88.02 126.08 L113.82 87.02 L114.74 85.37 L120.15 77.87 L130.68 64.14 L172 3.35 L174.19 0 L180.04 1.04 L185.97 4.47 L188.14 6.64 L189.57 8.1 L187.04 18.85 L189.35 13.04 L190.38 13.34 L191.77 14.06 L190.74 16.54 L189.45 20.02 L189.13 22.55 L186.33 32.66 L192.29 22.52 L196.38 12.44 L198.11 8.26 L198.28 7.78 L200.13 8.42 z" class="polygon_1" style="fill:#571D6D;" />
    </g>
    <g id="SiteLine" style="fill:none;" />
    <g id="SitePoint">
      <circle cx="125" cy="76" r="6" id="Dam_S2196" style="fill:#ECEBEA;stroke:#AAAAAA;">
        <title>小池水庫 ：無檢測資料</title>
      </circle>
    </g>
    <g id="Mark" class="Heilight">
      <g transform="translate(125, 76) translate(-14, -14)" id="gMark" class="HeilightTrans">
        <path d="M17.2 27.5 L17.2 23.4 L22.8 23.4 L23.3 23.4 L23.3 22.9 L23.3 17.3 L27.4 17.3 L27.4 27.6 L17.2 27.5 z M0.5 27.5 L0.5 17.2 L4.6 17.2 L4.6 22.8 L4.6 23.3 L5.1 23.3 L10.1 23.3 L10.1 27.4 L0.5 27.5 z M27.5 10.2 L23.4 10.2 L23.4 5.2 L23.4 4.6 L22.9 4.6 L17.3 4.6 L17.3 0.5 L27.6 0.5 L27.6 10.2 z M4.6 10.2 L0.5 10.2 L0.5 0.5 L10.2 0.5 L10.2 4.6 L5.2 4.6 L4.6 4.6 L4.6 5.1 L4.6 10.2 z" class="st0" style="fill:#FF800E;" />
        <path d="M17.7 27 L27 27 L27 17.7 L23.9 17.7 L23.9 22.8 L23.9 23.8 L22.9 23.8 L17.8 23.8 L17.8 27 M1 27 L9.7 27 L9.7 23.9 L5.1 23.9 L4.1 23.9 L4.1 22.9 L4.1 17.8 L1 17.8 L1 27 M27 9.7 L27 1 L17.7 1 L17.7 4.1 L22.8 4.1 L23.8 4.1 L23.8 5.1 L23.8 9.6 L27 9.6 M4.1 9.7 L4.1 5.1 L4.1 4.1 L5.1 4.1 L9.6 4.1 L9.6 1 L1 1 L1 9.7 L4.1 9.7 M28 28 L28 28 L28 28 L16.7 28 L16.7 22.9 L22.8 22.9 L22.8 16.8 L28 16.8 L28 28 L28 28 z M10.7 28 L10.7 28 L10.7 28 L0 28 L0 16.7 L5.1 16.7 L5.1 22.8 L10.6 22.8 L10.6 28 L10.7 28 z M28 10.7 L28 10.7 L28 10.7 L22.9 10.7 L22.9 5.1 L16.8 5.1 L16.8 0 L28 0 L28 10.7 L28 10.7 z M5.1 10.7 L5.1 10.7 L0 10.7 L0 0 L10.7 0 L10.7 5.1 L5.1 5.1 L5.1 10.7 L5.1 10.7 z" class="st1" style="fill:#B55600;" />
      </g>
    </g>
  </g>
</svg>