<?xml version="1.0" encoding="utf-8"?>
<!DOCTYPE svg PUBLIC "-//W3C//DTD SVG 1.1//EN" "http://www.w3.org/Graphics/SVG/1.1/DTD/svg11.dtd">
<svg width="575px" height="447px" viewBox="0, 0, 575, 447" class="svgDam" xmlns="http://www.w3.org/2000/svg" xmlns:xlink="http://www.w3.org/1999/xlink" xmlns:xml="http://www.w3.org/XML/1998/namespace" version="1.1">
  <g id="MapArea">
    <g id="Key_Area">
      <path d="M151.74 329.37 L135.38 346.74 L126.14 382.44 L125.69 400.52 L123.96 422.56 L129.47 430.39 L125.36 446.93 L118.31 445.91 L117.78 441.19 L105.78 438.62 L98.99 435.23 L83.56 426.9 L68.4 417.52 L32.88 337.69 L24.99 320.93 L12.34 289 L7.6 277.22 L0 268.6 L17.09 239.16 L30.04 219.71 L41.45 204.73 L65.85 177.36 L82.74 163.4 L90.29 159.19 L106.41 149.94 L135.8 132.8 L155.06 122.76 L184.47 111.9 L211.3 104.72 L238.65 97.4 L281.37 87.81 L286.06 86.74 L303.52 84.85 L305.07 82.22 L336.59 73.44 L375.39 61.24 L400.37 50.14 L429.01 33.64 L466.11 6.57 L472.01 3.15 L478.76 1.14 L482.71 0 L492.01 2.52 L568.47 20.93 L560.19 65.73 L571.87 95.46 L575 103.67 L549.15 121.9 L536.01 148.01 L539.55 164.45 L532.28 173.4 L522.37 170.54 L522.54 151.15 L505.04 143.35 L498.01 144.42 L498.05 152.55 L474.66 171.25 L478.33 178.58 L483.05 182.23 L486.18 184.58 L495.1 195.82 L495.17 213.91 L485.79 215.52 L476.32 195.89 L468.45 185.69 L452.57 192.05 L449.78 209.62 L455.82 221.4 L469.92 224.75 L483.53 236.24 L486.4 239.11 L518.12 279.37 L503.01 281 L496.69 266.34 L479.96 259.33 L468.75 256.74 L460.37 250.48 L445.19 236.12 L441.01 231.68 L437.34 228.28 L433.93 222.53 L423.49 221 L411.77 221.03 L398.21 223.45 L377.85 216.7 L371.33 216.99 L362.39 218.48 L343.77 234.01 L336.74 237.45 L294.33 259.37 L249.51 268.45 L231.8 271.65 L196.16 290.41 L185.76 298.83 L177.45 305.68 L162.9 317.54 L151.74 329.37 z" class="polygon_1" style="fill:#571D6D;" />
    </g>
    <g id="SiteLine" style="fill:none;" />
    <g id="SitePoint">
      <circle cx="90" cy="247" r="6" id="Dam_S2113" style="fill:#ECEBEA;stroke:#AAAAAA;">
        <title>山西水庫 ：無檢測資料</title>
      </circle>
    </g>
    <g id="Mark" class="Heilight">
      <g transform="translate(90, 247) translate(-14, -14)" id="gMark" class="HeilightTrans">
        <path d="M17.2 27.5 L17.2 23.4 L22.8 23.4 L23.3 23.4 L23.3 22.9 L23.3 17.3 L27.4 17.3 L27.4 27.6 L17.2 27.5 z M0.5 27.5 L0.5 17.2 L4.6 17.2 L4.6 22.8 L4.6 23.3 L5.1 23.3 L10.1 23.3 L10.1 27.4 L0.5 27.5 z M27.5 10.2 L23.4 10.2 L23.4 5.2 L23.4 4.6 L22.9 4.6 L17.3 4.6 L17.3 0.5 L27.6 0.5 L27.6 10.2 z M4.6 10.2 L0.5 10.2 L0.5 0.5 L10.2 0.5 L10.2 4.6 L5.2 4.6 L4.6 4.6 L4.6 5.1 L4.6 10.2 z" class="st0" style="fill:#FF800E;" />
        <path d="M17.7 27 L27 27 L27 17.7 L23.9 17.7 L23.9 22.8 L23.9 23.8 L22.9 23.8 L17.8 23.8 L17.8 27 M1 27 L9.7 27 L9.7 23.9 L5.1 23.9 L4.1 23.9 L4.1 22.9 L4.1 17.8 L1 17.8 L1 27 M27 9.7 L27 1 L17.7 1 L17.7 4.1 L22.8 4.1 L23.8 4.1 L23.8 5.1 L23.8 9.6 L27 9.6 M4.1 9.7 L4.1 5.1 L4.1 4.1 L5.1 4.1 L9.6 4.1 L9.6 1 L1 1 L1 9.7 L4.1 9.7 M28 28 L28 28 L28 28 L16.7 28 L16.7 22.9 L22.8 22.9 L22.8 16.8 L28 16.8 L28 28 L28 28 z M10.7 28 L10.7 28 L10.7 28 L0 28 L0 16.7 L5.1 16.7 L5.1 22.8 L10.6 22.8 L10.6 28 L10.7 28 z M28 10.7 L28 10.7 L28 10.7 L22.9 10.7 L22.9 5.1 L16.8 5.1 L16.8 0 L28 0 L28 10.7 L28 10.7 z M5.1 10.7 L5.1 10.7 L0 10.7 L0 0 L10.7 0 L10.7 5.1 L5.1 5.1 L5.1 10.7 L5.1 10.7 z" class="st1" style="fill:#B55600;" />
      </g>
    </g>
  </g>
</svg>