<?xml version="1.0" encoding="utf-8"?>
<!DOCTYPE svg PUBLIC "-//W3C//DTD SVG 1.1//EN" "http://www.w3.org/Graphics/SVG/1.1/DTD/svg11.dtd">
<svg width="575px" height="258px" viewBox="0, 0, 575, 258" class="svgDam" xmlns="http://www.w3.org/2000/svg" xmlns:xlink="http://www.w3.org/1999/xlink" xmlns:xml="http://www.w3.org/XML/1998/namespace" version="1.1">
  <g id="MapArea">
    <g id="Key_Area">
      <path d="M574.44 39.71 L574.59 40.2 L574.83 41.6 L575 42.56 L574.85 43.46 L574.21 44.64 L574.12 45.28 L573.7 46.44 L573.24 47.41 L572.69 48.66 L572.46 49.37 L571.5 50.01 L570.94 50.41 L569.66 50.28 L568.18 50.21 L566.53 49.7 L565.82 49.45 L564.59 49.05 L563.83 48.44 L563.22 47.98 L562.2 48.45 L560.86 49.53 L559.6 50.92 L558.34 52.12 L558.14 52.46 L557.75 52.94 L557.27 53.6 L557.18 54.05 L557.4 54.36 L557.7 54.76 L558.58 55.3 L558.98 55.62 L560.67 56.8 L561.09 57.01 L561.69 57.28 L562.32 57.75 L562.73 58.24 L563.07 59.13 L563.45 59.66 L564.09 60.5 L564.48 60.93 L564.96 61.13 L566.07 61.58 L566.26 62.13 L567.02 63.09 L567.44 63.45 L567.71 63.97 L568.02 64.67 L568.07 65.53 L568.28 66.48 L568.48 67.23 L568.36 68.11 L568.21 68.74 L568.04 69.45 L567.61 70.1 L566.95 71.14 L566.12 71.51 L565.81 71.9 L564.99 72.77 L564.39 73.28 L563.68 73.68 L563.42 73.86 L562.79 74.33 L562.26 74.46 L561.62 74.89 L560.87 75.18 L560.11 75.12 L559.33 74.85 L558.64 74.49 L558.09 74.37 L557.08 74.44 L556.54 74.6 L555.7 74.61 L555.04 74.31 L554.49 73.86 L553.94 73.13 L553.1 72.91 L552.43 73.1 L551.98 73.11 L551.18 72.91 L549.99 72.83 L549.38 72.5 L548.93 72.5 L548.19 72.45 L547.49 72.14 L547.06 71.67 L546.83 71.29 L546.68 70.87 L546.48 70.6 L545.95 70.03 L545.92 69.34 L545.65 69.08 L545.32 69.02 L544.7 68.85 L544.03 68.35 L543.11 67.56 L542.22 67.3 L541.75 67.16 L541.29 66.86 L540.7 66.03 L540.06 65.13 L539.55 64.73 L539.23 64.25 L538.87 63.36 L538.48 63.04 L538.02 62.66 L537.49 62.05 L537.33 61.68 L537.01 61.73 L536.6 61.58 L536 61.4 L535.3 61.28 L534.54 61.73 L534.69 62.31 L534.78 63.1 L534.55 63.78 L534.49 64.09 L534.51 64.6 L534.82 65.17 L535.32 66.12 L535.36 66.38 L535.59 67.45 L535.81 68.45 L536.11 69.33 L536.39 69.71 L536.93 70.65 L537.52 71.85 L537.92 72.88 L538.11 73.55 L538.26 74.43 L538.51 75.14 L538.88 76.14 L539.5 77.11 L540.1 77.92 L540.53 78.03 L540.71 78.43 L541.22 79.06 L541.79 79.42 L542.28 80.43 L542.52 80.85 L543.23 81.21 L544.03 81.82 L544.28 82.28 L544.61 82.48 L544.75 83.39 L544.93 83.9 L545.26 84.82 L545.46 85.59 L545.54 86.61 L545.86 87.08 L546.08 87.57 L546.19 88.08 L546.29 88.98 L546.11 90 L546.45 90.83 L546.06 92.05 L546.33 92.65 L546.56 94.52 L545.57 96.49 L545.31 97.28 L544.55 98.61 L543.95 99.76 L542.75 100.49 L541.61 101.41 L540.67 101.92 L540.41 102.08 L539.33 103.53 L538.85 104.24 L537.29 105.43 L536.19 105.72 L535.55 106.24 L534.28 106.66 L533.63 106.7 L532.67 107.02 L532.27 107.23 L531.61 107.48 L530.91 107.54 L529.81 107.49 L528.82 107.7 L527.87 108.18 L527.08 108.66 L526.48 108.79 L525.64 108.71 L524.74 108.31 L523.86 108.07 L522.86 106.49 L522.11 105.45 L521.86 104.7 L520.58 103.82 L520.38 103.45 L519.58 103.51 L519.02 103.45 L518.19 103.06 L517.32 103.15 L516.24 103.18 L515.23 103.47 L514.61 103.42 L514.2 103.55 L513.37 104.18 L512.78 104.72 L512.39 104.96 L511.74 105.23 L511.11 106.05 L510.56 106.89 L510.67 107.39 L510.71 108.18 L510.68 109.24 L510.7 109.84 L511.12 110.82 L511.11 111.73 L511.35 112.56 L511.59 113.39 L511.66 114.25 L511.86 115.23 L512.11 115.82 L512.41 116.81 L512.73 118.01 L512.7 119.15 L512.81 120.08 L512.79 121.44 L512.57 122.62 L512.32 123.11 L511.69 123.87 L511.35 124.71 L510.94 124.99 L510.75 125.38 L510.26 126.02 L510.37 126.42 L510.32 127.03 L510.19 127.44 L510.21 127.95 L510.37 128.15 L510.36 129.34 L510.92 129.57 L511.5 130.57 L511.89 131.1 L511.1 132.39 L510.11 133.05 L510.16 133.68 L510.52 133.78 L511.1 134.12 L511.37 134.47 L511.8 134.83 L512.17 135.03 L512.22 135.87 L511.79 137.38 L510.89 138.45 L510.64 138.96 L510.7 139.52 L510.45 140.55 L509.8 141.12 L508.9 141.51 L508.05 141.74 L507.05 142.37 L506.03 142.68 L504.81 142.81 L504.3 142.77 L503.53 142.72 L502.94 142.83 L501.89 142.36 L501.03 142.32 L500.39 142.59 L499.84 142.83 L499.62 143.6 L499.2 145.09 L498.43 146.53 L497.63 147.69 L496.81 148.17 L496.47 148.62 L495.66 149.24 L494.2 149.74 L492.31 150.03 L490.89 150.45 L489.33 150.88 L487.2 150.98 L484.98 150.35 L483.33 149.22 L482.7 148.69 L482.07 148.33 L481.33 147.91 L480.7 147.29 L479.84 146.29 L479.25 145.52 L478.28 144.83 L477.89 144.03 L477.49 144.6 L477.18 145.25 L476.79 145.62 L476.16 146.23 L475.01 146.38 L473.79 145.88 L473.48 144.53 L473.34 143.6 L473.24 143.36 L472.86 142.98 L472.08 141.98 L470.88 140.66 L470.38 140.13 L469.97 139.37 L469.78 139.35 L469.14 138.88 L468.46 138.31 L467.73 137.7 L467.23 137.01 L466.51 135.79 L466.2 135.48 L466.1 134.86 L465.72 134.66 L465.42 134.34 L464.69 133.39 L464.17 133.23 L463.22 132.78 L462.64 132.2 L462.07 131.75 L461.4 131.47 L460.95 131.51 L460.45 131.42 L459.83 131.11 L459.17 131.07 L458.6 130.94 L457.9 130.61 L457.71 130.66 L457.18 130.76 L456.39 130.63 L456.27 131.09 L456.09 131.69 L455.86 132.63 L455.95 133.12 L455.94 133.57 L456.14 134.38 L456.05 135.53 L455.85 136.42 L455.71 137.82 L455.68 139.01 L455.36 139.82 L455.35 140.84 L455.16 141.53 L455.03 141.72 L454.77 142.46 L454.72 143.08 L454.63 143.42 L454.33 144.63 L454.12 145.42 L453.92 146.2 L453.65 147 L453.3 147.97 L453.01 149.32 L452.99 150.14 L452.72 150.43 L452.67 151.13 L452.43 152 L452.17 152.78 L451.62 153.73 L450.8 154.5 L449.66 155.03 L448.87 155.29 L448.44 155.29 L447.83 154.92 L447.36 155.07 L446.41 154.95 L445.89 154.78 L445.3 154.69 L444.48 154.55 L442.86 154.24 L442.52 154.67 L441.68 155.21 L440.63 155.77 L440.12 156.09 L439.4 156.53 L439.36 156.71 L439.08 157.41 L438.28 158.06 L437.63 158.34 L437.1 158.09 L437.04 158.21 L436.45 158.97 L435.97 159.25 L435.5 159.42 L435.17 159.68 L434.58 159.92 L434.27 159.95 L433.87 160.26 L433.24 160.46 L432.52 160.55 L431.93 160.65 L431.44 160.64 L431.17 160.67 L431.03 160.69 L430.86 160.76 L430.08 160.93 L429.3 161.03 L428.59 160.93 L428.2 160.87 L427.6 160.63 L426.93 160.71 L424.93 160.64 L423.86 160.46 L422.77 159.58 L422.06 158.28 L420.65 158.36 L419.83 158.1 L418.96 157.37 L418.02 156.48 L417.08 155.82 L416.87 156.34 L416.41 156.94 L415.73 157.24 L414.67 157.32 L414.14 157.48 L412.96 157.26 L412.28 156.63 L411.84 155.67 L411.81 154.94 L412.02 153.96 L411.75 153.07 L412.03 152.04 L412.03 150.96 L411.77 150.27 L411.98 149.33 L412.1 148.07 L411.86 146.85 L411.46 146.01 L410.5 145.41 L409.81 145.14 L408.84 145.13 L407.98 144.92 L407.35 144.68 L406.06 144.41 L405.23 144.38 L404.11 144.36 L401.69 143.96 L399.57 143.41 L398.96 143.6 L397.75 143.92 L395.56 143.98 L395.11 143.86 L394.09 144.54 L393.37 144.86 L391.97 144.87 L390.86 144.71 L390.49 144.81 L390.73 145.01 L391.41 145.81 L391.91 146.26 L392.39 146.92 L393.04 148.17 L393.39 149.35 L393.49 150.75 L393.58 151.45 L393.9 152.4 L394.27 153.36 L394.37 153.88 L394.73 155.06 L394.78 155.16 L395.18 155.78 L395.21 156.5 L395.29 156.71 L395.53 157.48 L396.06 158.1 L395.94 158.41 L396.21 158.97 L396.22 159.96 L396.28 160.59 L396.57 162 L396.96 163.47 L397.14 164.53 L396.88 165.42 L396.69 166.37 L396.16 167.28 L396.41 168.23 L396.49 169.12 L396.46 169.58 L395.84 170.09 L395.09 170.69 L393.92 171.96 L393.45 172.17 L392 172.48 L391.27 172.73 L390.17 172.92 L389.16 172.89 L388.53 172.56 L387.77 172.14 L386.95 172.1 L386.21 171.97 L385.6 172.08 L384.84 172.27 L384.06 172.69 L382.84 173.34 L381.53 173.8 L380.39 174.5 L379.67 174.72 L378.83 174.77 L377.4 174.36 L376.5 174.58 L375.85 175.13 L375.07 175.58 L374.19 176.19 L373.88 176.65 L373.3 177.11 L372.59 177.87 L371.94 178.88 L371.51 179.5 L371.01 180.72 L370.3 181.57 L370.64 182.2 L370.26 183.02 L369.95 184.11 L369.98 184.39 L370 184.77 L370.72 186.37 L370.79 186.79 L370.72 187.51 L370.44 188.49 L370.1 189.23 L369.63 190.07 L369.31 190.5 L368.64 191.78 L368.23 192.84 L367.78 193.74 L367.31 194.27 L366.58 194.98 L366.43 195.1 L365.87 195.87 L365.3 196.26 L364 196.74 L362.51 197.9 L361.85 197.96 L360.73 198.07 L360 198.43 L360.16 199.69 L360.86 200.68 L361.12 201.4 L361.29 201.97 L361.52 202.7 L361.44 203.08 L361.64 203.56 L361.82 204.6 L361.98 205.77 L361.64 206.1 L361.65 206.78 L361.6 207.7 L361.08 208.32 L359.87 209.06 L358.38 209.53 L357.31 209.43 L356.24 208.57 L355.41 207.61 L354.97 207.03 L353.88 206.92 L352.66 206.69 L351.87 206.24 L351.34 204.94 L351.46 204.26 L350.98 203.24 L350.85 202.67 L350.13 201.67 L349.38 200.43 L348.98 199.72 L347.23 198.62 L345.37 197.01 L344.04 195.34 L343.77 194.62 L343.47 193.45 L343.34 192.58 L342.75 192.29 L342.14 191.84 L341.57 191.29 L341.08 190.61 L340.72 189.88 L340.5 188.94 L339.78 188.53 L339.07 187.91 L338.59 187.37 L337.72 187.41 L337.27 187.36 L336.46 187.1 L335.76 186.76 L334.75 186.09 L334.55 185.67 L333.7 184.83 L333.37 184.15 L332.96 183.87 L332.21 183.13 L331.51 182.6 L330.31 181.82 L329.65 181.28 L328.53 181.28 L327.88 181.14 L327.22 180.73 L326.8 180.46 L325.73 179.68 L325.16 178.86 L324.84 178.2 L324.58 177.79 L324.05 176.89 L323.78 176 L323.35 175.27 L322.68 174.46 L322.08 174.04 L321.52 173.15 L320.94 172.02 L320.77 171.29 L320.15 170.45 L319.57 171.3 L318.89 171.86 L318 172.39 L317.1 172.83 L316.62 173.65 L315.88 174.13 L314.91 175.36 L314.46 175.8 L313.9 176.76 L313.77 177.35 L313.41 177.87 L312.9 178.65 L312.7 179.9 L312.26 181.04 L311.7 183.29 L311.05 184.27 L310.78 185.01 L309.88 186.34 L309.38 186.94 L309.57 187.89 L309.6 188.74 L309.42 189.34 L308.89 189.93 L308.52 190.16 L307.29 191.09 L306.31 191.63 L306.58 191.94 L306.18 192.6 L305.5 192.84 L304.46 193.03 L304.24 193.91 L303.81 194.33 L303.57 194.76 L302.64 195.52 L302.27 195.52 L301.75 196.17 L301.02 196.86 L300.37 197.07 L299.34 197.15 L299.1 197.38 L298.08 197.79 L297.85 198.01 L296.57 198.49 L295.92 198.45 L295.11 198.1 L294.5 197.57 L294.11 197.88 L293.21 198.48 L292.11 198.55 L290.79 198.07 L289.04 196.68 L287.9 195.73 L287.52 195.16 L286.91 194.96 L285.97 194.29 L285.17 196.54 L284.89 197.07 L284.5 197.59 L283.93 198.39 L282.65 198.8 L282.52 199.12 L281.87 199.89 L281.6 199.99 L281.99 200.49 L282.65 201.21 L283.08 201.73 L283.27 202.03 L283.48 202.74 L284.52 203.04 L285.07 203.28 L286 203.76 L286.2 204.3 L286.7 205.01 L286.05 206.27 L285.75 206.55 L283.89 207.37 L283.47 207.81 L282.92 208.22 L283.08 208.5 L283.04 209.61 L282.78 210.58 L283.48 211.02 L284.19 211.46 L285.05 212.21 L285.37 212.78 L285.81 213.16 L286.38 213.33 L286.64 213.26 L287.79 214.03 L288.53 215.44 L288.68 216.2 L287.92 217.42 L287.65 217.45 L286.86 218.17 L286.27 218.59 L285.36 218.73 L284.65 219.25 L284.07 219.49 L283.13 219.39 L282.35 218.88 L281.77 218.46 L280.75 217.64 L280.37 217.51 L278.7 216.6 L277.59 216.09 L276.84 215.37 L276.43 214.45 L276.22 213.76 L275.92 213.13 L275.8 212.33 L275.69 211.6 L275.16 211 L274.92 210.44 L274.83 209.6 L274.89 209.01 L274.5 208.32 L273.82 207 L273.3 205.85 L273.06 205.54 L272.27 204.61 L271.8 203.7 L271.55 202.96 L271.2 202.29 L270.81 202.26 L269.93 202.6 L269.53 202.67 L268.9 202.83 L268.29 202.82 L267.45 202.83 L266.7 202.74 L265.72 202.54 L265.39 202.58 L264.71 202.53 L263.71 201.79 L263.43 201.8 L262.95 201.85 L261.69 201.86 L260.6 201.84 L260.01 201.65 L259.39 201.33 L258.59 201.53 L257.94 201.86 L257.54 202.07 L256.74 202.22 L255.87 202.99 L255.27 203.45 L254.41 203.93 L253.59 203.95 L252.88 203.66 L252.42 203.04 L252.1 202.5 L251.85 201.91 L251.39 201.33 L250.77 200.48 L250.6 199.62 L249.44 199.49 L249.04 200.5 L248.49 201.08 L248 201.78 L247.26 202.31 L246.6 202.48 L245.82 202.53 L244.46 202.58 L243.69 202.46 L242.7 202.7 L241.28 202.63 L240.12 202.34 L238.83 202.35 L237.83 202.19 L236.17 201.62 L235.29 201.02 L234.9 201.01 L233.81 201 L233.15 201.14 L232.43 200.97 L231.79 200.6 L231.49 200.85 L230.89 201.31 L230.24 201.56 L229.25 201.42 L228.78 201.16 L227.95 200.48 L227.93 199.3 L228.11 198.7 L228.19 197.99 L228.16 196.98 L228.04 196.04 L227.47 195.78 L227.05 195.63 L226.63 195.69 L225.85 195.99 L224.92 196 L224.38 196.04 L223.66 195.95 L222.73 195.38 L222.2 194.82 L221.94 194.53 L221.25 194.35 L220.69 194.1 L220.12 193.72 L219.36 192.74 L218.43 192.07 L217.88 191.37 L217.23 190.93 L216.37 190.13 L215.89 190.5 L215.18 190.95 L214.85 191.05 L214.53 191.71 L214.18 192.28 L213.32 193.19 L212.63 193.7 L211.9 193.94 L211.29 194.43 L210.34 194.73 L209.25 194.91 L207.74 194.77 L206.03 194.41 L205.19 194.02 L204.53 193.6 L203.8 193.42 L203.39 193.84 L202.55 194.39 L202.36 194.85 L201.79 195.55 L200.71 196.06 L199.87 196.18 L199.19 196.45 L197.84 196.48 L196.82 195.63 L195.68 194.01 L194.59 193.11 L193.4 191.82 L193.1 191.64 L192.09 191.6 L191.58 191.51 L190.26 190.7 L189.64 190.3 L189.19 189.81 L188.71 188.95 L188.2 188.63 L187.02 187.82 L185.71 186.68 L185.62 186.44 L185.17 186.38 L184.92 186.56 L183.59 187.5 L182.55 188.06 L181.92 188.19 L181.5 188.43 L181.03 189.02 L180.22 189.56 L179.01 190.48 L178.12 190.86 L177 190.89 L175.83 190.62 L175.36 190.51 L174.64 190.09 L174.23 189.28 L173.76 188.85 L172.31 189.29 L171.38 189.57 L170.09 189.88 L169.77 190.27 L169.31 190.58 L168.55 190.98 L167.6 191.51 L166.53 191.85 L165.91 191.99 L165.19 191.92 L164.62 191.55 L163.96 190.89 L163.03 189.79 L161.83 188.56 L161.5 187.16 L161.2 186.92 L160.52 186.74 L159.94 186.27 L159.38 186.38 L158.44 186.38 L157.23 186.38 L156.05 186.18 L154.72 186.52 L153.96 186.68 L153 186.54 L151.95 186.26 L150.65 185.6 L149.21 185.01 L148.25 184.85 L147.08 184.68 L145.59 184.79 L143.85 184.83 L143.03 184.59 L141.85 184.33 L140.4 184.3 L139.41 184.1 L138.75 184 L136.91 183.55 L135.41 183.17 L133.65 182.67 L132.28 181.86 L130.84 180.8 L130.04 180.53 L129.46 180.19 L128.19 178.31 L127.49 177.57 L126.99 177.44 L126.41 176.87 L126.02 176.98 L125.87 177.59 L125.35 178.13 L124.28 178.87 L123.82 179.68 L123.33 180.64 L122.78 181.01 L122.06 181.23 L120.72 181.24 L119.45 181.24 L118.85 181.4 L117.74 182.04 L117.17 182.53 L116.38 182.86 L115.55 183.59 L115.12 183.95 L114.92 184.4 L114.29 185.5 L113.53 186.55 L112.96 187.26 L111.84 188 L111.44 188.23 L111.95 188.96 L112.03 189.56 L111.97 190.03 L111.76 190.52 L111.4 190.92 L110.82 191.22 L110.25 191.3 L110.61 192.73 L110.29 194 L109.18 194.78 L108.45 194.93 L108.56 197.32 L108.36 198.37 L107.88 199.73 L106.47 200.94 L105.34 201.82 L104.3 202.68 L103.98 203.47 L103.53 204.33 L102.91 205.53 L102.32 205.97 L102.01 206.59 L101.36 207.11 L100.46 207.72 L99.02 208.61 L97.7 209.21 L96.71 209.46 L95.67 209.51 L95.6 209.69 L95.33 210.25 L95.02 210.6 L94.34 211.29 L93.22 212.27 L92.85 213.02 L91.9 214.02 L91.38 214.83 L90.98 215.52 L92.25 215.91 L92.92 216.43 L93.52 217.22 L94.63 217.65 L95.86 218.48 L96.31 219.66 L96.82 220.33 L97.64 221.69 L98.7 222.22 L100.26 222.33 L101.15 223.33 L101.19 224.55 L100.97 225.16 L100.27 226.08 L99.4 226.61 L97.68 226.87 L95.83 227.31 L94.84 227.52 L93.23 227.71 L92.27 227.49 L91.84 227.68 L90.96 228.03 L89.99 228.1 L88.23 227.92 L85.48 227.09 L84.17 226.6 L83.49 226.5 L82.38 226.22 L81.2 225.55 L80.27 225.24 L79.13 225.54 L78.35 226.11 L77.2 226.76 L76.02 226.9 L74.77 226.82 L73.99 227.19 L72.97 227.37 L72.27 227.26 L71.49 227.15 L70.66 228.04 L69.63 228.79 L68.68 228.95 L67.75 228.88 L66.7 228.46 L65.41 228.22 L63.8 228.04 L63.73 228.77 L63.83 229.38 L63.77 230.83 L63.22 231.63 L62.54 232.14 L61.49 232.48 L60.8 232.59 L60.33 233.23 L59.73 234.02 L58.86 234.57 L58.15 235.01 L58.12 235.56 L57.89 236.84 L57.47 237.66 L56.86 238.14 L56.33 238.34 L55.12 238.66 L55.12 238.73 L54.23 239.07 L53.83 239.47 L53.19 240.12 L52.57 240.51 L51.91 240.92 L51.29 241.49 L50.74 241.89 L49.99 242.3 L49.91 242.79 L49.64 244.25 L49.31 244.82 L48.75 245.37 L48.01 245.73 L47.35 245.76 L46.95 245.7 L45.46 245.18 L45.07 245.13 L45.02 245.39 L44.88 246.21 L44.52 247.32 L44.17 247.7 L43.14 248.13 L41.59 248.43 L40.16 248.62 L39.48 248.48 L37.82 247.82 L36.31 247.45 L35.36 247.85 L34.85 247.92 L33.77 247.86 L33.1 247.94 L32.15 247.83 L30.88 247.92 L30.45 248.19 L29.87 248.43 L29.33 248.54 L28.82 248.6 L28.28 249.06 L27.32 249.55 L26.54 249.66 L25.96 249.93 L25 250.35 L24.04 250.36 L22.89 250.2 L21.98 250.95 L21.35 251.35 L20.83 252.13 L20.31 252.6 L20.01 253.59 L19.43 254.7 L18.81 255.44 L17.99 255.82 L17.46 255.91 L16.78 256.19 L16.07 256.51 L15.24 256.35 L14.29 256.93 L12.89 257.37 L11.8 257.11 L10.68 256.16 L10.05 255.17 L9.38 254.04 L7.89 253.37 L6.76 253.11 L5.93 253.12 L5.5 253.22 L4.25 253.93 L3.01 255.02 L1.77 256.21 L0.65 257.14 L0.16 257.4 L0 257.21 L2.27 253.78 L5.15 249.48 L7.8 246.05 L9.47 243.21 L11.58 237.77 L12.13 234.79 L12.72 232.81 L14.91 230.74 L17.79 227.67 L19.14 226.33 L21.66 224.68 L26.01 222.72 L29.07 221.63 L30.42 219.14 L32.74 219.38 L34.17 217.43 L34.79 216.23 L38.04 215.09 L38.92 214.62 L39.33 213.94 L40.35 213.13 L40.53 212.23 L40.97 211.37 L41.76 210.44 L42.56 208.85 L42.84 208.18 L43.58 207.63 L43.97 207.03 L44.13 206.67 L44.72 206.36 L45.13 205.98 L46.36 204.5 L47.38 203.69 L48.57 202.94 L49.54 202.27 L50.82 201.66 L52.55 201.11 L53.34 200.95 L54.36 200.93 L55.19 201.09 L55.51 200.88 L55.74 200.28 L56.1 199.36 L56.53 198.73 L57.6 198.47 L58.5 198.65 L59.27 199.13 L59.45 199.12 L59.9 197.84 L60.6 197 L60.89 196.64 L61.38 195.71 L61.8 195.22 L63.21 194.56 L63.81 193.71 L64.38 193 L65.5 191.89 L67 190.31 L67.61 189.54 L68.11 188.83 L69.07 187.56 L69.68 187.15 L74.06 184.45 L76.5 182.79 L77.54 182.12 L78.3 181.84 L78.51 181.64 L79.5 181.06 L80.75 180.54 L80.93 179.27 L81.46 177.89 L81.05 176.71 L81.05 175.8 L81.24 174.97 L81.91 173.81 L82.02 173.27 L82.56 172.53 L83.74 171.84 L86.68 172.48 L86.84 173 L87 171.92 L87.67 170.75 L88 170.24 L88.34 169.56 L89.1 168.64 L90.2 167.52 L91.61 166.39 L92.5 165.71 L93.29 164.66 L94.82 163.71 L95.99 162.9 L97.57 162.69 L98.25 162.57 L99.5 161.69 L100.76 161.85 L101.71 161.44 L102.02 161.57 L102.71 161.19 L103.55 161.13 L103.89 160.07 L104.99 159.08 L106.18 158.37 L107.89 157.72 L109.81 157.75 L110.82 157.99 L112.4 158.09 L114.04 157.89 L115.73 157.52 L116.82 156.86 L118.72 156.15 L118.01 155.23 L117.87 154.54 L117.18 153.24 L117.8 151.92 L118.23 151.17 L119.27 150.54 L120.56 150.41 L121.38 150.63 L121.77 150.44 L122.77 150.26 L123.27 149.72 L125.15 150.05 L126.38 150.85 L127.64 150.51 L128.65 150 L128.85 149.38 L129.88 148.85 L130.39 148.91 L130.99 148.44 L130.91 147.77 L131 147.09 L131.25 146.69 L131.79 145.95 L132.52 146.02 L133.21 145.69 L133.56 145.69 L135.32 145.03 L136.98 144.97 L138.38 144.97 L139.49 144.89 L140.25 145.17 L141.1 145.25 L142.02 145.48 L142.41 145.57 L143.07 145.36 L143.7 145.1 L144.37 145.01 L145.07 144.59 L145.68 144.3 L146.57 144.24 L147.7 144.47 L148.77 145.09 L149.71 145.77 L151.11 146.12 L151.78 147.28 L151.83 147.86 L152.13 148.88 L152.9 149.01 L153.96 149.75 L154.78 150.51 L154.88 150.9 L155.37 151.37 L155.78 152.23 L156.19 152.85 L156.95 153.39 L157.58 153.75 L158.6 154.19 L159.71 154.91 L160.35 156.23 L160.98 157.94 L161.64 159.26 L162.08 160.18 L163.24 160.77 L164.73 160.39 L165.36 160.04 L166.73 159.61 L167.62 159.24 L168.95 158.47 L170.52 158.4 L173.51 158.27 L175.86 158.21 L178.13 158.45 L178.95 158.48 L181.53 159.47 L182.16 159.42 L183.1 159 L183.68 158.42 L184.24 157.18 L184.89 156.49 L185.67 156.31 L186.7 156.71 L187.1 157.07 L188.24 157.48 L189.46 158.12 L190.08 158.58 L191.24 158.88 L192.65 159.36 L193.77 159.88 L195.32 160.4 L196.62 159.9 L197.38 159.84 L198.02 159.23 L198.28 158.77 L199.11 158.15 L199.8 157.48 L200.96 157.21 L202.03 157.54 L203.43 157.15 L203.94 156.62 L203.82 155.88 L204.34 154.54 L204.14 152.23 L204.38 150.16 L204.72 148.89 L205.61 147.87 L207.35 147.42 L208.22 147.24 L210.32 147.34 L211.29 146.89 L212.36 146.2 L213.12 145.86 L213.11 144.62 L213.9 142.7 L214.25 140.54 L214.56 139.4 L215.3 138.77 L216.67 138.47 L218.33 138.56 L219.85 139.03 L220.67 139.72 L221.09 140.46 L221.16 141.73 L221.42 142.58 L221.74 143.23 L222.6 143.95 L223.2 144.77 L223.26 146.41 L223.48 147.68 L223.17 148.83 L222.71 150.16 L222.21 150.94 L221.54 152.05 L223.34 152.2 L224.66 152.88 L226.78 153.75 L228.9 155.28 L229.69 155.28 L231.2 156.11 L231.95 157.12 L232.56 158.52 L232.63 159.75 L232.68 160.38 L231.92 162.13 L230.63 164.11 L231.3 164.47 L233.18 164.83 L234.01 164.14 L234.71 163.57 L235.78 162.98 L237.35 162.66 L238.44 162.51 L239.79 162.89 L240.93 163.17 L242.31 163.38 L243.47 164.41 L244.08 165.36 L244.27 165.98 L246.09 166.61 L247.26 166.93 L247.83 167.24 L248.53 168.07 L248.69 169.56 L248.65 170.38 L249.23 170.9 L249.62 171.54 L250.51 172.3 L251.16 173.21 L251.61 174 L252.59 174.53 L253.01 175.82 L253.41 176.36 L253.7 176.99 L255 177.67 L256.21 178.45 L257.02 179.01 L258.05 180.05 L258.8 181.26 L260.09 182.95 L260.67 183.75 L261.12 184.27 L262.13 184.3 L262.55 183.74 L262.54 182.51 L263.4 180.54 L264.05 179.21 L265.02 178.5 L266.39 177.64 L266.75 177.2 L267.71 176.57 L268.52 175.68 L269.59 174.98 L270 173.89 L270.76 173.13 L271.84 172.35 L272.79 171.93 L273.1 171.61 L273.02 170.42 L274 169.05 L274.72 168.77 L275.39 168.7 L276.14 168.8 L276.86 169.42 L277.7 168.94 L278.21 168.78 L279.31 168.94 L280.11 168.96 L280.87 169.04 L282.06 169.53 L283.03 169.13 L284.07 169.21 L285.16 169.32 L285.84 169.8 L286.74 170.28 L287.22 170.91 L287.3 172.01 L288.39 171.87 L289.27 171.74 L290.08 171.5 L291.16 171.71 L291.41 171.8 L292.12 172.27 L292.78 171.71 L293.42 171.37 L295.03 171 L295.9 170.84 L297.03 170.86 L297.63 170.41 L297.33 169.91 L297.19 169.28 L297.28 167.96 L297.84 166.7 L299.31 165.04 L299.7 164.43 L300.51 163.67 L300.94 162.93 L301.36 162.26 L302.17 161.76 L302.48 161.15 L302.5 160.43 L302.93 159.46 L303.84 158.32 L304.72 157.46 L305.89 156.75 L306.81 155.96 L307.25 155.26 L307.41 154.72 L307.98 153.9 L308.73 153.71 L310.17 153.55 L310.92 152.72 L311.62 152.01 L312.02 151.35 L313.12 150.67 L314.09 150.56 L314.19 149.26 L314.32 148.49 L314.78 147.88 L314.86 147.31 L315.37 146.29 L314.78 144.47 L314.61 143.68 L314.5 142.26 L315.18 140.93 L316.02 140.38 L317.49 140.43 L318.61 141.07 L318.95 141.36 L320.73 141.75 L321.66 141.55 L323.19 141.58 L323.79 142.35 L324.79 143.12 L325.14 143.73 L325.19 144.93 L324.96 146.23 L325.4 147.45 L325.4 149.16 L325.4 149.7 L325.83 150.73 L326.27 152.26 L326.88 153.41 L327.7 154.8 L328.7 156.02 L330 158.53 L330.56 159.29 L330.89 160.47 L332.48 161.86 L333.15 162.99 L333.59 163.96 L333.67 164.41 L334.3 164.98 L334.39 165.72 L334.49 166.22 L334.72 166.26 L335.55 165.65 L336.15 165.12 L337.11 164.15 L338.98 163.39 L340.51 162.64 L342.95 161.46 L345.42 160.4 L347.85 159.92 L348.78 159.84 L349.96 159.73 L351.45 159.7 L352.47 159.54 L354.3 158.92 L356.31 158.07 L358.33 157.46 L361.14 156.88 L361.52 156.38 L361.72 154.88 L362.56 153.84 L362.79 153.19 L362.86 152.68 L363.13 152.31 L363.26 151.79 L363.61 150.96 L363.84 150.65 L364.37 149.88 L364.97 149.2 L365.69 148.52 L365.8 147.77 L366.17 147.56 L366.52 147.1 L367.31 146.68 L368.2 146.3 L368.62 146.25 L368.91 146.14 L368.33 145.59 L367.95 145.27 L367.45 144.74 L367.21 144.2 L367.17 144.01 L367.04 143.4 L366.83 142.94 L366.72 142.17 L366.5 141.63 L366.55 140.97 L366.78 140.26 L367.25 138.94 L367.63 137.92 L368.28 136.99 L369.08 136.29 L369.82 135.73 L370.13 135.49 L370.2 135.22 L369.25 134.67 L368 133.88 L367.19 133.38 L366.55 132.72 L366.26 131.62 L366.45 130.73 L367.27 129.88 L367.72 129.42 L369.1 129.4 L369.93 129.05 L370.76 129.06 L371.8 129.34 L373 129.82 L373.65 129.82 L374.67 130.11 L375.11 129.62 L375.83 129.22 L375.99 128.54 L376.52 127.72 L377.39 127.29 L378.6 127.27 L379.09 127.83 L379.42 128.07 L379.87 128.75 L380.46 128.35 L380.98 127.93 L381.99 127.49 L383.18 127.33 L383.94 127.35 L384.82 127.11 L385.46 127.22 L386.17 127.14 L386.91 127.19 L387.53 127.51 L388.02 127.6 L389.44 128.15 L390.42 127.31 L391.21 126.62 L392.41 126.44 L393.53 126.75 L393.98 127.26 L394.58 128.1 L394.91 128.47 L395.45 129.6 L395.45 130.4 L395.59 130.61 L397.03 131.12 L398.37 132.22 L399.05 132.77 L399.48 132.93 L400.18 132.73 L400.7 132.82 L401.81 132.23 L402.92 131.86 L403.47 131.49 L404.41 131 L405.12 130.86 L405.85 130.44 L406.29 130.16 L407.69 129.83 L408.48 129.41 L409.41 128.98 L409.99 128.73 L411.13 128.07 L412.37 127.63 L413.24 127.4 L414.43 127.15 L415.4 127.68 L416.22 128.15 L417.05 128.17 L418.06 128.41 L418.99 128.85 L420.26 129.68 L421.41 129.52 L422.27 128.96 L423.16 127.83 L423.72 127.03 L424.98 126.72 L426.25 126.39 L426.76 125.93 L427.52 125.24 L427.9 124.09 L428.79 123.09 L429.34 122.35 L430.32 121.67 L430.79 120.59 L431.05 119.8 L431.73 119.05 L431.74 118.43 L432.24 118.14 L432.56 117.49 L432.92 116.95 L432.69 116.38 L432.8 115.44 L433.02 114.99 L433.37 114.51 L433.34 113.26 L433.57 111.88 L433.86 111.09 L434.51 110.16 L434.93 109.63 L436.07 109.22 L436.58 109.43 L437.73 109.77 L437.96 110.21 L438.15 111.5 L437.94 112.31 L438.46 113.81 L438.6 115.02 L439.66 115.89 L439.43 116.87 L439.87 117.69 L439.88 118.77 L439.97 120.16 L440.13 120.44 L441.45 120.33 L441.9 120.18 L442.75 120.05 L443.17 119.52 L444.33 118.88 L445.92 118.73 L447.18 118.76 L448.23 119.05 L450.37 119.24 L451.35 119.34 L451.97 118.95 L453.08 118.41 L453.99 118.2 L454.61 118.13 L455.44 118.27 L456.22 118.93 L456.74 119.59 L457.51 120.03 L458.68 120.31 L459.56 121.09 L460.05 121.83 L460.94 122.15 L461.96 122.37 L463.11 122.36 L463.95 122.03 L464.67 122.13 L465.28 122.44 L466.36 123.14 L466.88 122.23 L467.39 121.8 L468.51 121.51 L469.68 121.99 L470.32 122.65 L470.77 124.22 L471.49 126 L472.25 126.67 L473.07 126.73 L473.68 126.52 L475.08 126.45 L476.23 126.33 L476.9 126.54 L477.62 127.11 L478.69 127.61 L479.24 128.37 L479.53 129.28 L480 130.52 L480.27 131.78 L480.58 132.09 L481.5 132.96 L482.34 134.05 L482.48 134.54 L483 134.85 L483.68 135.9 L484.05 135.62 L484.26 134.43 L485.14 133.7 L485.66 133.53 L486.31 133 L486.98 131.92 L487.87 130.65 L488.29 129.96 L488.9 129.31 L490.11 128.84 L490.65 128.4 L491.25 127.73 L492.46 127.22 L493.36 126.66 L494.72 125.68 L495.32 125.44 L496.46 125.35 L497.57 124.39 L498.13 123.46 L498.62 122.53 L498.65 122.06 L498.36 120.73 L498.04 119.28 L497.94 118.03 L498.03 116.7 L497.91 115.36 L497.62 114.16 L497.91 112.67 L498.16 112.29 L498.05 111.65 L498.12 110.63 L498.54 109.96 L499.5 108.59 L500 107.93 L500.09 107.59 L500.26 105.21 L500.45 104.45 L500.96 103.82 L501.79 102.33 L502.15 101.75 L502.88 100.37 L503.54 100.1 L503.87 99.52 L504.15 98.86 L504.89 98.03 L505.64 97.44 L506.31 97.05 L506.88 96.98 L507.84 96.49 L508.02 96.3 L508.43 95.66 L509.18 95.19 L509.99 94.89 L511.39 94.28 L512.45 93.91 L513.06 93.69 L514.02 93.6 L515.28 93.41 L517.25 93.15 L518.05 92.83 L518.52 92.76 L519.25 92.79 L520.3 93.19 L521.1 93.54 L521.68 93.54 L522.19 93.04 L522.62 92.87 L523.31 92.22 L524.16 91.61 L524.51 91.22 L525.56 90.66 L526.59 89.98 L527.43 89.24 L528.25 89.04 L529.5 88.93 L530.27 88.25 L531.64 87.79 L533.36 87.42 L533.85 87.41 L534.65 87.05 L534.63 86.23 L534.57 85.49 L534.56 85.11 L534.13 83.9 L533.4 83.22 L532.94 82.38 L532.92 82.11 L532.5 81.51 L532.21 80.61 L531.42 79.28 L530.82 78.03 L530.58 77.31 L530.5 76.46 L530.54 75.64 L530.19 74.86 L529.95 74.14 L529.86 73.5 L529.3 72.54 L528.97 71.55 L528.89 70.23 L528.85 69.71 L528.07 68.12 L528.18 67.05 L528.07 66.63 L527.79 65.27 L527.71 64.48 L527.36 64.14 L526.92 63.47 L526.87 62.74 L527.03 61.85 L527.42 60.66 L527.35 59 L527.42 57.96 L527.61 57.5 L527.92 56.8 L528.28 55.87 L528.99 54.68 L529.91 53.42 L530.22 52.95 L530.35 52.05 L530.81 50.74 L530.96 50.3 L532.9 50.64 L534.19 51.87 L535.16 53.3 L536.37 53.4 L537.62 53.96 L538.79 54.49 L539.52 54.77 L540.25 55.4 L540.73 56.33 L541.03 56.92 L541.67 57.43 L541.85 58.05 L542.81 58.49 L543.51 58.82 L544.52 58.91 L545.22 59.11 L546.27 60.02 L546.79 60.47 L547.02 61.38 L549 62.11 L549.99 61.64 L551.29 61.2 L552.27 61.01 L553.93 61.19 L553.26 60.66 L552.8 59.51 L552.74 59.08 L552.07 57.62 L552.08 56.19 L551.77 54.99 L551.16 53.27 L551.25 52.38 L552.13 51.35 L554.12 49.76 L555.41 45.62 L557.11 45.34 L559.25 43.99 L560.31 42.91 L562.47 42.33 L564.76 42.63 L565.86 43.12 L567.17 43.2 L568.21 43.59 L569.12 44.93 L569.35 45.51 L569.88 44.83 L570.71 42.01 L569.02 41.33 L568.45 40.56 L567.98 38.84 L567.8 35.31 L567.33 32.93 L566.57 31.4 L565.05 30.06 L563.06 29.39 L559.64 28.81 L557.37 28.43 L555.56 27.95 L554.42 27.18 L553.57 26.13 L552.63 23.27 L551.97 19.93 L550.93 17.07 L549.32 13.63 L548.29 10.77 L547.34 8.38 L547.44 6.38 L548.2 4.38 L549.15 2.95 L551.06 1.52 L552.96 0.47 L554.38 0 L556.85 0.1 L558.56 0.68 L560.26 1.82 L561.4 2.87 L562.82 4.21 L564.62 5.84 L562.15 7.17 L561.11 8.22 L560.44 8.98 L560.06 10.12 L559.68 11.55 L559.3 12.31 L558.73 12.5 L557.21 12.5 L555.97 12.88 L555.21 14.98 L555.77 18.22 L557 20.99 L558.04 22.61 L559.37 23.57 L561.36 24.14 L564.02 24.05 L566.01 24.06 L568.29 25.01 L569.52 26.45 L570.85 28.17 L572.08 30.55 L573.02 33.51 L573.97 36.66 L574.43 39.62 L574.44 39.71 z" class="polygon_1" style="fill:#571D6D;" />
    </g>
    <g id="SiteLine" style="fill:none;" />
    <g id="SitePoint">
      <circle cx="35" cy="232" r="6" id="Dam_S2143" style="fill:#74B24E;stroke:#365B1F;">
        <title>德基水庫一 ：優養 (52)</title>
      </circle>
      <circle cx="81" cy="191" r="6" id="Dam_S2144" style="fill:#74B24E;stroke:#365B1F;">
        <title>德基水庫二 ：優養 (56)</title>
      </circle>
      <circle cx="252" cy="186" r="6" id="Dam_S2145" style="fill:#74B24E;stroke:#365B1F;">
        <title>德基水庫三 ：優養 (53)</title>
      </circle>
      <circle cx="325" cy="159" r="6" id="Dam_S2146" style="fill:#74B24E;stroke:#365B1F;">
        <title>德基水庫四 ：優養 (56)</title>
      </circle>
      <circle cx="492" cy="135" r="6" id="Dam_S2201" style="fill:#74B24E;stroke:#365B1F;">
        <title>德基水庫五 ：優養 (60)</title>
      </circle>
    </g>
    <g id="Mark" class="Heilight">
      <g transform="translate(35, 232) translate(-14, -14)" id="gMark" class="HeilightTrans">
        <path d="M17.2 27.5 L17.2 23.4 L22.8 23.4 L23.3 23.4 L23.3 22.9 L23.3 17.3 L27.4 17.3 L27.4 27.6 L17.2 27.5 z M0.5 27.5 L0.5 17.2 L4.6 17.2 L4.6 22.8 L4.6 23.3 L5.1 23.3 L10.1 23.3 L10.1 27.4 L0.5 27.5 z M27.5 10.2 L23.4 10.2 L23.4 5.2 L23.4 4.6 L22.9 4.6 L17.3 4.6 L17.3 0.5 L27.6 0.5 L27.6 10.2 z M4.6 10.2 L0.5 10.2 L0.5 0.5 L10.2 0.5 L10.2 4.6 L5.2 4.6 L4.6 4.6 L4.6 5.1 L4.6 10.2 z" class="st0" style="fill:#FF800E;" />
        <path d="M17.7 27 L27 27 L27 17.7 L23.9 17.7 L23.9 22.8 L23.9 23.8 L22.9 23.8 L17.8 23.8 L17.8 27 M1 27 L9.7 27 L9.7 23.9 L5.1 23.9 L4.1 23.9 L4.1 22.9 L4.1 17.8 L1 17.8 L1 27 M27 9.7 L27 1 L17.7 1 L17.7 4.1 L22.8 4.1 L23.8 4.1 L23.8 5.1 L23.8 9.6 L27 9.6 M4.1 9.7 L4.1 5.1 L4.1 4.1 L5.1 4.1 L9.6 4.1 L9.6 1 L1 1 L1 9.7 L4.1 9.7 M28 28 L28 28 L28 28 L16.7 28 L16.7 22.9 L22.8 22.9 L22.8 16.8 L28 16.8 L28 28 L28 28 z M10.7 28 L10.7 28 L10.7 28 L0 28 L0 16.7 L5.1 16.7 L5.1 22.8 L10.6 22.8 L10.6 28 L10.7 28 z M28 10.7 L28 10.7 L28 10.7 L22.9 10.7 L22.9 5.1 L16.8 5.1 L16.8 0 L28 0 L28 10.7 L28 10.7 z M5.1 10.7 L5.1 10.7 L0 10.7 L0 0 L10.7 0 L10.7 5.1 L5.1 5.1 L5.1 10.7 L5.1 10.7 z" class="st1" style="fill:#B55600;" />
      </g>
    </g>
  </g>
</svg>