<?xml version="1.0" encoding="utf-8"?>
<!DOCTYPE svg PUBLIC "-//W3C//DTD SVG 1.1//EN" "http://www.w3.org/Graphics/SVG/1.1/DTD/svg11.dtd">
<svg width="376px" height="510px" viewBox="0, 0, 376, 510" class="svgDam" xmlns="http://www.w3.org/2000/svg" xmlns:xlink="http://www.w3.org/1999/xlink" xmlns:xml="http://www.w3.org/XML/1998/namespace" version="1.1">
  <g id="MapArea">
    <g id="Key_Area">
      <path d="M209.34 20.68 L210.87 0 L341.79 69.95 L375.13 89.05 L374.42 109.58 L341.24 113.59 L342.35 123.8 L349.19 131.07 L343.39 133.46 L344.23 141.2 L328.34 146.32 L328.24 147.91 L324.22 149.21 L321.9 148.4 L308.6 152.69 L287.02 162.21 L285.02 167.83 L284.3 169.77 L287.31 171.31 L285.81 175.42 L282.6 173.61 L282.21 177.94 L277.35 190.36 L279.64 191.18 L278.4 199.18 L278.13 202.64 L274.06 201.24 L272.73 200.74 L262.45 214.81 L253.78 232.87 L248.71 254.89 L241.04 257.46 L239.06 257.63 L236.6 257.06 L229.61 252.42 L221.5 256.12 L219.53 256.67 L217.32 259.78 L215.05 257.9 L203.18 261.15 L172.65 265.79 L158.52 277.53 L162.76 289.88 L139.96 302.97 L136.95 316.68 L157.09 359.82 L159.84 364.26 L162.51 364.85 L167.92 367.69 L174.17 372.55 L203.86 382.41 L198.73 388.59 L188.33 395 L183.18 400.69 L173.21 402.27 L162.15 401.12 L147.51 402.68 L129.27 402.04 L83.4 510 L85.13 500.98 L93.3 466.98 L99.81 446.56 L103.05 431.15 L102.5 413.22 L92.13 427.44 L85.32 441.38 L76.63 463.2 L71.47 473.54 L66.57 479.26 L58.66 483.63 L47.32 482.2 L49.42 474.08 L51.52 460.48 L48.77 451.2 L47.92 441.11 L43.81 433.46 L36.71 424.45 L33.72 424.72 L32.05 425.27 L31.49 423.8 L36.94 406.46 L38.28 399.54 L43.2 381.88 L48.35 366.89 L55.51 346.52 L58.42 338.02 L53.47 324.47 L42.63 316.76 L41.71 323.79 L39.04 336.38 L35.11 336.1 L24.76 334.98 L22.45 334.72 L16.56 332.4 L14.73 330.92 L15.42 328.36 L14.34 327.99 L2.86 324.03 L2.62 323.95 L2.65 322.66 L0.57 321.9 L0 317.94 L1.81 316.43 L3.88 312.64 L5.39 312.25 L7.57 309.68 L6.91 309.74 L7.67 306.82 L7.91 306.37 L7.15 305.88 L14.24 305.7 L16.8 302.31 L16.76 301.93 L16.68 301.67 L16.48 301.48 L16.16 301.15 L16.07 300.89 L15.75 300.64 L14.94 300.11 L14.68 299.92 L14.54 299.72 L14.33 299.39 L14.14 299.26 L13.99 299 L13.73 298.8 L13.67 298.73 L34.9 287.47 L60.23 286.55 L70 282.12 L79.8 252.53 L169.46 165.6 L165.96 147.48 L166 138.18 L174.51 124.74 L179.83 116.28 L185.41 106.58 L183.27 99.45 L179.13 88.25 L186.33 69.62 L192.01 49.5 L203.03 34.2 L209.34 20.68 z" class="polygon_1" style="fill:#571D6D;" />
    </g>
    <g id="SiteLine" style="fill:none;" />
    <g id="SitePoint">
      <circle cx="310" cy="97" r="6" id="Dam_S2192" style="fill:#ECEBEA;stroke:#AAAAAA;">
        <title>成功水庫 ：無檢測資料</title>
      </circle>
    </g>
    <g id="Mark" class="Heilight">
      <g transform="translate(310, 97) translate(-14, -14)" id="gMark" class="HeilightTrans">
        <path d="M17.2 27.5 L17.2 23.4 L22.8 23.4 L23.3 23.4 L23.3 22.9 L23.3 17.3 L27.4 17.3 L27.4 27.6 L17.2 27.5 z M0.5 27.5 L0.5 17.2 L4.6 17.2 L4.6 22.8 L4.6 23.3 L5.1 23.3 L10.1 23.3 L10.1 27.4 L0.5 27.5 z M27.5 10.2 L23.4 10.2 L23.4 5.2 L23.4 4.6 L22.9 4.6 L17.3 4.6 L17.3 0.5 L27.6 0.5 L27.6 10.2 z M4.6 10.2 L0.5 10.2 L0.5 0.5 L10.2 0.5 L10.2 4.6 L5.2 4.6 L4.6 4.6 L4.6 5.1 L4.6 10.2 z" class="st0" style="fill:#FF800E;" />
        <path d="M17.7 27 L27 27 L27 17.7 L23.9 17.7 L23.9 22.8 L23.9 23.8 L22.9 23.8 L17.8 23.8 L17.8 27 M1 27 L9.7 27 L9.7 23.9 L5.1 23.9 L4.1 23.9 L4.1 22.9 L4.1 17.8 L1 17.8 L1 27 M27 9.7 L27 1 L17.7 1 L17.7 4.1 L22.8 4.1 L23.8 4.1 L23.8 5.1 L23.8 9.6 L27 9.6 M4.1 9.7 L4.1 5.1 L4.1 4.1 L5.1 4.1 L9.6 4.1 L9.6 1 L1 1 L1 9.7 L4.1 9.7 M28 28 L28 28 L28 28 L16.7 28 L16.7 22.9 L22.8 22.9 L22.8 16.8 L28 16.8 L28 28 L28 28 z M10.7 28 L10.7 28 L10.7 28 L0 28 L0 16.7 L5.1 16.7 L5.1 22.8 L10.6 22.8 L10.6 28 L10.7 28 z M28 10.7 L28 10.7 L28 10.7 L22.9 10.7 L22.9 5.1 L16.8 5.1 L16.8 0 L28 0 L28 10.7 L28 10.7 z M5.1 10.7 L5.1 10.7 L0 10.7 L0 0 L10.7 0 L10.7 5.1 L5.1 5.1 L5.1 10.7 L5.1 10.7 z" class="st1" style="fill:#B55600;" />
      </g>
    </g>
  </g>
</svg>