<?xml version="1.0" encoding="utf-8"?>
<!DOCTYPE svg PUBLIC "-//W3C//DTD SVG 1.1//EN" "http://www.w3.org/Graphics/SVG/1.1/DTD/svg11.dtd">
<svg width="575px" height="409px" viewBox="0, 0, 575, 409" class="svgDam" xmlns="http://www.w3.org/2000/svg" xmlns:xlink="http://www.w3.org/1999/xlink" xmlns:xml="http://www.w3.org/XML/1998/namespace" version="1.1">
  <g id="MapArea">
    <g id="Key_Area">
      <path d="M38.45 377.46 L33.12 381.39 L28.89 386.66 L25.99 391.43 L25.04 395.71 L24.58 400.23 L25.92 402.67 L25.69 404.75 L23.64 408.55 L0 393.62 L0.47 390.57 L1.43 387.03 L5.78 382.48 L16.08 376.09 L25.79 371.77 L27.85 370.91 L45.43 361.43 L64.47 351.94 L84.47 341.96 L85.68 340.73 L91.74 337.04 L104.47 329.9 L115.85 321.91 L137.54 305.82 L150.98 295.74 L152.55 295.25 L162.85 287.02 L219.17 243.9 L252.6 218.96 L264.23 210.12 L266.04 208.53 L286.63 193.16 L303.58 179.66 L306.13 177.94 L321.75 166.27 L331.2 158.9 L333.14 157.05 L357.61 138.88 L381.83 120.45 L391.16 113.81 L407.75 101.16 L414.05 97.22 L419.5 92.68 L421.08 91.45 L463.57 53.4 L506.05 14.99 L512.23 9.1 L514.3 10.43 L526.29 0 L533.71 2.41 L565.47 40.01 L575 53.16 L571.97 54.89 L568.24 63.94 L568.74 67.11 L564.75 70.79 L559.54 73.75 L556.5 76.08 L553.73 80.12 L550.71 84.04 L546.96 88.09 L542.36 93 L536.8 99.24 L530.51 105.26 L526.87 109.43 L526.04 113.22 L523.75 116.16 L521.34 120.33 L518.8 123.38 L515.76 125.11 L502.29 127.49 L492.21 131.07 L482.51 136 L474.64 141.78 L463.13 148.79 L450.03 153.85 L439.35 157.93 L428.19 163.59 L415.11 172.08 L410.62 175.64 L405.91 179.69 L401.66 181.79 L399.12 182.78 L393.28 182.81 L386.36 185.52 L378.72 188.49 L376.78 189.84 L373.99 189.97 L371.56 190.47 L367.43 190.61 L363.78 189.77 L362.57 189.9 L360.88 192.84 L357.25 195.78 L349.49 200.09 L346.58 202.31 L342.46 204.16 L338.21 205.4 L336.03 206.88 L334.94 207.98 L328.14 210.21 L327.9 211.43 L327.79 214.48 L326.1 217.3 L322.95 218.41 L318.46 220.02 L306.7 224.47 L304.4 226.31 L296.87 229.64 L292.27 231.25 L289.35 231.26 L284.99 234.21 L280.14 236.67 L277.46 237.3 L275.28 237.91 L272.73 238.05 L269.45 238.06 L267.51 238.07 L265.46 242.36 L263.16 243.71 L249.56 247.07 L246.77 248.67 L246.29 251.36 L246.67 252.33 L247.27 253.06 L246.68 255.38 L242.57 261.02 L239.79 263.59 L236.03 266.66 L233.13 268.15 L227.7 277.2 L223.33 278.21 L218.12 281.52 L212.18 284.73 L207.45 285.97 L200.64 286.61 L197.84 285.4 L195.53 284.92 L189.84 289.59 L187.05 291.06 L184.99 291.32 L182.2 291.94 L179.52 291.46 L177.32 289.52 L176.23 289.52 L169.93 293.33 L168.72 294.81 L167.63 297.26 L166.07 301.05 L165.1 301.79 L158.9 301.94 L154.54 304.4 L146.06 310.42 L133.58 318.66 L122.43 325.91 L115.89 330.71 L104.98 337.1 L99.65 339.69 L90.32 346.45 L68.63 360.11 L55.9 367.74 L38.45 377.46 z" class="polygon_1" style="fill:#571D6D;" />
    </g>
    <g id="SiteLine" style="fill:none;" />
    <g id="SitePoint">
      <circle cx="478" cy="90" r="6" id="Dam_S2108" style="fill:#ECEBEA;stroke:#AAAAAA;">
        <title>擎天水庫 ：無檢測資料</title>
      </circle>
    </g>
    <g id="Mark" class="Heilight">
      <g transform="translate(478, 90) translate(-14, -14)" id="gMark" class="HeilightTrans">
        <path d="M17.2 27.5 L17.2 23.4 L22.8 23.4 L23.3 23.4 L23.3 22.9 L23.3 17.3 L27.4 17.3 L27.4 27.6 L17.2 27.5 z M0.5 27.5 L0.5 17.2 L4.6 17.2 L4.6 22.8 L4.6 23.3 L5.1 23.3 L10.1 23.3 L10.1 27.4 L0.5 27.5 z M27.5 10.2 L23.4 10.2 L23.4 5.2 L23.4 4.6 L22.9 4.6 L17.3 4.6 L17.3 0.5 L27.6 0.5 L27.6 10.2 z M4.6 10.2 L0.5 10.2 L0.5 0.5 L10.2 0.5 L10.2 4.6 L5.2 4.6 L4.6 4.6 L4.6 5.1 L4.6 10.2 z" class="st0" style="fill:#FF800E;" />
        <path d="M17.7 27 L27 27 L27 17.7 L23.9 17.7 L23.9 22.8 L23.9 23.8 L22.9 23.8 L17.8 23.8 L17.8 27 M1 27 L9.7 27 L9.7 23.9 L5.1 23.9 L4.1 23.9 L4.1 22.9 L4.1 17.8 L1 17.8 L1 27 M27 9.7 L27 1 L17.7 1 L17.7 4.1 L22.8 4.1 L23.8 4.1 L23.8 5.1 L23.8 9.6 L27 9.6 M4.1 9.7 L4.1 5.1 L4.1 4.1 L5.1 4.1 L9.6 4.1 L9.6 1 L1 1 L1 9.7 L4.1 9.7 M28 28 L28 28 L28 28 L16.7 28 L16.7 22.9 L22.8 22.9 L22.8 16.8 L28 16.8 L28 28 L28 28 z M10.7 28 L10.7 28 L10.7 28 L0 28 L0 16.7 L5.1 16.7 L5.1 22.8 L10.6 22.8 L10.6 28 L10.7 28 z M28 10.7 L28 10.7 L28 10.7 L22.9 10.7 L22.9 5.1 L16.8 5.1 L16.8 0 L28 0 L28 10.7 L28 10.7 z M5.1 10.7 L5.1 10.7 L0 10.7 L0 0 L10.7 0 L10.7 5.1 L5.1 5.1 L5.1 10.7 L5.1 10.7 z" class="st1" style="fill:#B55600;" />
      </g>
    </g>
  </g>
</svg>