<?xml version="1.0" encoding="utf-8"?>
<!DOCTYPE svg PUBLIC "-//W3C//DTD SVG 1.1//EN" "http://www.w3.org/Graphics/SVG/1.1/DTD/svg11.dtd">
<svg width="496px" height="510px" viewBox="0, 0, 496, 510" class="svgDam" xmlns="http://www.w3.org/2000/svg" xmlns:xlink="http://www.w3.org/1999/xlink" xmlns:xml="http://www.w3.org/XML/1998/namespace" version="1.1">
  <g id="MapArea">
    <g id="Key_Area">
      <path d="M479.85 173.34 L476.98 174.02 L473.69 175.84 L472.26 176.07 L467.41 179.15 L464.68 179.6 L463.39 179.38 L462.09 178.35 L459.92 178.13 L457.77 177.33 L454.58 174.37 L453.13 173.69 L450.7 173.58 L450.7 173.69 L448.69 173.8 L446.97 174.26 L443.11 176.2 L442.68 176.77 L441.97 176.77 L440.96 177.57 L436.54 179.62 L432.66 180.3 L429.64 179.28 L427.76 177.8 L425.45 176.55 L423.42 175.87 L418.95 173.25 L417.51 172.79 L415.79 173.71 L416.38 175.41 L421.32 180.88 L423.68 186.45 L423.27 189.41 L423.87 192.03 L424.46 192.72 L425.32 193.17 L429.35 194.42 L430.67 195.56 L431.54 196.92 L432 200.45 L430.78 208.54 L429.66 210.7 L426.25 214.23 L422.67 215.94 L419.66 216.06 L417.79 215.6 L413.75 213.67 L412.45 213.33 L410.57 211.73 L404.67 210.03 L400.21 209.58 L398.19 209.58 L397.21 211.06 L396.66 214.93 L395.68 216.98 L394.39 217.43 L393.82 217.44 L392.67 216.98 L390.94 215.96 L389.77 214.82 L388.2 214.71 L387.05 215.28 L386.19 215.28 L384.65 215.56 L382.98 216.67 L382.53 217.55 L382.16 218.78 L382.16 223.22 L382.75 227.46 L382.51 228.51 L382.06 229.22 L380.35 230.65 L379.43 231.05 L377.8 232.39 L376.07 235.6 L374.16 236.74 L371.71 237.2 L371.27 237.57 L370.46 237.63 L369.27 238.45 L368.82 238.96 L368.81 239.85 L369.28 241.16 L370.15 242.35 L373.24 248.53 L374.07 249.86 L375.9 250.32 L377.53 250.43 L378.07 250.8 L379.67 250 L382.99 249.49 L384.65 249.46 L387.09 248.29 L388.53 248.18 L391.13 249.88 L393.16 251.7 L394.89 252.84 L396.33 253.18 L397.34 253.75 L397.09 257.74 L397.69 259.67 L398.84 260.01 L400.42 259.78 L401.14 260.01 L402.16 260.58 L403.16 261.49 L405.52 267.3 L407.47 275.49 L408.94 278.79 L408.51 279.36 L407.22 280.16 L407.54 282.89 L405.39 282.89 L402.53 284.03 L399.24 285.74 L391.37 288.82 L388.21 288.71 L384.64 288.65 L379.96 290.08 L375.89 290.42 L373.62 290.31 L369.54 288.72 L367.09 288.43 L366.41 288.6 L365.51 288.6 L364.17 289.83 L362.97 292.16 L362.36 293.99 L360.91 296.06 L360.57 296.86 L359.67 296.41 L357.39 293.28 L356.85 292.93 L356.15 292.82 L352.51 294.67 L349.35 297.01 L348.09 298.15 L347.42 299.68 L346.36 300.85 L344.83 303.13 L344.75 303.7 L344.51 303.96 L344.06 306.23 L345.12 307.94 L347.54 308.65 L349.26 309.67 L351.43 310.58 L352.15 311.61 L352.44 312.75 L352.3 313.43 L351.72 314.57 L350.58 315.37 L350 315.48 L348.13 315.25 L346.71 315.82 L340.54 320.61 L340.12 322.43 L339.69 322.77 L339.41 323.8 L338.68 327.72 L338.68 327.87 L338.56 328.24 L338.71 329.49 L338.42 330.29 L337.87 334.73 L337.72 335.29 L337.44 335.29 L337.01 337.91 L337.3 338.82 L337.02 339.62 L337.3 340.08 L337.17 340.08 L337.46 343.15 L338.32 344.29 L338.33 345.31 L338.47 345.77 L338.76 345.88 L339.49 350.09 L339.59 350.24 L339.66 350.35 L339.62 350.78 L339.94 352.48 L340.04 352.85 L340.08 353.05 L340.38 355.22 L340.09 357.38 L339.38 358.29 L338.08 358.4 L337.63 358.46 L337.35 358.43 L337.22 358.29 L336.36 358.29 L335.78 358.52 L334.64 359.32 L333.07 361.03 L331.2 362.39 L329.48 362.73 L324.75 363.19 L324.32 363.08 L323.74 362.05 L323.87 360.92 L324.16 360.8 L324.16 360.46 L325.02 359.44 L325.3 358.18 L325.3 357.61 L324.72 356.13 L323.57 355.91 L323.14 356.02 L322.28 355.68 L321.13 356.14 L319.7 358.07 L319.13 358.07 L318.7 357.96 L318.41 356.37 L317.54 355.91 L313.08 355.34 L311.94 355.8 L311.94 356.03 L311.51 355.91 L311.23 356.26 L310.79 356.26 L309.07 354.78 L309.2 352.84 L309.77 350.68 L310.33 347.38 L310.03 346.12 L308.88 343.96 L308.59 343.96 L307.73 342.25 L307.01 341.69 L305.85 340.09 L305.56 339.3 L305.71 339.18 L305.42 339.07 L303.84 336.91 L300.23 333.38 L298.07 332.47 L298.22 332.13 L297.79 331.9 L296.78 331.67 L295.05 328.37 L294.89 324.96 L295.6 321.77 L295.59 320.74 L295.3 320.18 L295.45 320.06 L295.16 319.15 L293.29 316.87 L292.62 315.57 L292.41 315.2 L292.2 315.05 L291.98 314.14 L293.11 309.82 L293.11 309.1 L292.54 308.05 L291.13 306.35 L290.94 305.89 L290.49 305.12 L290.16 304.01 L289.98 302.11 L289.92 298.41 L290.07 297.27 L291.21 294.79 L291.31 293.62 L290.94 292.23 L290.51 291.55 L289.62 291.12 L287.32 291.01 L286.36 291.63 L285.63 291.89 L283.11 285.12 L282.3 283.87 L280.45 284.66 L279.72 285.38 L278.28 286.06 L277.1 285.69 L276.32 285.09 L275.36 284.01 L275.05 283.39 L274.78 282.22 L274.87 280.43 L275.28 278.49 L276.87 273.68 L277.43 270.04 L276.96 266.36 L276.38 264.83 L275.78 264.23 L273.49 262.72 L270.53 259.45 L269.71 257.74 L268.54 254.64 L268.03 251.68 L267.95 249.86 L268.24 243.37 L268.13 241.46 L270.47 238.45 L270.33 237.54 L269.43 235.66 L269.47 232.92 L268.89 229.71 L267.82 227.03 L266.7 225.41 L265.9 224.62 L264.53 224.33 L263.62 225.21 L263.11 226.89 L261.48 228.8 L261.38 229.34 L261.58 230.17 L261.37 231.96 L261.07 233.47 L260.25 235.66 L258.72 236.89 L257.17 237.46 L255.48 238.63 L251.35 243.32 L249.01 245.57 L247.38 246.83 L246.49 248.25 L246.2 249.22 L246.11 250.39 L246.51 253.8 L246.29 257.96 L246.68 260.2 L247.2 261.11 L249.31 262.14 L250.53 263.5 L251.36 264.93 L251.42 266.26 L250.29 268.94 L244.59 276.77 L243.99 281.32 L242.16 284.66 L239.52 287.56 L239.01 288.59 L238.46 289.81 L238.03 291.55 L238.01 293.03 L238.75 295.05 L239.78 296.27 L240.25 296.53 L243.78 296.89 L244.73 296.81 L246.88 296.27 L247.85 296.21 L248.45 296.41 L249.01 297.4 L249.4 299.05 L249.45 301.07 L248.22 303.27 L247.54 305.63 L247.73 306.31 L249.03 310.52 L249.18 311.55 L249.03 313.26 L249.77 319.4 L249.78 320.66 L248.79 325.1 L247.65 325.44 L247.35 324.76 L247.07 324.76 L246.63 324.07 L246.48 323.05 L245.75 321.11 L244.75 320.09 L243.88 319.63 L242.45 318.27 L241.57 316.45 L240.28 314.85 L239.85 314.74 L239.56 314.29 L238.84 313.83 L238.12 313.03 L237.25 310.53 L235.74 308.37 L233.04 306.29 L232.67 305.81 L231.11 304.41 L229.12 303.13 L226.74 301.91 L225 301.43 L223.67 301.32 L222.39 301.49 L221.43 300.81 L221.06 299.33 L220.98 297.48 L220.16 293.15 L219.47 290.93 L216.17 286.86 L214.87 283.9 L214.25 281.74 L214.36 280.6 L213.75 279.86 L212.71 279.55 L212.3 279.69 L209.6 281.94 L208.43 282.65 L206.82 283.08 L203.47 283.2 L201.87 283.43 L199.69 284.48 L197.37 285.36 L196.93 285.28 L195.75 284.6 L193.77 282.72 L191.72 281.53 L190.05 281.58 L188.84 282.32 L187.89 283.43 L187.02 284.97 L185.05 286.6 L183.39 286.94 L180.91 287.14 L177.39 286.89 L174.92 287.06 L172.48 287.91 L171.47 288.97 L170.94 288.88 L170.6 288.54 L170.45 288.06 L170.29 286.63 L170.48 284.81 L170.38 282.88 L169.2 276.9 L169.26 274.82 L169.01 270.01 L168.36 267.22 L167 264.01 L166.95 262.44 L167.14 261.39 L167.82 259.85 L167.46 257.75 L167.68 256.89 L167.9 256.47 L171.03 254.98 L171.04 254.47 L169.58 253.11 L168.17 252.48 L167.78 251.71 L166.89 248.47 L165.92 246.48 L164.62 244.48 L163.35 243.32 L162.93 243.52 L161.24 246.68 L159.71 248.5 L156.37 251.26 L153.51 252.23 L151.18 252.58 L148.73 253.55 L147.45 254.49 L145.32 254.97 L144.73 255.34 L144.56 255.82 L144.75 255.91 L146.93 256.19 L148.15 256.62 L149.03 258.01 L148.93 260.35 L149.29 261.6 L149.4 263.65 L149 269.31 L149.46 270.94 L149.79 271.76 L151.17 273.01 L151.67 273.1 L154.97 274.57 L156.1 276.05 L156.73 277.59 L157.07 280.55 L155.4 289.23 L154.08 292.34 L153.01 294.33 L152.21 295.44 L150.41 297.26 L148.51 300.62 L148.4 301.36 L148.65 303.13 L148.25 306.29 L148.49 310.13 L149.79 312.18 L150.67 314.79 L150.82 317.64 L150.39 319.23 L150.25 321.51 L150.4 324.02 L151.42 327.09 L152.72 328 L154.58 327.77 L156.3 325.04 L158.29 320.03 L159.3 318.2 L161.3 317.18 L163.03 318.66 L163.91 324.01 L166.37 329.24 L167.09 330.15 L167.81 331.4 L168.54 334.02 L169.11 335.16 L172.15 337.55 L176.59 338.34 L178.32 339.03 L181.34 339.48 L185.65 343.12 L186.96 343.46 L188.25 344.26 L189.4 345.39 L190.12 346.42 L191.28 348.58 L193.44 350.51 L194.74 353.13 L197.05 355.64 L198.21 357.57 L198.49 358.48 L198.22 361.55 L200.1 365.42 L200.4 367.7 L199.97 368.61 L197.82 370.78 L197.09 371.12 L196.23 370.89 L194.08 369.75 L192.64 369.53 L190.78 369.64 L190.2 370.1 L188.77 370.21 L187.04 369.99 L185.03 369.19 L182.58 367.94 L179.57 367.03 L177.7 367.83 L176.99 368.63 L176.13 370.22 L175.56 372.16 L173.7 374.21 L172.42 375.91 L171.71 377.39 L170.85 378.53 L168.41 380.58 L166.98 381.04 L164.96 381.04 L163.67 380.47 L161.36 376.26 L160.35 373.76 L159.05 372.17 L158.04 371.48 L156.45 371.94 L155.74 372.96 L154.31 373.76 L154.03 377.75 L154.91 379 L155.92 379.57 L157.93 381.27 L158.51 383.09 L158.95 385.94 L160.24 386.39 L161.53 385.82 L162.24 383.89 L163.68 383.32 L164.83 383.2 L165.83 383.32 L167.55 384 L168.71 384.8 L169.57 385.59 L170.73 387.19 L171.45 387.87 L172.03 388.21 L175.77 391.74 L176.21 393.1 L175.93 395.49 L176.08 396.74 L178.52 399.7 L180.25 401.41 L182.28 404.94 L183.58 406.3 L186.75 408.35 L193.5 411.42 L194.65 411.42 L197.81 410.62 L199.53 411.07 L200.97 411.87 L201.54 412.67 L201.84 413.8 L201.27 415.85 L200.28 417.79 L199.85 419.38 L200.28 420.64 L201.29 421.43 L202.73 422.34 L204.61 424.16 L204.89 425.07 L204.61 425.87 L203.33 427.81 L200.9 430.43 L198.75 434.07 L198.04 434.64 L197.61 435.32 L197.32 436.8 L197.75 438.62 L200.36 441.81 L201.07 442.95 L203.82 446.13 L205.98 449.55 L206.13 451.14 L205.56 454.21 L207.44 457.86 L208.46 460.25 L208.33 465.6 L207.77 469.81 L207.36 475.61 L206.07 477.44 L201.2 479.83 L200.05 480.63 L199.49 481.99 L199.5 486.21 L201.39 491.78 L201.53 492.81 L200.26 496.79 L198.98 503.62 L198.7 504.19 L197.84 505.1 L196.99 507.49 L196.41 508.52 L194.69 510 L193.7 510 L190.96 508.41 L185.92 504.65 L183.34 505.11 L181.9 505 L179.31 502.5 L176.86 501.81 L175.87 502.04 L173.85 502.84 L171.41 502.39 L170.4 500.68 L172.55 497.38 L172.54 496.24 L172.1 495.21 L170.95 494.3 L170.09 494.31 L169.38 494.76 L167.66 497.38 L167.09 497.72 L165.94 497.72 L160.61 493.63 L158.17 492.26 L155.43 491.35 L152.27 490.9 L150.4 490.33 L152.11 484.75 L152.53 482.02 L152.23 480.09 L151.52 479.06 L150.08 479.52 L148.64 480.54 L146.79 482.25 L144.21 483.62 L140.47 483.62 L137.31 482.94 L135.73 482.37 L134.29 481.01 L131.4 476.69 L130.11 475.55 L126.36 473.73 L125.35 472.48 L124.48 468.95 L125.32 464.28 L124.75 463.14 L123.16 462.12 L121.29 461.32 L120.43 460.64 L116.68 454.72 L115.67 454.27 L114.38 454.27 L113.38 455.18 L111.09 458.48 L108.51 460.31 L105.64 460.54 L103.77 459.63 L99.74 457.01 L99.01 455.3 L99.44 452 L99.73 449.73 L99.28 447.79 L99.39 438.12 L101.11 435.84 L107.69 431.05 L108.55 429.12 L108.54 427.41 L106.52 423.54 L106.94 420.69 L107.65 419.33 L107.78 415.91 L107.5 415.46 L106.62 412.73 L105.19 411.36 L103.88 409.2 L103.74 408.06 L104.73 403.51 L102.55 398.27 L102.4 394.97 L99.8 389.85 L98.79 387.57 L98.2 385.75 L97.05 384.39 L96.38 384.39 L94.45 384.84 L92.9 387.12 L92.62 388.15 L92.05 388.6 L91.49 389.74 L91.23 391.9 L91.39 393.84 L89.99 397.25 L89.03 400.78 L87.61 403.63 L84.98 412.06 L84.56 413.65 L84.6 416.15 L84.89 417.07 L84.76 418.43 L84.05 419.11 L82.19 419.69 L79.03 419.57 L76.14 418.66 L75.12 417.41 L73.39 416.85 L71.95 416.85 L70.22 415.71 L67.03 412.52 L65.86 410.82 L61.94 406.95 L60.01 401.37 L59.54 397.84 L58.48 392.72 L57.59 390.79 L57.42 388.17 L58.11 386.12 L58.1 384.64 L57.36 382.48 L57.18 378.95 L57.45 377.92 L58.45 376.33 L58.57 374.85 L58.27 373.82 L57.4 373.26 L56.39 372.91 L53.37 372.46 L51.93 372.01 L49.48 370.64 L49.31 368.82 L49.59 367.91 L52.43 365.18 L53.13 363.13 L53.83 361.99 L55.39 360.39 L59.96 358 L61.52 356.18 L61.94 355.38 L65.63 350.14 L66.18 348.55 L66.89 347.86 L69.05 347.63 L69.61 347.29 L71.05 347.29 L74.33 344.78 L77.33 343.53 L81.92 343.18 L82.64 342.84 L83.9 340.57 L83.17 338.63 L81.72 337.49 L81.71 336.01 L80.83 335.22 L80.11 334.08 L79.36 331.35 L78.92 330.32 L76.46 329.53 L75.59 328.05 L75.43 326.45 L74.53 324.06 L74.52 323.15 L75.51 321.44 L75.49 319.62 L73.87 315.87 L73.15 315.53 L72.14 315.41 L70.7 314.73 L68.96 313.02 L68.34 309.61 L69.65 306.14 L69.91 305.4 L70.62 299.36 L71.62 296.74 L72.75 291.39 L75.33 283.31 L77.48 279.89 L79.35 278.75 L80.21 278.75 L81.5 279.32 L83.38 284.21 L84.82 284.78 L85.68 283.3 L86.82 280.11 L89.4 274.53 L89.1 271.91 L88.52 270.77 L84.78 264.97 L82.48 263.49 L81.33 263.38 L78.47 264.29 L77.31 264.41 L75.74 264.29 L75.16 263.5 L73.42 258.94 L72.27 253.37 L71.54 247.67 L71.54 245.28 L70.95 239.48 L70.23 238.57 L67.93 236.75 L66.64 235.15 L65.91 234.02 L64.47 230.37 L64.62 227.07 L65.76 223.77 L65.46 222.4 L65.03 222.06 L64.47 221.84 L63.89 223.66 L63.03 224.34 L57.86 228.1 L56.29 228.67 L54.57 229.7 L53.56 230.5 L52.7 231.98 L51.84 234.82 L51.41 235.73 L50.55 236.65 L49.84 236.99 L45.67 238.36 L43.23 240.07 L42.37 241.66 L40.95 245.53 L38.93 248.72 L38.37 250.2 L37.36 253.62 L37.23 254.76 L37.66 256.46 L38.52 258.51 L38.52 259.42 L37.96 262.04 L37.25 267.17 L37.25 269.44 L37.68 271.38 L37.53 272.4 L35.82 276.39 L33.39 280.6 L33.24 281.17 L33.39 282.08 L34.11 283.79 L37.42 288.23 L38.58 291.41 L38.58 291.98 L39.29 294.83 L39.87 295.4 L41.03 296.42 L45.77 298.58 L47.34 299.72 L49.51 300.74 L50.37 301.65 L50.65 302.34 L50.65 303.36 L50.37 303.93 L48.22 304.96 L47.36 305.64 L46.91 306.27 L46.05 307.58 L45.32 307.35 L44.47 306.27 L44.2 305.98 L40.9 304.51 L39.74 303.82 L36.3 300.52 L34.42 297.91 L33.12 295.29 L29.38 290.4 L27.51 287.21 L24.49 283.91 L21.32 282.2 L20.17 280.84 L20.17 280.27 L21.32 279.02 L23.47 277.88 L24.9 276.17 L26.62 272.18 L25.61 270.82 L24.32 270.82 L23.18 271.5 L21.88 272.64 L20.59 273.21 L19.01 273.44 L18.44 272.99 L18.15 272.07 L18.29 271.51 L19.58 269.91 L20.73 269.34 L23.17 267.29 L24.02 266.15 L23.88 264.9 L23.45 264.33 L21.72 263.53 L21.44 263.19 L21.29 262.28 L21.44 261.37 L22.72 259.78 L23.44 257.84 L24.72 252.03 L25.44 249.87 L25.14 248.28 L24.58 248.16 L22.99 249.42 L21.99 250.55 L21.56 250.56 L20.12 249.3 L19.26 247.26 L19.39 245.66 L20.83 243.5 L24.13 241.22 L24.99 240.31 L25.14 239.96 L24.99 239.05 L24.56 238.14 L23.55 237.23 L22.69 236.66 L22.4 235.64 L23.26 234.5 L24.41 234.04 L26.41 233.7 L27.85 232.45 L28 232.11 L27.7 231.31 L24.11 226.53 L22.09 222.89 L21.8 220.84 L22.37 219.59 L23.38 219.24 L24.09 219.47 L25.82 220.72 L27.25 222.32 L28.69 223 L33.58 224.48 L35.31 224.59 L36.46 224.25 L37.75 222.99 L38.74 221.06 L38.6 218.55 L37.31 217.07 L32.85 214.23 L31.7 212.07 L31.98 210.81 L32.7 209.67 L42.03 209.33 L43.75 208.76 L44.76 207.28 L45.19 203.75 L46.19 201.81 L45.9 199.19 L44.31 195.66 L43.02 194.3 L41.15 193.62 L37.56 194.53 L36.55 194.53 L35.12 193.85 L34.25 193.05 L33.67 190.32 L33.38 189.75 L32.24 189.52 L31.38 189.87 L30.65 190.44 L29.79 191.57 L27.79 192.94 L24.77 193.51 L22.47 193.17 L21.03 192.61 L19.59 190.9 L18.3 188.17 L17.14 187.14 L14.41 186.58 L12.26 184.98 L11.68 183.96 L11.25 181.11 L10.38 178.61 L10.38 178.04 L11.1 176.9 L12.1 176.56 L13.25 176.78 L15.12 177.92 L15.98 177.81 L16.13 177.01 L15.7 175.87 L16.12 174.28 L18.41 173.14 L19.14 172.23 L19.27 170.86 L18.99 170.29 L16.97 169.15 L15.96 168.24 L14.95 166.65 L14.24 164.03 L14.38 162.89 L15.53 161.75 L16.52 159.7 L18.26 159.02 L18.82 158.45 L19.11 157.65 L18.97 157.31 L17.96 156.29 L16.37 155.83 L14.95 155.83 L13.36 156.4 L11.64 158.11 L10.49 158.91 L9.63 160.28 L9.06 160.85 L8.34 161.08 L7.2 160.85 L4.6 159.6 L2.6 158.23 L1.54 156.9 L0.43 155.5 L0 153.91 L0 152.2 L0.28 150.95 L1.29 148.44 L2.43 147.19 L4 146.16 L4.73 145.14 L5.01 144.57 L5.44 141.61 L6.58 138.53 L8.16 136.83 L11.46 134.89 L36.44 127.24 L42.04 126.44 L44.06 126.44 L49.52 126.78 L50.95 126.21 L51.95 125.18 L53.39 122.68 L53.53 122.11 L52.52 120.51 L51.37 118.01 L50.79 115.85 L50.49 113.23 L50.49 109.47 L49.91 107.76 L44.88 99.57 L44.44 98.43 L44.15 96.72 L44.15 94.1 L43.57 92.4 L42.42 91.94 L41.99 90.92 L41.7 89.55 L40.55 89.32 L39.83 88.87 L39.69 87.84 L39.25 86.82 L39.39 86.25 L40.25 85.68 L40.54 85 L39.53 82.26 L39.24 77.82 L39.95 76.46 L39.66 74.98 L37.78 70.99 L37.78 70.08 L38.21 69.51 L38.79 69.29 L40.23 68.94 L41.38 68.94 L42.81 69.74 L46.26 72.58 L47.42 73.26 L48.56 73.26 L50.15 72.81 L50.72 73.03 L57.19 76.22 L64.8 76.78 L66.67 77.35 L70.84 77.01 L74.29 77.46 L74.86 77.23 L75.58 76.32 L77.45 75.86 L80.61 75.63 L82.76 75.86 L84.34 76.31 L86.21 77.34 L87.79 77.56 L89.65 77.34 L91.37 76.31 L92.96 76.19 L94.1 76.54 L94.54 77.22 L94.55 77.79 L92.68 80.86 L92.53 82.12 L92.68 83.82 L93.11 85.19 L94.63 86.5 L96.37 86.38 L98.06 86.15 L99.76 85.7 L100.73 85.1 L103.69 84.27 L105.85 84.38 L108.12 84.01 L110.09 83.27 L110.77 82.7 L111.74 82.36 L120.09 80.02 L123.11 79.79 L125.02 79.93 L127.27 80.53 L133.51 83.97 L133.88 85.33 L133.69 87.36 L133.1 89.32 L131.19 91.97 L129.43 93.88 L127.85 95.1 L124.26 95.16 L122.61 94.68 L118.83 94.25 L118.46 94.62 L118.2 95.59 L118.33 99.06 L118.1 99.52 L117.77 99.66 L116.65 99.81 L114.8 99.44 L112.5 98.56 L110.04 97.33 L107.2 96.37 L105.42 96.2 L104.48 95.32 L104.01 95.09 L103.46 96 L102.76 96.34 L101.48 96.31 L100.38 95.52 L99.34 95.43 L97.21 95.8 L96.38 95.66 L94.54 96.4 L93.28 97.94 L92.7 99.08 L92.72 102.38 L91.86 103.98 L91.13 104.55 L89.56 104.78 L87.83 104.32 L85.1 101.82 L84.38 101.59 L83.95 101.59 L82.22 102.28 L80.93 102.28 L79.5 102.62 L76.48 105.13 L75.91 105.92 L75.34 107.52 L75.21 109.79 L75.34 110.36 L76.78 112.98 L76.93 114.35 L76.65 116.74 L76.65 118.45 L76.93 120.04 L76.8 123.8 L77.1 125.39 L77.1 128.24 L77.68 130.29 L78.82 131.54 L80.12 132.68 L83.43 134.27 L86.59 136.66 L87.88 138.36 L88.61 138.48 L88.89 138.36 L89.47 137 L90.33 134.49 L91.18 133.81 L96.37 131.95 L97.97 131.21 L99.75 129.48 L101.29 128.45 L105.32 127.11 L112.47 124.12 L118.1 122.63 L119.6 121.46 L121.68 119.39 L122.34 118.45 L125.17 115.43 L126.77 114.09 L127.42 113.63 L130.78 112.15 L132.38 110.01 L132.57 109.47 L132.69 107.74 L132.36 105.23 L132.76 104.01 L135 101.25 L135.38 100.16 L136.28 98.54 L137.23 97.4 L142.31 93.98 L143.31 93.13 L145.75 92.13 L147.38 91.7 L149 91.62 L152.35 91.81 L162.15 93.91 L163.72 94.05 L168.24 93.82 L171.54 92.83 L173.54 91.26 L174.42 90.23 L175.11 89.01 L176.08 86.36 L176.87 85.54 L177.12 83.77 L176.92 82.49 L176.3 80.24 L175.49 78.22 L177.53 72.1 L178.74 70.7 L180.83 69.91 L182.13 68.97 L186.94 64.07 L188.16 62.33 L189.2 60.71 L190.53 57.89 L191.4 55.61 L191.97 51.94 L193.14 49.23 L193.86 48.01 L194.19 46.93 L193.98 43.94 L193.93 38.33 L194.48 33.83 L194.4 29.11 L195.46 21.82 L195.48 20.59 L195.17 18.72 L194.71 17.26 L193.59 14.93 L193.26 14.56 L191.66 13.31 L186.74 10.92 L186.22 10.15 L188.32 9.44 L191.06 9.1 L196.56 8.92 L197.93 9.26 L199.78 10.23 L202.25 9.57 L204.91 10.45 L206.06 10.31 L208.63 8.94 L211.09 6.84 L215.1 5.38 L220.99 4.95 L223.74 5.46 L226.62 4.92 L228.65 4.98 L234.39 6.2 L235.93 5.91 L237.33 5.94 L238.86 6.19 L239.88 7.19 L240.76 8.67 L241.44 10.95 L242.95 11.94 L244.46 14.1 L245.93 15.27 L246.23 14.99 L246.78 13.19 L247.07 10.15 L248.48 6.3 L248.49 5.79 L249.08 4.76 L249.92 4.28 L251.56 3.91 L255.09 5.02 L255.62 5.02 L256.96 4.19 L257.85 3.96 L258.86 3.48 L260.45 3.51 L262.27 2.71 L263.54 1.54 L265.72 0.37 L267.72 0 L269.09 0.08 L269.85 0.6 L270.19 1.45 L270.17 3.02 L268.87 7.37 L268.51 9.85 L267.79 12.75 L266.98 14.32 L264.17 16.74 L263.33 17.74 L261.85 21.95 L261.91 23.15 L262.59 24.37 L262.95 24.74 L265.21 25.22 L266.95 26.05 L267.55 26.64 L267.81 27.21 L266.96 28.67 L266.3 33.68 L266.28 34.93 L266.85 36.47 L268.62 36.27 L271.88 34.5 L273.83 34.3 L275.02 34.53 L276.67 35.18 L278.12 35.29 L278.76 34.98 L279.99 34.04 L282.44 31.5 L282.96 30.59 L283.23 29.6 L282.9 28.37 L282.79 26.81 L283.28 25.38 L283.72 24.7 L288.42 22.48 L289.59 21.37 L292.27 17.92 L293.28 16.38 L295.53 13.76 L296.96 12.82 L298.03 12.85 L299.03 13.79 L299.42 15.16 L299.7 17.69 L299.57 23.01 L298.67 26.66 L296.59 30.47 L296.15 32.75 L296.45 35.37 L296.78 36.48 L297.42 40.24 L297.46 41.37 L298.64 46.3 L298.6 48.89 L298.77 49.46 L300.45 51.42 L300.91 51.68 L302.11 51.99 L303.88 51.93 L305.1 51.19 L306.44 49.54 L307.66 48.63 L308.46 48.51 L309.24 48.77 L313.5 51.13 L314.37 51.3 L318.68 51.01 L319.75 51.1 L321.02 51.47 L321.74 51.84 L322.68 53.15 L323.06 54.91 L323.17 56.68 L323.01 58.75 L322.15 60.63 L320.36 63 L319.98 64.45 L319.96 66.27 L320.33 67.21 L323.55 72.73 L324.92 75.83 L325.5 77.94 L325.24 80.96 L324.89 82.04 L323.96 83.52 L322.49 86.76 L321.34 88.7 L319.25 91.09 L312.94 93.71 L311.91 93.83 L308.69 95.37 L307.88 96.56 L308.28 99.12 L309.01 99.29 L309.67 99.12 L317.03 95.42 L318.98 95.62 L321.09 95.05 L322.15 94.56 L324.27 94.16 L326.09 94.22 L327.88 93.93 L330.45 94.1 L334.02 94.9 L336.41 95.13 L339.39 96.72 L339.73 97.12 L341.68 98.2 L342.21 98.03 L343.15 97.28 L345.13 94.72 L345.69 94.18 L347.25 93.1 L347.8 92.33 L349.44 88.69 L352 85.3 L353.4 82.25 L356.84 77.21 L359.55 74.9 L363.49 71 L364.27 70.94 L365.54 71.77 L367.05 74.24 L367.51 74.53 L369.81 74.98 L370.32 75.35 L373.37 80.13 L375.13 82.33 L375.57 82.64 L376.17 82.58 L377.32 81.9 L380.23 78.85 L382.21 77 L384.06 75.55 L384.7 75.2 L387.07 73.07 L389.91 69.42 L391.05 68.74 L394.21 68.28 L402.54 68.73 L406.57 70.21 L410.46 70.44 L411.47 71.12 L411.5 74.54 L414.26 77.38 L413.98 78.63 L413.27 78.64 L413 79.77 L411.45 82.96 L410.88 83.76 L410.6 85.24 L411.2 87.52 L411.5 88.14 L411.64 88.54 L412.1 89.03 L412.8 89.68 L413.22 89.71 L414.24 89.91 L415.54 89.79 L417.25 88.43 L418.54 88.42 L421.57 90.02 L425.7 90.36 L426.46 91.5 L426.91 91.95 L427.33 91.5 L427.88 89.67 L428.31 89.33 L428.89 89.67 L429.49 92.41 L430.96 95.36 L432.46 102.2 L432.63 104.93 L432.36 106.52 L431.66 108.46 L431.52 108.89 L431.2 109.28 L427.99 114.84 L428.03 118.14 L427.89 118.93 L426.33 120.64 L426.33 121.33 L426.92 122.46 L428.22 123.49 L429.8 123.49 L433.24 122.69 L434.38 122.01 L436.68 121.89 L438.11 120.3 L439.24 119.73 L442.54 119.61 L443.11 118.7 L442.96 117.56 L443.1 116.99 L443.66 116.54 L445.24 115.74 L448.54 115.97 L450.99 116.65 L456.57 114.82 L458.44 113.91 L460.58 113.23 L466.18 113 L467.47 113.45 L468.49 114.82 L470.36 114.59 L471.51 114.82 L472.95 115.73 L474.41 117.43 L475.57 118.23 L476.88 121.19 L478.33 121.42 L480.9 120.28 L484.21 120.05 L486.08 121.07 L488.69 124.26 L489.28 125.63 L489.32 128.93 L490.5 132.34 L491.23 133.14 L493.54 134.73 L494.42 135.87 L494.15 137.12 L493.43 138.49 L490.59 141.68 L489.02 142.25 L489.03 143.27 L489.62 144.75 L493.26 149.65 L495.04 155.34 L494.91 157.16 L493.93 159.33 L492.92 159.33 L492.06 158.99 L491.76 157.85 L492.75 156.37 L492.75 156.14 L492.45 155.8 L491.46 156.37 L490.74 157.16 L490.33 157.96 L490.06 159.78 L491.08 161.38 L490.66 162.63 L488.53 165.59 L487.96 165.7 L487.39 165.7 L486.64 163.43 L485.92 163.54 L484.93 164.57 L485.53 167.19 L484.83 168.67 L482.26 170.03 L481.27 172.42 L479.85 173.34 z" class="polygon_1" style="fill:#571D6D;" />
    </g>
    <g id="SiteLine" style="fill:none;" />
    <g id="SitePoint">
      <circle cx="124" cy="147" r="6" id="Dam_S2134" style="fill:#D3DD18;stroke:#8E9504;">
        <title>日月潭水庫一 ：普養 (42)</title>
      </circle>
      <circle cx="240" cy="59" r="6" id="Dam_S2135" style="fill:#D3DD18;stroke:#8E9504;">
        <title>日月潭水庫二 ：普養 (43)</title>
      </circle>
      <circle cx="333" cy="274" r="6" id="Dam_S2136" style="fill:#D3DD18;stroke:#8E9504;">
        <title>日月潭水庫三 ：普養 (44)</title>
      </circle>
      <circle cx="165" cy="220" r="6" id="Dam_S2137" style="fill:#D3DD18;stroke:#8E9504;">
        <title>日月潭水庫四 ：普養 (44)</title>
      </circle>
      <circle cx="117" cy="280" r="6" id="Dam_S2138" style="fill:#D3DD18;stroke:#8E9504;">
        <title>日月潭水庫五 ：普養 (43)</title>
      </circle>
    </g>
    <g id="Mark" class="Heilight">
      <g transform="translate(124, 147) translate(-14, -14)" id="gMark" class="HeilightTrans">
        <path d="M17.2 27.5 L17.2 23.4 L22.8 23.4 L23.3 23.4 L23.3 22.9 L23.3 17.3 L27.4 17.3 L27.4 27.6 L17.2 27.5 z M0.5 27.5 L0.5 17.2 L4.6 17.2 L4.6 22.8 L4.6 23.3 L5.1 23.3 L10.1 23.3 L10.1 27.4 L0.5 27.5 z M27.5 10.2 L23.4 10.2 L23.4 5.2 L23.4 4.6 L22.9 4.6 L17.3 4.6 L17.3 0.5 L27.6 0.5 L27.6 10.2 z M4.6 10.2 L0.5 10.2 L0.5 0.5 L10.2 0.5 L10.2 4.6 L5.2 4.6 L4.6 4.6 L4.6 5.1 L4.6 10.2 z" class="st0" style="fill:#FF800E;" />
        <path d="M17.7 27 L27 27 L27 17.7 L23.9 17.7 L23.9 22.8 L23.9 23.8 L22.9 23.8 L17.8 23.8 L17.8 27 M1 27 L9.7 27 L9.7 23.9 L5.1 23.9 L4.1 23.9 L4.1 22.9 L4.1 17.8 L1 17.8 L1 27 M27 9.7 L27 1 L17.7 1 L17.7 4.1 L22.8 4.1 L23.8 4.1 L23.8 5.1 L23.8 9.6 L27 9.6 M4.1 9.7 L4.1 5.1 L4.1 4.1 L5.1 4.1 L9.6 4.1 L9.6 1 L1 1 L1 9.7 L4.1 9.7 M28 28 L28 28 L28 28 L16.7 28 L16.7 22.9 L22.8 22.9 L22.8 16.8 L28 16.8 L28 28 L28 28 z M10.7 28 L10.7 28 L10.7 28 L0 28 L0 16.7 L5.1 16.7 L5.1 22.8 L10.6 22.8 L10.6 28 L10.7 28 z M28 10.7 L28 10.7 L28 10.7 L22.9 10.7 L22.9 5.1 L16.8 5.1 L16.8 0 L28 0 L28 10.7 L28 10.7 z M5.1 10.7 L5.1 10.7 L0 10.7 L0 0 L10.7 0 L10.7 5.1 L5.1 5.1 L5.1 10.7 L5.1 10.7 z" class="st1" style="fill:#B55600;" />
      </g>
    </g>
  </g>
</svg>