<?xml version="1.0" encoding="utf-8"?>
<!DOCTYPE svg PUBLIC "-//W3C//DTD SVG 1.1//EN" "http://www.w3.org/Graphics/SVG/1.1/DTD/svg11.dtd">
<svg width="575px" height="270px" viewBox="0, 0, 575, 270" class="svgDam" xmlns="http://www.w3.org/2000/svg" xmlns:xlink="http://www.w3.org/1999/xlink" xmlns:xml="http://www.w3.org/XML/1998/namespace" version="1.1">
  <g id="MapArea">
    <g id="Key_Area">
      <path d="M268.78 0.12 L269.64 0.79 L269.78 0.8 L270.23 3.69 L270.59 5.56 L270.23 7.4 L270.31 8.03 L270.71 8.73 L271.1 9.56 L271.36 10.5 L270.9 13.54 L270.79 15.11 L270.85 16.42 L271.16 17.52 L271.16 18.51 L270.74 20.01 L269.7 21.05 L268.97 21.74 L267.25 22.42 L264.69 24.04 L262.92 25.35 L261.88 27.03 L261.52 27.97 L261.78 29.07 L262.4 30.33 L263.71 31.22 L265.38 31.48 L266.47 31.74 L267.83 31.64 L269.55 31.22 L270.7 30.43 L271.95 29.17 L273.46 28.18 L274.71 27.44 L276.43 27.23 L278.42 26.93 L281.08 27.14 L283.54 28.24 L285.2 29.13 L286.09 30.33 L286.56 31.22 L286.51 32.16 L286.09 32.69 L285.16 33.06 L283.38 33.21 L281.66 33.22 L280.41 34 L279.68 34.89 L279.47 35.73 L280 36.99 L280.78 38.35 L284.5 41.42 L288.1 43.83 L289.82 45.66 L293.27 48.8 L295.77 51.63 L297.67 54.44 L299.18 58.63 L299.6 59.15 L300.12 59.36 L300.85 59.2 L303.54 57.95 L304.89 57.69 L307.24 58.16 L309.74 59.26 L311.99 60.78 L313.92 62.19 L316 63.55 L317.73 64.23 L319.5 64.91 L320.88 65.57 L322.38 67.7 L323.87 69.2 L325.13 69.97 L326.38 70.31 L328.16 70.46 L331.42 70.16 L333.16 69.96 L335.13 69.38 L337.79 68.22 L340.77 67.15 L344.05 65.55 L347.09 64.72 L349.03 64.41 L352.41 63.69 L355.94 61.87 L359.51 59.67 L361.86 57.53 L363.19 55.04 L363.86 53.89 L364.09 52.46 L364.28 50.35 L364.52 48.15 L364.85 46.38 L365.71 45.37 L366.8 45.04 L368.33 45.08 L369.33 46.57 L369.62 48.05 L369.33 49.92 L369 52.64 L368.57 56.14 L368.07 59.98 L367.51 65.51 L367.42 69.94 L367.77 72.72 L368.21 73.63 L368.93 74.55 L370.12 75.42 L372.31 76.11 L374.89 77 L376.87 77.62 L378.24 78.38 L380 79.63 L382.47 81.45 L385.71 83.5 L387.55 83.72 L388.37 83.44 L389.87 82.27 L391.31 81.11 L394.36 79 L396.02 78.46 L399.77 78.58 L401.68 78.96 L403.6 79.92 L406.7 82.55 L408.71 84.97 L410.72 87.82 L412.48 89.61 L413.23 90.08 L414.23 90.14 L415.2 89.98 L416.36 88.76 L418.68 84.84 L420.18 82.79 L421.56 81.17 L423.72 79.76 L426.19 78.28 L428.32 77.62 L429.67 77.39 L430.86 77.46 L432.11 77.58 L434.02 77.93 L435.79 79.33 L437.29 80.43 L438.58 81.25 L439.99 81.43 L441.43 81.46 L443.49 80.96 L445.27 80.24 L446.96 79.76 L448.12 79.61 L448.65 80.08 L449.09 80.8 L448.81 81.74 L447.81 82.87 L446.25 84.26 L444.15 85.45 L442.56 86.27 L439.75 86.14 L438.06 85.35 L436.78 84.57 L435.27 83.56 L432.77 82.5 L430.61 81.9 L429.11 81.81 L428.17 81.9 L426.41 82.65 L425 83.5 L423.78 84.91 L421.68 87.18 L420.46 88.72 L419.68 90.15 L419.68 91.22 L420.15 92.03 L420.59 92.82 L421.69 93.76 L423 94.67 L427.13 96.05 L431.27 97.28 L433.64 97.9 L435.43 98.45 L437.1 99.14 L439.21 100.79 L440.62 101.72 L441.8 102.12 L442.84 102.32 L444.79 102.25 L446.55 102.28 L448.02 103.23 L449.4 104.45 L451.16 106.12 L453.21 107.6 L455.74 108.51 L460.93 110.33 L463.84 111.11 L465.52 111.41 L466.85 112.22 L468 113.12 L468.95 114.19 L469.7 115.58 L470.31 116.99 L470.65 117.86 L470.68 119.08 L469.77 120.26 L468.27 122.29 L467.98 122.72 L468.04 123.21 L469.45 123.65 L471.33 124.11 L472.83 124.43 L474.12 124.34 L475.39 124.25 L476.66 125.03 L479.13 126.66 L481.03 127.12 L483.48 127.21 L485.87 127.09 L489.68 126.16 L494.86 124.99 L498.69 124.15 L502.26 123.42 L503.69 122.86 L506.48 121.84 L508.27 120.8 L512.52 118.09 L514.97 116.41 L517.62 114.59 L521.85 110.91 L525.07 108.4 L527.26 106.43 L528.73 105.15 L533.52 99.85 L535.6 97.28 L537.93 94.64 L540.99 91.43 L542.92 89.84 L545.31 87.66 L548.22 85.52 L551.96 83.04 L555.56 80.52 L558.21 78.64 L562.66 76.68 L568.31 74.54 L572.37 73.41 L573.64 77.1 L575 80.34 L567.19 81.62 L563.95 82.5 L560.37 84.24 L557.26 86.24 L553.79 89.96 L549.96 94.77 L545.28 99.14 L539.69 103.28 L536.97 105.59 L535.56 107.27 L533.26 110.71 L530.3 113.95 L527.05 116.91 L524.74 118.76 L521.13 120.72 L517.07 122.37 L512.46 124.08 L508.41 125.94 L505.06 127.31 L501.69 128.32 L499.96 128.9 L498.49 129.86 L494.79 131.55 L491.82 132.71 L490.5 132.92 L487.19 132.93 L484.25 133.02 L480.91 133.51 L478.72 134.32 L476.53 134.96 L474.58 135.11 L472.99 135.37 L470.66 135.92 L469.68 136.01 L468.53 135.89 L467.17 135.37 L465.46 134.41 L462.86 133.17 L459.55 132.07 L454.57 130.26 L451.17 128.82 L446.46 126.11 L443.64 124.03 L439.4 120.97 L436.35 118.86 L434.13 117.59 L431.62 115.92 L430.44 114.58 L428.71 113.43 L425.06 111.33 L422.41 109.97 L421.09 109.13 L419.73 107.97 L418.49 106.61 L417.21 105.62 L415.83 104.49 L414.53 103.74 L413.61 103.1 L412.63 102.67 L411.56 102.35 L410.18 102.09 L408.97 102 L408.04 101.8 L407.41 101.47 L406.54 100.12 L406.03 98.29 L405.59 95.63 L405.18 94.15 L404.74 92.82 L404.27 92 L403.61 91.46 L403.02 91.25 L402.27 91.23 L401.11 91.78 L399.96 92.82 L398.98 93.92 L397.93 95.76 L397.1 97.1 L396.76 98.23 L396.59 99.57 L396.69 100.77 L397.01 102.94 L397.47 103.87 L397.96 104.85 L398.69 105.95 L400.37 106.97 L402.26 107.69 L405.36 108.44 L410.92 110.16 L413.14 110.87 L416.4 111.63 L419.31 112.64 L420.73 113.37 L421.85 114.28 L422.97 115.45 L424.38 117.34 L426.83 119.84 L428.85 121.46 L431.73 123.29 L434.61 125.51 L435.83 126.51 L436.78 127.27 L437.49 128.08 L438 128.78 L438.19 129.49 L438.1 130.11 L437.75 131.47 L437 132.76 L436.29 134.31 L435.68 135.02 L434.31 136.62 L433.34 137.92 L432.46 138.63 L430.93 139.63 L430 140.22 L429.1 140.61 L427.47 141.22 L426.21 141.96 L423.08 144.03 L420.4 145.52 L418.58 146.04 L417.3 146.53 L415.89 146.89 L413.68 147.18 L407.11 147.95 L404.73 148.15 L402.68 148.48 L400.67 148.64 L399.1 148.6 L397.46 148.4 L395.85 148.04 L394.24 147.51 L393.03 146.83 L391.74 145.9 L390.5 144.77 L388.96 143.22 L388.32 142.17 L387.79 141 L387.39 139.55 L387.02 137.55 L386.85 136.33 L386.17 135.24 L385.25 134.4 L384.08 133.35 L383.31 132.22 L382.91 130.97 L382.66 128.2 L382.62 126.99 L382.58 125.49 L382.34 124.04 L382.37 122.08 L382.09 121.11 L381.76 120.46 L381.28 119.86 L380.48 119.45 L379.35 119.09 L378.34 118.57 L377.66 118 L376.61 116.91 L375.97 116.31 L375.45 115.98 L374.88 115.98 L374.32 116.06 L373.8 116.39 L373.18 116.92 L372.74 117.93 L372.26 118.7 L371.69 119.22 L370.57 119.43 L368.48 119.79 L366.71 120.03 L364.82 120.6 L363.11 121.02 L362.03 121.51 L361.34 121.99 L360.58 123.16 L359.66 124.46 L359.05 125.59 L358.69 126.44 L357.97 127.16 L357.25 127.73 L356.28 128.3 L354.87 128.82 L353.47 128.86 L352.38 128.7 L351.5 128.46 L349.84 127.7 L347.43 126.25 L345.54 125.04 L344.45 124.39 L343.15 124.11 L341.73 124.23 L339.47 125.13 L337.32 126.45 L333.28 128.18 L330.66 128.6 L327.51 128.78 L325.84 128.13 L320.49 126.94 L317.96 126.4 L316.35 126.58 L314.81 127 L313.32 127.84 L312.73 128.73 L312.67 130.41 L312.85 133.69 L306.85 133.22 L307.43 130.86 L307.27 128.61 L306.79 125.77 L305.61 122.68 L304.38 120.91 L302.4 119.36 L299.52 117.11 L295.51 114.43 L293.04 112.26 L290.95 110.7 L289.72 110.22 L289.08 110.28 L288.39 110.76 L287.48 112.47 L286.68 113.33 L285.56 113.76 L284.6 113.76 L283.64 113.12 L281.82 111.78 L280.76 111.14 L279.32 111.03 L277.13 110.98 L275.07 110.98 L272.67 110.28 L268.19 109.27 L265.09 107.88 L261.83 106.54 L260.42 106.59 L258.71 106.86 L256.41 107.39 L254.81 108.15 L254.07 108.31 L253.69 108.15 L253.48 107.88 L253.53 107.4 L254.28 106.06 L255.56 104.5 L256.3 103.59 L256.52 102.68 L256.52 101.71 L256.09 100.69 L255.45 100 L254.81 98.71 L254.3 96.81 L254.26 95.27 L254.77 93.47 L255.46 91.63 L256.85 88.63 L257.47 87.42 L257.91 85.76 L258.28 84.44 L258.42 83.01 L258.26 82.17 L257.64 79.35 L257.42 78.54 L256.65 76.49 L256.25 74.21 L255.37 73.51 L254.3 72.68 L253.18 72.26 L251.42 72.04 L249.87 72.26 L248.48 72.96 L246.99 75.53 L246.03 78.64 L244.86 81.81 L243.58 85.83 L243.15 87.39 L242.89 89.42 L243.09 91.67 L242.65 93.69 L241.53 96.54 L240.45 98.45 L239.34 100.07 L237.38 101.8 L235.67 103.07 L232.45 105.49 L231.27 106.22 L229.72 106.86 L228.42 107.12 L227.37 107.25 L226.1 107.44 L224.01 107.66 L222.39 108.01 L219.13 109.14 L217.45 109.68 L215.77 110.41 L214.5 110.8 L213.64 111.09 L212.18 111.18 L211.51 111.25 L210.5 111.06 L209.71 110.77 L208.17 109.84 L207.53 109.04 L206.36 107.8 L205.66 106.59 L204.64 105.66 L203.11 104.34 L202.06 103.77 L201.24 103.61 L199.71 103.42 L198.66 103.32 L197.33 102.75 L196 102.18 L194.85 100.96 L194.41 100.19 L194.12 99.36 L194.25 98.5 L195.01 97.61 L195.52 97.1 L195.58 96.33 L195.26 95.89 L194.37 95.51 L192.8 95.48 L191.47 95.54 L190.26 95.92 L188.52 96.63 L187.16 97.52 L186.2 98.41 L185.16 100.04 L184.68 101.47 L184.33 102.78 L184.15 103.64 L184.24 104.69 L184.94 106.6 L185.8 108.04 L186.57 109.51 L188.03 111.84 L188.7 113.02 L189.4 113.49 L190.06 113.78 L191.15 113.95 L192.29 113.92 L193.79 113.85 L195.31 113.76 L196.42 113.98 L196.9 114.14 L197.53 114.81 L198.13 115.57 L198.61 116.21 L199.12 116.91 L199.15 117.5 L199.12 118.04 L198.96 118.52 L198.61 118.9 L198.14 119.1 L197.28 119.32 L196.11 119.54 L194.84 119.74 L193.66 120.41 L192.84 121.01 L192.52 121.71 L192.4 122.61 L192.43 123.79 L192.46 125.04 L192.67 126.33 L193.48 127.7 L194.49 128.68 L195.83 129.16 L197.24 129.31 L198.65 129.49 L200.03 129.9 L200.59 130.16 L200.7 130.57 L200.59 130.8 L200.18 130.87 L198.73 130.87 L196.06 130.65 L193.68 130.73 L191.11 130.88 L188.48 130.38 L187.44 130.08 L186.84 130.1 L186.39 130.61 L186.1 131.37 L185.99 132.56 L185.51 133.87 L184.95 134.73 L184.32 135.22 L183.1 136.03 L181.69 136.26 L180.15 136.07 L178.76 135.89 L177.48 135.53 L176.16 135.22 L174.37 135.18 L172.37 135.37 L168.26 135.66 L166.81 135.66 L165.88 135.45 L164.54 134.96 L163.17 134.22 L161.91 133.1 L161.24 132.31 L160.53 130.86 L159.9 129.03 L159.08 127.61 L157.96 126.76 L156.88 125.97 L155.1 125.27 L152.12 123.55 L149.28 122.6 L147.55 122.26 L143.75 122.1 L139.93 122 L136.53 122.17 L130.83 122.46 L127.2 122.4 L124.58 122.68 L123.13 123.13 L122.68 123.75 L122.96 124.54 L123.69 125.21 L126.2 126.78 L128.77 128.74 L131.01 130.53 L133.63 131.82 L135.08 133.66 L135.4 134.16 L136.4 135.85 L137.13 137.36 L137.73 138.65 L138.08 140.27 L138.5 141.11 L139.16 141.6 L140.11 141.71 L140.98 141.71 L142.09 140.92 L143.08 140.58 L144.2 140.37 L145.45 140.55 L146.68 141.14 L149.56 143.44 L151.45 145.41 L152.74 147.16 L153.83 149.41 L155.06 151.6 L156.74 153.5 L157.75 154.37 L158.6 154.77 L160.77 156.13 L162.17 157.33 L163.82 159.05 L165.25 160.17 L167.09 162.11 L168.14 162.71 L169.05 162.92 L170.16 162.91 L170.9 162.95 L172.12 162.84 L173.28 162.63 L174.6 162.35 L175.48 162.14 L176.18 162.03 L176.74 162.28 L177.86 162.98 L179.4 164.12 L180.1 164.33 L181.32 164.23 L181.81 164.33 L181.95 164.75 L181.85 165.32 L181.57 165.77 L181.08 165.91 L180.32 166.21 L179.08 166.37 L178.04 166.76 L177.2 167.15 L176.5 167.64 L175.87 168.41 L175.31 169.55 L174.92 170.19 L174.55 171.12 L174.18 172.67 L173.54 174.7 L172.74 177.09 L171.52 180.59 L171.57 181.15 L171.9 181.76 L172.58 181.88 L173.24 181.86 L173.94 181.73 L174.87 181.53 L176.36 181.37 L177.74 181.42 L179.95 180.74 L181.56 180.51 L182.85 180.33 L184.05 180.31 L185.84 180.53 L187.25 180.94 L189 181.5 L189.83 182.1 L191.19 182.91 L192.07 183.72 L192.81 184.76 L193.23 185.62 L193.41 186.4 L193.29 187.01 L193.08 187.78 L192.5 189.17 L191.98 190.49 L191.32 191.6 L190.79 192.51 L189.63 193.92 L189.13 194.6 L188.82 195.03 L188.4 195.51 L187.72 196.02 L187.19 196.65 L186.69 197.41 L186.36 197.94 L186.18 198.55 L186.11 199.16 L186.11 200.04 L186.29 201.12 L186.74 202.16 L187.32 202.89 L188.08 203.6 L188.93 204.81 L190.89 208.23 L191.7 209.52 L192.43 210.65 L193.21 211.51 L193.79 211.84 L194.24 211.99 L194.95 211.99 L195.8 211.91 L196.95 211.58 L197.98 211.31 L198.99 211.1 L199.69 211.03 L200.15 211.08 L200.88 211.2 L201.61 211.38 L202.79 211.76 L203.75 211.93 L204.68 212.03 L205.79 212.01 L206.57 211.86 L207.5 211.63 L208.4 211.33 L209.45 211.82 L210.48 212.66 L211.27 212.95 L212 213.13 L212.99 213.15 L214.29 212.88 L215.94 212.06 L217.78 210.88 L219.76 209.57 L220.74 209.01 L221.31 209.03 L221.65 209.32 L221.67 209.9 L221.48 210.79 L220.98 211.7 L220.55 212.67 L220.29 213.51 L220.14 214.28 L220.15 214.99 L220.11 215.87 L220.41 216.78 L220.89 217.47 L221.49 217.88 L222.23 218.2 L224.16 218.87 L225.24 219.45 L226.75 220.07 L228.24 220.53 L229.14 220.84 L230.31 221.42 L230.98 221.75 L231.48 221.99 L232.06 221.97 L232.66 221.68 L233.17 221.27 L233.5 220.69 L233.91 220.02 L234.22 219.58 L234.55 219.27 L234.99 219.08 L235.35 218.96 L235.66 218.62 L235.82 217.85 L236.11 217.42 L236.42 217.27 L236.71 217.17 L237 217.29 L237.15 217.53 L237.26 217.92 L237.26 218.38 L237.19 219.74 L236.6 221.01 L235.57 223.93 L235.59 224.23 L235.85 224.59 L236.36 225.2 L236.78 225.82 L237.08 226.5 L237.42 227.39 L237.61 227.89 L237.91 228.2 L238.27 228.4 L238.58 228.58 L239.02 228.64 L239.85 228.82 L240.39 228.88 L241 228.92 L241.69 229.02 L242.28 229.18 L242.84 229.36 L243.45 229.61 L243.88 230.01 L244.2 230.43 L244.4 230.88 L244.54 231.32 L244.48 231.94 L244.42 232.89 L244.42 233.68 L244.48 234.22 L244.56 234.73 L244.7 235.15 L244.86 235.41 L245.14 235.65 L245.49 235.75 L245.85 235.73 L246.22 235.73 L246.66 235.53 L246.95 235.19 L247.23 234.77 L247.64 234.2 L248.02 233.58 L248.33 233.05 L248.81 232.63 L249.3 232.31 L249.87 232.05 L250.48 232.02 L250.97 231.96 L251.35 231.98 L251.78 232.02 L252.26 232.05 L252.73 232.11 L253.24 232.29 L253.96 232.53 L254.71 232.89 L255.79 233.58 L256.86 234.23 L257.63 234.71 L258.47 235.14 L259.14 235.33 L259.73 235.41 L260.32 235.47 L260.64 235.77 L260.86 236.32 L260.86 237.12 L260.66 238.19 L260.42 239.35 L259.83 241.25 L259.6 242.33 L259.46 243.18 L259.38 243.83 L259.44 244.32 L259.5 244.76 L259.54 245.12 L259.76 245.51 L259.93 246.03 L259.95 246.68 L260.01 247.28 L259.97 247.67 L259.8 247.85 L259.48 248.05 L259.22 248.05 L258.93 247.95 L258.67 247.75 L258.45 247.5 L258.2 247.12 L258 246.84 L257.76 246.58 L257.58 246.08 L257.52 245.62 L257.56 244.97 L257.56 244.43 L257.6 244.12 L257.7 243.72 L257.78 243.34 L257.84 242.93 L257.86 242.45 L257.93 241.97 L257.89 241.66 L257.86 241.44 L257.72 241.26 L257.62 241.14 L257.38 241.02 L257.1 240.94 L256.67 240.8 L256.35 240.73 L256.04 240.71 L255.62 240.71 L255.21 240.67 L254.86 240.58 L254.66 240.53 L254.44 240.33 L254.28 240.01 L254.28 239.7 L254.33 239.41 L254.67 239.05 L254.99 238.72 L255.44 238.47 L255.9 238.24 L256.25 238 L256.39 237.69 L256.46 237.28 L256.42 236.97 L256.26 236.64 L256.01 236.34 L255.7 236.05 L255.07 235.72 L254.67 235.56 L254.34 235.48 L253.93 235.44 L253.31 235.47 L252.94 235.59 L252.33 235.75 L251.8 235.97 L251.42 236.3 L250.99 236.71 L250.63 237.16 L250.16 237.94 L249.63 238.76 L248.35 240.68 L247.82 241.13 L247.32 241.52 L246.69 241.84 L245.91 242.09 L244.42 242.47 L243.73 242.65 L242.86 242.76 L242.25 242.83 L241.6 242.91 L240.82 242.99 L240.2 243.12 L239.71 243.27 L239.34 243.51 L239.07 243.87 L238.68 244.29 L238.4 244.73 L238.12 245.06 L237.75 246.2 L237.62 246.78 L237.73 247.61 L238.11 248.65 L238.46 249.5 L238.54 250.3 L238.33 250.97 L238.03 251.54 L237.57 251.98 L236.7 252.38 L235.24 252.97 L234.12 253.37 L233.12 254.08 L232.06 255.04 L231.33 256.07 L230.89 256.77 L230.74 257.89 L231.08 259.11 L231.41 260.34 L231.79 261.84 L232.09 264.2 L231.93 265.61 L231.51 267.39 L230.69 268.65 L230.16 269.19 L229.69 269.37 L229.12 269.12 L228.83 268.61 L228.48 267.32 L228.44 266.25 L228.44 264.99 L228.87 263.77 L229.54 262.73 L229.61 261.27 L229.15 260.27 L228.47 259.4 L227.82 258.26 L226.79 256.75 L226.61 255.67 L227 255.06 L227.81 254.11 L228.71 253.23 L230.02 252.42 L230.91 251.76 L232.07 251.27 L232.97 250.8 L233.61 250.19 L234.15 249.35 L234.38 248.08 L234.54 247.15 L234.36 246.61 L233.99 246.04 L233.75 245.39 L233.47 244.21 L233.25 243.6 L232.78 243.06 L231.82 242.09 L230 240.54 L229.27 239.79 L228.95 239.17 L228.67 238.49 L228.38 237.23 L227.98 235.18 L227.84 234.07 L227.7 232.89 L227.1 231.4 L226.48 230.42 L226.08 229.34 L225.74 228.61 L225.11 227.73 L224.51 227.44 L223.93 227.51 L223.08 227.52 L221.89 227.59 L220 227.95 L217.88 228.67 L215.6 229.15 L212.95 229.82 L210.96 230.58 L209.77 231.28 L208.59 231.69 L206.57 232.74 L205.63 233.12 L204.72 233.3 L203.94 233.28 L202.87 233.23 L201.71 232.95 L200.51 232.72 L199.01 232.32 L197.67 231.87 L196.35 231.93 L194.85 232.04 L193.78 232.12 L192.92 232.12 L192.28 231.99 L191.64 231.8 L191.15 231.42 L190.68 230.67 L190.3 230 L190.11 229.27 L190.06 228.37 L189.81 226.19 L189.84 224.58 L189.78 223.45 L188.98 222 L188.28 220.87 L186.35 218.51 L185.17 217.11 L183.67 215.37 L181.4 212.69 L180.23 211.16 L179.69 210.06 L178.97 208.9 L178.16 208.17 L177.34 207.34 L176.4 206.55 L174.94 205.42 L173.24 204.25 L172.12 203.53 L170.37 202.2 L169.22 201.23 L168.23 200.01 L167.9 199.36 L167.78 198.59 L167.82 197.82 L168 196.95 L168.37 195.5 L169.02 194.01 L169.43 192.79 L169.62 192.18 L169.47 191.08 L169.06 190.7 L168.56 190.48 L167.36 189.95 L166.23 189.35 L165.35 188.44 L164.37 187.5 L163.41 186.71 L162.41 186.29 L161.17 185.86 L159.49 185.36 L158.41 185.04 L157.89 184.42 L157.5 183.7 L157.26 183.15 L157.25 182.3 L157.17 181.29 L156.82 180.34 L156.27 179.82 L155.36 179.36 L154.09 178.86 L152.54 178.28 L151.36 177.85 L150.28 177.32 L149.13 176.99 L148.24 176.49 L147.81 176.25 L147.41 175.53 L147.09 174.86 L146.75 174.22 L146.81 173.4 L146.9 172.57 L147.07 171.73 L147.16 170.91 L147.4 170.02 L147.47 169.29 L147.71 167.94 L148 166.83 L148.24 165.95 L149.03 164.22 L149.5 163.58 L149.87 162.97 L149.97 162.44 L149.75 161.67 L149.42 161.24 L148.98 160.96 L148.12 160.71 L147.26 160.29 L145.8 159.59 L144.34 158.81 L143.27 157.96 L142.74 157.23 L142.09 156.02 L141.01 155.04 L140.04 154.62 L139.16 154.55 L138.05 154.91 L135.46 156.42 L132.81 157.82 L131.09 158.38 L129.23 158.87 L127.87 159.2 L125.85 159.23 L124.52 158.97 L122.44 158.48 L120.37 157.63 L119.82 157.08 L119.36 156.36 L119.04 155.61 L119.07 154.7 L119.46 153.1 L120.04 151.69 L121.12 149.81 L121.41 148.96 L121.51 147.88 L121.54 146.74 L121.8 145.66 L121.93 144.55 L122.31 143.54 L122.93 142.68 L123.09 141.96 L123.26 141.34 L123 140.65 L122.74 140.1 L122.18 139.55 L121.4 139.08 L120.88 138.62 L120.49 138.13 L120.1 137.41 L119.71 136.86 L119.25 136.56 L118.7 136.4 L118.08 136.43 L117.37 136.66 L116.72 136.96 L116.1 137.35 L115.74 137.91 L115.26 138.75 L114.77 139.7 L114.57 140.55 L114.28 141.95 L113.93 143.29 L113.04 144.98 L112.2 146.45 L111.52 147.4 L110.8 148.93 L110.48 150 L110.74 151.07 L111.1 151.79 L111.75 152.61 L113.08 153.75 L114.28 154.47 L114.54 154.95 L114.61 155.61 L114.58 156.2 L114.32 156.55 L113.83 156.82 L112.99 156.91 L112.37 156.82 L111.2 156.49 L110.09 155.9 L108.73 155.55 L107.59 155.38 L106.16 155.06 L104.47 154.6 L103.09 154.15 L100.91 153.8 L99.96 153.9 L99.15 154.3 L98.22 155 L97.29 156.05 L96.6 157.74 L96.19 159.7 L95.61 161.74 L95.56 164.19 L95.91 165.41 L97.07 167.8 L98.34 169.95 L99.04 171.52 L99.27 174.2 L99.37 176.47 L98.7 179.13 L98.86 181.58 L99.32 183.87 L99.9 185.23 L100.21 187 L100.05 188.25 L99.64 189.81 L98.81 192.2 L97.82 194.73 L96.76 196.75 L95.35 198.67 L94.32 199.4 L93.33 199.4 L92.37 199.02 L91.61 198.21 L91.19 196.68 L91.15 192.01 L90.99 190.94 L90.64 190.45 L89.5 188.81 L88.54 187.28 L87.67 186.4 L86.03 185.82 L84.62 185.1 L83.97 184.06 L83.39 182.19 L81.81 180.58 L80.86 179.85 L79.79 179.51 L78.15 179.55 L76.48 179.63 L75.14 179.97 L74.19 180.55 L73.73 181.73 L73.47 185.06 L72.86 187.84 L72.44 189.76 L72.37 191.25 L72.56 193.32 L73.74 196.67 L73.59 197.36 L72.64 198.2 L70.85 199.01 L67.15 201.35 L64.18 203 L62.07 204.39 L60.55 205.73 L58.99 207.23 L56.54 210.05 L54.37 213.65 L51.13 219.11 L49.65 222.56 L49.3 224.05 L49.69 225.6 L50.22 226.87 L50.77 227.59 L51.9 229.47 L52.55 230.62 L52.55 231.57 L52.48 232.99 L52.29 233.91 L51.78 234.81 L51.28 235.27 L50.56 235.46 L49.87 235.58 L48.77 235.46 L47.62 235.04 L46.37 234.85 L45.11 234.93 L44.27 235.08 L42.9 236 L41.18 237.8 L39.99 239.2 L38.66 241.15 L36.64 242.57 L35.35 243.64 L31.33 247.65 L29.31 249.42 L26.11 251.45 L23.29 252.6 L20.72 253.25 L19.12 253.56 L18.13 253.83 L15.65 253.64 L13.89 252.99 L12.79 252.72 L11.8 252.57 L10.35 252.34 L9.02 251.92 L8.18 251.39 L7.26 250.31 L6.18 249.49 L4.73 248.95 L2.98 248.07 L1.6 247.5 L0.57 246.2 L0.23 244.97 L0 243.94 L0.19 242.79 L0.38 241.68 L0.87 240.92 L2.26 239.09 L4.24 236.41 L5.99 234.96 L8.08 233 L9.39 231.17 L11.82 227.92 L13.42 225.77 L14.3 224.89 L16.52 223.64 L19.56 222.76 L21.7 222.57 L23.03 222.45 L23.64 222.11 L24.25 221.11 L23.87 219.92 L23.07 219.42 L22.23 218.62 L20.51 217.55 L19.33 216.9 L18.38 216.02 L17.88 215.23 L17.61 213.36 L17.69 212.36 L18.6 210.71 L20.43 207.5 L21.8 205.93 L22.75 205.08 L23.3 204.87 L24.4 204.83 L25.43 204.56 L26.35 203.95 L26.96 203.1 L27.37 201.27 L28.13 198.78 L29.13 195.42 L29.74 194 L30.54 192.51 L32.1 190.32 L33.4 188.91 L34.04 187.79 L34.46 186.65 L34.77 185.58 L35.04 183.9 L35.27 182.75 L35.57 182.1 L35.95 181.91 L36.6 181.87 L37.51 181.6 L38.47 180.37 L39.23 179.19 L39.99 177.96 L41.02 176.66 L41.87 175.68 L42.97 175.22 L44 174.57 L44.99 173.92 L46.02 172.58 L47.66 170.35 L48.99 168.82 L50.21 167.29 L51.51 166.05 L52.12 165.01 L52.61 164.05 L53.34 163.44 L54.26 162.96 L55.67 162.12 L56.43 161.62 L56.81 161.01 L57.54 160.05 L58.18 158.9 L58.72 157.79 L59.02 157.14 L59.37 156.81 L59.98 156.58 L60.4 156.24 L60.62 155.51 L60.85 154.74 L61.16 153.63 L61.65 152.87 L62.26 152.14 L62.68 151.6 L63.59 150.95 L64.4 150.7 L64.89 150.47 L65.05 150.01 L65.01 149.09 L64.82 147.03 L65 145.27 L65.35 142.97 L66.18 141.32 L66.56 139.92 L66.6 138.65 L66.48 137.43 L65.95 136.36 L64.92 135.1 L63.85 134.22 L62.63 133.26 L61.33 132.23 L60.4 131.14 L58.1 129.39 L52.75 125.87 L50.23 123.31 L49.18 121.59 L48.89 120.52 L48.84 119.62 L48.84 118.67 L49.03 117.2 L49.4 116.1 L50.3 114.68 L51.53 113.3 L52.54 112.37 L53.63 110.14 L55.09 107.9 L56.37 106.14 L57.88 104.76 L60.1 102.86 L62.11 100.75 L64.28 98.61 L65.75 97.42 L66.98 96.99 L67.93 96.94 L68.73 97.18 L69.72 98.04 L71.1 99.32 L72.94 100.27 L74.55 100.74 L76.07 100.79 L78.01 100.5 L79.42 99.74 L81.55 98.93 L83.49 98.26 L87.1 97.83 L89.56 97.49 L91.39 97.11 L93.19 97.11 L94.44 96.98 L97 96.19 L99.11 95.16 L100.51 94.69 L101.39 93.94 L102.14 93.14 L103.05 92.01 L103.97 90.71 L104.39 89.2 L104.51 87.86 L104.39 86.14 L104.64 84.68 L105.27 83.89 L106.1 83.21 L107.15 82.42 L107.9 81.54 L108.44 80.15 L108.52 78.89 L108.69 77.17 L108.98 76.34 L108.98 75.62 L109.02 74.2 L109.23 72.65 L109.1 71.89 L109.04 71.18 L108.82 70.54 L108.67 70.01 L108.73 69.46 L108.93 69.19 L109.17 69.06 L109.61 69.04 L110.03 69.21 L111.13 70.19 L112.86 71.9 L113.96 72.96 L114.33 73.4 L115.56 73.4 L116.53 73.07 L117.61 72.23 L118.82 71.26 L119.79 69.89 L120.67 68.58 L121.09 67.82 L121.11 66.89 L120.95 66.07 L120.4 64.59 L119.94 63.8 L119.87 63.11 L120.27 62.72 L121.11 62.65 L122.21 62.91 L122.78 63.33 L123.7 64.81 L125.01 66.48 L126 67.16 L126.84 67.49 L127.74 67.49 L129 67.52 L130.05 67.62 L130.8 67.85 L131.4 68.38 L131.86 68.99 L132.08 69.72 L131.99 70.21 L130.97 71.18 L129.6 73.07 L128.83 74.87 L127.15 76.35 L125.11 78.13 L123.53 78.9 L120.88 80.02 L120.07 80.89 L119.4 83.25 L119.25 85.24 L118.59 86.68 L115.54 90.55 L115.49 93.83 L115.24 95.67 L114.88 97.26 L114.98 98.18 L115.17 98.76 L117.73 100.31 L118.86 100.94 L120.92 102.94 L121.98 104.17 L122.91 104.73 L123.56 104.82 L125.88 104.42 L127.47 104.59 L128.26 104.39 L128.63 103.99 L128.79 102.99 L128.92 102.25 L128.99 101.72 L129.12 101.25 L129.39 100.92 L130.38 99.69 L131.31 98.52 L131.97 97.72 L132.77 97.32 L133.99 97.16 L134.62 97.59 L135.97 98.55 L137.86 99.72 L139.59 100.45 L140.78 100.75 L141.74 100.88 L142.84 100.61 L144.13 100.21 L145.45 99.55 L147.04 99.18 L148.24 99.18 L148.96 99.35 L149.92 99.92 L150.91 100.28 L152.34 100.51 L153.3 100.81 L154.53 101.24 L155.39 101.78 L156.45 102.47 L157.41 102.81 L158.64 103.01 L159.5 102.94 L160.46 102.54 L161.26 101.87 L161.89 101.07 L162.9 99.28 L164.01 96.68 L164.88 94.24 L165.63 93.17 L166.05 92.17 L166.77 90.96 L167.67 89.78 L168.51 88.61 L169.21 87.59 L170.17 86.87 L171.59 85.99 L172.67 85.21 L173.45 84.72 L174.32 84.18 L175.07 83.57 L175.55 83 L176.03 82.36 L176.36 81.49 L176.63 80.28 L176.6 78.75 L176.75 77.73 L176.99 76.94 L177.32 76.34 L177.8 75.89 L178.67 75.58 L179.07 75.31 L179.37 75.04 L179.54 74.23 L179.33 73.36 L178.85 72.49 L178.58 71.34 L178.64 70.53 L178.85 69.26 L179.24 67.6 L179.48 66.5 L179.24 64.96 L178.45 62.94 L177.44 60.06 L177.1 58.82 L177.31 58.13 L177.76 57.25 L178.66 56.01 L179.92 54.65 L181.22 53.87 L182.18 53.32 L183.29 52.9 L184.04 52.93 L184.46 53.41 L184.7 53.99 L184.7 54.95 L184.7 55.77 L184.67 57.03 L184.67 58.09 L185.09 59.11 L185.56 61.28 L186.46 63.33 L187.12 64.38 L188.05 65.08 L188.75 65.35 L189.32 65.44 L189.89 65.41 L190.31 65.11 L190.73 64.47 L191.12 63.51 L191.21 62.6 L191.18 60.92 L191.03 59.47 L191.09 58.45 L191.33 57.03 L191.6 55.79 L191.9 54.51 L192.2 53.85 L192.89 52.73 L193.64 51.88 L194.42 51.13 L195.14 50.62 L195.92 50.25 L196.43 50.22 L196.88 50.49 L197.04 50.78 L196.98 51.23 L196.74 51.87 L196.2 52.92 L195.96 53.68 L195.75 54.91 L195.72 56 L195.93 56.63 L196.38 57.27 L197.01 57.81 L198.09 58.2 L198.94 58.47 L200.27 58.72 L202.62 59.36 L204.19 59.78 L205.38 59.93 L206.25 59.85 L206.9 59.46 L207.54 59.02 L208.4 57.97 L208.96 56.57 L209.33 55.56 L209.74 54.47 L209.81 53.41 L209.86 52.06 L209.91 50.69 L209.6 50 L208.85 49.09 L208.44 47.85 L208.31 46.63 L207.79 45.36 L207.41 43.61 L207.4 42.75 L207.61 41.95 L207.84 40.52 L208.1 39.36 L208.2 37.96 L208 36.54 L207.76 35.14 L207.66 33.87 L207.79 32.16 L207.94 30.71 L208.28 29.04 L208.33 28.24 L208.64 27.35 L209 26.37 L209.26 25.93 L209.52 25.7 L210.01 25.72 L210.42 25.88 L210.89 26.5 L211.38 27.35 L211.87 27.82 L212.67 28.13 L213.44 28.18 L214.09 28.13 L214.6 27.95 L215.04 27.51 L215.81 26.57 L217 25.28 L218.32 24.14 L219.99 23.33 L222.34 23.53 L224.01 23.73 L226.35 23.93 L228.1 23.46 L230.13 22.5 L231.42 22.46 L233.34 22.74 L235.53 23.72 L237.41 24.42 L239.37 25.09 L240.87 25.29 L243.22 24.89 L244.67 24.66 L245.46 25.05 L247.18 26.43 L248.4 27.25 L249.89 28.04 L251.14 28.35 L251.88 28.35 L252.51 28.11 L253.14 27.68 L253.57 26.97 L253.8 26.22 L254 24.89 L254.08 23.9 L254.31 23.04 L254.9 22.13 L256.25 20.69 L258.79 18.21 L260.9 16 L261.96 14.35 L262.87 11.93 L263.34 10.86 L263.58 10 L263.65 9.09 L263.57 7.99 L263.38 7.01 L263.3 5.43 L263.34 4.1 L263.53 3.27 L264.04 2.44 L264.67 1.62 L265.68 0.71 L266.78 0.12 L267.84 0 L268.78 0.12 z" class="polygon_1" style="fill:#571D6D;" />
    </g>
    <g id="SiteLine" style="fill:none;" />
    <g id="SitePoint">
      <circle cx="291" cy="80" r="6" id="Dam_S2150" style="fill:#74B24E;stroke:#365B1F;">
        <title>明德水庫一 ：優養 (59)</title>
      </circle>
      <circle cx="78" cy="140" r="6" id="Dam_S2151" style="fill:#74B24E;stroke:#365B1F;">
        <title>明德水庫二 ：優養 (59)</title>
      </circle>
      <circle cx="15" cy="246" r="6" id="Dam_S2152" style="fill:#74B24E;stroke:#365B1F;">
        <title>明德水庫三 ：優養 (59)</title>
      </circle>
    </g>
    <g id="Mark" class="Heilight">
      <g transform="translate(291, 80) translate(-14, -14)" id="gMark" class="HeilightTrans">
        <path d="M17.2 27.5 L17.2 23.4 L22.8 23.4 L23.3 23.4 L23.3 22.9 L23.3 17.3 L27.4 17.3 L27.4 27.6 L17.2 27.5 z M0.5 27.5 L0.5 17.2 L4.6 17.2 L4.6 22.8 L4.6 23.3 L5.1 23.3 L10.1 23.3 L10.1 27.4 L0.5 27.5 z M27.5 10.2 L23.4 10.2 L23.4 5.2 L23.4 4.6 L22.9 4.6 L17.3 4.6 L17.3 0.5 L27.6 0.5 L27.6 10.2 z M4.6 10.2 L0.5 10.2 L0.5 0.5 L10.2 0.5 L10.2 4.6 L5.2 4.6 L4.6 4.6 L4.6 5.1 L4.6 10.2 z" class="st0" style="fill:#FF800E;" />
        <path d="M17.7 27 L27 27 L27 17.7 L23.9 17.7 L23.9 22.8 L23.9 23.8 L22.9 23.8 L17.8 23.8 L17.8 27 M1 27 L9.7 27 L9.7 23.9 L5.1 23.9 L4.1 23.9 L4.1 22.9 L4.1 17.8 L1 17.8 L1 27 M27 9.7 L27 1 L17.7 1 L17.7 4.1 L22.8 4.1 L23.8 4.1 L23.8 5.1 L23.8 9.6 L27 9.6 M4.1 9.7 L4.1 5.1 L4.1 4.1 L5.1 4.1 L9.6 4.1 L9.6 1 L1 1 L1 9.7 L4.1 9.7 M28 28 L28 28 L28 28 L16.7 28 L16.7 22.9 L22.8 22.9 L22.8 16.8 L28 16.8 L28 28 L28 28 z M10.7 28 L10.7 28 L10.7 28 L0 28 L0 16.7 L5.1 16.7 L5.1 22.8 L10.6 22.8 L10.6 28 L10.7 28 z M28 10.7 L28 10.7 L28 10.7 L22.9 10.7 L22.9 5.1 L16.8 5.1 L16.8 0 L28 0 L28 10.7 L28 10.7 z M5.1 10.7 L5.1 10.7 L0 10.7 L0 0 L10.7 0 L10.7 5.1 L5.1 5.1 L5.1 10.7 L5.1 10.7 z" class="st1" style="fill:#B55600;" />
      </g>
    </g>
  </g>
</svg>