<?xml version="1.0" encoding="utf-8"?>
<!DOCTYPE svg PUBLIC "-//W3C//DTD SVG 1.1//EN" "http://www.w3.org/Graphics/SVG/1.1/DTD/svg11.dtd">
<svg width="383px" height="510px" viewBox="0, 0, 383, 510" class="svgDam" xmlns="http://www.w3.org/2000/svg" xmlns:xlink="http://www.w3.org/1999/xlink" xmlns:xml="http://www.w3.org/XML/1998/namespace" version="1.1">
  <g id="MapArea">
    <g id="Key_Area">
      <path d="M245.97 115.04 L246.85 119.05 L247.12 124.04 L246.89 129.3 L244.99 140.2 L243.75 148.56 L241.73 160.99 L239.13 169.88 L236.93 174.58 L234.85 179.92 L233.29 189.48 L233.73 198.45 L234.61 202.04 L237.34 207.74 L241.4 213.85 L241.41 213.86 L246.91 221.06 L255.9 230.45 L262.42 236.25 L272.62 243.12 L285.45 251.91 L294.15 259.22 L312.53 274.84 L325.96 285 L333.33 292.46 L344.4 303.33 L355.81 314.86 L366.88 324.71 L372.69 329.02 L378.48 334.25 L381.11 338.39 L382.57 343.98 L382.97 349.41 L382 355.9 L378.78 363.98 L373.37 371.64 L369.44 375.08 L361.89 379.72 L357.15 381.78 L353.3 382.65 L346.74 384.23 L340.85 386.96 L332.72 391.12 L323.25 395.24 L313.47 399.02 L309.59 400.61 L305.08 402.32 L300.8 403.18 L294.04 404.4 L285.42 406.19 L281.77 407.71 L277.08 411.94 L271.36 428.12 L267.65 435.4 L262.43 443.57 L252.67 458.65 L245.76 469.24 L243.21 472.52 L227.9 488.4 L220.38 496.63 L218.19 498.61 L213.43 502.26 L207.35 504.89 L199.41 507.86 L192.67 508.15 L184.23 508.57 L170.82 510 L164.23 509.99 L157.77 509.01 L151.43 507.26 L147.5 505.97 L143.58 504.49 L140.26 502.14 L137.47 498.26 L135.28 493.81 L133.28 489.66 L130.53 480.65 L127.92 471.13 L123.42 450.26 L121.83 442.13 L119.69 429.8 L118.59 424.7 L116.88 419.61 L114.01 412.12 L109.01 401.55 L95.81 373.89 L89.73 362.72 L80.4 344.82 L74.87 335.59 L70.63 328.36 L55.21 300.25 L53.67 298.44 L50.36 294.53 L45.57 290.07 L39.64 285.92 L32.98 283.08 L14.51 272.15 L13.34 258.43 L14.21 244.7 L17.1 231.25 L21.94 218.37 L28.61 206.36 L36.99 195.48 L46.88 185.96 L58.06 178.02 L43.96 138.06 L0 39.77 L84.82 0 L134.51 101.38 L153.53 133.56 L241.01 92.91 L243.22 91.8 L260.2 100.87 L262.03 107.81 L245.97 115.04 z" class="polygon_1" style="fill:#571D6D;" />
    </g>
    <g id="SiteLine" style="fill:none;" />
    <g id="SitePoint">
      <circle cx="144.4426" cy="131.0776" r="6" id="Dam_S2129" style="fill:#ECEBEA;stroke:#AAAAAA;">
        <title>東湧水庫 ：無檢測資料</title>
      </circle>
    </g>
    <g id="Mark" class="Heilight">
      <g transform="translate(144.4426, 131.0776) translate(-14, -14)" id="gMark" class="HeilightTrans">
        <path d="M17.2 27.5 L17.2 23.4 L22.8 23.4 L23.3 23.4 L23.3 22.9 L23.3 17.3 L27.4 17.3 L27.4 27.6 L17.2 27.5 z M0.5 27.5 L0.5 17.2 L4.6 17.2 L4.6 22.8 L4.6 23.3 L5.1 23.3 L10.1 23.3 L10.1 27.4 L0.5 27.5 z M27.5 10.2 L23.4 10.2 L23.4 5.2 L23.4 4.6 L22.9 4.6 L17.3 4.6 L17.3 0.5 L27.6 0.5 L27.6 10.2 z M4.6 10.2 L0.5 10.2 L0.5 0.5 L10.2 0.5 L10.2 4.6 L5.2 4.6 L4.6 4.6 L4.6 5.1 L4.6 10.2 z" class="st0" style="fill:#FF800E;" />
        <path d="M17.7 27 L27 27 L27 17.7 L23.9 17.7 L23.9 22.8 L23.9 23.8 L22.9 23.8 L17.8 23.8 L17.8 27 M1 27 L9.7 27 L9.7 23.9 L5.1 23.9 L4.1 23.9 L4.1 22.9 L4.1 17.8 L1 17.8 L1 27 M27 9.7 L27 1 L17.7 1 L17.7 4.1 L22.8 4.1 L23.8 4.1 L23.8 5.1 L23.8 9.6 L27 9.6 M4.1 9.7 L4.1 5.1 L4.1 4.1 L5.1 4.1 L9.6 4.1 L9.6 1 L1 1 L1 9.7 L4.1 9.7 M28 28 L28 28 L28 28 L16.7 28 L16.7 22.9 L22.8 22.9 L22.8 16.8 L28 16.8 L28 28 L28 28 z M10.7 28 L10.7 28 L10.7 28 L0 28 L0 16.7 L5.1 16.7 L5.1 22.8 L10.6 22.8 L10.6 28 L10.7 28 z M28 10.7 L28 10.7 L28 10.7 L22.9 10.7 L22.9 5.1 L16.8 5.1 L16.8 0 L28 0 L28 10.7 L28 10.7 z M5.1 10.7 L5.1 10.7 L0 10.7 L0 0 L10.7 0 L10.7 5.1 L5.1 5.1 L5.1 10.7 L5.1 10.7 z" class="st1" style="fill:#B55600;" />
      </g>
    </g>
  </g>
</svg>