<?xml version="1.0" encoding="utf-8"?>
<!DOCTYPE svg PUBLIC "-//W3C//DTD SVG 1.1//EN" "http://www.w3.org/Graphics/SVG/1.1/DTD/svg11.dtd">
<svg width="575px" height="367px" viewBox="0, 0, 575, 367" class="svgDam" xmlns="http://www.w3.org/2000/svg" xmlns:xlink="http://www.w3.org/1999/xlink" xmlns:xml="http://www.w3.org/XML/1998/namespace" version="1.1">
  <g id="MapArea">
    <g id="Key_Area">
      <path d="M34.82 286.52 L51.98 297.76 L102.58 264.03 L108.28 250.63 L122.52 245.38 L137.39 224.98 L159.32 233.29 L173.28 239.92 L176.42 244.85 L185.5 239.93 L192.77 232.87 L196.7 216.59 L191.57 209.55 L176.86 204.35 L162.06 193.63 L174.92 181.4 L193.4 192.99 L198.09 193.2 L196.99 185.7 L192.48 172.61 L196.44 165.28 L197.3 158.9 L194.98 148.86 L200.25 143.19 L197.62 134.25 L180.49 122.26 L175.28 117.85 L180.4 101.74 L203.43 115.91 L225.45 130.02 L235.3 130.89 L240.11 119.85 L227.86 106.6 L208.57 96.56 L196.44 85.02 L186.31 80.58 L177.31 73.88 L171.93 63.42 L172.21 49.37 L175.57 39.44 L181.39 31.81 L190.04 26.24 L195.77 26.6 L204.18 29.25 L210.57 29.54 L213.34 22.77 L216.41 14.22 L229.05 7.1 L233.16 0 L341.36 20.04 L429.5 35.37 L436.79 50.94 L447.19 55.68 L458.61 62.36 L484.15 78.26 L526.81 107.82 L532.51 108.98 L558.45 102.61 L568 100.57 L572.47 101.19 L573.95 103.39 L575 108.81 L574.06 119.65 L568.26 140.27 L558.93 184.67 L530.87 180.02 L512.63 177.94 L488.76 172.63 L475.27 168.56 L465.54 165.81 L458.2 163.87 L441.3 168.98 L419.37 173.46 L392.35 174.43 L377.06 172.96 L355.57 164.64 L332.57 156.59 L316.36 147.04 L299.26 133.63 L289.88 126.27 L282.93 126.21 L277.39 130.42 L267.51 127.9 L256.39 123.78 L250.47 123.3 L246.21 124.93 L244.06 133.48 L255.27 141.55 L243.35 155.06 L221.48 174.65 L222.68 180.04 L225.38 185.35 L228.28 190.37 L230.95 196.38 L228.66 201.85 L222.53 215.48 L218.15 224.5 L218.91 231.25 L215.66 238.23 L211.93 243.91 L211.79 244.82 L209.57 249.29 L211.54 251.55 L214.59 253.82 L217.84 256.29 L220.39 258.49 L223.08 260.22 L216.71 269.41 L213.53 275.46 L201.47 283.04 L194 291.35 L188.41 303.9 L181.43 317.05 L170.37 328.84 L164.95 332.48 L146.56 333.28 L130.06 333.19 L119.83 327.3 L113.01 319.25 L104.79 313.03 L96.86 316.41 L90.17 322.6 L83.36 332.12 L73.44 339.81 L65.22 350.41 L59.94 359.34 L58.06 366.49 L46.01 359.84 L37.63 358.54 L29.53 356.73 L21.13 349.25 L16.37 335.5 L13.46 321.63 L6.34 317.03 L0 310 L1.76 300.73 L9.58 293.97 L17.58 289.11 L22.77 282.77 L34.82 286.52 z" class="polygon_1" style="fill:#571D6D;" />
    </g>
    <g id="SiteLine" style="fill:none;" />
    <g id="SitePoint">
      <circle cx="314" cy="84" r="6" id="Dam_S2194" style="fill:#ECEBEA;stroke:#AAAAAA;">
        <title>東衛水庫 ：無檢測資料</title>
      </circle>
    </g>
    <g id="Mark" class="Heilight">
      <g transform="translate(314, 84) translate(-14, -14)" id="gMark" class="HeilightTrans">
        <path d="M17.2 27.5 L17.2 23.4 L22.8 23.4 L23.3 23.4 L23.3 22.9 L23.3 17.3 L27.4 17.3 L27.4 27.6 L17.2 27.5 z M0.5 27.5 L0.5 17.2 L4.6 17.2 L4.6 22.8 L4.6 23.3 L5.1 23.3 L10.1 23.3 L10.1 27.4 L0.5 27.5 z M27.5 10.2 L23.4 10.2 L23.4 5.2 L23.4 4.6 L22.9 4.6 L17.3 4.6 L17.3 0.5 L27.6 0.5 L27.6 10.2 z M4.6 10.2 L0.5 10.2 L0.5 0.5 L10.2 0.5 L10.2 4.6 L5.2 4.6 L4.6 4.6 L4.6 5.1 L4.6 10.2 z" class="st0" style="fill:#FF800E;" />
        <path d="M17.7 27 L27 27 L27 17.7 L23.9 17.7 L23.9 22.8 L23.9 23.8 L22.9 23.8 L17.8 23.8 L17.8 27 M1 27 L9.7 27 L9.7 23.9 L5.1 23.9 L4.1 23.9 L4.1 22.9 L4.1 17.8 L1 17.8 L1 27 M27 9.7 L27 1 L17.7 1 L17.7 4.1 L22.8 4.1 L23.8 4.1 L23.8 5.1 L23.8 9.6 L27 9.6 M4.1 9.7 L4.1 5.1 L4.1 4.1 L5.1 4.1 L9.6 4.1 L9.6 1 L1 1 L1 9.7 L4.1 9.7 M28 28 L28 28 L28 28 L16.7 28 L16.7 22.9 L22.8 22.9 L22.8 16.8 L28 16.8 L28 28 L28 28 z M10.7 28 L10.7 28 L10.7 28 L0 28 L0 16.7 L5.1 16.7 L5.1 22.8 L10.6 22.8 L10.6 28 L10.7 28 z M28 10.7 L28 10.7 L28 10.7 L22.9 10.7 L22.9 5.1 L16.8 5.1 L16.8 0 L28 0 L28 10.7 L28 10.7 z M5.1 10.7 L5.1 10.7 L0 10.7 L0 0 L10.7 0 L10.7 5.1 L5.1 5.1 L5.1 10.7 L5.1 10.7 z" class="st1" style="fill:#B55600;" />
      </g>
    </g>
  </g>
</svg>