<?xml version="1.0" encoding="utf-8"?>
<!DOCTYPE svg PUBLIC "-//W3C//DTD SVG 1.1//EN" "http://www.w3.org/Graphics/SVG/1.1/DTD/svg11.dtd">
<svg width="575px" height="402px" viewBox="0, 0, 575, 402" class="svgDam" xmlns="http://www.w3.org/2000/svg" xmlns:xlink="http://www.w3.org/1999/xlink" xmlns:xml="http://www.w3.org/XML/1998/namespace" version="1.1">
  <g id="MapArea">
    <g id="Key_Area">
      <path d="M546.63 237.18 L483.23 286.4 L422.6 334.96 L387.81 362.29 L342.55 398.49 L335.07 401.33 L330.14 400.92 L325.63 398.56 L303.7 378.6 L283.27 359.06 L263.92 340.17 L256.59 329.41 L250.1 315.21 L236.03 280.56 L225.69 267.23 L219.46 260.79 L190.64 234.17 L181.42 229.03 L173.28 228.42 L137.94 230.94 L110.96 231.49 L98.75 230.47 L93.82 228.97 L86.29 222.75 L82.2 218.46 L66.5 201.92 L55.08 186.44 L53.79 184.08 L52.03 175.46 L50.68 157.79 L50.18 143.12 L49.93 133.85 L47.11 126.53 L46.46 124.16 L41.5 115.56 L35.69 111.26 L29.9 109.35 L15.94 99.28 L10.98 92.82 L0.01 79.5 L0 78.21 L9.16 66.74 L12.39 69.1 L17.98 74.25 L42.18 73.93 L66.38 73.61 L72.35 67.98 L122.64 6.08 L126.27 2.4 L129.26 0.66 L131.82 0 L135.91 3.87 L143.67 15.27 L166.35 60.45 L175.43 79.83 L185.37 101.57 L191 115.56 L193.19 127.2 L193.64 132.16 L194.53 138.62 L198.22 151.33 L204.49 164.67 L212.26 178.01 L223.88 192.4 L231.84 200.99 L245.17 212.59 L257.21 223.32 L271.18 235.12 L282.56 242.83 L295.23 249.9 L304.67 252.66 L315.82 256.49 L336.4 260.07 L356.76 263.65 L369.2 265.97 L375.19 265.95 L378.62 265.71 L385.03 262.45 L402.97 250.51 L409.38 246.39 L428.6 234.02 L458.92 211.45 L489.88 188.68 L493.3 186.73 L502.71 183.45 L514.71 184.27 L554.59 194.66 L568.1 198.92 L574.55 204.5 L575 209.46 L568.83 217.67 L546.63 237.18 z" class="polygon_1" style="fill:#571D6D;" />
    </g>
    <g id="SiteLine" style="fill:none;" />
    <g id="SitePoint">
      <circle cx="139" cy="183" r="6" id="Dam_S2106" style="fill:#ECEBEA;stroke:#AAAAAA;">
        <title>榮湖水庫 ：無檢測資料</title>
      </circle>
    </g>
    <g id="Mark" class="Heilight">
      <g transform="translate(139, 183) translate(-14, -14)" id="gMark" class="HeilightTrans">
        <path d="M17.2 27.5 L17.2 23.4 L22.8 23.4 L23.3 23.4 L23.3 22.9 L23.3 17.3 L27.4 17.3 L27.4 27.6 L17.2 27.5 z M0.5 27.5 L0.5 17.2 L4.6 17.2 L4.6 22.8 L4.6 23.3 L5.1 23.3 L10.1 23.3 L10.1 27.4 L0.5 27.5 z M27.5 10.2 L23.4 10.2 L23.4 5.2 L23.4 4.6 L22.9 4.6 L17.3 4.6 L17.3 0.5 L27.6 0.5 L27.6 10.2 z M4.6 10.2 L0.5 10.2 L0.5 0.5 L10.2 0.5 L10.2 4.6 L5.2 4.6 L4.6 4.6 L4.6 5.1 L4.6 10.2 z" class="st0" style="fill:#FF800E;" />
        <path d="M17.7 27 L27 27 L27 17.7 L23.9 17.7 L23.9 22.8 L23.9 23.8 L22.9 23.8 L17.8 23.8 L17.8 27 M1 27 L9.7 27 L9.7 23.9 L5.1 23.9 L4.1 23.9 L4.1 22.9 L4.1 17.8 L1 17.8 L1 27 M27 9.7 L27 1 L17.7 1 L17.7 4.1 L22.8 4.1 L23.8 4.1 L23.8 5.1 L23.8 9.6 L27 9.6 M4.1 9.7 L4.1 5.1 L4.1 4.1 L5.1 4.1 L9.6 4.1 L9.6 1 L1 1 L1 9.7 L4.1 9.7 M28 28 L28 28 L28 28 L16.7 28 L16.7 22.9 L22.8 22.9 L22.8 16.8 L28 16.8 L28 28 L28 28 z M10.7 28 L10.7 28 L10.7 28 L0 28 L0 16.7 L5.1 16.7 L5.1 22.8 L10.6 22.8 L10.6 28 L10.7 28 z M28 10.7 L28 10.7 L28 10.7 L22.9 10.7 L22.9 5.1 L16.8 5.1 L16.8 0 L28 0 L28 10.7 L28 10.7 z M5.1 10.7 L5.1 10.7 L0 10.7 L0 0 L10.7 0 L10.7 5.1 L5.1 5.1 L5.1 10.7 L5.1 10.7 z" class="st1" style="fill:#B55600;" />
      </g>
    </g>
  </g>
</svg>