<?xml version="1.0" encoding="utf-8"?>
<!DOCTYPE svg PUBLIC "-//W3C//DTD SVG 1.1//EN" "http://www.w3.org/Graphics/SVG/1.1/DTD/svg11.dtd">
<svg width="306px" height="510px" viewBox="0, 0, 306, 510" class="svgDam" xmlns="http://www.w3.org/2000/svg" xmlns:xlink="http://www.w3.org/1999/xlink" xmlns:xml="http://www.w3.org/XML/1998/namespace" version="1.1">
  <g id="MapArea">
    <g id="Key_Area">
      <path d="M212.94 397.98 L213.12 398.57 L213.05 402.31 L212.07 407.87 L210.52 422.35 L210.09 427.05 L210.84 432.99 L211.57 439.97 L211.8 446.08 L210.8 453.03 L209.46 459.45 L208.8 464.73 L209.08 469.83 L211.01 475.07 L215.82 479.62 L221 482.8 L219.45 491.98 L201.74 502.59 L200.62 501.03 L184.36 489.68 L130.49 452.07 L95.28 510 L58.04 484.09 L93.75 426.4 L40.31 389.01 L0 361.13 L21.8 340.02 L35.99 329.18 L52.52 346.56 L67.94 331.73 L86.12 309.54 L93.93 300.02 L103.64 289.86 L112.72 272.79 L114.52 264.73 L115.68 253.28 L115.57 241.77 L115.76 229.99 L117.2 218.29 L119 209.71 L121.75 201.39 L121.85 198.78 L121.62 196.17 L121.08 193.62 L119.75 191.24 L118.84 188.67 L118.39 185.97 L118.41 183.24 L118.9 180.56 L119.32 176.91 L120.1 173.33 L122.37 166.29 L125.1 159.42 L125.41 158.8 L125.76 158.2 L126.08 157.59 L127.09 155.23 L127.98 152.82 L128.66 150.35 L128.79 149.42 L128.83 148.48 L128.83 146.58 L128.89 145.65 L129.04 144.72 L130.64 139.64 L132.98 134.86 L134.33 132.38 L135.98 130.09 L137.89 128.03 L140.16 126.28 L142.59 124.75 L149.12 107.52 L157.63 92.07 L158.37 81.53 L159.07 78.88 L160.14 76.37 L161.54 74.02 L165.9 67.98 L167.73 65.6 L173.4 58.7 L176.59 54.59 L179.28 51.42 L196.02 35.07 L198.52 32.99 L203.41 29.12 L209.9 24.28 L218.13 18.65 L226.36 13.04 L231.39 9.35 L233.32 7.74 L235.26 6.14 L236.46 5.24 L236.87 4.96 L237.28 4.7 L238.66 3.79 L240.93 2.13 L242.09 1.37 L243.34 0.75 L244.49 0.36 L245.68 0.1 L246.88 0 L249.17 0.06 L251.44 0.32 L255.99 1.18 L260.5 1.88 L264.99 2.35 L267.19 2.71 L269.34 3.31 L270.27 3.61 L271.15 4.03 L271.97 4.56 L272.96 5.62 L273.89 6.73 L274.63 7.38 L275.47 7.91 L277.72 9.01 L279.95 10.14 L281.57 11.31 L283.01 12.69 L285.91 16.15 L287.44 18.2 L289.96 21.32 L291.3 22.83 L292.82 24.16 L294.48 25.3 L300.48 27.97 L301.57 28.36 L302.59 28.92 L303.5 29.62 L304.29 30.47 L304.94 31.43 L305.18 31.91 L305.34 32.42 L305.41 32.95 L305.4 33.49 L305.31 34.02 L305.14 34.53 L304.88 35 L304.56 35.43 L304.17 35.8 L303.73 36.11 L301.61 36.58 L299.44 36.73 L297.27 36.57 L293.68 36.04 L290.06 36.1 L288.46 36.31 L286.92 36.79 L285.48 37.53 L284.19 38.5 L283.08 39.68 L280.21 43.28 L277.69 47.13 L272.88 55.13 L271.6 57 L270.12 58.7 L268.45 60.21 L264.9 62.51 L263.17 63.67 L261.67 65.1 L261.23 65.53 L260.87 66.03 L260.59 66.58 L260.41 67.17 L260.42 67.61 L260.48 68.04 L260.55 68.47 L260.57 68.91 L260.44 69.69 L260.2 70.44 L259.85 71.15 L259.41 71.81 L256.02 76.13 L252.37 80.29 L250.36 83.41 L248.79 86.78 L245.55 95.58 L242.65 104.52 L241.04 109 L240.99 109.12 L240.95 109.24 L239.76 112.33 L237.29 118.35 L236.21 121.39 L235.43 124.52 L235.05 126.73 L235.02 128.96 L235.57 131.44 L236.26 133.9 L236.62 136.34 L236.79 138.71 L236.79 141.08 L236.42 144.06 L235.54 147.6 L234.43 151.09 L232.94 155.49 L230.94 160.76 L228.77 165.97 L226.85 170.14 L225.04 173.2 L224.16 174.74 L223.44 176.35 L222.71 178.84 L222.36 181.4 L222.36 188.28 L223.01 195.18 L223.85 204.71 L225.38 216.83 L226.97 228.94 L227.67 235.48 L227.75 236.42 L227.79 237.37 L227.73 239.31 L227.45 242.25 L227.03 245.16 L226.18 249.74 L224.62 256.28 L223.02 262.46 L221.39 270.01 L220.53 277.69 L219.96 290.42 L219.87 295.82 L219.27 301.19 L218.2 306.42 L217.82 311.75 L218.12 317.09 L221.06 331.76 L223.35 346.54 L222.41 354.68 L218.33 365.67 L215.14 376.95 L213.17 384.86 L212.46 392.99 L212.49 395.5 L212.94 397.98 z" class="polygon_1" style="fill:#571D6D;" />
    </g>
    <g id="SiteLine" style="fill:none;" />
    <g id="SitePoint">
      <circle cx="85" cy="413" r="6" id="Dam_S2122" style="fill:#ECEBEA;stroke:#AAAAAA;">
        <title>津沙水庫 ：無檢測資料</title>
      </circle>
    </g>
    <g id="Mark" class="Heilight">
      <g transform="translate(85, 413) translate(-14, -14)" id="gMark" class="HeilightTrans">
        <path d="M17.2 27.5 L17.2 23.4 L22.8 23.4 L23.3 23.4 L23.3 22.9 L23.3 17.3 L27.4 17.3 L27.4 27.6 L17.2 27.5 z M0.5 27.5 L0.5 17.2 L4.6 17.2 L4.6 22.8 L4.6 23.3 L5.1 23.3 L10.1 23.3 L10.1 27.4 L0.5 27.5 z M27.5 10.2 L23.4 10.2 L23.4 5.2 L23.4 4.6 L22.9 4.6 L17.3 4.6 L17.3 0.5 L27.6 0.5 L27.6 10.2 z M4.6 10.2 L0.5 10.2 L0.5 0.5 L10.2 0.5 L10.2 4.6 L5.2 4.6 L4.6 4.6 L4.6 5.1 L4.6 10.2 z" class="st0" style="fill:#FF800E;" />
        <path d="M17.7 27 L27 27 L27 17.7 L23.9 17.7 L23.9 22.8 L23.9 23.8 L22.9 23.8 L17.8 23.8 L17.8 27 M1 27 L9.7 27 L9.7 23.9 L5.1 23.9 L4.1 23.9 L4.1 22.9 L4.1 17.8 L1 17.8 L1 27 M27 9.7 L27 1 L17.7 1 L17.7 4.1 L22.8 4.1 L23.8 4.1 L23.8 5.1 L23.8 9.6 L27 9.6 M4.1 9.7 L4.1 5.1 L4.1 4.1 L5.1 4.1 L9.6 4.1 L9.6 1 L1 1 L1 9.7 L4.1 9.7 M28 28 L28 28 L28 28 L16.7 28 L16.7 22.9 L22.8 22.9 L22.8 16.8 L28 16.8 L28 28 L28 28 z M10.7 28 L10.7 28 L10.7 28 L0 28 L0 16.7 L5.1 16.7 L5.1 22.8 L10.6 22.8 L10.6 28 L10.7 28 z M28 10.7 L28 10.7 L28 10.7 L22.9 10.7 L22.9 5.1 L16.8 5.1 L16.8 0 L28 0 L28 10.7 L28 10.7 z M5.1 10.7 L5.1 10.7 L0 10.7 L0 0 L10.7 0 L10.7 5.1 L5.1 5.1 L5.1 10.7 L5.1 10.7 z" class="st1" style="fill:#B55600;" />
      </g>
    </g>
  </g>
</svg>