<?xml version="1.0" encoding="utf-8"?>
<!DOCTYPE svg PUBLIC "-//W3C//DTD SVG 1.1//EN" "http://www.w3.org/Graphics/SVG/1.1/DTD/svg11.dtd">
<svg width="335px" height="410px" viewBox="0, 0, 335, 510" class="svgDam" xmlns="http://www.w3.org/2000/svg" xmlns:xlink="http://www.w3.org/1999/xlink" xmlns:xml="http://www.w3.org/XML/1998/namespace" version="1.1">
  <g id="MapArea">
    <g id="Key_Area">
      <path d="M230.06 469.64 L210.3 510 L146.38 480.23 L109 470.37 L92.9 483.79 L62.86 502.81 L30.59 485.61 L35.66 447.62 L47.98 416.42 L13.56 364.77 L0 353.05 L49.64 299.89 L57.36 306 L62.86 299.95 L68.99 294.56 L104.45 261.5 L138.88 227.35 L149.46 216.86 L165.04 198.55 L178.63 178.71 L190.09 157.55 L199.29 135.3 L227.85 86.12 L259.41 38.83 L270.43 21.89 L284.17 7.09 L286.72 4.64 L289.64 2.65 L292.86 1.19 L296.27 0.3 L299.79 0 L303.3 0.3 L309.48 2.46 L315.27 5.51 L320.55 9.39 L326.49 25.34 L330.21 41.95 L331.65 58.91 L333.94 76.49 L334.65 94.21 L329.6 144.07 L329.06 148.34 L328.23 154.07 L327.34 159.8 L326.62 165.55 L326.44 167.89 L326.34 170.23 L326.27 172.58 L326.27 175.46 L326.31 178.33 L326.22 181.21 L326 183.49 L325.68 185.76 L325.27 188.02 L324.61 190.9 L323.84 193.75 L323.07 196.6 L322.38 199.28 L321.69 201.95 L321.06 204.64 L320.03 210.36 L319.14 216.11 L318.1 221.84 L317.16 226 L316.1 230.14 L314.98 234.26 L313.35 240.02 L311.62 245.75 L309.67 251.41 L308.92 253.21 L308.11 254.97 L307.3 256.74 L306.48 258.58 L305.68 260.42 L304.93 262.29 L304.21 264.33 L303.57 266.39 L302.95 268.46 L302.43 270.45 L301.94 272.45 L301.4 274.43 L297.6 285.89 L293.53 297.26 L289.73 308.72 L289.22 310.71 L288.76 312.72 L288.17 314.69 L287.47 316.4 L286.65 318.06 L285.82 319.71 L284.37 322.37 L282.89 325.01 L282.15 326.44 L281.55 327.73 L280.5 330.57 L279.61 333.47 L278.67 336.35 L278.37 337.17 L278.06 337.99 L277.72 338.8 L276.61 341.32 L275.44 343.81 L274.3 346.32 L267.07 364.19 L260.01 382.14 L251.79 399.51 L250.46 401.68 L248.94 403.72 L245.81 407.74 L243.17 412.05 L242.54 413.57 L242.06 415.15 L241.3 418.37 L240.59 421.61 L238.89 429.02 L237.32 436.46 L235.81 443.91 L235.31 446.89 L230.06 469.64 z" class="polygon_1" style="fill:#571D6D;" />
    </g>
    <g id="SiteLine" style="fill:none;" />
    <g id="SitePoint">
      <circle cx="91" cy="398" r="6" id="Dam_S2123" style="fill:#ECEBEA;stroke:#AAAAAA;">
        <title>津沙一號壩 ：無檢測資料</title>
      </circle>
    </g>
    <g id="Mark" class="Heilight">
      <g transform="translate(91, 398) translate(-14, -14)" id="gMark" class="HeilightTrans">
        <path d="M17.2 27.5 L17.2 23.4 L22.8 23.4 L23.3 23.4 L23.3 22.9 L23.3 17.3 L27.4 17.3 L27.4 27.6 L17.2 27.5 z M0.5 27.5 L0.5 17.2 L4.6 17.2 L4.6 22.8 L4.6 23.3 L5.1 23.3 L10.1 23.3 L10.1 27.4 L0.5 27.5 z M27.5 10.2 L23.4 10.2 L23.4 5.2 L23.4 4.6 L22.9 4.6 L17.3 4.6 L17.3 0.5 L27.6 0.5 L27.6 10.2 z M4.6 10.2 L0.5 10.2 L0.5 0.5 L10.2 0.5 L10.2 4.6 L5.2 4.6 L4.6 4.6 L4.6 5.1 L4.6 10.2 z" class="st0" style="fill:#FF800E;" />
        <path d="M17.7 27 L27 27 L27 17.7 L23.9 17.7 L23.9 22.8 L23.9 23.8 L22.9 23.8 L17.8 23.8 L17.8 27 M1 27 L9.7 27 L9.7 23.9 L5.1 23.9 L4.1 23.9 L4.1 22.9 L4.1 17.8 L1 17.8 L1 27 M27 9.7 L27 1 L17.7 1 L17.7 4.1 L22.8 4.1 L23.8 4.1 L23.8 5.1 L23.8 9.6 L27 9.6 M4.1 9.7 L4.1 5.1 L4.1 4.1 L5.1 4.1 L9.6 4.1 L9.6 1 L1 1 L1 9.7 L4.1 9.7 M28 28 L28 28 L28 28 L16.7 28 L16.7 22.9 L22.8 22.9 L22.8 16.8 L28 16.8 L28 28 L28 28 z M10.7 28 L10.7 28 L10.7 28 L0 28 L0 16.7 L5.1 16.7 L5.1 22.8 L10.6 22.8 L10.6 28 L10.7 28 z M28 10.7 L28 10.7 L28 10.7 L22.9 10.7 L22.9 5.1 L16.8 5.1 L16.8 0 L28 0 L28 10.7 L28 10.7 z M5.1 10.7 L5.1 10.7 L0 10.7 L0 0 L10.7 0 L10.7 5.1 L5.1 5.1 L5.1 10.7 L5.1 10.7 z" class="st1" style="fill:#B55600;" />
      </g>
    </g>
  </g>
</svg>