<?xml version="1.0" encoding="utf-8"?>
<!DOCTYPE svg PUBLIC "-//W3C//DTD SVG 1.1//EN" "http://www.w3.org/Graphics/SVG/1.1/DTD/svg11.dtd">
<svg width="393px" height="510px" viewBox="0, 0, 393, 510" class="svgDam" xmlns="http://www.w3.org/2000/svg" xmlns:xlink="http://www.w3.org/1999/xlink" xmlns:xml="http://www.w3.org/XML/1998/namespace" version="1.1">
  <g id="MapArea">
    <g id="Key_Area">
      <path d="M91.28 298.33 L91.48 298.39 L92.24 298.75 L92.95 299.04 L93.94 299.35 L94.99 299.3 L95.62 299.21 L98.02 298.1 L103.14 296.42 L105.66 295.48 L106.85 295.03 L107.29 295.14 L107.63 295.28 L107.81 295.26 L120.12 302.01 L125.53 301.63 L126.5 300.82 L127.67 302.02 L128.67 301.06 L127.89 299.5 L128.73 298.73 L129.39 296.18 L129.51 294.05 L129.73 293.14 L128.81 291.41 L125.23 288.81 L122.59 286.87 L117.08 284.23 L114.07 282.16 L112.5 281.25 L108.89 280.39 L114.64 271.11 L123.44 255.57 L147.82 210.75 L153.44 200.84 L162.41 185.68 L167.39 177.06 L175.7 162.08 L183.87 147.6 L188 140.3 L191.68 132.86 L193.69 132.48 L194.82 131.74 L195.28 131.5 L195.46 131.96 L195.73 132.65 L195.75 132.9 L196.02 133.06 L196.4 133.05 L196.75 132.88 L197.67 132.42 L198.88 132.03 L200.36 131.7 L202.84 131.56 L203.98 131.22 L209.54 129.07 L210.14 126.25 L210.38 125.12 L211.04 124 L211.86 123.3 L212.06 121.86 L212.25 121.85 L212.46 121.96 L212.65 122.09 L212.96 122.2 L213.18 122.22 L213.5 122.18 L213.74 122.08 L214.05 121.81 L214.13 121.36 L214.1 121.03 L214.02 120.47 L213.74 119.96 L213.54 119.68 L212.51 118.73 L212.34 118.23 L212.64 118 L212.74 117.8 L212.77 117.57 L212.74 117.15 L212.75 116.82 L216.09 116.78 L217.21 116.46 L218.07 116.02 L219.58 114.84 L220.79 113.96 L220.99 113.87 L222.05 113.85 L222.79 114.19 L223.89 114.58 L225.03 115.48 L225.56 116.29 L225.66 116.64 L225.77 116.95 L226.12 117.17 L226.73 117.05 L227.31 117.06 L228.01 117.31 L228.8 117.28 L229.35 117.05 L229.43 116.72 L228.95 116 L228.85 115.77 L228.89 115.59 L229.54 115.04 L230.3 115.04 L230.65 115.2 L231.16 115.26 L231.83 115.27 L232.18 115.05 L232.27 114.91 L233.07 113.16 L233.76 112.85 L234.96 112.83 L235.48 112.96 L236.14 113.11 L237.28 113.52 L237.81 113.76 L238.34 113.81 L238.39 113.85 L239.04 114.28 L239.43 114.42 L240.29 114.48 L241.67 114.56 L241.7 114.72 L241.85 114.89 L241.92 115.08 L242.11 115.18 L242.38 115.33 L243.02 115.29 L243.59 115.09 L243.85 114.91 L244.14 114.67 L244.67 114.54 L245.26 114.54 L246.38 114.62 L247.34 114.65 L247.77 114.4 L248.05 114.2 L248.19 114.01 L248.19 113.75 L248.11 113.55 L247.97 113.4 L247.67 113.1 L247.26 112.82 L246.83 112.57 L246.41 112.23 L246.11 111.77 L246.07 111.49 L246.1 111.31 L246.12 111.14 L246.3 111.03 L246.51 111 L246.73 111.04 L246.99 111.12 L247.28 111.26 L247.54 111.35 L247.79 111.41 L248.09 111.42 L248.32 111.39 L248.42 111.31 L248.58 111.21 L248.63 110.81 L248.41 110.53 L247.95 110.08 L247.87 109.95 L247.85 109.81 L248.04 109.68 L248.3 109.49 L248.51 109.18 L248.64 108.77 L248.68 108.27 L248.73 108.11 L249 107.72 L249.28 107.12 L249.32 106.67 L249.18 106.4 L248.76 105.91 L248.36 105.59 L248.01 105.11 L247.76 104.74 L247.66 104.29 L248 103.93 L248.62 103.56 L249.03 103.34 L249.56 103.29 L250.19 103.09 L250.74 102.84 L251.29 102.19 L251.77 101.75 L251.98 101.65 L252.55 101.57 L252.95 101.41 L253.32 101.1 L253.98 100.99 L254.26 100.96 L255.06 100.67 L255.75 100.44 L256.24 100.04 L256.54 99.67 L256.72 99.23 L256.8 98.88 L256.78 98.44 L256.74 98.17 L256.47 97.63 L256.12 97.09 L256.13 96.46 L255.81 96.24 L255.43 96.08 L255.01 95.97 L253.79 95.94 L252.83 96.13 L252.56 96.11 L252.24 95.97 L251.87 95.61 L251.31 95.28 L250.89 95.16 L250.54 95.02 L250.11 94.74 L249.49 94.12 L249.53 93.97 L249.65 93.72 L249.88 93.51 L250.11 93.3 L250.26 93.05 L250.27 92.84 L250.11 92.61 L249.6 92.46 L248.99 92.39 L248.17 92.38 L247.93 92.3 L247.76 92.24 L247.64 92.06 L247.62 91.79 L248.75 91.79 L249.43 91.49 L249.81 91.36 L249.95 91.02 L250.17 90.94 L250.58 90.95 L250.65 90.83 L250.83 90.74 L250.92 90.56 L251.05 90.18 L251.34 90.13 L252.06 90.13 L252.64 90.09 L252.9 89.92 L253.08 89.75 L253.18 89.56 L253.28 88.99 L253.36 88.86 L253.78 88.85 L253.97 88.58 L254.16 88.22 L254.33 87.8 L254.31 87.47 L254.48 87.27 L254.73 87.16 L255.01 86.85 L255.07 86.61 L255.13 86.39 L255.32 86.16 L255.47 86.06 L255.67 86.02 L255.94 85.92 L256.17 85.75 L256.22 85.61 L256.42 85.39 L256.41 85.01 L256.66 84.7 L257.25 83.61 L257.37 83.16 L257.44 82.83 L257.59 82.5 L257.8 82.31 L257.87 82.31 L258.16 82.26 L258.48 82.26 L258.68 82.16 L258.82 81.97 L258.82 81.74 L258.76 81.6 L258.66 81.44 L258.54 81.31 L258.27 81.14 L258.13 80.7 L258.07 80.42 L258.69 79.46 L259.18 78.55 L259.66 77.91 L259.77 77.69 L259.78 77.25 L259.83 76.92 L259.99 76.75 L260.3 76.64 L260.72 76.6 L261.34 76.26 L261.95 76.02 L262.48 75.57 L262.86 75.34 L263.33 75.13 L263.62 74.86 L263.85 74.44 L263.77 74.28 L263.81 74.07 L263.84 73.74 L264.52 72.94 L264.6 72.59 L264.67 72.24 L264.65 71.95 L264.55 71.54 L264.35 71.25 L264.15 71.06 L263.84 70.78 L262.89 67.81 L262.76 67.52 L262.59 67.32 L262.27 67.17 L261.9 67.08 L261.55 67.06 L261.23 67.11 L260.99 67.31 L260.75 67.62 L260.44 68.14 L260.22 68.57 L259.96 68.63 L259.62 68.56 L259.01 67.97 L258.63 67.44 L258.5 67.23 L258.44 67.08 L258.35 66.87 L258.87 65.72 L259.18 65.41 L259.63 65.24 L259.88 65.21 L260.13 65.07 L260.55 64.95 L260.83 64.91 L261.19 64.91 L261.39 64.77 L261.61 64.59 L261.87 64.34 L262.33 64.32 L262.82 64.11 L263.09 63.9 L263.41 63.41 L263.61 62.9 L263.75 62.27 L263.87 62.09 L264.01 62.03 L264.24 62.01 L264.44 62.02 L264.66 62.19 L264.81 62.35 L264.84 62.52 L264.85 62.62 L264.91 62.78 L264.99 62.96 L265.24 63.14 L266.1 63.31 L266.58 63.05 L267.01 62.44 L267.22 61.96 L267.62 61.44 L267.7 61.06 L267.81 60.15 L268.06 59.87 L268.58 59.44 L268.88 58.93 L269.03 58.09 L269.08 57.53 L269.04 57.23 L268.7 56.96 L268 56.85 L267.25 56.78 L266.63 57.03 L266.17 57.06 L265.72 56.92 L265.07 56.88 L264.85 56.95 L264.29 57.37 L264.02 57.49 L263.78 57.44 L263.15 57.17 L262.27 55.78 L261.86 54.64 L261.67 53.91 L261.63 53.03 L261.68 52.53 L261.8 52.04 L262.06 51.67 L262.71 50.97 L263.96 50.23 L264.54 49.26 L264.84 48.72 L264.99 48.24 L265.51 47.48 L266.16 46.78 L266.75 46.26 L267.23 46.09 L267.67 46.08 L267.94 46 L268.12 45.93 L268.25 45.72 L268.42 45.5 L268.55 45.25 L268.65 44.95 L268.61 44.6 L268.64 44.44 L268.4 44.24 L268.16 44.13 L267.82 44.02 L267.74 43.84 L267.68 43.68 L267.62 43.18 L267.93 41.84 L268.35 39.58 L268.4 38.95 L268.99 37.36 L269.12 37.2 L269.26 37.18 L269.44 37.37 L269.66 37.85 L269.77 38.67 L269.78 40.62 L269.67 42.4 L269.73 43.62 L269.81 44.19 L269.96 44.72 L270.05 45.21 L270.44 46.06 L270.81 46.79 L271.06 47 L271.79 47.42 L272.36 47.54 L272.79 47.57 L273.35 47.57 L273.91 47.83 L274.76 48.16 L275.65 48.3 L276.59 48.39 L279.27 48.41 L280.81 48.21 L285.39 48.22 L286.09 48.24 L287.68 48.11 L288.46 47.96 L291.23 47.91 L291.46 47.89 L292.15 47.59 L292.71 47.27 L292.84 46.95 L292.86 46.51 L292.72 46.18 L292.32 45.8 L291.66 45.29 L291.19 44.88 L290.95 44.55 L290.76 44.31 L290.71 43.99 L290.82 43.88 L290.95 43.79 L291.43 43.79 L291.67 43.84 L291.99 43.77 L292.37 43.52 L292.71 43.07 L292.83 42.47 L292.84 41.99 L292.72 41.65 L292.62 41.41 L292.63 40.66 L292.9 40.23 L293.03 39.97 L293.13 39.43 L293.23 39.01 L293.38 38.76 L293.71 38.41 L294.13 38.32 L294.74 38.39 L295.1 38.55 L295.32 38.68 L295.67 38.75 L296.01 38.68 L296.77 38.27 L297.41 37.7 L297.78 37.31 L297.93 36.92 L297.85 36.32 L297.86 35.92 L298.15 35.32 L298.36 34.87 L298.56 34.22 L298.62 33.76 L298.68 33.07 L298.79 32.78 L298.94 32.45 L298.99 32.03 L298.93 31.82 L298.81 31.61 L298.71 31.35 L298.71 31.13 L298.78 30.99 L298.99 30.85 L299.69 30.56 L300.18 30.31 L301.1 30.03 L302.17 29.77 L302.78 29.77 L303.21 29.75 L303.52 29.86 L303.67 30.36 L303.65 30.59 L303.44 31.05 L303.2 31.57 L302.68 32.08 L302.58 32.51 L302.52 32.92 L302.53 33.48 L302.63 33.92 L302.85 34.31 L303.5 34.47 L303.91 34.45 L305.07 34.06 L306.14 33.61 L306.38 33.58 L306.71 33.59 L307.58 33.58 L308.08 33.75 L308.9 34.07 L310.98 35.4 L315.94 38.25 L318.5 40.22 L320.15 41.66 L320.21 41.89 L320.39 42.3 L320.64 42.55 L320.87 42.71 L321.19 42.78 L321.59 42.79 L322.17 42.71 L322.65 42.59 L323.02 42.34 L323.25 42.03 L323.42 41.61 L323.48 41.31 L323.66 41.08 L324.99 40.56 L326.44 39.9 L326.85 39.81 L328.77 39.82 L329.17 39.64 L329.76 39.23 L330.71 38.67 L331.71 37.97 L331.95 37.51 L332.07 37.13 L332.26 36.82 L332.49 36.79 L332.81 36.76 L333.01 36.82 L333.33 36.96 L333.66 37.07 L333.88 37.1 L334.14 37.05 L334.35 36.95 L334.46 36.79 L334.54 36.6 L334.5 36.36 L334.41 36.08 L334.16 35.71 L333.62 34.77 L333.48 34.5 L333.32 34.1 L332.96 33.66 L332.73 32.98 L332.72 32.29 L332.77 31.96 L332.73 31.05 L332.43 30.54 L332.37 30.32 L332.38 30.17 L332.49 29.99 L332.71 29.89 L333.09 29.92 L333.68 30.29 L333.93 30.33 L334.25 30.34 L334.6 30.27 L335.05 30.03 L335.58 29.47 L335.91 28.98 L336.01 28.64 L336.06 28.2 L335.89 27.96 L335.66 27.85 L335.25 27.7 L334.98 27.53 L334.9 27.31 L335.1 26.94 L336.31 26.14 L336.75 26.11 L337.02 26.14 L338.07 26.19 L338.9 26.02 L339.48 25.8 L340.03 25.5 L340.29 25.18 L340.39 24.91 L340.43 24.59 L340.51 24.21 L340.91 23.59 L341.16 23.44 L341.57 23.34 L343.92 23.25 L345.1 23.2 L346 23.14 L346.84 23.32 L347.15 23.32 L348.02 23.57 L348.22 23.71 L348.53 23.94 L348.91 24.23 L349.13 24.41 L349.31 24.53 L350.09 24.76 L351.19 24.66 L351.63 24.6 L352.22 24.35 L352.51 24.09 L353.09 23.54 L353.39 23.13 L353.79 22.53 L354.36 21.77 L354.72 20.28 L354.67 19.67 L354.72 19.15 L354.85 18.92 L355.09 18.81 L355.42 18.82 L355.71 18.76 L355.83 18.64 L356 18.43 L356.01 18.14 L356.08 17.25 L356.31 15.74 L356.43 14.59 L356.19 14.02 L356.06 13.72 L355.89 13.44 L355.61 13.18 L355.31 13.08 L354.19 13.27 L353.49 13.07 L352.8 12.8 L351.87 12.36 L352.01 10.43 L352.94 9.44 L354.5 8.52 L358.41 5.93 L361.01 4.09 L363.35 1.54 L363.62 0.88 L363.76 0 L366.5 0.15 L368 2.6 L369.19 4.95 L368.76 5.21 L368.23 5.41 L367.79 5.47 L367.37 5.65 L367.05 5.94 L366.73 6.43 L366.39 7.69 L365.88 10.52 L365.37 12.49 L364.81 13.72 L363.96 15.32 L362.9 16.63 L361.87 17.76 L360.6 19.21 L359.18 20.7 L358.26 21.64 L357.93 22.16 L357.5 22.72 L357.42 22.91 L357.54 23.12 L357.73 23.25 L358.23 23.46 L359.95 23.59 L360.51 23.71 L361.14 23.89 L361.5 23.97 L362.22 23.98 L363.03 23.83 L363.28 23.76 L363.8 23.44 L364.21 23.17 L365.21 22.84 L366.34 22.83 L366.97 23.01 L367.96 24.69 L367.86 24.98 L366.85 25.32 L365.04 25.87 L364.41 26.85 L364.03 27.12 L363.59 27.73 L363.41 27.97 L363.32 28.19 L363.04 28.28 L362.86 28.22 L361.83 27.5 L360.7 26.84 L359.84 26.48 L359.09 26.39 L358.39 26.48 L357.49 26.91 L354.66 29.54 L352.62 31.68 L352.07 32.13 L351.54 32.47 L350.67 32.74 L349.74 32.99 L348.96 33.4 L348.71 33.65 L348.41 34.01 L347.96 35.15 L347.61 36.06 L347.55 37.32 L347.78 38.06 L347.9 38.96 L347.87 39.61 L347.65 40.07 L347.23 41.12 L346.64 42.27 L346.01 43.01 L345.35 44.01 L345.07 44.15 L344.48 44.18 L344.01 44.3 L343.56 44.51 L343.27 44.73 L342.45 46.17 L342.36 46.6 L342.47 47.09 L342.63 47.5 L342.75 47.88 L342.73 48.53 L342.55 48.71 L342.27 48.79 L341.89 48.87 L341.21 48.43 L340.84 47.67 L340.36 46.59 L339.74 44.94 L339.44 44.17 L338.89 43.29 L338.59 42.82 L338.2 42.56 L337.71 42.57 L337.11 42.78 L336.72 43.09 L336.29 43.65 L335.25 45.16 L334.18 46.93 L333.79 47.85 L333.36 48.69 L332.94 49.38 L332.24 49.98 L331.54 50.53 L330.9 50.76 L329.89 50.31 L329.02 49.27 L328.7 48.45 L328.43 47.93 L328.04 47.52 L327.66 47.41 L327.32 47.43 L326.96 47.59 L326.46 48.02 L325.97 48.54 L325.48 49.77 L325.22 50.28 L324.86 50.59 L324.34 50.6 L323.93 50.74 L323.59 50.92 L323.1 51.54 L321.33 54.33 L320.59 55.53 L320.14 56.09 L319.65 56.53 L319.14 56.63 L318.52 56.93 L317.89 57.5 L317.71 58.11 L317.41 58.9 L316.81 59.86 L316.47 60.49 L316.01 61.33 L315.49 62.13 L315.1 62.53 L314.55 62.93 L314.26 62.9 L313.79 62.74 L313.53 62.6 L312.78 61.95 L312.09 61.22 L310.1 59.23 L309.91 58.85 L308.77 57.87 L308.36 57.39 L308.08 56.91 L308.15 56.39 L308.52 56.22 L309.14 55.96 L309.34 55.78 L309.45 55.37 L309.34 55.06 L308.48 54.54 L307.01 54.11 L306.28 54.3 L305.9 54.68 L304.97 55.63 L304.59 56.66 L304.61 57.1 L305.02 57.66 L305.56 58.18 L306.14 58.66 L306.85 59.85 L306.58 60.54 L306.22 61.26 L305.54 61.79 L304.72 62.62 L304.09 63.65 L303.37 64.82 L303.05 64.9 L302.7 64.95 L302.51 64.82 L300.8 60.83 L299.78 58.17 L299.11 56.76 L298.21 55.53 L297.49 55.18 L296.78 54.92 L295.83 54.89 L294.61 55.19 L292.28 58.76 L291.84 59.96 L291.29 61.08 L290.43 62.57 L290.59 63.75 L291.8 65.27 L293.13 69.68 L293.34 70.5 L293.38 71.01 L293.33 72.02 L293.07 72.47 L292.68 73.09 L292.05 73.49 L291.53 73.96 L291.41 74.24 L291.38 74.67 L292.45 75.82 L293.13 76.52 L293.22 77.91 L292.92 78.43 L292.47 78.94 L290.88 79.72 L290.06 80.12 L289.58 80.51 L289.2 81.07 L289.34 81.5 L290.46 81.65 L290.96 81.88 L292.11 82.51 L292.6 83.34 L292.75 84.05 L292.71 84.94 L292.5 86.08 L292.4 86.68 L292.38 87.21 L292.94 88.69 L293.12 89.35 L293.25 89.93 L293.27 90.62 L293.44 91.19 L293.7 91.39 L294.42 91.76 L294.67 92.26 L294.68 92.75 L294.56 93.36 L294.37 93.66 L294.02 93.91 L293.03 94.13 L290.27 96.4 L289.62 97.24 L288.78 98 L288.16 98.66 L288.07 99.13 L288.08 99.73 L288.2 100.45 L288.12 100.95 L287.82 100.73 L287.49 100.24 L287.07 99.81 L286.8 99.38 L286.7 98.64 L286.68 98.04 L286.52 97.61 L286.31 97.34 L285.94 97.25 L285.53 97.17 L285.09 97.44 L284.82 97.61 L284.66 97.9 L284.47 98.38 L284.39 98.99 L284.18 99.74 L283.81 100.78 L283.33 101.74 L282.78 102.88 L282.17 103.76 L281.73 104.28 L281.36 104.76 L280.59 105.17 L279.93 105.51 L279.19 105.65 L278.47 105.72 L278.09 105.69 L277.27 105.28 L276.55 105.11 L275.72 105.33 L274.95 105.83 L274.5 106.59 L274.18 107.67 L273.93 109.86 L273.69 112.07 L272.49 114.63 L271.74 115.42 L271.21 115.52 L270.76 115.49 L270.49 115.41 L269.89 115.65 L269.02 116.63 L268.29 118.1 L267.98 118.68 L267.91 119.52 L268.03 120.43 L268.6 121.28 L269.48 121.59 L270.16 121.72 L271.37 121.46 L272.4 121.4 L272.99 121.48 L273.64 121.8 L274.6 121.83 L275.2 121.83 L275.65 121.7 L276.05 121.49 L276.9 120.74 L277.64 120.35 L277.97 120.24 L281.63 119.97 L282.84 119.86 L283.85 119.85 L284.22 120.1 L284.55 120.24 L284.99 120.21 L285.37 119.94 L285.59 119.56 L285.83 118.69 L285.98 117.74 L285.98 117.21 L285.93 116.84 L285.53 116.08 L285.07 115.3 L285.02 114.94 L285.02 114.65 L285.51 114.25 L286.98 113.95 L287.69 114.03 L288.5 114.41 L290.63 116.29 L291.27 117.06 L291.73 117.7 L292.65 118.12 L293.35 118.09 L293.88 117.93 L294.65 117.13 L295.25 116.7 L296.23 116.89 L296.38 116.73 L296.42 116.59 L296.45 116.03 L296.18 115.28 L296 114.55 L296.13 113.48 L296.31 112.83 L296.86 112.51 L298.03 112.33 L298.93 112.14 L299.56 111.86 L299.93 111.49 L300.28 111.43 L300.73 111.45 L301.3 111.75 L301.84 112.07 L302.55 112.27 L302.85 112.61 L303.05 113.08 L303.35 113.45 L303.96 113.97 L304.3 114.22 L304.5 114.67 L304.81 115.43 L305.23 115.92 L305.47 116.12 L305.94 116.17 L306.14 116.06 L306.28 115.92 L306.44 115.71 L306.55 115.34 L306.61 115.04 L306.85 114.7 L307.62 114.17 L308.65 114.19 L309.41 114.14 L309.86 114.24 L310.24 114.35 L311.17 114.71 L311.92 115.24 L312.84 115.98 L312.91 116.31 L312.61 116.73 L312.51 117.06 L312.52 117.49 L312.83 117.71 L313.05 117.78 L313.42 117.51 L314.07 117.19 L314.7 117.06 L315.36 117.42 L316.34 118.04 L316.85 118.58 L317.39 119.57 L317.49 120.21 L317.52 121.92 L317.52 122.15 L317.72 122.54 L317.85 122.81 L318.13 123.1 L318.87 123.06 L319.74 122.84 L320.88 122.81 L321.42 122.94 L321.72 123.35 L322 123.54 L322.28 123.81 L322.63 123.94 L322.98 124.02 L323.49 123.83 L323.87 123.5 L324.48 122.95 L325.62 122.9 L326.77 122.88 L327.84 122.73 L328.65 122.59 L329.52 122.23 L330.17 121.68 L330.63 121.14 L331.35 120.58 L332 120.13 L332.69 119.96 L333.83 119.55 L334.88 118.94 L335.79 118.41 L336.58 117.72 L336.99 116.98 L337.03 115.77 L336.84 114.79 L336.54 114.1 L336.07 113.35 L335.05 112.77 L334.33 112.04 L333.19 110.31 L332.8 109.82 L331.21 108.2 L331.2 107.9 L332.21 108 L333.13 108.18 L334.01 108.06 L335.07 106.96 L335.67 107.06 L335.93 107.42 L336.95 108.3 L337.72 108.82 L338.43 109.35 L339.36 109.59 L340.55 109.82 L341.6 109.51 L342.33 109.19 L342.81 109.03 L343.89 109.16 L344.62 109.57 L345.64 110.18 L346.36 110.16 L346.8 109.92 L347.04 109.46 L347.16 109.08 L347.11 107.38 L346.89 106.31 L347.35 106.55 L348.43 107.39 L348.72 107.87 L348.68 108.51 L348.96 108.91 L349.06 109.01 L349.49 109.31 L350.12 109.57 L350.62 110.57 L351.24 110.7 L351.82 110.44 L352.15 110.2 L352.61 109.5 L352.96 108.94 L353.59 107.89 L354.14 107.38 L354.74 106.85 L355.48 106.49 L356.62 106.09 L358.07 105.61 L359.84 104.45 L361.27 103.69 L364.37 101.11 L366.27 99.07 L366.74 98.62 L367.12 98.44 L367.57 98.77 L367.76 99.69 L367.68 100.17 L366.72 102.51 L365.94 104.01 L365.33 105.1 L364.9 106.4 L364.73 107.21 L364.38 107.8 L363.71 108.49 L362.69 109.01 L362.06 109.39 L361.41 110.14 L360.88 111.32 L360.73 112.33 L360.82 113.28 L361.55 113.99 L362.8 114.4 L364.56 114.49 L365.81 114.4 L367.54 113.92 L370.04 113.61 L371.49 113.73 L372.29 113.88 L372.77 114.22 L372.67 114.72 L372.23 115.2 L368.79 115.68 L366.55 116.6 L363.84 117.32 L361.67 118.52 L361.29 118.84 L360.53 119.73 L359.47 120.64 L358.35 120.94 L356.52 121.07 L355.78 120.49 L355 120.1 L354.4 119.92 L353.62 119.97 L352.75 120.55 L352.35 121 L351.99 121.65 L351.52 122.83 L350.62 124.06 L349.4 125.1 L348.49 125.2 L347.58 124.87 L346.54 124.4 L346.28 123.67 L345.75 123.09 L345.23 122.71 L344.83 122.52 L344.34 122.41 L343.58 122.58 L343.05 123.1 L342.68 124.06 L342.83 125.08 L343.22 125.89 L343.92 126.98 L344.4 127.97 L344.51 128.4 L344.87 130.42 L344.88 131.51 L345.14 133.97 L345.59 135.19 L345.92 136.32 L346.09 137.33 L346.19 138.22 L345.28 137.6 L344.44 136.29 L343.57 135.17 L343.21 134.94 L341.04 134.32 L340.65 133.68 L340.23 132.79 L339.88 131.54 L339.69 130.48 L339.35 129.71 L339.02 129.22 L338.55 128.75 L338.03 128.51 L337.38 128.41 L336.7 128.42 L335.97 128.59 L334.5 129.02 L332.82 129.96 L331.59 130.81 L329.86 132.86 L327.72 135.27 L327.46 135.82 L326.44 137.74 L325.96 139.05 L325.48 140.41 L324.83 141.39 L324.39 141.86 L323.18 142.75 L321.37 143.02 L319.2 143.47 L318.17 144.48 L317.68 145.36 L317.6 146.64 L317.7 147.99 L318.11 149.5 L318.06 151.65 L317.65 152.13 L316.93 151.73 L316.33 151.2 L315.17 150.49 L314.24 148.87 L313.33 147.03 L311.9 145.15 L310.71 144.88 L309.99 144.85 L309.48 144.7 L309.17 144.63 L308.94 144.26 L308.89 144.08 L308.01 143.92 L307.27 144.31 L306.6 144.95 L306.13 145.42 L305.86 145.73 L305.44 146.88 L305.02 147.78 L304.84 148.05 L304.28 148.68 L303.82 148.95 L303.05 149.27 L301.93 149.3 L300.18 149.33 L299.29 149.1 L298.69 148.9 L297.81 148.14 L297.07 147.27 L296.59 145.28 L296.49 144.75 L296.57 143.98 L296.7 142.85 L296.6 142.25 L296.37 141.84 L295.99 141.51 L295.59 141.22 L294.65 141.06 L293.46 140.71 L292.47 140.48 L291.09 140.34 L289.17 139.82 L288.41 139.46 L287.67 139.27 L286.9 139.15 L285.61 139.62 L285.08 140.01 L283.03 141.46 L280.28 141.99 L277.74 141.95 L277.11 141.32 L276.53 140.64 L275.93 139.79 L275.28 139.47 L274.37 139.18 L273.61 139.1 L272.79 139.22 L272.24 139.63 L271.79 140.21 L271.23 140.97 L270.68 142.09 L269.95 143.43 L269.36 144.67 L269.25 145.22 L269.15 146.25 L269.1 147.03 L268.98 148.03 L268.39 151.75 L268.45 152.7 L268.2 153.39 L267.87 153.96 L267.39 154.71 L266.87 155 L266.38 155.04 L265.55 154.91 L265.05 154.49 L264.51 153.81 L263.64 152.66 L263.07 152 L262.53 151.67 L261.97 151.41 L260.4 151.27 L256.74 151.57 L256.13 152.22 L255.43 152.83 L254.77 152.94 L254.13 152.88 L253.65 152.47 L252.95 151.8 L252.31 151.1 L252.02 150.03 L251.74 148.95 L251.58 147.71 L251.27 146.58 L250.99 145.65 L250.65 145.28 L250.16 144.77 L249.44 144.41 L248.67 144.36 L248.41 144.48 L247.96 144.73 L247.59 145.24 L247.33 145.82 L247.08 146.54 L246.94 147.26 L246.97 148.1 L245.26 150.79 L243.77 153.6 L236.73 166.09 L236.69 166.95 L237.7 167.99 L238.28 168.84 L238.9 170.05 L239.01 170.63 L239.1 171.4 L239.11 172.19 L238.98 172.84 L238.75 173.39 L238.3 174.16 L237.23 174.9 L236.39 174.89 L235.68 175.13 L235.22 176.93 L235.13 177.48 L235.2 178.84 L235.15 181.39 L235.11 182.02 L234.98 182.33 L234.92 182.64 L233.73 184 L232.85 184.43 L231.71 184.71 L231.68 185.51 L232.27 187.2 L233.65 188.64 L234.21 189.08 L235 190.12 L235.6 190.67 L237.15 192.23 L238.18 193.5 L238.65 193.87 L239.13 193.48 L239.4 193.16 L239.58 192.7 L239.56 192.03 L239.45 191.4 L239.03 189.29 L238.33 186.74 L238.21 186.06 L238.31 185.03 L238.85 184.27 L239.19 184.18 L240.11 184.14 L241.35 184.22 L242.44 184.63 L243.22 185.17 L243.55 185.52 L243.89 185.82 L244.4 186.18 L245.47 186.26 L245.56 186.59 L245.52 186.96 L245.51 187.42 L245.62 187.88 L245.81 188.25 L246.12 188.62 L248.02 191.4 L248.19 191.88 L248.49 192.63 L249.06 193.56 L249.74 194.08 L250.33 194.29 L250.97 194.37 L251.8 194.28 L252.79 194.06 L253.47 193.49 L254.26 192.46 L254.94 191.34 L255.28 191.08 L255.58 190.98 L256.19 191.19 L256.96 191.56 L258.01 191.99 L260.27 193.62 L261.62 194.54 L263.93 197.66 L265.12 199.07 L266.91 201.02 L270.19 204.47 L270.99 205.48 L271.57 206.06 L272.39 206.78 L273.28 207.04 L274.45 207.47 L275.5 207.64 L276.41 207.82 L276.98 207.62 L277.39 206.91 L277.68 206.38 L277.64 205.91 L277.66 205.4 L277.53 204.76 L278 203.42 L277.87 202.51 L277.73 201.94 L277.03 200.87 L276.74 200.12 L276.69 198.83 L276.31 198.25 L275.93 197.9 L275.1 196.95 L274.43 196.15 L272.97 193.89 L272.57 192.67 L272.59 191.87 L272.23 190.46 L271.76 189.15 L271.16 187.61 L270.75 186.32 L269.48 184.11 L268.92 183.3 L268.33 181.82 L267.1 180.78 L266.22 180.21 L265.32 180.14 L265.27 179.55 L265.67 179.06 L266.06 178.67 L266.78 178.29 L268.67 176.18 L269.97 175.43 L270.88 174.63 L271.51 174.63 L272.03 174.96 L272.57 175.84 L273.51 178.59 L274.32 181.39 L274.93 182.31 L275.59 183.06 L276.35 183.52 L277.41 183.59 L278.35 183.92 L279.21 184.91 L280.37 186.25 L280.98 186.51 L281.75 186.54 L282.76 186.29 L283.08 185.99 L283.53 185.52 L283.76 185.21 L284.35 185.08 L284.97 185.21 L285.7 185.15 L286.76 185.14 L288.56 185.91 L288.91 186.44 L289.08 186.85 L289.22 187.78 L289.02 188.31 L288.24 189.41 L287.46 190.11 L286.25 191.64 L285.85 192.02 L285.85 192.79 L286.26 194.07 L286.73 194.74 L287.5 196.39 L287.56 196.98 L287.91 198.19 L288.91 199.24 L290.18 200.75 L290.57 200.84 L291.08 201.1 L292.35 201.17 L292.73 201.06 L293.19 201.09 L294.13 201.24 L295.51 202.02 L295.84 202.14 L296.11 202.06 L296.41 202.05 L296.93 201.9 L297.05 201.65 L297.26 201.44 L297.74 201.39 L298.71 202.44 L299.21 202.61 L299.68 202.71 L301.38 203.09 L303.03 202.67 L303.58 202.74 L304.04 203.42 L305.02 204.1 L305.61 204.27 L306.18 204.29 L306.38 203.96 L306.46 203.74 L306.57 203.44 L306.61 202.92 L306.45 202.45 L306.08 201.1 L305.63 200.28 L304.36 197.2 L303.36 195.5 L303.17 194.5 L302.72 193.48 L302.83 192.49 L302.96 191.42 L303.44 190.35 L303.86 189.63 L304.52 189.27 L304.88 189.3 L306.1 189.88 L307.72 190.35 L309.72 190.98 L310.89 191.48 L311.82 192.31 L312.22 193.05 L312.75 194.17 L312.94 194.95 L313.46 195.76 L314.04 196.23 L314.58 196.36 L315.18 196.25 L315.77 196.14 L316.64 195.42 L317.34 194.77 L317.58 194.63 L318.33 194.7 L318.74 195.13 L319.15 195.74 L319.89 196.25 L320.62 196.61 L322.38 196.68 L324.31 197.72 L325.48 198.9 L326.94 200.36 L327.6 201.1 L328.12 201.31 L328.58 201.28 L329.02 201.11 L329.39 200.49 L329.94 199.85 L330.32 198.76 L330.34 197.76 L330.11 196.2 L330.04 194.98 L330.1 194.37 L330.24 193.63 L330.28 193.26 L330.41 193.08 L330.61 192.9 L330.99 192.94 L331.74 193.45 L332.01 193.45 L332.19 193.39 L332.47 192.71 L332.55 190.65 L332.54 189.51 L332.46 187.56 L332.43 185.42 L332.45 184.49 L332.56 183.95 L332.84 183.25 L333.19 182.2 L333.65 181.74 L334.57 181.33 L335.12 180.94 L335.82 181.04 L336.2 181.35 L337.01 181.87 L337.24 182.09 L337.7 182.71 L338.08 183.74 L338.67 184.79 L339.92 186.77 L341.07 188.07 L341.75 189.41 L341.89 189.92 L342.6 192.72 L342.69 193.6 L342.83 194.72 L342.81 196.3 L342.76 197.12 L342.25 198.79 L342.12 198.98 L341.94 199.84 L341.81 200.53 L341.68 201.03 L341.31 202.08 L340.86 202.98 L340.53 204.52 L340.69 205.33 L341.26 206.51 L341.86 207.57 L342.79 208.57 L343.65 209.21 L344.78 209.68 L347.06 210.69 L348.44 211.87 L349 212.84 L349.82 213.83 L350.25 214.29 L350.88 214.75 L351.73 215.65 L352.1 216.27 L352.3 217.02 L352.36 218.24 L352.44 218.59 L352.64 218.99 L353.3 219.5 L353.63 219.67 L354.23 219.81 L354.7 219.84 L355.27 220.06 L355.57 220.45 L356.14 220.54 L356.5 219.93 L356.75 219.05 L356.75 218.16 L356.89 217.01 L357.25 216.08 L357.46 215.4 L358.2 214.68 L359.28 214.06 L360.26 213.39 L361.69 212.87 L363.07 212.78 L364.18 212.8 L364.75 213.11 L365.13 213.55 L365.56 213.8 L365.97 213.7 L366.08 213.19 L366.11 212.68 L365.96 211.57 L365.78 210.77 L365.41 209.98 L365.33 209.02 L365.08 208.48 L365.16 207.67 L365.44 207.22 L365.93 207.12 L366.45 207.08 L366.78 206.11 L367.41 205.97 L368 206.01 L368.58 206.34 L369.26 206.58 L370.13 206.88 L370.81 207.01 L371.29 207.04 L371.85 206.94 L372.41 206.8 L373.01 206.38 L373.21 205.8 L373.73 205.23 L373.94 205.11 L374.74 205.09 L375.43 205.32 L375.83 205.59 L376.54 205.83 L377 205.87 L377.89 205.47 L378.18 205.86 L378.69 207.16 L379.04 207.47 L379.56 207.93 L380.12 208.49 L380.51 208.81 L380.98 208.97 L381.41 209.17 L382.02 208.89 L382.4 208.54 L382.62 208.1 L383.18 207.13 L383.64 206.23 L385.66 204.22 L386.43 203.26 L387.8 202.24 L388.55 201.53 L389.38 202.65 L388.58 204.02 L387.87 205.55 L387.46 206.52 L387.04 208.12 L384.24 211.88 L383.35 212.92 L380.6 215.71 L378.63 217.72 L375.95 220.04 L373.26 221.33 L372.54 221.65 L371.98 221.75 L370.3 222.66 L369.66 223.09 L368.7 222.9 L368.3 222.31 L367.92 221.54 L367.69 221.02 L367.62 220.22 L367.59 219.3 L367.6 218.56 L367.59 218.07 L367.55 217.65 L367.29 217.4 L366.81 217.35 L366.4 217.37 L366.15 217.61 L365.87 217.89 L365.56 218.34 L365.21 218.86 L364.57 219.35 L363.44 219.97 L362.6 220.57 L361.25 221.86 L360.55 222.59 L359.64 223.65 L358.84 224.78 L358.15 226.16 L357.36 229.11 L357.36 230.68 L357.52 231.33 L357.79 232.19 L358.05 232.87 L358.88 233.75 L359.31 234.46 L359.66 235.55 L359.95 236.86 L360.76 237.55 L361.81 237.52 L362.87 237.37 L363.38 237.62 L363.62 237.95 L364.23 238.13 L365.27 238.36 L366.11 238.65 L367.02 238.59 L367.83 238.17 L368.29 237.74 L368.55 237.31 L369.15 236.49 L369.39 236.08 L369.5 235.82 L369.99 235.77 L370.32 236.07 L370.62 236.59 L370.83 237.23 L370.77 237.78 L370.41 238.8 L370.18 239.4 L370 239.8 L369.73 240.25 L369.81 240.69 L369.79 241.13 L370.07 241.45 L370.35 241.52 L370.83 241.63 L371.17 241.8 L371.46 242.21 L371.1 242.59 L370.64 242.72 L370.37 243.06 L370.36 243.65 L370.52 244.34 L370.59 244.54 L370.44 244.86 L369.93 245.11 L369.17 245.54 L368.7 245.75 L368.03 246.19 L367.35 246.77 L366.91 247.2 L366.44 247.67 L366.49 248.58 L366.7 249.27 L367.21 249.54 L367.83 249.73 L368.75 249.63 L369.73 249.57 L370.13 249.2 L370.5 248.95 L370.83 248.89 L371.36 248.72 L371.71 248.5 L371.9 248.12 L372 247.81 L371.89 247.48 L371.86 247.15 L371.95 247 L372.25 246.93 L372.61 247.25 L372.96 247.57 L373.18 247.85 L373.63 247.91 L374.16 247.87 L374.56 247.87 L375.34 248.36 L375.71 248.89 L376.2 249.74 L376.52 250.03 L376.87 250.15 L377.15 250.15 L377.57 249.97 L377.71 249.65 L377.86 249.51 L378.11 249.38 L378.24 249.49 L378.5 249.58 L378.53 249.73 L378.72 249.97 L379.4 250.4 L379.71 250.83 L379.88 251.53 L379.94 252.37 L379.63 252.65 L379 252.98 L378.44 253.08 L377.94 253.17 L377.86 253.81 L378.3 254.47 L378.62 255.09 L379.15 255.44 L379.63 256.01 L380.13 257.29 L380.27 257.69 L380.19 258.12 L380.34 259.03 L380.04 259.4 L379.81 259.67 L379.76 259.83 L379.81 260.16 L380.09 260.45 L380.45 260.57 L381.22 260.68 L381.95 260.46 L382.22 260.13 L382.68 259.68 L383.04 259.66 L383.41 260.09 L383.93 260.59 L385.09 261.45 L385.8 261.63 L386.75 261.64 L387.31 261.38 L387.63 261.03 L388 260.75 L388.89 261.18 L389.57 261.15 L390.93 261.96 L391.6 262.55 L392 262.99 L392.15 263.36 L392.14 263.64 L391.82 264.42 L391.2 265.78 L389.95 266.82 L389.26 267.32 L388.55 267.42 L387.7 267.18 L386.99 267.19 L386.21 267.34 L385.9 267.55 L385.67 267.84 L385.67 268.26 L386.09 268.49 L386.44 268.7 L386.93 269.03 L387.17 269.36 L387.2 270.06 L386.81 271.01 L386.34 271.74 L385.8 272.65 L385.64 274.46 L385.3 274.94 L384.79 275.13 L384.28 275.23 L384.1 275.37 L383.86 275.68 L383.81 276.04 L383.87 276.45 L384.14 276.66 L384.46 276.85 L385.13 277.07 L385.53 277.28 L385.71 277.62 L385.66 277.92 L385.11 278.51 L384.96 278.99 L385.33 279.53 L385.81 279.82 L386.42 280.61 L386.85 281.27 L387.02 281.97 L387.02 282.63 L386.75 283.29 L385.88 284.64 L385.64 284.96 L385.17 285.96 L385.07 286.47 L384.82 288.01 L384.74 288.75 L385.3 290.79 L385.9 291.23 L386.38 291.34 L387 291.43 L388.35 292.38 L389.22 293.28 L389.88 294.21 L390.76 295.53 L392.38 297.88 L392.52 298.11 L390.87 299.41 L390.69 299.26 L389.54 298.82 L387.81 297.71 L385.32 295.93 L384.54 295.71 L383.77 295.73 L383.19 295.92 L381.44 296.84 L380.43 297.24 L379.51 297.95 L377.97 299.25 L377.35 300.1 L375.92 302.25 L375.03 303.32 L374.34 304.02 L373.09 304.95 L371.19 306.31 L370.11 303.98 L371.4 303.12 L372.55 302.4 L372.94 302.1 L373.39 301.42 L373.82 300.05 L373.95 296.54 L374.32 296.05 L375.29 295.15 L375.93 294.72 L376.74 294.13 L377.3 293.58 L377.59 292.54 L377.66 291.65 L377.58 290.77 L377.46 289.11 L377.56 288.15 L377.51 287.88 L377.41 287.3 L377.32 286.38 L377.38 285.94 L377.95 285.08 L378.26 284.42 L378.39 283.71 L378.38 283.17 L378.31 282.22 L377.99 281.45 L377.53 280.66 L377.02 280.24 L376.08 279.84 L375.3 279.33 L375.19 279.02 L375.1 278.57 L374.79 278.03 L374.4 277.8 L374 277.71 L373.54 277.58 L372.86 277.58 L372.52 277.92 L372.25 278.17 L371.97 278.22 L371.59 277.98 L371.25 276.99 L371.09 276 L371.12 275.53 L371.25 275.13 L371.27 274.62 L371.43 274.13 L371.67 273.46 L371.7 272.45 L371.56 271.66 L371.41 271.08 L371.32 270.35 L371.31 269.89 L371.56 269.41 L371.63 268.98 L371.4 267.71 L371 266.48 L371.1 265.98 L371.42 265.54 L371.6 265.06 L371.59 264.75 L371.55 264.06 L371.76 263.48 L371.95 263.19 L372.66 262.88 L372.86 262.38 L373.01 261.99 L372.51 261.21 L372.19 260.81 L371.57 260.51 L371.05 260.48 L369.18 260.86 L369.17 260.17 L369.21 259.37 L368.68 258.25 L368.15 257.67 L367.81 256.87 L367.68 256.47 L367.57 255.88 L367.21 255.3 L366.92 255.14 L366.58 254.98 L366.05 254.97 L365.38 255.45 L364.88 255.63 L361.43 256.08 L360.77 255.88 L360.3 255.43 L359.96 254.65 L359.9 254.06 L360.01 253.7 L360.29 253.27 L360.48 252.71 L360.52 252.06 L360.34 251.75 L360.06 251.48 L359.61 251.02 L359.35 250.57 L359.32 250.19 L359.1 249.33 L358.81 248.79 L358.52 248.31 L358.21 246.74 L356.07 244.98 L354.58 244.74 L352.88 244.74 L351.72 244.7 L351.17 244.32 L350.82 243.86 L350.56 243.45 L349.82 243.11 L349.13 243.22 L348.34 244.03 L347.37 244.08 L346.69 243.88 L346.01 243.61 L344.62 243.19 L344.2 242.96 L343.92 242.81 L343.71 242.41 L343.55 241.75 L343.34 241.14 L342.76 240.87 L341.92 240.63 L341.87 240.42 L341.86 239.9 L341.76 239.69 L341.58 239.48 L341.3 239 L341.22 238.5 L341.24 238.24 L341.16 237.77 L341.4 237.6 L342.36 236.81 L342.57 236.45 L342.75 235.68 L342.68 234.84 L342.19 233.58 L341.66 232.58 L340.82 231.27 L340.34 229.55 L339.83 227.9 L339.54 227.34 L339.16 227.13 L338.67 227.09 L338.28 227.27 L337.46 227.95 L334.78 228.6 L333.97 228.66 L333.4 228.61 L332.74 228.85 L332.22 229.62 L331.89 229.69 L331.61 229.7 L331.38 229.62 L331.07 229.25 L330.7 228.6 L330.09 228.28 L329.39 228.19 L328.63 228.47 L327.89 229.08 L327.33 229.36 L326.62 229.91 L325.67 230.27 L324.94 230.17 L324.35 229.73 L323.81 229.12 L323.43 228.53 L323.33 228.12 L323.37 227.5 L323.36 226.98 L323.23 226.44 L322.85 225.97 L321.86 225.79 L320.35 225.75 L318.93 225.98 L318.51 225.73 L318.19 225.3 L317.8 224.62 L317.72 223.98 L317.83 223.54 L318.06 222.79 L318.28 222.38 L318.36 220.82 L318.63 220.08 L319.14 218.8 L319.18 218.33 L319.03 217.85 L318.78 217.46 L318.4 217.42 L317.94 217.6 L317.58 217.92 L316.34 218.36 L315.08 218.94 L314.13 219.15 L313.03 219.26 L312.27 219.19 L311.54 218.9 L310.91 218.1 L310.6 217.72 L310.37 216.94 L310.06 216.57 L309.68 216.27 L308.68 216.27 L307.78 216.25 L307.48 216.51 L307.16 216.93 L306.67 217.75 L305.99 218.4 L305.35 219.06 L305.07 219.48 L304.92 220.09 L304.85 220.66 L304.89 221.49 L305.19 222.48 L305.53 223.24 L306.16 224.33 L306.58 224.84 L307.15 226.64 L307.52 228.16 L307.9 230.66 L308.01 231.91 L308.05 232.31 L308.18 232.77 L308.44 233.47 L308.81 233.74 L309.98 234.42 L310.22 234.72 L310.64 234.98 L311.03 234.98 L311.7 234.87 L312.05 234.46 L312.06 233.87 L312.46 233.75 L312.55 233.83 L312.67 234.03 L312.71 234.37 L312.96 234.66 L313.48 234.82 L314.03 234.84 L314.31 234.43 L314.39 233.89 L314.15 233.56 L314.05 233.31 L314.24 233.15 L314.98 233.23 L315.49 233.09 L315.81 232.84 L316.05 232.66 L316.43 232.56 L316.79 232.69 L317.19 233.37 L317.4 233.74 L317.66 234.07 L318.02 234.48 L318.7 234.95 L318.85 235.37 L318.89 235.66 L318.82 235.95 L319.11 236.46 L319.45 236.85 L319.86 237.21 L320.3 237.79 L320.7 238.66 L321.19 240.07 L321.17 240.63 L320.96 241.08 L320.6 241.36 L319.98 241.83 L319.82 242.22 L319.81 242.72 L320.14 243.22 L320.4 243.42 L320.73 243.48 L321.21 243.56 L321.7 243.97 L322.08 244.25 L322.52 244.83 L323.15 245.2 L324.55 246.09 L325.6 246.98 L326.33 247.35 L326.67 247.8 L327.39 248.59 L327.55 248.93 L327.54 249.06 L327.45 249.18 L327.21 249.32 L327.06 249.6 L326.95 249.92 L327.13 250.48 L327.57 251.21 L327.79 251.94 L328.64 253.09 L329.04 253.24 L329.61 253.48 L329.89 253.6 L330.24 254.15 L330.29 254.93 L330.14 255.85 L330.14 256.73 L330.07 257.42 L330.06 257.94 L330.88 260.74 L331.59 261.87 L332.5 263.05 L333.06 264.12 L333.29 265.36 L333.47 265.9 L333.64 267.95 L333.64 268.58 L333.62 269.16 L333.82 270.68 L333.95 271.87 L333.99 272.61 L334.19 273.23 L334.51 274.74 L334.97 275.73 L335.38 276.17 L335.78 277.06 L335.77 277.41 L335.73 277.6 L335.39 277.7 L335.04 277.66 L334.75 277.52 L334.2 276.94 L333.66 276.2 L333.37 275.73 L333.08 275.34 L332.61 275.08 L332.19 275.24 L331.91 275.13 L331.62 274.73 L331.63 274.43 L331.81 273.93 L331.91 273.32 L332 272.68 L331.82 272.07 L331.54 271.54 L331.22 271.26 L330.76 271.16 L330.02 270.42 L329.62 269.41 L329.61 267.99 L329.5 267.19 L329.49 266.65 L329.41 265.76 L329.28 265.45 L329 265.14 L328.56 265.19 L328.33 265.59 L327.89 266.16 L327.73 266.45 L327.43 266.97 L327.26 267.32 L327.08 267.57 L326.96 268.12 L326.52 270.48 L326.44 271.2 L326.46 273.23 L326.83 274.91 L326.94 275.48 L327.12 275.84 L327.07 276.14 L326.99 276.57 L326.63 277.22 L326.18 278.03 L325.94 278.2 L325.64 278.4 L324.7 279.41 L324.11 280.19 L323.43 281.18 L322.88 281.96 L322.22 282.88 L321.43 283.96 L321.33 284.04 L321.3 284.09 L320.92 284.49 L320.47 284.97 L320.32 285.11 L320.22 285.19 L320.15 285.25 L319.78 285.42 L319.04 285.73 L318.77 285.82 L318.52 285.94 L317.51 286.35 L316.84 286.75 L316.5 286.97 L316.14 287.12 L315.76 287.18 L315.46 287.02 L315.17 286.64 L314.98 286.35 L314.87 285.53 L314.82 285.12 L314.91 284.56 L314.98 284.24 L315.19 283.81 L315.4 283.46 L315.78 282.99 L315.95 282.57 L315.98 281.94 L315.85 281.6 L315.67 281.44 L315.26 281.37 L314.97 281.15 L314.71 280.77 L314.96 279.88 L315.1 279.82 L315.14 279.78 L315.55 279.67 L316.29 279.73 L316.58 279.6 L317.08 279.05 L317.42 278.44 L317.7 278.12 L317.95 278 L318.34 277.53 L318.41 277.15 L318.45 276.9 L318.85 275.97 L319.07 275.7 L319.24 275.3 L319.31 275.14 L319.57 274.67 L319.93 274.51 L320.06 274.53 L320.18 274.53 L320.62 274.72 L321.14 274.9 L321.85 275.2 L322.61 275.57 L322.84 275.53 L322.94 275.37 L323 275.16 L322.96 274.93 L322.71 274.39 L322.44 273.91 L322.02 273.02 L321.77 272.45 L321.63 271.7 L321.7 271.11 L321.64 270.71 L321.54 270.32 L321.49 270.2 L321.5 270.17 L321.51 269.57 L321.63 269.18 L322.01 268.99 L322.43 268.81 L322.71 268.58 L322.82 268.37 L322.81 268.1 L322.74 267.85 L322.47 267.66 L322.05 267.68 L321.55 267.56 L321.38 267.38 L321.32 267.2 L321.31 267 L321.56 266.78 L321.81 266.54 L321.81 266.14 L321.68 265.89 L321.73 265.68 L323.37 264.82 L324.68 264.26 L325.71 263.92 L326.6 263.53 L326.6 263.29 L326.47 263.02 L326.22 262.82 L325.78 262.62 L325.66 262.41 L325.68 262.22 L325.84 262.05 L326.79 261.98 L327.03 261.71 L327.17 261.57 L327.25 261.34 L327.17 261.09 L327.06 260.79 L326.71 260.49 L326.35 260.2 L326.1 259.64 L325.84 259.59 L325.47 259.6 L325.01 259.47 L324.84 259.13 L324.91 258.75 L325.25 258.43 L325.58 258.15 L326.01 257.99 L326.56 257.91 L326.81 257.4 L326.72 257.03 L326.4 256.59 L325.88 256.3 L325.27 256.22 L324.55 256.17 L323.87 256.25 L323.06 255.98 L322.58 255.8 L321.81 255.71 L321.2 255.79 L319.52 256.79 L318.7 257.44 L318 257.51 L317.55 257.48 L317.31 257.19 L317.21 256.88 L317.23 256.47 L317.14 256.02 L317.01 255.79 L316.74 255.55 L316.38 255.51 L316.06 255.25 L315.93 254.93 L315.88 254.66 L315.93 254.36 L316.21 253.77 L316.43 253.34 L316.61 252.8 L317.14 252.37 L317.52 251.94 L318.03 251.15 L318.26 250.59 L318.51 249.79 L318.49 249.3 L318.4 248.94 L318.14 248.62 L317.85 248.43 L317.04 248.34 L316.48 248.41 L315.75 248.53 L315.09 248.66 L314.47 248.65 L313.98 248.43 L313.33 248.24 L312.4 248.07 L311.36 248.01 L310.64 247.69 L310.19 247.1 L309.88 246.36 L309.63 245.22 L309.16 244.59 L308.67 244.48 L308.57 244.06 L308.42 243.57 L308.38 243.37 L308.19 243.21 L307.57 243.05 L307.05 243.14 L306.03 243.43 L304.77 243.78 L304.05 244.29 L303.45 245.29 L302.97 246.47 L302.49 247.24 L302.45 247.29 L301.27 248.26 L299.72 249.61 L299.11 250 L298.04 250.46 L297.04 250.85 L296.28 251.04 L296.11 251.12 L296.1 251.15 L295.99 251.25 L295.92 251.26 L295.39 251.61 L294.97 251.79 L294.19 252.4 L294.13 252.48 L293.64 252.82 L292.84 253.57 L292.04 254.37 L291.32 255.61 L290.63 256.91 L289.35 258.57 L288.39 260.35 L287.22 262.49 L286.41 264.12 L285.88 265.62 L285.57 266.26 L285.3 266.64 L284.98 267.08 L284.45 267.47 L284.16 267.79 L283.96 268.07 L283.89 268.21 L283.86 268.23 L283.73 268.46 L283.6 268.44 L283.57 268.43 L283.27 268.37 L282.96 268.06 L282.44 267.05 L282.33 266.05 L282.42 265.05 L282.51 264.62 L282.92 263.35 L283.32 262.66 L283.46 262.41 L283.59 262.01 L283.65 261.82 L283.77 261.25 L284.49 260.02 L284.53 260.01 L284.65 259.7 L285.64 257.66 L285.82 257.48 L285.84 257.47 L286.33 257.03 L287.07 256.6 L287.6 256.3 L287.97 255.83 L288.03 254.69 L287.88 253.82 L287.84 253.68 L287.68 253.31 L287.09 253.13 L286.79 253.07 L286.65 253.05 L286.62 253.05 L286.37 252.76 L286.26 252.62 L286.21 252.5 L286.21 252.42 L286.19 252.42 L286.23 252.23 L286.39 252 L286.67 251.82 L287.21 251.67 L287.49 251.46 L287.59 251.25 L287.83 250.61 L287.9 250.28 L287.9 249.7 L287.78 249.36 L287.63 249.08 L287.38 248.82 L286.96 248.28 L286.48 247.65 L286.13 247.02 L285.99 246.65 L285.99 246.23 L286.12 245.57 L286.21 245.1 L286.2 244.82 L285.97 244.13 L285.68 243.72 L285.7 243.66 L285.24 242.65 L285.27 242.42 L285.29 242.09 L285.33 241.94 L285.39 241.54 L285.38 241.05 L285.24 240.79 L284.49 239.9 L284.22 239.56 L284.17 239.26 L284.29 238.98 L284.46 238.71 L284.78 238.14 L284.93 237.53 L284.69 237.03 L284.42 236.73 L283.92 236.07 L283.58 235.49 L283.28 235.02 L283.07 234.43 L282.95 233.53 L282.88 233.43 L282.86 233.03 L282.84 232.98 L282.87 232.47 L282.47 231.85 L282.2 231.56 L281.89 231.23 L281.59 230.67 L281.55 230.12 L281.49 229.36 L281.43 228.21 L281.38 227.82 L281.18 227.05 L281.16 227 L280.99 226.72 L280.67 226.2 L280.66 225.35 L280.79 224.64 L280.84 224.57 L281.18 224.08 L281.32 223.75 L281.32 223.37 L280.96 223.1 L280.74 223.05 L280.6 223.02 L280.38 223.05 L280.14 223.33 L280.03 223.69 L279.73 223.73 L279.6 223.47 L279.58 223.02 L280.29 222.03 L280.64 221.52 L280.83 221.24 L280.71 220.61 L280.57 220.47 L280.4 220.3 L280.21 220.11 L279.52 219.68 L278.97 219.43 L278.78 219.34 L277.57 219.17 L276.69 219.18 L275.94 219.1 L275.93 219.1 L275.67 219.07 L274.41 218.74 L273.76 218.74 L273.62 218.74 L273.54 218.74 L273.12 218.82 L272.74 219.16 L272.69 219.2 L272.02 220.13 L272.02 220.14 L271.61 220.94 L271.17 221.85 L270.17 223.54 L269.1 224.94 L268.38 225.53 L267.61 225.91 L265.81 226.11 L264.78 226.3 L263.73 226.64 L262.5 227.41 L261.25 228.74 L260.86 229.46 L260.54 230.37 L260.22 231.37 L260.2 231.86 L259.76 232.22 L259.31 232.42 L258.4 232.28 L257.44 232.12 L255.97 232.86 L254.58 234.18 L254.09 234.44 L254.07 234.51 L253.84 234.56 L253.12 235.19 L252.83 235.94 L252.69 236.52 L252.41 236.84 L251.92 236.91 L251.12 236.55 L250.26 236.52 L249.71 236.73 L249.07 237.12 L248.73 237.57 L248.59 237.87 L248.33 238.04 L248.2 238.28 L248.01 238.37 L247.88 238.36 L247.67 238.05 L247.67 237.83 L247.66 237.78 L247.49 237.6 L246.88 237.12 L246.78 237.14 L246.55 237.53 L246.4 237.97 L246.33 238.07 L244.92 241.03 L244.92 241.89 L245.26 242.39 L245.19 242.79 L244.37 243.18 L243.65 244.47 L242.92 245.93 L243.06 246.34 L243.14 247.2 L243.47 247.94 L244.05 248.69 L244.28 249.48 L244.27 250.55 L244.53 250.87 L244.92 251.41 L245.24 251.68 L245.44 252.58 L245.63 253.02 L245.63 253.31 L245.69 253.47 L246.08 254.74 L246.11 255.43 L245.91 255.96 L245.74 256.28 L245.77 256.71 L245.83 257.07 L245.81 257.23 L245.88 257.33 L245.76 258.08 L245.5 258.88 L245.43 259.04 L245.06 259.94 L245.03 260.01 L244.95 260.14 L244.7 260.57 L244.49 260.98 L244.49 261.65 L244.52 261.81 L244.5 261.95 L244.36 262.37 L244.09 263.25 L244.09 263.29 L244.09 263.31 L243.98 263.43 L244.08 264.02 L244.25 264.18 L244.25 264.2 L244.28 264.39 L244.87 264.74 L244.93 264.77 L245.27 264.97 L245.64 265.43 L245.66 265.53 L245.83 265.71 L246.37 266.39 L246.54 267.32 L246.51 267.9 L246.39 268.52 L246.19 268.85 L246.12 268.97 L245.67 269.22 L244.11 270.01 L242.3 270.44 L241.12 270.71 L240.71 271.23 L240.37 272.35 L240.35 273.1 L240.38 273.1 L240.28 273.59 L239.76 276 L239.62 276.51 L239.4 276.66 L239.17 276.8 L238.71 276.9 L237.73 276.87 L237.22 277 L236.8 277.36 L236.52 277.69 L236.2 278.19 L235.62 278.51 L235.02 278.69 L234.67 278.64 L234.26 280.06 L233.96 281.64 L233.87 283.2 L233.77 284.38 L233.83 285.66 L234.18 290.3 L234.25 291.14 L234.16 293.04 L234.17 293.04 L234.07 293.22 L233.35 294.89 L229.9 300.88 L228.02 304.43 L227.11 306.08 L226.71 307.28 L226.53 307.76 L226.53 308.29 L226.62 308.59 L227.36 308.88 L228.24 309.19 L229.01 309.16 L229.87 308.83 L230.34 308.48 L230.83 307.7 L231.26 307.18 L232.2 307.02 L233.15 306.91 L233.96 307.06 L234.56 307.59 L235.37 308.6 L236.06 309.13 L236.85 309.42 L237.62 309.38 L238.24 309.11 L238.78 308.57 L239.52 307.79 L241.03 307.04 L242.01 306.88 L242.42 306.88 L242.75 306.88 L243.24 306.54 L244.24 305.73 L245.13 305.51 L247.28 305.5 L247.7 306 L247.82 306.29 L247.29 307.25 L247.33 308.39 L247.37 308.68 L247.3 309.09 L247.98 310.08 L248.55 311.36 L249.35 311.88 L249.63 312.05 L250.17 311.92 L251.09 311.66 L251.58 311.78 L251.75 312.02 L251.8 312.81 L251.71 313.57 L251.7 313.71 L251.71 314.37 L252.05 314.81 L252.78 315.45 L252.97 316.12 L252.97 316.66 L252.75 316.98 L252.5 317.65 L252.16 318 L252.08 318.95 L252.2 319.34 L252.89 319.9 L253.81 320.14 L254.27 320 L254.72 319.79 L255.03 319.47 L255.12 319.11 L255.94 318.27 L255.82 317.57 L255.58 317.02 L255.25 316.7 L254.99 316.18 L255.4 315.79 L256.24 315.49 L256.96 315.17 L257.46 314.86 L257.95 314.77 L258.41 314.98 L259.08 315.38 L259.61 315.73 L260.29 316.36 L260.84 317.08 L261.25 317.33 L261.79 317.56 L262.4 317.67 L263 317.5 L263.4 317.06 L264.15 316.18 L264.92 315.72 L265.68 315.23 L266.23 315.15 L267.2 315.17 L268.09 315.36 L269.07 315.63 L269.23 315.7 L269.9 316.47 L270.6 317.16 L271.24 317.11 L272.02 316.72 L272.52 316.24 L272.67 315.79 L272.8 315.59 L272.91 315.4 L273.34 315.19 L273.68 315.05 L274.15 314.99 L274.49 315.13 L274.9 315.46 L275.13 315.85 L275.2 316.34 L275.22 316.49 L275.23 316.65 L275.34 317.26 L275.28 318.66 L275.17 319.8 L275.12 321.13 L275.1 321.88 L274.98 322.15 L275.12 322.61 L275.19 322.97 L275.99 323.72 L276.35 323.93 L277.05 324.19 L277.63 324.05 L278.87 324.12 L279.41 324.3 L280.4 324.38 L285.01 324.3 L286.48 324.27 L287.39 324.31 L288.8 324.56 L291.32 324.55 L292.03 324.78 L293.55 325.5 L294.58 326.02 L295.37 326.83 L296.21 327.6 L297.81 328.41 L298.79 328.94 L300.33 329.51 L301.14 330.28 L301.45 330.74 L301.62 331.9 L301.63 333.94 L301.75 335.49 L301.91 336.58 L302.57 337.44 L303.22 338.1 L303.73 338.3 L304.25 338.64 L304.97 338.94 L305.21 338.88 L305.76 338.85 L305.53 340.31 L305.16 340.81 L304.43 340.96 L303.8 340.97 L302.76 340.58 L302.17 340.37 L302.02 340.23 L301.08 339.65 L300.76 339.36 L300.34 338.81 L299.99 338.28 L299.41 337.36 L299.41 336.85 L299.6 336.43 L300.17 335.69 L300.26 334.75 L300.04 334.11 L299.68 333.65 L298.86 333.31 L297.87 333.17 L297.09 333.03 L296.43 333.27 L295.96 333.28 L295.09 333.48 L294.63 333.61 L294.3 333.71 L292.82 333.97 L291.94 333.81 L291.81 333.81 L291.6 333.61 L291 333.24 L290.91 333.2 L290.87 333.14 L290.68 333.06 L290.63 333.04 L290.27 332.95 L290.17 332.92 L289.6 333.09 L289.48 333.19 L289.18 333.28 L288.8 333.27 L288.72 333.25 L288.6 333.21 L288.42 332.86 L288.44 332.82 L288.54 332.59 L288.77 332.29 L289.39 331.78 L289.68 331.25 L289.73 330.56 L289.71 330.36 L289.61 330.12 L289.14 329.47 L288.95 329.03 L288.86 328.35 L288.27 327.64 L288.17 327.58 L287.71 327.39 L287.1 327.03 L286.28 326.74 L285.82 326.61 L284.33 326.83 L284.08 326.92 L282.81 327.39 L281.1 327.78 L280.27 328.07 L279.43 328.66 L278.42 328.84 L277.54 328.73 L277.5 328.71 L276.67 328.49 L275.88 328.69 L275 329.25 L274.6 329.5 L274.33 329.68 L273.34 329.87 L273.31 329.86 L272.52 329.58 L271.92 329.09 L270.15 326.85 L269.15 325.97 L267.89 325.41 L266.68 325.68 L265.75 326.45 L264.94 327.54 L264.25 328.87 L263.66 329.72 L263.02 330.56 L262.28 331.17 L262.27 331.22 L262.06 331.27 L261.17 330.99 L260.45 330.32 L260.08 330.05 L259.53 330 L259.18 330.3 L259.02 331.44 L259.2 332.76 L259.47 333.88 L259.53 334.13 L259.57 334.94 L259.54 335.33 L259.18 335.93 L259.02 336.19 L258.4 336.05 L257.79 335.24 L257.63 334.83 L257.44 334.68 L257.14 333.82 L256.79 333.27 L256.28 332.11 L254.99 330.55 L254.42 330.47 L252.91 331.91 L251.31 333.68 L250.7 335.02 L250.65 335.12 L249.65 336.1 L249.18 336.27 L248.98 336.27 L248.67 336.35 L248.55 336.38 L248.14 336.37 L247.8 336.22 L247.59 336.05 L247.49 336.02 L246.7 335.54 L246.29 335.29 L245.24 334.56 L244.73 333.82 L243.65 332.01 L243.45 331.55 L243.26 331.28 L243.08 331.21 L242.63 331.06 L242.08 330.98 L242.01 331 L241.82 331.04 L241.44 331.12 L241.33 331.18 L240.98 331.37 L240.94 331.39 L240.91 331.49 L240.85 331.64 L240.76 331.91 L240.66 332.19 L240.52 332.43 L238.33 339.29 L233.5 354.18 L228.59 369.17 L228.63 369.17 L228.5 369.29 L228.6 369.8 L228.65 370.2 L228.97 370.69 L229.25 370.88 L229.72 370.95 L230.27 371 L230.92 371.07 L232.08 370.84 L233.01 370.87 L235.15 371.1 L235.72 371.13 L235.85 371.02 L235.99 371.07 L236.44 370.79 L236.66 370.54 L236.62 370.32 L236.71 370.13 L236.52 369.42 L236.55 369.19 L236.75 368.95 L237.06 368.55 L237.33 368.15 L237.64 367.57 L237.83 367.45 L238.24 368.16 L238.6 368.86 L239.28 369.13 L239.88 369.15 L240.28 369.58 L240.71 369.94 L241.34 370.13 L241.89 370.9 L242.22 371.84 L241.96 372.49 L241.18 373.55 L241.02 373.81 L241 374.27 L241.34 374.55 L242.51 374.5 L243.5 374.51 L244.01 374.72 L244.77 374.91 L245.24 375.32 L246.08 376.17 L247.34 377.45 L248.42 377.85 L248.45 377.85 L248.55 377.84 L248.72 377.84 L249.32 377.6 L249.3 377.24 L249.26 376.46 L249.18 376.18 L248.83 371.62 L249.33 369.77 L249.21 369.61 L248.89 369.58 L248.84 369.37 L248.71 368.73 L248.71 368.64 L248.72 368.34 L248.72 368.34 L248.76 367.69 L248.97 366.93 L249.09 366.8 L249.45 365.93 L250.01 365.63 L250.3 365.64 L250.54 366.03 L250.53 366.04 L250.63 366.81 L250.94 368.09 L251.23 368.83 L251.41 369.14 L251.49 369.54 L251.73 370.35 L252.22 371.85 L252.43 372.24 L252.56 372.45 L252.96 372.57 L253.23 372.88 L253.69 373.78 L253.89 374.48 L253.97 374.88 L254.08 375.07 L254.62 375.45 L256.79 375.61 L256.82 375.64 L257.12 375.63 L258.12 375.82 L258.99 375.74 L259.46 375.54 L259.76 375.46 L260.23 375.79 L260.28 376.7 L260.32 378.11 L260.32 378.94 L260.03 379.33 L259.88 379.54 L259.61 379.9 L258.67 380.14 L258.1 380.49 L258.3 380.86 L258.63 381.03 L258.67 381.09 L259.57 381.54 L260.13 381.89 L260.3 381.91 L260.49 382 L261.34 382.06 L261.93 382.15 L262.66 382.76 L262.71 382.87 L262.97 383.48 L263.89 384.47 L264.2 384.68 L265.08 384.6 L265.21 384.59 L265.92 384.63 L266.45 384.98 L267.22 386.14 L267.75 386.76 L268.2 386.86 L268.58 387.56 L268.82 388.7 L268.8 388.83 L268.65 389.71 L268.62 390.26 L268.74 390.49 L268.88 390.85 L269.25 391.12 L269.63 391.05 L269.98 390.87 L270.01 390.87 L270.24 390.82 L270.26 390.82 L270.38 390.96 L270.38 391.01 L270.37 391.32 L270.38 391.76 L270.51 391.95 L271.03 392.42 L271.32 392.8 L271.49 393.54 L271.58 394.08 L271.79 394.66 L272.08 395.1 L272.5 395.53 L273.47 396.1 L274.29 396.41 L275.3 396.78 L276.07 396.96 L276.52 396.89 L276.67 396.83 L276.78 396.73 L276.86 396.66 L276.95 396.34 L277.04 396.12 L277.2 395.93 L277.38 395.89 L277.71 396.1 L278.24 396.89 L278.58 397.29 L279 397.54 L279.43 397.56 L281.13 397.42 L281.43 397.35 L281.75 397.17 L282.16 396.68 L282.34 396.39 L282.46 396.3 L282.48 396.26 L282.5 396.25 L282.73 396.09 L282.99 396.11 L283.38 396.37 L283.76 396.73 L284 396.91 L284.22 396.91 L284.91 396.72 L285.32 396.19 L285.62 396.05 L285.79 396.06 L286.03 396.08 L286.32 396.4 L286.81 396.9 L287.26 396.92 L287.62 396.85 L288.04 396.64 L288.46 396.35 L288.81 396.12 L289.08 395.91 L289.36 396.12 L289.46 396.5 L289.62 396.94 L289.8 397.21 L290.05 397.21 L290.4 396.94 L290.79 396.58 L291.24 396.38 L291.63 396.3 L291.87 396.39 L292.3 396.68 L292.52 396.78 L292.72 396.79 L293.02 396.74 L293.3 396.5 L293.51 396.45 L295.44 396.41 L296.56 396.68 L296.56 396.69 L296.97 396.83 L297.39 396.74 L297.68 396.7 L297.86 396.7 L298 396.87 L298.14 397.03 L298.18 397.32 L298.07 397.5 L297.87 397.71 L297.56 397.8 L297.38 397.8 L296.9 397.8 L296.7 397.83 L296.61 397.82 L296.61 397.82 L294.89 398.14 L294.16 398.43 L293.69 398.44 L293.12 398.39 L292.56 398.32 L292.12 398.29 L291.6 398.38 L291.34 398.47 L291.1 398.64 L290.85 398.95 L290.78 399.04 L290.59 399.12 L290.13 399.15 L289.39 399.19 L289.15 399.15 L288.71 398.93 L288.16 398.8 L288.12 398.79 L287.41 398.58 L286.59 398.51 L286.14 398.82 L285.82 399.14 L285.82 399.14 L285.18 399.73 L284.54 400.21 L284.14 400.23 L283.56 400.41 L283.13 400.64 L282.89 400.79 L282.76 400.98 L282.64 401.01 L282.2 401.11 L281.85 400.82 L281.79 400.77 L281.51 400.55 L281.1 400.38 L280.61 400.5 L280.27 400.77 L280.02 401.12 L279.76 401.34 L279.55 401.38 L279.15 401.27 L278.75 401.27 L278.19 401.35 L277.75 401.42 L277.22 401.19 L277.03 400.72 L276.58 399.27 L276.51 398.94 L276.46 398.72 L276.38 398.36 L276.22 398.15 L275.91 398.15 L275.62 398.26 L275.43 398.28 L274.88 398.43 L274.4 398.41 L274.24 398.37 L274.23 398.37 L273.42 398.32 L273.1 398.26 L272.52 398.21 L271.77 398.16 L271.37 398.13 L271.36 398.13 L271.32 398.13 L271.31 398.13 L271.15 398.02 L270.69 397.57 L270.48 397.4 L269.96 397.31 L269.38 397.13 L268.93 397.02 L268.28 396.92 L267.91 396.91 L267.59 396.93 L267.28 397.16 L267.07 397.43 L267.03 397.59 L267.02 397.9 L267.15 398.08 L267.29 398.41 L267.53 398.84 L267.78 399.28 L268.11 399.94 L268.44 400.37 L269.12 401.15 L269.6 401.53 L269.86 401.74 L269.87 401.75 L270.31 402.22 L270.8 403.11 L271.02 403.56 L271.16 404.1 L271.37 405.13 L271.44 405.94 L271.45 406.18 L271.48 406.27 L271.52 406.95 L271.51 408.5 L271.48 409.09 L271.29 409.9 L271.1 410.83 L271.05 411.62 L271.11 412.31 L271.22 412.64 L271.32 412.91 L271.56 413.27 L272.08 413.64 L272.56 413.81 L272.89 413.87 L273.08 413.77 L273.22 413.48 L273.49 413.22 L273.79 413.21 L273.93 413.23 L274.39 413.52 L275.76 414.25 L275.99 414.37 L276.52 414.76 L277.58 415.21 L277.83 415.32 L279.01 415.75 L279.03 415.76 L279.05 415.77 L279.09 415.78 L279.42 415.87 L280.25 416.09 L280.69 416.3 L281.45 416.43 L282.23 416.66 L282.66 417 L283.08 417.38 L283.29 417.58 L283.75 417.93 L284.46 418.26 L285.35 418.57 L285.59 418.72 L286 419 L286.83 419.58 L287.76 420.27 L288.07 420.42 L288.87 420.61 L289.47 420.7 L290.71 420.66 L291.38 420.63 L291.67 420.59 L291.73 421.89 L292.02 423.12 L292.03 423.14 L292.03 423.33 L292.23 423.5 L292.33 423.52 L292.34 423.51 L292.84 423.71 L292.86 423.72 L294.34 424.07 L295.16 424.22 L295.55 424.61 L295.62 425.13 L295.48 425.23 L294.71 425.23 L294.08 425.06 L293.68 424.89 L292.7 424.81 L292.57 424.81 L291.27 424.72 L290.29 424.81 L290.04 424.81 L289.9 424.89 L289.68 425 L289.61 425.1 L289.54 425.2 L289.54 425.41 L289.76 425.52 L289.84 425.54 L289.92 425.64 L291.41 426.12 L291.54 426.19 L292.31 426.61 L292.65 426.9 L292.7 427.16 L292.64 427.45 L292.31 427.67 L291.78 427.59 L290.66 427.67 L289.81 427.64 L289.04 427.71 L288.12 427.96 L287.26 428.15 L286.32 428.27 L285.62 428.36 L284.56 428.26 L283.74 427.97 L283.36 427.86 L283.36 427.84 L282.82 427.87 L282.59 428.01 L282.51 428.07 L282.38 428.14 L282.32 428.23 L282.12 428.4 L281.59 428.69 L281.06 429.04 L280.58 429.16 L280.01 429.26 L279.58 429.28 L279.2 429.28 L278.76 429.17 L278.06 428.84 L277.84 428.65 L277.59 428.22 L277.31 427.55 L277.04 426.78 L276.84 425.55 L276.83 425.36 L276.82 425.11 L276.77 424.91 L276.49 424.68 L276.2 424.65 L275.85 424.74 L275.61 424.83 L275.55 424.94 L275.43 425.14 L275.4 425.49 L275.13 426.22 L274.7 426.73 L273.89 426.98 L272.78 427.05 L271.48 426.99 L270.79 426.76 L270.39 426.4 L269.77 425.41 L269.29 424.7 L269.19 423.88 L269.03 423.14 L268.98 423.1 L268.53 422.66 L268.42 422.56 L268.33 422.55 L267.52 422.53 L266 422.62 L265.27 422.59 L264.96 422.32 L264.5 421.69 L264.28 420.93 L263.89 420.52 L262.38 419.51 L261.27 418.69 L260.31 418.25 L260.04 418.07 L260 417.88 L260.16 417.74 L260.48 417.65 L261.22 417.66 L262.67 417.65 L262.86 417.65 L263.21 417.45 L263.51 417.15 L263.44 416.52 L263.15 415.93 L262.02 415.18 L260.81 414.47 L260.51 414.4 L260.21 414.24 L260.17 414.16 L259.97 413.81 L259.87 413.59 L259.77 413.36 L259.62 413.02 L259.37 412.69 L258.79 412.68 L258.36 412.86 L258.34 412.86 L258.05 413.02 L257.65 412.92 L257.4 412.62 L256.94 411.29 L256.92 411.21 L256.78 410.91 L256.57 410.72 L256.45 410.74 L256.14 410.78 L255.84 410.69 L255.46 410.19 L254.74 408.98 L254.59 408.67 L254.05 407.56 L253.65 407 L253.19 406.42 L252.85 405.85 L252.47 405.61 L252.42 405.61 L252.42 405.61 L251.97 405.46 L251.62 405.37 L251.51 405.24 L251.44 405.23 L251.17 405.1 L251.15 404.84 L251.14 404.83 L251.18 404.71 L251.16 404.19 L251.09 403.88 L250.85 403.37 L250.77 403.19 L249.31 401.66 L248.51 400.78 L248.21 399.86 L247.97 399.47 L247.85 399.28 L247.62 399.02 L246.99 398.72 L245.92 398.23 L245.36 397.95 L245.12 397.84 L244.47 397.86 L244.02 397.91 L243.64 397.96 L242.99 398.26 L242.51 398.43 L241.88 398.44 L240.52 398.42 L239.82 398.77 L239.18 399.19 L238.21 400.22 L238.21 400.29 L238.19 400.31 L237.45 401.24 L236.88 402.37 L236.86 402.4 L236.6 402.76 L235.74 403.48 L234.15 404.76 L232.79 405.37 L231.23 405.9 L230.07 406.24 L228.97 406.49 L228.32 406.61 L227.61 406.85 L227.13 406.94 L226.49 407.2 L226.38 407.36 L226.38 407.4 L226.12 407.79 L226.03 408.71 L226.33 409.81 L226.47 410.09 L226.69 410.54 L226.79 410.95 L226.8 411.28 L226.8 411.66 L226.53 411.84 L226.37 411.93 L225.69 412.42 L225.38 413.13 L225.62 414.1 L226.02 415.18 L226.08 415.83 L225.87 416.06 L225.67 416.29 L225.13 416.34 L224.68 416.6 L224.5 416.93 L224.42 417.48 L225.2 418.3 L225.63 418.62 L226.17 419.67 L226.57 420.14 L226.58 420.15 L227.08 420.45 L227.23 420.97 L226.87 421.1 L226.26 421.1 L225.76 421.23 L225.24 421.41 L224.72 421.54 L224.25 421.69 L223.8 421.7 L223.25 421.5 L223.05 421.32 L222.73 421.03 L221.85 420.76 L221.14 420.49 L221.05 420.5 L220.18 420.61 L219.09 420.53 L218.44 420.03 L217.7 419.14 L217.63 418.98 L217.16 418 L216.9 416.8 L216.65 416.06 L216.39 415.55 L215.79 415.23 L215.23 415.23 L215.06 415.3 L214.7 415.58 L214.26 415.85 L214.06 415.98 L213.94 416.09 L213.56 416.11 L213.36 416.14 L213.31 416.15 L213.07 416.05 L212.8 415.83 L212.59 415.67 L212.1 415.62 L211.63 415.62 L211.4 415.7 L211.15 415.78 L210.97 415.71 L210.55 415.65 L210.18 415.48 L209.81 415.24 L209.64 414.97 L209.59 414.8 L209.86 414.55 L210.27 414.27 L210.43 413.94 L210.43 413.92 L210.11 413.72 L209.7 413.47 L209.61 413.22 L209.64 412.66 L209.96 412.11 L210.35 411.67 L210.4 411.63 L210.72 411.38 L211.01 410.89 L211.13 410.18 L211.24 409.48 L211.39 409.01 L211.49 408.16 L211.58 407.84 L211.58 407.39 L211.69 406.81 L211.69 406.81 L211.71 406.68 L211.85 406.14 L212.3 405.6 L212.52 405.43 L212.61 405.11 L212.56 404.95 L212.26 404.8 L211.87 404.74 L211.67 404.89 L211.61 404.93 L211.24 405.13 L210.8 405.2 L210.68 405.09 L210.92 404.82 L211.26 404.43 L211.57 404.13 L211.65 403.82 L211.7 403.59 L211.56 403.34 L211.34 403.32 L211.19 403.3 L210.86 403.33 L210.84 403.34 L210.84 403.34 L210.48 403.52 L210.44 403.55 L210.17 403.85 L210.17 403.85 L208.17 404.06 L206.61 404.31 L206.21 404.43 L205.47 404.42 L204.76 404.5 L203.78 404.43 L203.24 404.33 L202.6 404.45 L201.99 404.67 L201.45 405.14 L200.78 405.69 L200.01 406.11 L199.35 406.22 L199.3 406.25 L198.74 406.17 L198.57 406.07 L198.39 405.97 L198.35 405.94 L198.15 405.75 L197.71 405.34 L196.79 404.17 L196.59 403.78 L196.17 402.91 L195.47 401.38 L194.65 399.42 L193.83 397.85 L193.35 397.07 L193.13 396.7 L192.8 396.44 L192.56 396.27 L192.54 396.29 L192.47 396.21 L192.09 395.88 L191.57 395.68 L190.99 395.49 L190.49 395.42 L189.5 395.33 L188.7 395.33 L187.79 395.43 L187.04 395.6 L186.29 395.96 L185.27 396.54 L184.46 396.92 L184.23 396.97 L183.61 397.26 L183.46 397.4 L182.88 397.68 L181.82 398.3 L181.48 398.46 L181.01 398.75 L180.96 398.78 L180.64 398.96 L180.11 399.07 L179.43 398.94 L178.75 398.62 L178.28 398.21 L177.88 397.84 L177.67 397.65 L177.3 397.22 L177 396.71 L176.78 396.28 L176.42 395.94 L175.82 395.53 L175.38 395.22 L174.7 395.11 L174.14 395.09 L173.57 395.26 L173.19 395.34 L173.01 395.4 L172.62 395.53 L170.99 396.13 L170.29 396.29 L169.59 396.43 L168.92 396.47 L168.67 396.5 L168.24 396.47 L168 396.47 L168.01 396.43 L167.75 396.43 L167.11 396.37 L166.51 396.35 L166.19 396.29 L165.78 396.19 L165.31 395.97 L164.88 395.48 L164.77 395.32 L164.62 394.79 L164.55 394.17 L164.54 393.13 L164.54 392.62 L164.5 391.09 L164.19 390.11 L163.95 389.6 L163.6 389.26 L162.33 388.45 L161.43 387.93 L160.35 387.56 L160.01 387.52 L159.81 387.46 L158.53 387.34 L156.95 387.34 L155.77 387.37 L155.28 387.4 L155.05 387.41 L154.96 387.41 L154.76 387.43 L154.43 387.44 L154.37 387.44 L154.13 387.43 L154.05 387.43 L153.71 387.35 L153.23 387.23 L153.04 387.19 L153.03 387.18 L153.02 387.17 L152.89 387.03 L152.54 386.54 L152.46 386.15 L152.33 385.71 L151.83 383.51 L151.44 382.48 L151.01 381.43 L150.96 381.32 L150.16 378.89 L149.97 378.62 L149.57 377.92 L149.26 377.59 L149.22 377.59 L149.1 377.44 L148.21 377.02 L147.71 376.82 L147.6 376.77 L147.02 376.69 L146.37 376.67 L146.18 376.67 L145.03 376.7 L143.74 376.61 L142.74 376.67 L142.47 376.67 L141.6 376.82 L140.98 376.98 L140.58 377.27 L140.38 377.42 L140.39 378.03 L140.66 378.24 L141.03 378.7 L141.31 379.14 L141.67 379.81 L141.83 380.54 L142.2 382.77 L142.51 383.79 L142.56 383.93 L142.72 384.85 L142.65 385.86 L142.47 386.29 L142.12 386.73 L142.07 386.8 L141.27 387.21 L141.25 387.22 L139.31 388.25 L137.65 389.52 L136.98 390.33 L136.63 391.07 L136.78 392.47 L137.1 394.18 L137.29 395.24 L137.39 396 L137.34 396.42 L137.12 396.95 L136.78 397.94 L136.44 398.72 L136.09 399.54 L135.86 399.94 L135.78 400.19 L135.73 400.57 L135.86 400.85 L136.42 401.2 L139.05 402.21 L139.99 402.47 L140.48 402.44 L141.77 402.37 L142.61 402.34 L142.92 402.33 L143.58 402.2 L144.98 402.15 L145.97 402.25 L146.61 402.42 L146.77 402.54 L147.47 403.07 L148.09 403.29 L148.74 403.33 L150.03 403.1 L151.5 403 L153.78 403.29 L155.36 403.97 L156.47 405.16 L157.08 406.37 L157.38 407.09 L158.43 408.47 L159.14 408.78 L161.05 409.35 L161.97 409.97 L162.86 410.85 L163.71 411.71 L164.47 411.79 L167.27 411.73 L168.23 411.84 L168.88 412.05 L169.14 412.47 L169.13 412.54 L169.2 412.6 L169.16 413.53 L168.69 414.69 L167.88 415.49 L167.6 415.77 L167.13 416.13 L166.27 417.1 L166.21 417.19 L166.2 417.21 L165.7 417.9 L165.45 418.53 L165.38 419.22 L165.45 419.55 L165.42 419.79 L165.3 421.3 L164.99 421.92 L164.49 422.59 L163.12 425.95 L162.88 426.48 L162.86 427 L163.1 427.61 L163.41 427.94 L164.36 428.28 L165.8 428.42 L166.57 427.99 L166.92 427.6 L167.75 426.69 L168.83 425.22 L169.79 424.57 L170.85 424.12 L171.44 423.99 L172.08 424.15 L172.47 424.68 L173.36 426.08 L174.03 427.59 L174.19 428.23 L174.01 428.96 L173.74 429.83 L173.69 430 L173.58 430.94 L173.67 431.95 L174.18 432.46 L176.3 433.66 L176.95 433.81 L177.36 433.51 L178.67 431.59 L178.73 431.45 L179.02 430.68 L180.24 429.77 L181.43 428.94 L182.04 428.67 L182.92 428.95 L183.58 430 L184.25 432.04 L184.51 433.33 L184.53 433.45 L184.38 435.01 L184.2 435.63 L184.11 435.92 L183.78 436.46 L182.23 437.89 L181.42 438.61 L181.27 439.02 L181.27 439.59 L181.5 439.96 L182.39 440.71 L182.57 441.02 L182.81 441.72 L182.98 442.2 L182.92 443.2 L182.84 443.51 L182.76 443.88 L182.84 444.37 L182.84 444.49 L182.99 444.96 L183.03 445.11 L183.23 445.22 L183.68 445.46 L184.31 445.63 L185.13 445.71 L186.18 445.77 L186.8 445.81 L187.23 445.83 L187.92 446.28 L188.59 446.7 L189.45 446.98 L189.94 447.03 L191.62 445.9 L192.07 445.55 L192.76 445.45 L194 445.52 L195.14 445.51 L195.66 445.39 L197.06 445.05 L197.38 444.94 L198.94 444.85 L199.69 444.94 L200.8 444.78 L201.53 444.42 L203.74 443.9 L204.39 443.94 L205.46 444.47 L206.07 444.87 L206.46 445.13 L207.31 446.43 L207.41 447.9 L207.72 448.56 L207.78 448.99 L207.94 449.15 L208.04 449.44 L208.64 450.01 L208.86 450.07 L209.03 450.23 L209.31 450.35 L209.89 450.6 L210.97 450.89 L211.05 450.9 L211.5 450.93 L211.51 450.85 L212.38 451.01 L213.27 451.31 L213.88 451.86 L214.51 453 L214.55 453.44 L214.41 454 L214.22 454.72 L213.93 455.01 L213.72 455.45 L212.88 455.79 L212.14 455.97 L211.23 455.59 L210.07 455.01 L208.28 453.97 L206.6 453.17 L204.93 452.76 L202.86 452.95 L201.08 453.33 L200.09 453.91 L197.96 455.18 L196.8 456.04 L195.7 456.67 L195.15 456.88 L193.86 456.37 L192.58 455.55 L191.48 455 L191.48 455.12 L191.23 454.93 L190.39 454.61 L188.22 453.93 L186.67 453.47 L185.67 452.84 L184.84 451.88 L184.44 451.57 L183.82 451.24 L182.96 451.24 L182.32 451.51 L181.03 452.19 L179.33 452.82 L178.28 453.1 L176.56 453.12 L175.32 453.02 L175.31 453.01 L174 452.75 L172.79 452.22 L171.84 451.44 L171.61 451.16 L168.84 447.72 L167.41 445.82 L165.78 444.43 L163.99 443.59 L163.33 443.62 L163.18 443.59 L162.3 444.04 L162.01 445.9 L161.87 448.18 L161.83 448.79 L161.4 449.92 L160.46 451.01 L159.18 452.55 L159.02 453.44 L159.42 454.89 L160.07 456.46 L160.24 456.88 L161.79 459.03 L163.2 460.53 L163.92 461.01 L165.25 461.56 L166.63 462.35 L167.35 462.92 L167.79 463.52 L167.87 463.82 L167.99 463.93 L168.35 464.78 L168.62 466.1 L168.64 467.09 L169.31 469.45 L169.64 470.1 L172.64 471.77 L173.68 472.41 L174.91 473.57 L176.66 475.51 L178.63 477.36 L180.09 478.46 L182.05 479.45 L182.65 479.63 L182.83 479.72 L183.06 479.83 L183.92 480.25 L184.04 480.37 L184.78 480.79 L185.42 481.88 L185.71 482.48 L185.98 483.91 L186.02 484.82 L186.03 485.24 L186.1 487.46 L186.28 489.41 L186.43 490.15 L186.73 491.09 L187.58 491.83 L190.9 494.11 L191.66 494.77 L192.18 495.88 L193.22 498.99 L193.53 499.65 L193.56 499.64 L195.24 503.94 L195.87 505.38 L196.33 506.11 L189.25 510 L188.83 509.13 L188.03 507.46 L187.26 506.43 L187.11 506.16 L186.77 505.54 L185.27 504.39 L183.38 503.05 L183.38 503.06 L181.47 501.65 L177.55 498.62 L176.13 497.43 L173.71 496.02 L172.34 495.39 L171.31 495.31 L169.9 495.31 L168.54 495.65 L168.05 495.78 L166.86 496.43 L165.06 497.75 L163.98 498.68 L163.7 498.99 L162.05 500.23 L160.26 501.12 L159.79 500.98 L159.47 499.98 L157.82 495.21 L158.3 493.96 L157.57 493.23 L157.32 493.12 L156.52 492.55 L155.45 491.22 L155.31 490.95 L155.13 490.57 L154.82 489.97 L154.5 488.56 L154.43 487.9 L154.52 487.27 L154.59 486.8 L154.7 485.62 L154.5 484.59 L154.16 484 L153.87 483.75 L153.3 483.24 L152.04 482.93 L149.82 482.4 L147.95 481.56 L147.08 480.38 L146.76 479.76 L146.71 479.68 L145.87 478.33 L145.22 477.7 L144.46 477.1 L143.68 476.8 L143 476.57 L142.31 476.31 L141.6 475.63 L141.01 474.64 L140.97 474.66 L141.03 473.74 L140.76 472.17 L140.26 471.28 L138.94 470.17 L138 469.7 L137 469.49 L134.54 468.94 L133.68 468.73 L133.05 468.59 L131.86 468.39 L130.74 468.14 L130.1 467.8 L129.68 467.13 L129.22 466.51 L129.09 465.66 L129.24 464.39 L129.7 463.62 L130.42 463.04 L131.5 462.62 L131.69 462.54 L132.23 462.34 L132.55 461.72 L132.41 460.69 L131.15 457.64 L131.09 457.42 L131.06 457.31 L130.34 455.07 L130.24 454.33 L130.17 452.14 L129.98 449.75 L130.33 448.85 L130.98 447.9 L131.07 447.79 L131.07 447.76 L131.52 447.2 L131.94 446.3 L129.3 440.57 L129.27 440.42 L129 439.36 L128.79 438.51 L128.81 436.49 L128.85 434.3 L128.86 433.73 L128.75 431.92 L128.54 430.39 L128.49 429.79 L128.29 429.12 L127.82 428.68 L126.84 428.59 L126.08 428.62 L125.39 428.83 L121.55 429.92 L121.09 430.08 L115.92 430.72 L114.78 431.13 L113.8 431.9 L112.57 432.74 L110.91 434.36 L109.67 435.96 L109.02 436.54 L107.51 437.3 L106.39 437.39 L105.87 437.31 L105.53 437.39 L103.15 437.72 L102.21 437.14 L101.88 436.74 L101.66 436.48 L100.73 435.46 L99.67 434.9 L98.54 434.66 L97.46 434.69 L96.56 434.98 L96.2 435.08 L95.96 435.14 L94.42 435.83 L93.25 436.17 L92.72 436.25 L92.06 436.02 L91.79 435.76 L91.32 434.83 L90.57 432.37 L89.23 430.07 L88.71 428.9 L88.21 427.87 L87.86 426.34 L87.5 425.19 L87.92 424.43 L88.42 423.51 L88.57 423.38 L88.47 422.62 L87.83 421.47 L87.24 420.52 L86.76 420.12 L86.1 419.64 L85.94 419.51 L85.24 418.94 L84.1 417.83 L83.18 416.27 L82.2 414.35 L81.54 413.26 L81.28 412.77 L80.38 411.12 L79.49 409.35 L78.77 408.4 L77.51 407.18 L76.91 406.52 L76.37 405.43 L75.26 404.22 L74.79 403.65 L74.7 403.36 L73.92 402.68 L72.95 401.82 L72.01 401.06 L71.81 400.88 L70.62 400.63 L70.03 400.7 L69.43 401.29 L68.08 403.03 L67.28 403.85 L65.89 404.79 L64.1 405.57 L62.78 406.05 L60.74 406.27 L59.96 406.33 L58.49 405.94 L57.22 405.35 L55.1 403.69 L54.4 403.14 L53.23 402.2 L53.13 401.96 L53.4 401.49 L53.57 401.23 L54.14 400.36 L54.27 400.2 L54.14 398.83 L54.03 398.62 L54.02 398.49 L53.1 396.33 L52.62 395.35 L51.37 393.81 L50.71 393.2 L49.9 392.81 L48.67 392.21 L49.06 391.74 L49.59 391.14 L49.39 390.88 L48.64 390.06 L48.35 390.06 L46.56 390.58 L46.04 390.82 L44.14 390.47 L41.75 389.79 L41.34 389.75 L40.9 389.71 L40.4 389.81 L39.9 390.15 L37.41 392.36 L35.48 394.09 L35.14 394.3 L34.16 394.41 L33.49 394.2 L32.28 393.74 L31.77 393.43 L25.71 390.49 L25.31 390.44 L24.95 391.2 L24.24 392.26 L24.21 392.25 L23.83 392.83 L23.53 393.49 L21.32 395.81 L20.46 394.3 L20.3 394.1 L19.87 393.73 L19.39 393.29 L18.63 392.94 L17.68 392.56 L17.14 392.4 L16.5 391.88 L16.5 391.88 L16.44 391.83 L16.33 391.55 L11.56 379.24 L10.3 376.01 L2.63 357.15 L0.13 350.53 L0.14 350.5 L0.1 350.43 L0.04 349.91 L0.05 349.81 L0 349.53 L0.09 348.45 L0.22 347.78 L0.56 347.08 L1.21 346.1 L1.99 345.36 L2.01 345.36 L2.01 345.35 L47 321.42 L72.28 308.2 L85.11 301.37 L89.83 299.12 L90.34 298.67 L90.83 298.4 L91.21 298.34 L91.28 298.33 z" class="polygon_1" style="fill:#55994E;" />
    </g>
    <g id="SiteLine" style="fill:none;" />
    <g id="SitePoint">
      <circle cx="66" cy="358" r="6" id="Dam_S2210" style="fill:#D3DD18;stroke:#8E9504;">
        <title>  (48)</title>
      </circle>
      <circle cx="150" cy="453" r="6" id="Dam_S2212" style="fill:#74B24E;stroke:#365B1F;">
        <title>  (54)</title>
      </circle>
    </g>
    <g id="Mark" class="Heilight">
      <g transform="translate(66, 358) translate(-14, -14)" id="gMark" class="HeilightTrans">
        <path d="M17.2 27.5 L17.2 23.4 L22.8 23.4 L23.3 23.4 L23.3 22.9 L23.3 17.3 L27.4 17.3 L27.4 27.6 L17.2 27.5 z M0.5 27.5 L0.5 17.2 L4.6 17.2 L4.6 22.8 L4.6 23.3 L5.1 23.3 L10.1 23.3 L10.1 27.4 L0.5 27.5 z M27.5 10.2 L23.4 10.2 L23.4 5.2 L23.4 4.6 L22.9 4.6 L17.3 4.6 L17.3 0.5 L27.6 0.5 L27.6 10.2 z M4.6 10.2 L0.5 10.2 L0.5 0.5 L10.2 0.5 L10.2 4.6 L5.2 4.6 L4.6 4.6 L4.6 5.1 L4.6 10.2 z" class="st0" style="fill:#FF800E;" />
        <path d="M17.7 27 L27 27 L27 17.7 L23.9 17.7 L23.9 22.8 L23.9 23.8 L22.9 23.8 L17.8 23.8 L17.8 27 M1 27 L9.7 27 L9.7 23.9 L5.1 23.9 L4.1 23.9 L4.1 22.9 L4.1 17.8 L1 17.8 L1 27 M27 9.7 L27 1 L17.7 1 L17.7 4.1 L22.8 4.1 L23.8 4.1 L23.8 5.1 L23.8 9.6 L27 9.6 M4.1 9.7 L4.1 5.1 L4.1 4.1 L5.1 4.1 L9.6 4.1 L9.6 1 L1 1 L1 9.7 L4.1 9.7 M28 28 L28 28 L28 28 L16.7 28 L16.7 22.9 L22.8 22.9 L22.8 16.8 L28 16.8 L28 28 L28 28 z M10.7 28 L10.7 28 L10.7 28 L0 28 L0 16.7 L5.1 16.7 L5.1 22.8 L10.6 22.8 L10.6 28 L10.7 28 z M28 10.7 L28 10.7 L28 10.7 L22.9 10.7 L22.9 5.1 L16.8 5.1 L16.8 0 L28 0 L28 10.7 L28 10.7 z M5.1 10.7 L5.1 10.7 L0 10.7 L0 0 L10.7 0 L10.7 5.1 L5.1 5.1 L5.1 10.7 L5.1 10.7 z" class="st1" style="fill:#B55600;" />
      </g>
    </g>
  </g>
</svg>