<?xml version="1.0" encoding="utf-8"?>
<!DOCTYPE svg PUBLIC "-//W3C//DTD SVG 1.1//EN" "http://www.w3.org/Graphics/SVG/1.1/DTD/svg11.dtd">
<svg width="518px" height="510px" viewBox="0, 0, 518, 510" class="svgDam" xmlns="http://www.w3.org/2000/svg" xmlns:xlink="http://www.w3.org/1999/xlink" xmlns:xml="http://www.w3.org/XML/1998/namespace" version="1.1">
  <g id="MapArea">
    <g id="Key_Area">
      <path d="M138.2 0.1 L145.61 0.11 L150.33 1.07 L152.88 2.05 L156.51 3.85 L167.25 12.04 L172.13 15.22 L177.72 18.78 L181.27 21.19 L183.4 22.76 L186.16 24.99 L197.52 31.41 L200.94 33.41 L208.27 38.48 L211.22 40.36 L214.88 42.12 L218.93 43.48 L227.56 45.77 L230.98 46.66 L232.94 46.89 L235.73 48.14 L238.41 49.54 L241.36 51.82 L243.33 53.86 L249.23 60.21 L254.98 67.16 L259.49 72.99 L262.72 77.35 L265.67 80.81 L271.94 92.51 L277.15 99.08 L278.39 101.4 L278.44 102.34 L277.76 105.02 L276.84 107.6 L276.7 110.42 L277.91 116.66 L278.62 118.91 L279.76 120.89 L280.8 121.93 L281.93 122.42 L284.55 122.7 L287.06 122.74 L288.2 122.78 L291.12 123.82 L293.22 125.27 L294.53 126.98 L296.71 129.19 L297.35 130.38 L297.87 132.12 L298.47 132.95 L300.05 134.57 L302.37 137.01 L307.97 145.08 L312.31 151.23 L315.6 154.9 L317.23 156.45 L318.34 157.39 L322.93 159.75 L328.35 161.71 L334.16 163.55 L335.07 163.71 L337.12 163.82 L339.25 163.49 L342.05 162.37 L345.31 160.97 L346.97 160.73 L348.55 160.8 L356.85 162.55 L368.72 165 L370.81 165.22 L373.02 165.14 L374.87 164.57 L375.86 163.97 L376.49 163.22 L377.19 161.58 L378.98 155.66 L379.69 154.87 L380.32 154.35 L381.51 153.83 L387.47 153.64 L397.94 153.2 L399.24 153.51 L406.34 157.2 L408.39 160.01 L409.31 163.2 L409.94 164.01 L413.41 166.64 L414.55 167 L416.49 167.35 L417.87 167.74 L418.94 168.33 L420.7 170.67 L422.65 174.35 L423.68 175.86 L425.27 177.52 L429.91 181.31 L431.49 182.13 L434.77 183.23 L438.4 183.96 L444.02 186.2 L450.67 187.9 L455.38 189.27 L458.7 190.96 L466.02 194.39 L469.62 196.04 L471.44 197.3 L472.51 198.21 L473.39 199.55 L474.78 202.01 L477.26 208.94 L481.67 221.05 L483.83 226.35 L485.7 229.79 L490.23 236.6 L492.62 240.12 L493.41 242.02 L495.38 249.12 L497.71 258.03 L498.99 261.91 L500.51 265.47 L502.74 269.87 L504.25 271.93 L505.13 273.07 L508.03 275.99 L509.69 277.81 L510.81 279.59 L511.29 281.18 L511.57 283.28 L511.46 283.99 L511.15 286.22 L509.49 294.39 L507.09 306.58 L506.99 308.89 L507.43 310.91 L509.62 315.3 L512.28 320.09 L515.08 325.86 L516.39 329.23 L516.88 331.13 L517.17 334.19 L516.88 340.02 L516.69 342.51 L516.46 343.74 L516.1 344.26 L514.57 345.42 L511.02 347.26 L495.89 353.99 L492.21 355.65 L488.86 357.37 L486.4 358.41 L484.89 358.36 L483.44 357.32 L482.45 355.89 L479.63 352.76 L477.13 350.43 L474.75 348.5 L471.7 346.49 L470.44 345.98 L469.13 345.86 L467.52 346.07 L466.41 346.63 L465.75 347.51 L465.4 348.82 L465.24 350.09 L465.29 351.12 L465.77 352.7 L466.64 354.09 L468.39 356.58 L471.68 360.1 L475.33 363.66 L478.42 366.3 L480.92 368.1 L481.12 368.65 L481.01 369.73 L474.28 384.04 L473.84 384.12 L473.41 384.09 L469.93 383.23 L467.07 383.23 L465.84 383.56 L465.09 383.96 L464.54 384.88 L463.87 387.36 L463.35 389.31 L463.25 390 L463.29 391.49 L463.43 392.24 L464.12 394.34 L464.45 394.84 L464.88 395.34 L465.45 395.56 L466.04 395.58 L466.33 395.48 L466.61 395.48 L466.8 395.58 L467.07 395.91 L467.2 396.21 L467.25 396.91 L467.15 400.11 L467.02 400.61 L466.64 401.42 L465.65 402.71 L461.93 407.16 L460.61 408.67 L459.92 409.62 L459.1 411.03 L458.65 412.12 L457.71 416.35 L457.34 417.75 L456.83 419.02 L456 420.34 L455.47 420.98 L452.02 424.36 L451.69 424.63 L451.11 424.85 L450.52 424.81 L449.68 424.61 L448.23 423.71 L447.44 423.09 L441.69 417.83 L439.82 416.52 L439.01 416.12 L438.29 415.86 L437.23 415.61 L435.68 415.46 L434.01 415.5 L433.01 415.69 L431.5 416.25 L430.59 416.68 L428.87 417.86 L427.96 418.65 L427.19 419.5 L426.75 420.07 L426.05 421.27 L425.93 421.66 L425.69 422.78 L425.57 424.01 L425.48 425.13 L425.52 426.2 L425.58 426.79 L425.72 427.73 L425.94 428.69 L426.33 429.91 L427.88 433.83 L430.25 439.09 L433.62 447.29 L434.05 448.52 L434.38 450.01 L434.48 451.56 L434.21 453.52 L433.69 454.48 L432.7 455.53 L431.12 456.59 L429.57 457.02 L429.21 457.02 L428.07 456.77 L411.24 448.27 L409.73 447.92 L408.81 447.96 L407.26 448.05 L406.3 448.42 L405.62 448.93 L404.91 450.07 L404.18 451.98 L403.98 454.11 L404.11 455.35 L405.03 457.74 L405.67 458.94 L405.72 459.38 L405.68 460.58 L399.86 474.79 L394.51 489.22 L394.44 490.06 L394.56 491.02 L396.67 496.6 L397.24 497.71 L397.85 498.61 L398.43 499.52 L398.54 499.84 L398.55 500.52 L397.91 502.74 L397.79 502.95 L397.69 502.96 L397.43 502.93 L394.08 501.55 L393.83 501.51 L393.68 501.51 L393.39 501.57 L393.16 501.79 L391.9 503.95 L391.83 504.16 L391.83 504.27 L391.88 504.5 L392.01 504.63 L392.19 504.71 L393.85 505.42 L393.99 505.56 L394.09 505.75 L394.09 505.95 L393.99 506.1 L393.67 506.39 L393.46 506.46 L393.27 506.46 L392.32 506.26 L392.03 506.24 L391.41 506.27 L389.54 506.6 L383.46 507.19 L375.62 508.19 L362.66 509.26 L362.51 509.31 L362.3 509.44 L361.86 509.85 L361.66 509.94 L361.33 510 L360.99 510 L360.63 509.96 L360.22 509.87 L359.95 509.76 L358.55 508.85 L353.37 504.04 L346.9 496.92 L346.71 496.62 L346.6 496.27 L346.57 495.76 L346.63 495.29 L346.74 495.07 L346.93 494.96 L347.04 494.96 L347.28 495.03 L347.53 495.2 L348.79 496.28 L349.04 496.41 L349.21 496.44 L349.58 496.41 L349.99 496.27 L350.95 495.23 L350.99 495.06 L350.93 494.86 L350.79 494.74 L349.54 494.23 L349.34 494.07 L349.23 493.91 L349.21 493.71 L349.35 493.51 L349.58 493.3 L349.8 493.23 L350.09 493.23 L350.3 493.29 L351.45 493.9 L351.77 494.06 L351.91 494.08 L352.04 494.05 L352.13 493.98 L355.33 490.19 L355.76 489.88 L355.91 489.79 L356.24 489.7 L358.02 489.56 L358.59 489.67 L358.87 489.76 L359.37 490.03 L359.61 490.31 L360.15 491.1 L360.39 491.23 L360.59 491.25 L361.2 491.07 L361.44 490.9 L361.5 490.79 L361.63 490.39 L361.66 489.77 L361.74 489.57 L361.93 489.31 L361.98 489.21 L361.99 489.04 L361.96 488.84 L361.92 488.77 L361.32 488.35 L361.18 488.21 L361.15 488.16 L361.13 488.09 L361.15 488 L361.2 487.87 L361.53 487.4 L361.62 487.32 L361.75 487.25 L361.96 487.26 L363.06 487.57 L363.18 487.58 L363.4 487.59 L364.19 487.53 L364.48 487.43 L365.34 486.96 L368.11 484.79 L369.54 483.98 L369.76 483.86 L370.39 483.36 L370.93 482.86 L371.53 481.6 L372.02 480.08 L372.1 479.7 L372.27 478.16 L372.28 472.13 L372.15 469.33 L371.86 466.59 L371.67 465.82 L371.26 464.82 L370.71 463.82 L370.33 463.32 L369.99 462.97 L369.52 462.68 L369.02 462.47 L367.75 462.24 L366 461.81 L365.2 461.41 L363.88 460.44 L363.04 459.6 L362.48 458.56 L362.28 457.77 L362.27 456.89 L362.35 455.93 L362.74 455.05 L363.22 454.13 L365.51 451.32 L369.04 447.69 L371.77 445.28 L374.1 443.26 L374.61 442.71 L375.06 442.01 L375.24 441.32 L375.29 440.71 L375.25 440.44 L374.98 439.78 L374.68 439.39 L374.51 439.19 L373.41 438.24 L372.17 437.48 L368.98 436.13 L364.6 434.47 L362.66 433.81 L362.08 433.71 L360.63 433.58 L335.86 434.21 L322.95 434.55 L319.3 434.49 L318.72 434.39 L318.05 434.14 L317.84 434.01 L317.22 433.46 L316.78 432.87 L315.52 430.67 L314.7 428.64 L314.16 426.11 L314.03 424.65 L314.12 422.55 L314.3 421.62 L314.64 420.66 L314.97 419.98 L315.22 419.6 L316.96 417.52 L322.73 410.53 L332.18 399.22 L339.61 389.72 L339.89 389.4 L340.4 389.02 L340.81 388.84 L341.59 388.69 L342.72 388.6 L344.75 388.79 L345.47 388.9 L347.23 389.32 L347.87 389.54 L348.41 389.81 L349.22 390.35 L350.03 390.97 L350.91 392.03 L351.46 392.98 L351.85 393.83 L352.21 394.51 L352.85 395.53 L354.11 396.7 L354.58 397.03 L355.43 397.34 L356.06 397.43 L358.35 397.58 L360.6 397.45 L362.22 397.28 L363.97 397.19 L364.62 397.21 L365.5 397.34 L365.76 397.41 L366.62 397.82 L366.95 398.03 L367.8 398.77 L368.3 399.41 L369.93 402.23 L371.19 403.45 L373.11 404.82 L376.11 406.28 L377.53 406.64 L378.95 406.82 L379.56 406.83 L380.66 406.75 L382.8 406.09 L385.27 405.01 L388.39 402.92 L390.77 400.51 L391.66 399.36 L392.46 398.01 L393.22 396.22 L394.35 391.67 L394.59 390.14 L394.69 388.45 L394.57 386.98 L394.19 384.6 L393.87 383.75 L393.58 383.14 L393.06 382.34 L392.73 381.96 L392.05 381.35 L390.28 380.19 L380.27 374.48 L378.38 373.57 L377.25 373.19 L376.1 372.94 L374.95 372.77 L372.75 372.78 L370.25 373.22 L366.6 373.8 L364.05 373.82 L361.41 373.46 L357.23 372.42 L354.71 371.37 L351.34 369.47 L348.68 367.47 L346.85 365.71 L346.09 364.82 L342.22 359.24 L341.17 358.16 L340.89 357.93 L340.37 357.61 L339.57 357.27 L336.99 356.64 L335.25 356.4 L333.86 356.11 L332.93 355.84 L331.22 354.97 L330.09 354.22 L329.26 353.56 L327.23 351.77 L324.25 348.8 L321.43 344.74 L318.41 340.35 L316.06 336.75 L315.2 335.82 L314.22 334.99 L313.96 334.82 L312.88 334.2 L310.18 333.05 L303.19 329.45 L300.55 328.06 L298.87 326.99 L296.34 325.04 L295.18 324.03 L293.71 322.57 L291.88 320.45 L290.51 319.17 L289.85 318.85 L289.41 318.74 L288.98 318.77 L288.77 318.84 L288.4 319.13 L287.83 319.85 L286.46 322.16 L286.07 323.05 L284.85 326.23 L283.02 331.22 L282.86 331.77 L282.48 333.66 L282.37 335.41 L282.75 345.23 L282.53 352.53 L282.33 356.25 L281.88 358.74 L281.09 360.9 L279.8 363.39 L278.17 365.85 L276.03 368.21 L272.6 372.28 L269.89 375.67 L268.39 378.33 L266.35 382.52 L263.1 389.25 L261.93 391.94 L260.81 395.11 L258.49 401.5 L255.37 409.15 L254.45 411.33 L253.66 413.83 L253.29 414.42 L252.36 414.98 L251.19 415.79 L250.48 416.72 L249.53 419.21 L249.28 421.28 L248.7 423.27 L247.18 425.6 L246.58 425.93 L244.88 426.03 L231.03 422.45 L230.08 421.71 L230.11 419.93 L232.27 412.77 L235.21 403.47 L235.33 401.91 L235.36 399.63 L234.72 396.72 L233.74 394.53 L232.69 393.01 L231.45 392.14 L230.56 391.65 L229.58 391.24 L228.67 391.1 L227.46 391.17 L223.87 392.04 L223.44 392.07 L222.78 391.87 L222.25 391.42 L221.74 390.79 L220.99 389.4 L220.65 387.89 L220.55 386.09 L220.58 383.38 L220.44 382.3 L220.01 381.07 L219.77 380.46 L219.34 379.79 L218.73 379.6 L218.02 379.66 L216.11 380.18 L214.72 380.76 L213.55 381.59 L212.8 382.38 L212.49 382.8 L212.01 383.76 L211.46 386.45 L211.28 388.96 L211.39 390.01 L211.76 390.95 L213.47 394.3 L213.7 395.09 L213.82 396.57 L213.77 397.02 L213.42 397.89 L212.83 398.8 L210.57 401.34 L208.72 402.75 L207.87 403.06 L206.57 403.29 L204.92 403.25 L203.89 403.07 L203.32 402.74 L202.75 401.98 L199.94 394.99 L195.03 382.11 L191.79 372.99 L189.69 367.92 L188.88 366.41 L187.51 364.28 L185.05 361.64 L182.45 359.29 L177.93 354.79 L177.56 354.61 L177.37 354.61 L177.18 354.66 L176.94 354.77 L175.7 356.21 L174.97 356.84 L174.73 357.19 L174.7 357.41 L174.77 357.73 L174.94 358.13 L175.56 359.22 L176.11 360.79 L176.28 361.6 L176.25 361.81 L175.99 362.13 L175.55 362.38 L174.82 362.51 L173.66 362.46 L172.89 362.34 L170.59 361.7 L169.64 361.63 L167.72 361.71 L166.9 362.03 L166.3 362.39 L165.88 362.74 L165.1 363.64 L164.03 365.45 L163.07 367.37 L162.34 368.58 L161.01 370.22 L160.52 370.61 L158.88 371.58 L158.09 371.72 L157.69 371.76 L157 371.66 L156.45 371.49 L155.47 370.97 L154.83 370.46 L154.23 369.76 L154 369.09 L153.92 368.53 L153.98 367.9 L154.15 367.1 L154.5 365.52 L154.64 364.63 L154.61 363.82 L154.6 363.54 L154.45 362.96 L153.92 361.96 L153.55 361.55 L152.99 361.08 L152.76 360.74 L152.56 360.32 L152.44 359.8 L152.53 359.22 L152.7 358.62 L152.93 358.22 L153.49 357.45 L154.26 356.1 L154.49 355.4 L154.64 354.69 L154.68 354.06 L154.65 353.35 L154.52 352.67 L154.14 351.61 L153.83 351.05 L153.47 350.58 L153.1 350.16 L152.07 349.06 L151.49 348.33 L151.14 347.71 L150.98 347.25 L150.77 346.38 L150.67 345.44 L150.53 344.52 L150.35 343.91 L149.96 343.03 L149.57 342.21 L149.34 341.82 L149.22 341.27 L149.24 340.94 L149.37 340.52 L149.62 340.18 L149.93 339.91 L150.04 339.87 L150.18 339.81 L151.18 339.7 L152.8 339.56 L153.22 339.56 L154.05 339.64 L154.55 339.79 L154.87 339.94 L156.3 340.88 L156.77 341.31 L157.37 341.93 L159.39 343.85 L162.3 346.69 L164.58 349.02 L167.2 351.62 L168.64 353.06 L169.23 353.52 L170.1 354.08 L170.35 354.15 L170.86 354.19 L171.6 354.14 L171.96 353.99 L172.79 353.36 L173.09 353.01 L173.27 352.53 L173.34 352.15 L173.4 351.78 L173.36 351.35 L173.29 351.21 L173.2 350.97 L172.98 350.7 L169.77 348.12 L169.57 347.85 L169.49 347.63 L169.49 347.43 L169.61 347.19 L169.84 346.94 L180.59 340.99 L184.2 338.97 L185.57 337.98 L186.31 337.36 L186.83 336.99 L187.45 336.66 L188.35 336.55 L191.68 336.49 L194.11 336.79 L195.42 337.14 L197.12 337.74 L198.29 338.33 L198.72 338.58 L199.27 339 L199.99 339.69 L202.16 341.99 L203.17 342.97 L204.55 343.98 L206.15 344.87 L206.94 345.21 L208.71 345.72 L209.89 345.82 L210.13 345.83 L210.95 345.83 L212.27 345.64 L214.06 345.21 L222.23 343.85 L223.82 343.72 L226.2 343.66 L228.43 343.82 L229.97 344 L232.41 344.42 L234.88 344.54 L236.35 344.33 L238.73 343.85 L239.72 343.5 L239.94 343.37 L240.03 343.28 L240.06 343.15 L240.04 342.91 L238.27 338.01 L238.15 337.72 L237.97 337.39 L236.78 335.22 L236.6 334.96 L236.34 334.67 L234.87 333.24 L233.92 332.48 L233.32 332.14 L233.15 332.11 L232.87 332.11 L232.71 332.16 L231.94 332.73 L229.46 334.73 L228.87 335.06 L228.73 335.13 L228.56 335.19 L227.49 335.46 L227.16 335.5 L226.1 335.54 L225.84 335.51 L222.63 334.73 L222.22 334.61 L219.67 333.46 L219.38 333.31 L219.25 333.23 L217.85 332.25 L215.36 330.45 L214.9 330.16 L213.4 329.38 L213.08 329.19 L213.03 329.15 L211.88 328.16 L211.77 328.05 L211.51 327.72 L210.93 326.9 L210.82 326.68 L210.51 325.86 L210.46 325.65 L210.45 325.32 L210.51 324.44 L210.57 324.16 L210.82 323.31 L210.92 323.15 L211.47 322.52 L211.71 322.31 L213.25 321.1 L213.54 320.91 L216.57 319.13 L217.21 318.62 L217.53 318.31 L217.65 318.13 L217.79 317.8 L217.89 317.36 L217.92 316.96 L217.64 314.65 L217.12 312.51 L217.08 311.98 L217.11 311.55 L217.29 310.98 L217.44 310.77 L218.06 310.35 L218.42 310.25 L219.37 310.18 L219.85 310.22 L221.61 310.66 L222.2 310.97 L226.22 313.73 L226.44 313.81 L226.89 313.89 L227.22 313.89 L227.9 313.64 L228.3 313.39 L228.41 313.29 L228.71 312.85 L228.85 312.53 L228.93 311.94 L228.91 311.48 L228.77 310.66 L228.57 310.08 L227.17 307.32 L226.81 306.44 L225.65 301.94 L225.09 299.59 L224.78 298.67 L223.9 296.74 L223.34 295.83 L222.89 295.27 L221.85 294.3 L221.39 293.99 L220.66 293.62 L219.12 293.23 L218.64 293.18 L217.78 293.17 L215.42 293.39 L213.78 293.76 L212.32 294.29 L210.64 295.13 L206.19 297.77 L203.35 298.97 L202.08 299.74 L201.4 300.02 L201.13 300.07 L200.55 300.01 L199.89 299.77 L198.28 298.88 L197.43 298.26 L196.96 297.66 L196.37 296.34 L195.51 294.34 L194.84 291.67 L194.73 290.08 L194.72 288.36 L194.85 287.66 L195.18 286.74 L195.72 285.83 L196.06 285.1 L197 282.45 L197.29 281.82 L198.66 279.77 L200.41 276.9 L203.94 272.46 L205.87 269.42 L207.85 267.13 L209.97 263.93 L211.43 261.01 L211.42 260.3 L211.33 259.82 L210.76 259.4 L205.58 257.56 L195.8 254.56 L194.27 254.13 L192.04 254 L190.95 254.19 L188.49 255.06 L185.56 256.41 L183.81 257.37 L180.26 260.1 L177.57 262.88 L175.36 265.7 L174.13 267.04 L172.24 268.19 L168.27 269.97 L160.86 271.96 L155.73 272.75 L154.45 272.75 L152.7 272.28 L147.95 270.35 L145.05 269.65 L140.88 269.05 L125.3 266.54 L117.99 266.33 L109.41 266.08 L104.67 265.43 L103.25 265.2 L102.18 264.73 L101.87 264.49 L101.55 264.21 L100.74 263.58 L99.25 263.15 L97.03 262.99 L95.13 262.85 L93.98 262.64 L92.65 262.19 L88.05 259.46 L79.88 255.63 L73.64 252.88 L69.32 250.76 L65.8 249.01 L64.42 248.01 L62.33 246.17 L60.03 243.64 L59.07 242.16 L58.12 240.26 L56.54 237.22 L55.3 235.51 L53.3 233.42 L50.4 230.53 L48.87 228.73 L47.82 227.08 L47.53 226.13 L47.58 225.08 L47.85 223.75 L49.27 221.93 L55.74 215.95 L58.1 213.51 L58.23 212.31 L54.7 207.76 L54.18 207.28 L53.75 207.33 L53.04 207.53 L49.5 210.83 L48.79 210.26 L44.41 206.23 L44.36 205.85 L44.35 203.8 L43.45 202.71 L42.69 202.33 L41.5 202.29 L40.7 202.29 L39.8 202.77 L39.47 203.49 L39.1 204.97 L39.2 206.01 L39.63 206.73 L40.39 207.34 L41.05 207.44 L42.05 207.67 L47.24 212.46 L47.24 212.94 L40.44 219.4 L40.16 219.49 L39.49 219.31 L36.15 215.13 L30.44 208.25 L26.42 203.48 L24.52 201.97 L20.9 199.31 L12.72 193.8 L12.67 193.56 L12.71 193.13 L12.85 192.75 L20.65 187 L23.25 185.37 L23.62 184.32 L23.43 183.37 L22.86 182.65 L22.29 182.56 L21.72 182.61 L19.59 183.81 L9.95 190.57 L9.62 190.53 L9.19 190.2 L6.76 187.2 L4.33 183.74 L3.12 181.82 L2.41 180.34 L2.4 179.39 L2.48 175.15 L2.52 173.43 L2.08 171.05 L1.31 167.67 L0.68 165.68 L0.01 162.03 L0 160.6 L0.23 159.75 L0.75 158.55 L3.77 155.49 L6.13 154.34 L8.69 153.66 L11.06 153.41 L14.3 153.52 L16.95 153.37 L17.57 153.22 L18.37 152.79 L18.46 152.08 L18.36 151.38 L18.6 150.61 L19.59 149.51 L20.87 149.03 L21.58 149.36 L23.54 152.74 L24.73 154.97 L27.87 157.72 L33.91 162.12 L35.67 163.97 L37.3 166.35 L40.12 172.01 L41.52 174.94 L43.1 177.98 L44.96 180.5 L47.01 182.49 L49.62 184.43 L53.81 187.08 L58.03 189.35 L63.41 191.83 L64.79 192.63 L64.98 193.35 L64.85 195.68 L63.44 198.02 L61.22 200.84 L59.95 201.99 L56.78 204.53 L55.89 205.58 L55.89 205.87 L56.13 206.63 L59.12 209.05 L59.79 209.38 L60.83 209.42 L61.35 208.85 L63.81 206.65 L65.84 205.02 L67.4 203.63 L68.21 202.89 L69.02 201.78 L69.47 200.95 L71.22 197.55 L72.16 194.97 L72.86 193.01 L74.2 192.24 L75.48 191.93 L77.75 191.93 L77.99 191.93 L81.96 191.79 L83.63 192.04 L84.04 192.2 L85.38 192.64 L85.55 192.73 L86.15 193.14 L86.28 193.29 L86.51 193.82 L86.57 194.12 L86.57 194.6 L86.53 194.95 L86.2 196.77 L85.08 200.82 L85.08 201.35 L85.32 202.06 L87.27 203.86 L90.33 206.15 L91.09 206.48 L93.13 206.62 L95.5 206.18 L97.72 205.74 L99 205.11 L99.24 204.78 L99.47 203.97 L100.35 199.82 L100.92 198.96 L102.1 197.95 L103.34 197.37 L104.53 197.04 L105.08 197.03 L106.8 197.03 L111.51 197.5 L113.69 198.49 L114.06 198.7 L115.19 199.47 L116.45 200.6 L120.93 202.83 L121.79 203.49 L121.92 203.64 L124.25 204.8 L129.74 206.27 L137.42 208.28 L138.07 208.4 L139.17 208.34 L140.25 207.99 L142.06 207.07 L143.16 206.61 L143.88 205.77 L143.95 205.39 L143.76 204.78 L142.28 203.26 L138.57 200.51 L133.58 195.89 L128.91 191.67 L125.15 187.49 L124.34 186.21 L124 185.16 L124 183.59 L124.09 182.78 L124.98 180.54 L128.89 173.82 L131.01 170.04 L131.52 168.37 L131.8 166.37 L132.55 164.46 L135.28 157.96 L135.79 156.98 L136.53 156.06 L137.49 155.09 L138.42 154.39 L139.08 154.15 L140.16 153.86 L141.21 153.82 L143.6 153.92 L145.17 154.15 L146.35 154.43 L148.68 154.8 L149.85 157.7 L152.6 162.98 L153.21 166.12 L156.28 168.83 L158.6 170.72 L160.57 171.16 L164.55 170.57 L169.84 170.15 L171.07 170.24 L171.61 170.35 L172.32 170.65 L172.91 171.02 L173.32 171.43 L173.76 172.23 L175.15 177 L175.69 181 L175.67 185.66 L175.79 186.09 L175.98 186.23 L176.55 186.32 L176.82 186.3 L177.46 186.06 L177.94 185.76 L179.22 184.81 L179.68 184.31 L180.23 183.43 L180.91 181.7 L181.42 179.79 L181.54 178.79 L181.46 177.7 L180.6 173.94 L179.34 169.7 L179.2 168.61 L179.2 168.28 L179.31 167.44 L179.76 165.6 L179.97 164.96 L180.61 163.59 L180.81 163.19 L181.22 162.67 L181.55 162.44 L183.16 162.06 L185.31 161.69 L186.04 161.7 L186.43 161.8 L190.14 163.84 L193.74 165.75 L194.87 166.23 L195.81 166.55 L197.2 166.92 L199.21 167.32 L204.76 168.28 L205.53 168.62 L205.83 168.82 L206.19 169.24 L206.68 170.2 L207.38 171.91 L209.73 177.38 L210.56 178.76 L211.05 179.34 L212.2 180.03 L213.86 180.54 L214.93 180.72 L219.91 181.2 L223.22 181.28 L226.64 180.93 L229.81 180.3 L232.18 179.86 L233.51 179.37 L234.71 178.55 L235.51 177.84 L236.94 176.11 L237.44 175.33 L238.01 174.01 L238.13 173.35 L238.13 173.1 L237.98 172.06 L237.12 170.06 L235.79 166.76 L235.47 165.6 L235.15 163.71 L234.37 160.95 L233.93 158.92 L233.65 158.18 L233.19 157.43 L232.46 156.58 L230.51 154.39 L224.75 149.03 L223.4 148.01 L222.16 147.37 L220.66 146.94 L219.63 146.52 L218.7 145.97 L217.72 144.95 L216.65 143.27 L215.96 142.39 L214.94 141.2 L214.46 140.85 L208.89 136.35 L203.61 132.04 L198.71 127.73 L195.07 124.83 L194.07 124.24 L192.88 123.72 L191.73 123.36 L189.18 122.89 L185.2 122.48 L183.07 122.54 L178.16 123.09 L176.3 123.22 L174.35 123.17 L172.84 123.05 L169.98 122.5 L164.34 121.29 L160.02 119.88 L157.02 118.36 L154.9 117 L153.81 116.18 L151.02 113.56 L148.25 110.33 L146.45 107.65 L146.38 107.42 L146.35 106.92 L146.47 106.45 L147.38 105.24 L149.5 102.03 L149.83 101.84 L150.21 101.89 L151.14 102.53 L152.33 103.08 L153.3 103.45 L154.79 103.56 L156.02 103.53 L159.82 102.9 L165.73 101.54 L166.78 101.18 L168.85 100.82 L171.35 100.64 L173.21 100.38 L178.93 98.16 L185.9 93.55 L188.16 92.84 L194.65 93.28 L200.58 94.97 L207.12 96.85 L209.48 98.06 L211.66 100.08 L215.12 102.5 L218.24 103.9 L219.42 104.13 L222.04 104.04 L224.01 103.72 L225.53 103.11 L227.31 101.92 L227.99 101 L228.14 100.08 L228.13 99.01 L227.71 97.75 L226.79 95.96 L224.91 93.9 L222.5 91.89 L220.24 90.43 L215.43 88.28 L212.44 86.77 L209.74 85.21 L208.41 83.93 L206.94 82.17 L205.12 80.7 L204.28 79.92 L201.77 75.84 L200.33 73.66 L196.59 67.48 L195.11 66.3 L191.42 61.99 L189.64 59.08 L188.18 56.96 L186.8 55.07 L185.14 52.95 L180.84 47.37 L178.11 43.89 L173.11 37.65 L167.58 30.87 L164.98 27.89 L163.08 26 L159.31 23.1 L151.82 17.75 L148 14.97 L144.77 12.11 L140.48 8.46 L135.59 4.57 L134.53 3.43 L134.09 2.17 L134.05 0.67 L134.08 0.36 L134.24 0.16 L134.71 0 L138.2 0.1 z" class="polygon_1" style="fill:#571D6D;" />
    </g>
    <g id="SiteLine" style="fill:none;" />
    <g id="SitePoint">
      <circle cx="389" cy="452" r="6" id="Dam_S2181" style="fill:#74B24E;stroke:#365B1F;">
        <title>澄清湖水庫一 ：優養 (63)</title>
      </circle>
      <circle cx="328" cy="264" r="6" id="Dam_S2182" style="fill:#74B24E;stroke:#365B1F;">
        <title>澄清湖水庫二 ：優養 (58)</title>
      </circle>
      <circle cx="190" cy="217" r="6" id="Dam_S2183" style="fill:#74B24E;stroke:#365B1F;">
        <title>澄清湖水庫三 ：優養 (60)</title>
      </circle>
      <circle cx="269" cy="148" r="6" id="Dam_S2184" style="fill:#74B24E;stroke:#365B1F;">
        <title>澄清湖水庫四 ：優養 (60)</title>
      </circle>
    </g>
    <g id="Mark" class="Heilight">
      <g transform="translate(389, 452) translate(-14, -14)" id="gMark" class="HeilightTrans">
        <path d="M17.2 27.5 L17.2 23.4 L22.8 23.4 L23.3 23.4 L23.3 22.9 L23.3 17.3 L27.4 17.3 L27.4 27.6 L17.2 27.5 z M0.5 27.5 L0.5 17.2 L4.6 17.2 L4.6 22.8 L4.6 23.3 L5.1 23.3 L10.1 23.3 L10.1 27.4 L0.5 27.5 z M27.5 10.2 L23.4 10.2 L23.4 5.2 L23.4 4.6 L22.9 4.6 L17.3 4.6 L17.3 0.5 L27.6 0.5 L27.6 10.2 z M4.6 10.2 L0.5 10.2 L0.5 0.5 L10.2 0.5 L10.2 4.6 L5.2 4.6 L4.6 4.6 L4.6 5.1 L4.6 10.2 z" class="st0" style="fill:#FF800E;" />
        <path d="M17.7 27 L27 27 L27 17.7 L23.9 17.7 L23.9 22.8 L23.9 23.8 L22.9 23.8 L17.8 23.8 L17.8 27 M1 27 L9.7 27 L9.7 23.9 L5.1 23.9 L4.1 23.9 L4.1 22.9 L4.1 17.8 L1 17.8 L1 27 M27 9.7 L27 1 L17.7 1 L17.7 4.1 L22.8 4.1 L23.8 4.1 L23.8 5.1 L23.8 9.6 L27 9.6 M4.1 9.7 L4.1 5.1 L4.1 4.1 L5.1 4.1 L9.6 4.1 L9.6 1 L1 1 L1 9.7 L4.1 9.7 M28 28 L28 28 L28 28 L16.7 28 L16.7 22.9 L22.8 22.9 L22.8 16.8 L28 16.8 L28 28 L28 28 z M10.7 28 L10.7 28 L10.7 28 L0 28 L0 16.7 L5.1 16.7 L5.1 22.8 L10.6 22.8 L10.6 28 L10.7 28 z M28 10.7 L28 10.7 L28 10.7 L22.9 10.7 L22.9 5.1 L16.8 5.1 L16.8 0 L28 0 L28 10.7 L28 10.7 z M5.1 10.7 L5.1 10.7 L0 10.7 L0 0 L10.7 0 L10.7 5.1 L5.1 5.1 L5.1 10.7 L5.1 10.7 z" class="st1" style="fill:#B55600;" />
      </g>
    </g>
  </g>
</svg>