<?xml version="1.0" encoding="utf-8"?>
<!DOCTYPE svg PUBLIC "-//W3C//DTD SVG 1.1//EN" "http://www.w3.org/Graphics/SVG/1.1/DTD/svg11.dtd">
<svg width="272px" height="510px" viewBox="0, 0, 272, 510" class="svgDam" xmlns="http://www.w3.org/2000/svg" xmlns:xlink="http://www.w3.org/1999/xlink" xmlns:xml="http://www.w3.org/XML/1998/namespace" version="1.1">
  <g id="MapArea">
    <g id="Key_Area">
      <path d="M77.35 221.7 L78.34 219.62 L77.59 214.98 L74.9 211.08 L73.86 209.44 L71.77 208.54 L69.68 205.85 L66.99 202.25 L65.06 201.36 L63.42 201.81 L60.44 202.26 L58.5 201.37 L52.84 202.27 L54.17 199.12 L53.87 195.68 L53.27 194.78 L49.7 192.69 L47.61 192.54 L45.82 191.64 L44.62 187.15 L42.68 184.6 L42.23 182.06 L42.23 181.46 L48.03 176.65 L54.59 174.39 L59.05 173.04 L65.01 171.23 L70.52 167.78 L73.35 167.62 L75.59 168.22 L81.85 167.61 L85.42 167.6 L90.64 166.4 L91.98 165.65 L92.71 159.8 L94.64 155.45 L92.85 152.61 L90.17 150.36 L86.74 149.02 L81.51 137.34 L81.5 130.89 L82.52 118.6 L80.13 113.21 L78.64 110.36 L74.16 109.32 L68.65 107.98 L62.98 107.69 L62.84 109.78 L65.38 116.82 L65.09 122.67 L66 132.41 L64.96 137.36 L62.88 139.91 L60.2 142.61 L53.55 151.15 L43.48 151.48 L35.92 145.79 L25.32 141.72 L22.89 143.93 L19.43 145.56 L14.16 147.03 L9.99 147.48 L5.82 147.04 L0 145.4 L0 142.1 L2.68 140.75 L4.32 141.34 L5.22 142.69 L5.67 144.34 L7.01 144.79 L8.5 144.94 L10.44 144.93 L11.93 144.78 L13.12 144.33 L14.01 142.68 L14 140.28 L11.91 131.89 L8.35 126.43 L6.77 120.32 L9.26 114.78 L11.55 113.25 L13.35 112 L14.91 110.48 L16.45 109.53 L17.98 109.05 L19.55 107.8 L23.5 105.07 L25.1 104.23 L27.64 102.85 L29.03 101.99 L30.18 101.03 L32.22 99.96 L33.91 99.63 L34.36 98.88 L35.55 98.28 L36.59 96.63 L37.63 94.83 L37.78 93.18 L38.67 92.28 L38.97 91.68 L38.97 90.93 L38.97 89.88 L38.67 88.54 L37.77 85.84 L36.87 82.84 L36.42 81.94 L35.97 81.2 L34.63 80.6 L33.44 80.15 L32.84 79.85 L31.65 79.4 L29.86 78.96 L28.82 78.81 L28.16 80.29 L24.06 81.55 L24.94 77.61 L22.25 72.67 L20.01 70.58 L17.62 66.23 L15.83 60.39 L18.35 54.24 L20.43 49.29 L21.02 47.94 L23.55 42.99 L24 42.09 L25.93 40.74 L27.12 37.44 L28.46 35.94 L30.69 32.94 L33.22 28.14 L34.55 23.19 L34.99 18.85 L35.29 17.8 L35.88 16 L35.58 12.55 L34.03 9.5 L32.18 6.79 L29.58 3.79 L33.79 0 L41.53 9.09 L42.13 10.44 L42.43 13.29 L43.03 15.09 L42.44 20.03 L40.36 24.53 L38.43 30.23 L36.8 35.18 L33.38 40.43 L32.49 43.88 L31.01 46.13 L27.89 52.28 L27.74 52.28 L27.14 54.23 L25.96 57.98 L25.96 60.68 L26.71 63.52 L28.05 65.77 L31.78 68.61 L31.93 68.61 L31.77 68.61 L31.93 68.91 L33.43 70.56 L35.21 70.86 L38.13 71.37 L40.31 73.07 L45.35 78.18 L47.59 81.88 L49.14 85.04 L51.18 90.3 L48.66 93.92 L45.98 96.92 L44.35 101.57 L41.82 105.77 L40.04 107.27 L36.16 109.37 L30.21 113.43 L27.23 114.33 L25.6 118.68 L26.2 120.33 L27.99 126.32 L29.79 129.77 L32.47 130.66 L35.15 131.56 L36.94 132.45 L38.73 132 L39.25 131.42 L39.56 130.52 L39.03 128.57 L38.92 125.04 L40.95 123.6 L41.69 119.56 L43.91 109.51 L45.4 105.01 L47.78 103.51 L50.6 99.16 L53.28 94.66 L60.73 90.75 L63.7 88.35 L65.79 86.4 L65.93 85.8 L66.83 84.6 L66.82 83.25 L68.46 81.45 L69.36 82.35 L69.81 84.59 L70.7 86.69 L72.05 87.59 L73.39 88.64 L74.13 89.08 L75.92 89.08 L77.41 89.08 L78.31 88.93 L80.39 88.03 L82.63 87.12 L85.3 84.57 L86.65 84.87 L86.05 86.67 L87.1 89.07 L88.3 94.61 L91.88 99.25 L92.78 102.4 L94.43 105.84 L96.37 112.73 L96.82 116.33 L97.28 122.02 L98.62 123.37 L102.49 120.37 L105.17 117.22 L106.36 118.26 L104.73 122.16 L103.24 122.92 L101.02 129.36 L103.85 133.71 L107.44 138.65 L111.61 142.54 L112.96 142.54 L115.34 143.43 L117.43 145.23 L119.22 146.87 L120.26 147.17 L121.61 150.62 L123.25 152.86 L125.49 153.01 L127.57 152.86 L131.45 153 L133.09 154.35 L135.63 156.74 L131.9 155.25 L128.03 157.65 L126.54 160.95 L123.12 164.85 L121.78 165.3 L121.04 169.8 L119.4 172.05 L115.83 175.06 L111.67 179.41 L106.6 183.16 L103.48 186.01 L103.03 187.36 L103.04 189.01 L107.36 190.65 L110.94 192.75 L112.88 195.29 L113.63 197.54 L114.68 200.39 L116.62 203.38 L117.52 205.93 L117.37 208.48 L117.22 211.62 L116.04 216.27 L115.6 219.72 L113.09 237.11 L114.74 242.35 L117.12 241.75 L119.21 242.34 L116.83 247.14 L119.22 251.79 L118.03 254.49 L117.44 260.03 L118.04 264.23 L119.84 266.77 L120.43 268.87 L119.25 273.67 L118.66 279.51 L118.07 282.06 L119.27 285.36 L119.87 288.95 L118.98 295.1 L117.8 300.95 L116.92 309.79 L116.32 312.79 L116.45 318.02 L123.04 320.42 L126.62 320.72 L128.71 323.56 L131.25 329.25 L134.83 331.19 L138.85 333.59 L139.75 334.78 L139.75 338.38 L139.16 340.93 L138.87 348.87 L138.43 352.02 L138.14 354.27 L138.44 357.42 L139.19 361.76 L139.49 365.36 L143.59 369.13 L146.79 365.72 L148.43 362.95 L152.6 358.59 L155.87 353.04 L161.37 342.7 L163.6 341.04 L166.87 336.99 L169.39 330.4 L169.99 329.2 L174.45 325.74 L178.02 320.79 L182.49 316.59 L184.28 315.99 L189.49 312.38 L191.13 312.68 L195.59 311.48 L198.13 312.07 L198.58 313.87 L200.82 316.41 L207.83 323.75 L208.73 324.4 L209.77 324.65 L216.77 326.28 L220.06 333.32 L222.01 340.96 L225.01 355.35 L224.73 367.94 L222.8 377.23 L222.66 383.22 L223.11 384.87 L224.16 391.31 L225.51 396.56 L227.3 400.15 L228.95 406.29 L229.4 408.69 L228.81 411.69 L227.47 413.04 L225.54 415.89 L224.35 418.89 L225.39 419.94 L226.29 420.24 L226.74 420.68 L228.97 420.23 L231.06 419.93 L233.29 419.33 L234.33 418.43 L234.93 417.38 L236.41 415.88 L238.5 414.97 L240.29 415.27 L242.97 415.57 L243.57 415.57 L245.8 416.31 L248.19 417.06 L251.91 417.65 L254.45 417.65 L257.42 417.5 L258.91 416.74 L259.96 416.29 L260.55 414.64 L259.8 413.45 L259.8 411.95 L256.82 408.65 L254.43 405.51 L252.94 402.96 L252.93 399.67 L254.57 396.52 L257.39 393.97 L256.94 390.82 L260.37 388.42 L261.41 386.32 L263.79 385.72 L268.41 384.36 L265.13 387.66 L261.71 392.91 L261.42 396.66 L262.77 402.8 L265.46 406.24 L268.14 407.59 L271.57 409.98 L271.87 411.33 L271.88 419.87 L265.71 423.49 L257.28 423.64 L247.15 424.7 L242.69 425.76 L238.96 426.36 L237.16 427.23 L235.24 428.17 L235.24 428.77 L228.09 431.17 L221.98 433.58 L214.62 429.96 L214.53 428.49 L215.12 423.7 L219.87 409 L219.26 404.81 L213.13 384.74 L214.76 379.94 L214.75 374.39 L215.79 368.25 L216.82 359.4 L216.06 347.42 L211.27 335.88 L211.12 335.28 L210.38 334.54 L205.31 331.84 L202.47 330.2 L198.15 326.46 L195.46 325.26 L193.61 329.59 L190.21 333.17 L186.22 340.03 L182.53 348.21 L179.26 353.61 L176 362.34 L168.56 371.61 L156.5 382.87 L152.34 388.72 L146.24 392.92 L145.77 396.63 L143.72 403.27 L137.91 406.27 L133.46 408.7 L133.46 408.7 L130.03 410.1 L122.98 411.4 L122.71 415.7 L123.82 418 L122.13 426.03 L120.03 425.04 L117.13 426.1 L116.41 426.85 L117.93 430.29 L121.1 433.93 L129.61 443.18 L135.42 449.62 L137.69 452.2 L140.26 455.25 L141.38 456.48 L141.9 457.25 L142.12 458.12 L142.31 459.55 L142.2 460.78 L142.06 461.21 L141.9 461.62 L140.98 461.29 L140.42 463.13 L139.63 464.46 L137.57 465.92 L134.82 468.84 L132.22 471.25 L130.56 474.31 L130.1 475.22 L130.13 473.92 L130.39 471.05 L128.75 467.62 L123.1 458.59 L121.44 455.77 L117.01 448.59 L114.17 443.99 L112.67 442.1 L111.44 442.04 L111.44 443 L112.32 443.14 L116.66 450.35 L116.34 461.45 L115.4 466.59 L113.31 472.12 L107.12 506.52 L104.93 508.44 L102.59 509.59 L99.12 510 L92.4 508.93 L89.88 508.46 L90.49 506.83 L90.49 506.81 L91.23 506.98 L91.46 505.84 L90.75 505.7 L91.12 504.15 L93.37 494.56 L93.61 493.07 L93.78 491.64 L94.03 490.29 L96.14 481.3 L95.46 479.13 L92.17 474.86 L84.95 470.45 L77.32 468.2 L77.32 465.11 L78.08 462.86 L79.15 460.67 L80.61 458.91 L81.28 457.69 L84.34 457.6 L89.26 460.85 L94.74 461.98 L96.54 448.11 L102.92 442.17 L102.94 440.76 L102.24 440.78 L94.61 448.16 L89.24 443.44 L74.76 449.83 L74.28 452.97 L80.17 455.25 L80.69 456.56 L79.12 458.93 L77.74 460.94 L76.88 462.62 L76.28 464.28 L76.04 467.79 L71.33 465.02 L68.14 467 L66.24 471.4 L64.65 478.67 L65.57 480.8 L67.76 482.6 L68.74 483 L70.31 483.14 L71.43 482.47 L72.92 482.09 L74.52 482.21 L75.54 482.89 L77.7 483.09 L80.79 485.25 L81.27 486.59 L82.65 487.05 L82.86 488.73 L82.45 490.43 L82.41 490.42 L80.33 490.19 L78.77 489.65 L76.35 489.95 L74.02 489.44 L69.21 489.12 L65.26 489.12 L60.36 488.13 L56.38 486.34 L54.04 484.03 L52.37 482.26 L50.31 481.8 L48.2 481.18 L46.87 480.6 L46.72 479.67 L46.83 478.06 L47.76 476 L47.87 474.61 L47.52 472.89 L46.68 471.4 L45.79 470.59 L44.55 469.88 L42.2 469.52 L39.82 468.92 L38.29 468.32 L36.51 466.97 L35.08 465.04 L34.72 462.94 L34.8 461.27 L35.43 459.29 L36.59 457.1 L39.49 454.25 L40.94 452.49 L41.33 451.76 L41.38 450.91 L41.16 449.64 L39.53 445.22 L38.14 441.25 L38.11 439.56 L38.66 435.31 L37.24 433.44 L33.79 428.91 L31.22 426.52 L28.08 423.9 L26.48 422.28 L25.15 419.48 L23.82 415.17 L23.06 412.51 L22.97 408.2 L23.23 405.89 L24.37 401.24 L25.21 398.44 L25.91 396.66 L25.29 392.06 L25.76 390.92 L31.32 388.26 L32.76 389.87 L32.91 391.06 L33.67 391.5 L34.93 391.8 L38.63 392.26 L39.15 390.75 L39.77 389.81 L39.96 389.11 L39.2 387.85 L37.96 386.63 L36.4 386.53 L35.12 387.41 L33.36 386.51 L34.06 384.88 L34.74 383.78 L34.61 382.93 L32.43 383.14 L31.25 382.94 L30.15 383.65 L24.64 381.56 L19.58 379.66 L18.97 378.27 L19.56 376.62 L24.36 373.74 L25.92 371.15 L24.61 366.42 L24.07 365.9 L21.03 362.98 L17.9 360.74 L18.05 358.49 L21.32 353.54 L21.46 351.29 L24 350.84 L26.23 350.08 L28.31 349.48 L29.8 348.28 L27.71 346.03 L25.92 342.44 L25.32 338.84 L25.46 334.95 L26.35 330.9 L25.9 329.55 L23.66 326.56 L22.62 325.66 L22.17 322.51 L19.63 319.22 L16.65 317.28 L14.41 315.63 L11.28 314.74 L9.04 312.04 L15.6 312.33 L19.47 312.48 L24.39 314.72 L25.88 315.91 L27.67 317.71 L32 320.7 L34.69 324.29 L38.57 328.48 L41.02 335.36 L43.56 344.02 L46.92 333.27 L50.34 327.87 L52.12 322.47 L54.78 318.76 L60.18 314.67 L59.69 306.72 L61.92 302.67 L59.69 301.03 L51.78 298.79 L44.78 296.1 L43.43 290.41 L41.63 282.47 L38.34 277.08 L36.25 272.59 L34.09 266.8 L33.75 261.35 L35.77 256.42 L38.96 254.78 L42.77 247.35 L47.09 243.35 L52.89 237.19 L58.25 238.53 L67.33 229.38 L72.25 227.57 L74.93 225.62 L76.12 224.27 L76.26 223.96 L77.2 223.64 L77.35 221.7 L77.35 221.7 z" class="polygon_1" style="fill:#571D6D;" />
    </g>
    <g id="SiteLine" style="fill:none;" />
    <g id="SitePoint">
      <circle cx="60" cy="409" r="6" id="Dam_S2189" style="fill:#74B24E;stroke:#365B1F;">
        <title>牡丹水庫一 ：優養 (53)</title>
      </circle>
      <circle cx="80" cy="299" r="6" id="Dam_S2190" style="fill:#74B24E;stroke:#365B1F;">
        <title>牡丹水庫二 ：優養 (52)</title>
      </circle>
      <circle cx="76" cy="188" r="6" id="Dam_S2191" style="fill:#ECEBEA;stroke:#AAAAAA;">
        <title>牡丹水庫三 ：無檢測資料</title>
      </circle>
    </g>
    <g id="Mark" class="Heilight">
      <g transform="translate(60, 409) translate(-14, -14)" id="gMark" class="HeilightTrans">
        <path d="M17.2 27.5 L17.2 23.4 L22.8 23.4 L23.3 23.4 L23.3 22.9 L23.3 17.3 L27.4 17.3 L27.4 27.6 L17.2 27.5 z M0.5 27.5 L0.5 17.2 L4.6 17.2 L4.6 22.8 L4.6 23.3 L5.1 23.3 L10.1 23.3 L10.1 27.4 L0.5 27.5 z M27.5 10.2 L23.4 10.2 L23.4 5.2 L23.4 4.6 L22.9 4.6 L17.3 4.6 L17.3 0.5 L27.6 0.5 L27.6 10.2 z M4.6 10.2 L0.5 10.2 L0.5 0.5 L10.2 0.5 L10.2 4.6 L5.2 4.6 L4.6 4.6 L4.6 5.1 L4.6 10.2 z" class="st0" style="fill:#FF800E;" />
        <path d="M17.7 27 L27 27 L27 17.7 L23.9 17.7 L23.9 22.8 L23.9 23.8 L22.9 23.8 L17.8 23.8 L17.8 27 M1 27 L9.7 27 L9.7 23.9 L5.1 23.9 L4.1 23.9 L4.1 22.9 L4.1 17.8 L1 17.8 L1 27 M27 9.7 L27 1 L17.7 1 L17.7 4.1 L22.8 4.1 L23.8 4.1 L23.8 5.1 L23.8 9.6 L27 9.6 M4.1 9.7 L4.1 5.1 L4.1 4.1 L5.1 4.1 L9.6 4.1 L9.6 1 L1 1 L1 9.7 L4.1 9.7 M28 28 L28 28 L28 28 L16.7 28 L16.7 22.9 L22.8 22.9 L22.8 16.8 L28 16.8 L28 28 L28 28 z M10.7 28 L10.7 28 L10.7 28 L0 28 L0 16.7 L5.1 16.7 L5.1 22.8 L10.6 22.8 L10.6 28 L10.7 28 z M28 10.7 L28 10.7 L28 10.7 L22.9 10.7 L22.9 5.1 L16.8 5.1 L16.8 0 L28 0 L28 10.7 L28 10.7 z M5.1 10.7 L5.1 10.7 L0 10.7 L0 0 L10.7 0 L10.7 5.1 L5.1 5.1 L5.1 10.7 L5.1 10.7 z" class="st1" style="fill:#B55600;" />
      </g>
    </g>
  </g>
</svg>