<?xml version="1.0" encoding="utf-8"?>
<!DOCTYPE svg PUBLIC "-//W3C//DTD SVG 1.1//EN" "http://www.w3.org/Graphics/SVG/1.1/DTD/svg11.dtd">
<svg width="575px" height="425px" viewBox="0, 0, 575, 425" class="svgDam" xmlns="http://www.w3.org/2000/svg" xmlns:xlink="http://www.w3.org/1999/xlink" xmlns:xml="http://www.w3.org/XML/1998/namespace" version="1.1">
  <g id="MapArea">
    <g id="Key_Area">
      <path d="M409.94 410.56 L407.13 409.92 L401.25 408.42 L395.56 406.31 L343.37 378.04 L323.55 367.51 L309.05 358.42 L293.96 350.37 L281.79 344.97 L259.83 337.75 L247.92 335.74 L223.12 334.67 L210.27 330.74 L198.05 325.16 L186.65 318.02 L139.81 286.55 L116.14 264.44 L111.53 260.59 L107.33 256.28 L103.28 253.1 L98.8 250.55 L94.01 248.68 L69.56 237.59 L58.55 231.07 L48.41 223.28 L39.26 214.32 L34.22 209.49 L28.59 205.36 L22.47 202.01 L15.97 199.48 L9.57 193.7 L0 177.76 L0.87 155.53 L2.65 134.07 L3.58 130.75 L3.66 127.88 L7.41 112.08 L10.35 104.35 L18.12 88.72 L22.45 83.85 L45.07 70.39 L86.68 60.41 L95.79 58.27 L100.53 56.59 L102.75 50.63 L106.38 41.17 L120.84 7.12 L123.83 3.23 L127.84 0.61 L132.13 0 L140.83 1.4 L146.7 3.54 L151.92 7.41 L172.2 29.42 L190.14 24.5 L197.03 18.63 L219.52 13.16 L237.43 6.82 L253.13 4.97 L284.47 5.26 L295.01 6.16 L309.75 6.52 L320.67 6.84 L327.32 6.65 L331.02 6.3 L342.01 2.71 L347.19 2.48 L352.44 4.3 L366.81 11.58 L372.13 15.16 L384.69 17.89 L397.45 19.45 L410.2 21.25 L410.54 21.29 L413.37 21.64 L422.72 21.73 L431.95 23.27 L440.83 26.24 L455.35 31.69 L470.57 34.62 L476.75 34.81 L482.64 34.91 L486.79 34.97 L489.49 34.87 L491.68 34.88 L519.08 32.84 L550.55 25.83 L559.77 26.26 L575 31.01 L573.1 35.79 L507.48 200.76 L502.64 215.33 L476.77 277.57 L425.29 408.47 L418.7 424.59 L406.41 416.71 L409.94 410.56 z" class="polygon_1" style="fill:#571D6D;" />
    </g>
    <g id="SiteLine" style="fill:none;" />
    <g id="SitePoint">
      <circle cx="369" cy="227" r="6" id="Dam_S2119" style="fill:#ECEBEA;stroke:#AAAAAA;">
        <title>秋桂山水庫 ：無檢測資料</title>
      </circle>
    </g>
    <g id="Mark" class="Heilight">
      <g transform="translate(369, 227) translate(-14, -14)" id="gMark" class="HeilightTrans">
        <path d="M17.2 27.5 L17.2 23.4 L22.8 23.4 L23.3 23.4 L23.3 22.9 L23.3 17.3 L27.4 17.3 L27.4 27.6 L17.2 27.5 z M0.5 27.5 L0.5 17.2 L4.6 17.2 L4.6 22.8 L4.6 23.3 L5.1 23.3 L10.1 23.3 L10.1 27.4 L0.5 27.5 z M27.5 10.2 L23.4 10.2 L23.4 5.2 L23.4 4.6 L22.9 4.6 L17.3 4.6 L17.3 0.5 L27.6 0.5 L27.6 10.2 z M4.6 10.2 L0.5 10.2 L0.5 0.5 L10.2 0.5 L10.2 4.6 L5.2 4.6 L4.6 4.6 L4.6 5.1 L4.6 10.2 z" class="st0" style="fill:#FF800E;" />
        <path d="M17.7 27 L27 27 L27 17.7 L23.9 17.7 L23.9 22.8 L23.9 23.8 L22.9 23.8 L17.8 23.8 L17.8 27 M1 27 L9.7 27 L9.7 23.9 L5.1 23.9 L4.1 23.9 L4.1 22.9 L4.1 17.8 L1 17.8 L1 27 M27 9.7 L27 1 L17.7 1 L17.7 4.1 L22.8 4.1 L23.8 4.1 L23.8 5.1 L23.8 9.6 L27 9.6 M4.1 9.7 L4.1 5.1 L4.1 4.1 L5.1 4.1 L9.6 4.1 L9.6 1 L1 1 L1 9.7 L4.1 9.7 M28 28 L28 28 L28 28 L16.7 28 L16.7 22.9 L22.8 22.9 L22.8 16.8 L28 16.8 L28 28 L28 28 z M10.7 28 L10.7 28 L10.7 28 L0 28 L0 16.7 L5.1 16.7 L5.1 22.8 L10.6 22.8 L10.6 28 L10.7 28 z M28 10.7 L28 10.7 L28 10.7 L22.9 10.7 L22.9 5.1 L16.8 5.1 L16.8 0 L28 0 L28 10.7 L28 10.7 z M5.1 10.7 L5.1 10.7 L0 10.7 L0 0 L10.7 0 L10.7 5.1 L5.1 5.1 L5.1 10.7 L5.1 10.7 z" class="st1" style="fill:#B55600;" />
      </g>
    </g>
  </g>
</svg>