<?xml version="1.0" encoding="utf-8"?>
<!DOCTYPE svg PUBLIC "-//W3C//DTD SVG 1.1//EN" "http://www.w3.org/Graphics/SVG/1.1/DTD/svg11.dtd">
<svg width="575px" height="237px" viewBox="0, 0, 575, 237" class="svgDam" xmlns="http://www.w3.org/2000/svg" xmlns:xlink="http://www.w3.org/1999/xlink" xmlns:xml="http://www.w3.org/XML/1998/namespace" version="1.1">
  <g id="MapArea">
    <g id="Key_Area">
      <path d="M523.62 41.03 L523.72 40.65 L523.84 40.19 L524.33 38.36 L524.44 37.97 L524.7 36.98 L524.47 35.34 L524.63 33.74 L524.67 33.52 L524.96 30.81 L525 30.19 L524.8 29.8 L524.43 29.57 L524.17 29.02 L523.89 28.85 L523.25 28.62 L523.16 28.58 L522.62 28.36 L522.71 27.92 L523.21 27.25 L523.77 26.49 L524.38 25.42 L524.59 24.73 L524.85 24.18 L524.88 24.13 L525.25 23.81 L525.26 23.67 L525.91 23.23 L532.71 18.46 L537.06 18.24 L537.14 18.3 L537.09 18.37 L537.4 18.6 L537.76 18.74 L538.48 19.06 L538.86 19.4 L539.35 19.77 L539.46 19.87 L539.44 19.99 L539.73 20.27 L540.04 20.53 L540.33 20.81 L540.59 21.15 L541.73 22.02 L541.94 22.18 L542.24 22.41 L542.35 22.49 L542.64 22.72 L543.05 23.25 L543.28 23.54 L543.53 23.87 L545.44 26.36 L545.95 27.72 L545.97 27.76 L546.49 28.38 L546.98 28.96 L548.04 29.82 L548.56 29.88 L549.27 29.82 L549.46 29.84 L549.58 29.84 L549.99 29.65 L550.01 29.74 L550.04 29.82 L550.19 29.7 L551.36 28.75 L553.09 27.35 L553.5 27.12 L554.1 26.79 L554.37 26.64 L555.37 26.08 L555.96 25.75 L557.34 24.98 L557.39 24.64 L557.94 24.37 L558.05 24.31 L559.31 23.4 L568.14 21.53 L566.22 22.32 L566.18 22.34 L565.89 22.51 L565.63 22.79 L565.46 23.16 L565.22 24.37 L564.82 24.5 L564.76 24.58 L564.72 24.61 L564.6 24.72 L564.56 24.96 L564.57 25.1 L564.52 25.15 L564.49 25.29 L564.53 25.33 L564.47 25.49 L564.78 25.55 L564.8 25.61 L564.9 25.64 L564.93 25.73 L565.19 25.74 L565.94 25.94 L566.1 25.91 L566.2 25.92 L566.17 26.13 L566.46 26.18 L566.66 26.21 L566.73 26.12 L567.1 26.17 L567.09 26.26 L567.42 26.29 L568.38 26.52 L568.5 26.61 L568.91 26.73 L568.96 26.65 L569.2 26.64 L569.64 26.89 L570.05 27 L570.15 27.09 L570.43 27.17 L570.6 27.16 L570.59 27.35 L570.25 27.25 L570.25 27.32 L570.45 27.49 L570.82 27.63 L570.84 27.73 L571.26 27.97 L572.11 28.31 L572.58 28.63 L573.14 28.81 L574.01 29.29 L574.68 29.55 L575 29.61 L568.82 28.83 L568.5 28.77 L568.37 28.69 L568.24 28.66 L567.46 28.5 L566.25 28.25 L565.35 28.21 L563.82 28.14 L563.16 28.12 L563.1 28.14 L563.04 28.17 L561.43 28.84 L561.15 28.91 L561.01 29.02 L560.5 29.23 L559.93 29.46 L559.93 29.48 L559.78 29.53 L559.65 29.64 L559.54 29.76 L559.5 29.76 L559.36 29.87 L559.19 30.01 L559.01 30.14 L558.8 30.39 L558.36 30.78 L558.1 30.97 L557.97 31.23 L558 31.38 L557.86 31.52 L557.74 31.68 L557.66 31.73 L557.61 31.8 L557.37 32.29 L557.41 32.35 L557.28 32.67 L557.11 32.97 L556.55 33.76 L556.21 34.13 L555.45 35.47 L555.23 35.67 L554.98 35.91 L554.29 36.58 L554.46 37.23 L554.55 37.55 L554.87 38.81 L554.92 38.99 L554.96 39.16 L554.6 39 L552.81 35.96 L552.51 35.87 L550.26 35.19 L550.02 35.14 L547.64 34.24 L546.16 33.67 L545.94 33.59 L545.73 33.51 L544.8 33.16 L543.95 32.83 L543.58 32.69 L542.57 29.76 L542.57 29.75 L542.21 28.67 L540.81 26.58 L540.7 26.42 L539.21 24.5 L538.61 24.24 L538.13 24.03 L537.43 23.73 L536.95 23.52 L536.16 23.18 L535.9 23.07 L534.92 22.64 L533.25 22.88 L533.13 22.85 L532.17 22.97 L531.81 23.5 L531.61 23.79 L531.13 24.51 L530.97 24.74 L532.27 25.48 L532.11 26.18 L531.98 26.75 L531.85 27.3 L531.67 28.09 L531.49 28.91 L531.29 29.77 L531.21 29.88 L530.16 31.19 L530.11 31.25 L529.53 31.98 L529.36 34.6 L529.32 35.21 L529.45 35.49 L529.51 35.62 L529.63 35.88 L529.83 36.34 L529.89 36.47 L530.13 37 L530.59 37.99 L530.91 38.7 L531.44 39.87 L531.52 40.04 L531.72 40.35 L531.87 40.38 L532.18 40.54 L532.5 40.77 L533.01 41.07 L533.21 41.05 L533.3 41.1 L533.34 41.47 L533.63 41.7 L533.64 42.28 L533.77 43.15 L533.78 43.21 L534.13 43.72 L534.02 44.76 L533.66 48.24 L533.49 48.46 L533.51 48.88 L534.21 51.01 L534.81 52.55 L535.26 53.57 L535.63 54.37 L536.16 55.25 L535.02 57.33 L535.02 56.87 L535.05 56.41 L534.81 55.5 L534.54 54.84 L534.41 54.65 L534.3 54.44 L534.3 54.24 L533.96 54.33 L533.66 53.63 L533.57 53.27 L533.41 53.06 L533.3 52.69 L533.07 52.33 L533.07 52.12 L533.02 51.99 L532.93 51.82 L532.65 50.73 L532.64 50.63 L532.55 48.35 L532.58 48.22 L532.5 47.52 L532.35 47.05 L532.36 46.54 L532.18 45.81 L532.02 45.2 L532.03 44.98 L532.05 44.14 L532.06 43.33 L532.07 42.98 L531.69 42.83 L530.67 42.42 L529.78 42.08 L529.85 43.38 L529.85 43.51 L529.85 43.55 L529.69 44.11 L529.64 44.3 L529.08 46.22 L528.85 47 L528.82 47.12 L528.19 47.15 L527.26 47.22 L525.38 47.34 L524.79 47.38 L524.66 47.38 L522.75 46.62 L514.8 39.9 L513.88 38.88 L513.42 38.41 L512.91 37.88 L512.55 37.5 L511.78 36.7 L510.46 35.95 L510.37 35.9 L509.67 35.49 L509.05 35.13 L508.44 34.78 L508.19 34.63 L507.86 34.21 L507.16 33.36 L506.43 32.48 L505.72 31.62 L505.03 30.53 L504.75 30.25 L504.54 29.93 L503.84 29.42 L503.07 28.87 L502.78 28.66 L502.26 28.28 L502.04 28.12 L501.02 27.38 L500.8 27.32 L500.65 27.21 L500.56 27.06 L500.42 26.83 L500.06 26.62 L499.81 26.58 L499.8 26.56 L499.73 26.52 L499.22 26.2 L498.8 25.94 L498.53 25.76 L498 25.71 L498 25.68 L496.71 25.54 L496.51 25.52 L495.03 25.35 L494.72 25.72 L494.48 26.01 L494 26.56 L493.34 27.34 L493.25 27.45 L492.69 28.1 L492 28.9 L491.06 30 L490.87 30.21 L490.81 30.25 L490.46 30.6 L490.45 30.61 L490.29 30.77 L490.16 30.89 L485.14 35.96 L484.5 36.36 L481.3 39.43 L480.03 40.7 L478.28 42.43 L475.4 45.27 L475.32 45.36 L473.09 45.98 L472.57 46.13 L470.68 46.64 L468.65 47.2 L468.45 47.1 L466.04 45.76 L462.57 43.82 L462.21 43.6 L462.17 45.18 L462.55 45.91 L462.55 45.97 L463.66 48.06 L463.75 48.32 L463.78 48.31 L464.91 50.44 L469.93 54.89 L471.34 56.15 L472.03 56.76 L471.65 58.6 L472.26 59.79 L472.37 60.39 L472.51 60.86 L472.72 61.21 L472.57 62.52 L472.33 63 L471.77 63.46 L471.49 63.91 L471.3 64.19 L471 64.8 L470.81 64.95 L470.3 65.59 L470.13 66.46 L469.95 67.43 L469.45 69.79 L460.01 71.33 L459.3 71.45 L458.75 71.54 L457.37 71.76 L454.8 70.9 L452.24 70.02 L452.14 69.98 L450.86 69.23 L449.17 68.22 L446.83 66.82 L442.17 64.31 L441.25 63.81 L438.68 62.41 L436.53 61.91 L434.39 61.4 L434.05 61.33 L432.49 61.13 L431.86 61.05 L431.55 61.01 L429.1 58.97 L428.01 58.07 L427.58 57.72 L427.16 57.34 L427.16 57.36 L427.01 57.21 L426.59 56.85 L424.6 55.05 L423.59 54.15 L423.38 53.97 L423.03 53.74 L422.57 53.43 L421.66 52.84 L420.62 52.1 L420.39 51.94 L419.48 51.3 L418.78 50.82 L416.95 49.54 L416 48.88 L413.83 47.37 L413.82 47.35 L413.71 47.35 L412.37 46.41 L412.04 46.18 L410.61 45.17 L409.16 44.19 L405.56 41.72 L404.86 41.25 L404.79 41.19 L404.03 40.68 L398.09 32.65 L398.09 32.65 L397.92 32.42 L396.62 34.3 L396.06 35.11 L395.88 35.38 L395.77 34.98 L395.56 34.24 L394.81 34.18 L393.93 34.11 L393.3 34.05 L392.43 34.32 L392.35 34.34 L392.18 34.39 L392.02 34.43 L392.02 34.42 L391.25 34.63 L390.45 34.87 L389.83 35.34 L388.33 36.46 L385.74 40.19 L385.29 40.83 L384.66 43.53 L384.36 44.78 L383.79 47.13 L383.78 47.13 L383.41 48.66 L386.41 48.99 L386.77 49.03 L388.29 49.19 L389.6 49.34 L390 49.38 L390.31 49.5 L391.91 50.11 L391.91 50.13 L392 50.17 L392.38 50.31 L392.47 50.35 L393.26 50.65 L393.33 50.68 L393.73 50.95 L394.3 51.33 L397.99 53.82 L399.8 55.02 L401.62 56.21 L401.65 56.25 L401.85 56.51 L402.31 57.13 L402.71 57.66 L403.25 58.38 L403.28 58.41 L403.97 59.31 L404.22 59.66 L404.52 60.04 L404.94 60.35 L405.48 60.98 L405.88 61.68 L405.89 61.72 L405.59 61.69 L405.57 62.86 L405.56 63.24 L405.5 63.4 L405.44 63.95 L405.4 64.32 L405.47 64.54 L405.56 64.63 L405.55 64.78 L405.54 66.15 L405.34 66.58 L404.99 67.3 L404.71 67.61 L404.29 68.54 L403.45 70.34 L403.31 70.74 L403.04 71.29 L402.94 71.49 L402.89 71.53 L402.72 71.84 L402.71 71.96 L402.25 72.91 L402.2 72.89 L402.02 73.26 L401.14 73.86 L399.76 74.8 L398.53 75.62 L398.46 75.71 L396.02 77.37 L392.88 78.67 L392.77 78.72 L392.61 78.78 L391.68 79.18 L391.51 79.21 L390.47 79.65 L386.51 81.29 L385.35 83.39 L386.16 84.65 L386.55 85.25 L386.17 87.13 L385.81 89.33 L385.74 88.66 L385.72 88.66 L384.64 89.17 L383.94 89.5 L382.85 90.01 L380.04 89.54 L380 89.53 L378.48 92.91 L378.68 95.29 L377.82 96.74 L379.38 98.13 L378.26 98.45 L376.08 98.24 L375.97 98.5 L375.82 99.08 L375.61 99.97 L375.53 100.32 L375.19 100.67 L374.84 101.04 L374.89 101.18 L374.91 101.23 L376.5 102.69 L376.48 103.08 L376.74 103.22 L376.76 103.89 L376.78 103.98 L376.78 104.34 L376.5 104.55 L376.45 105.25 L375.11 106.51 L375.2 107.65 L375.54 108.27 L375.77 109.42 L375.57 112.5 L377.16 113.95 L377.74 114.93 L378.58 115.78 L380.12 117.81 L378.7 120.61 L378.36 120.96 L376.85 119.74 L375.37 113.9 L374.19 112.8 L373.71 111.89 L373.84 111.37 L374.28 109.59 L374.28 109.52 L373.49 108.84 L372.3 107.74 L371.99 106.66 L371.99 106.64 L372.33 105.84 L373.16 105.3 L374.53 104.41 L373.8 104.1 L373.45 103.95 L373.5 103.87 L371.41 102.94 L371.03 102.98 L370.12 103.69 L369.93 103.84 L369.93 103.93 L366.76 106.37 L368.36 103.92 L368.45 103.83 L368.74 103.4 L371.24 99.56 L372.33 97.87 L372.71 97.28 L375.24 93.37 L375.32 93.03 L375.23 92.06 L375.59 91.95 L375.75 91.3 L375.8 91.11 L375.91 90.68 L376.55 88.13 L376.97 86.41 L378.22 81.34 L378.43 80.48 L371.26 81 L364.09 81.54 L356.34 83.76 L356.27 83.72 L350.51 85.3 L348.45 85.96 L345.2 87.03 L338.63 89.17 L337.77 89.45 L334.81 90.42 L333.84 92.65 L330.96 99.17 L329.01 103.55 L328.95 103.62 L328.92 103.7 L328.15 105.48 L324.99 111.07 L322.78 112.53 L322.65 112.8 L322.43 112.77 L320.87 113.8 L320.64 113.96 L320.32 114.21 L319.94 114.49 L319.6 114.75 L319.81 114.26 L320.26 113.23 L320.57 112.51 L320.63 112.48 L320.66 112.48 L320.67 112.48 L322.96 107.32 L325.88 103.52 L325.95 103.53 L326.86 102.36 L327.97 97.91 L329.06 93.45 L329.52 91.58 L329.17 91.58 L323.34 91.6 L322.44 91.6 L321.43 91.87 L321.4 91.89 L321.01 92.16 L320.77 92.22 L316.77 94.94 L314.35 94.67 L313.73 94.91 L311.69 95.08 L310.97 94.99 L309.98 94.74 L308.18 94.41 L307.64 94.44 L307.78 94.03 L307.07 92.73 L306.37 88.6 L304.04 89.47 L303.64 88.6 L303.12 87.37 L302.64 87.57 L302.64 87.52 L303.26 85.49 L304.01 83.02 L304.03 82.98 L304.51 81.39 L304.63 81.02 L304.65 80.95 L304.71 80.75 L304.79 80.51 L304.86 80.28 L304.94 80.03 L305 79.82 L305.05 79.64 L304.94 79.42 L304.83 79.19 L304.58 78.71 L304.47 78.49 L304.35 78.26 L304.23 78.03 L304.13 77.82 L304.02 77.6 L303.8 77.17 L303.55 76.69 L303.42 76.43 L303.31 76.21 L302.71 75.03 L302.78 74.95 L302.27 73.97 L300.83 74.93 L300.8 75.02 L300.27 75.38 L299.85 75.01 L299.89 74.93 L298.78 73.95 L300.7 72.3 L299.94 71.65 L298.47 70.39 L294.01 65.57 L292.43 65.93 L290.1 66.45 L290.63 67.3 L288.08 67.31 L290.05 70.35 L290.89 70.6 L290.3 72.65 L291.56 72.94 L291.02 74.75 L291.18 74.88 L291.09 74.97 L292.27 75.89 L293.08 76.52 L292.12 76.98 L291.33 77.37 L290.39 77.82 L288.86 78.56 L288.28 78.82 L288.54 78.26 L288.73 77.85 L288.93 77.44 L289.62 76 L289.37 75.66 L288.87 74.96 L288.94 74.87 L287.78 73.24 L286.23 71.06 L285.83 70.83 L285.64 70.81 L285.06 70.47 L285.04 70.46 L283.73 69.69 L283.5 69.95 L282.67 70.88 L282.03 71.61 L281.35 72.38 L280.85 73.97 L280.66 74.58 L280.79 74.81 L280.83 74.86 L281.05 75.25 L281.9 76.71 L281.97 76.84 L281.3 77.18 L279.99 77.83 L278.46 78.59 L277.12 79.26 L275.49 82.64 L273.85 86.01 L273.2 88 L274.21 88.97 L275.71 90.41 L276.6 91.27 L277.38 92.02 L277.46 92.1 L277.6 92.23 L276.99 92.63 L275.81 93.41 L274.66 94.17 L273.26 94.8 L272.99 94.92 L271.5 95.6 L270.49 96.05 L270.31 96.13 L271.66 96.33 L272.32 96.43 L273.31 96.57 L274.2 96.7 L274.98 96.81 L276.32 97.01 L277 97.11 L277.57 97.2 L277.2 97.36 L275.73 97.99 L275.65 98.02 L275.67 98.38 L275.72 99.24 L275.76 100.11 L275.76 100.26 L274.99 100.79 L275.1 100.98 L275.63 101.9 L276.2 102.85 L276.39 103.19 L276.36 103.24 L276.82 104.03 L277.07 104.12 L279.5 105.07 L278.22 107.25 L277.6 108.33 L277.23 108.97 L274.41 109.15 L273.65 109.83 L274.11 110.79 L274.96 112.48 L273.47 113.28 L272.19 113.65 L271.44 113.86 L270.02 114.26 L269.38 114.44 L269.32 114.46 L268.37 115.15 L266.34 116.61 L265.26 117.36 L264.94 117.59 L259.49 121.48 L258.8 122.85 L258.87 122.98 L260.08 125.18 L256.32 124.38 L255.89 124.29 L256.05 124.86 L256.63 127.02 L255.76 127.38 L254.66 127.63 L254.03 127.77 L252.28 127.38 L252.29 127.49 L252.46 129.25 L253.03 129.14 L254.95 128.79 L256.31 129.92 L254.72 131.41 L254.78 131.41 L254.12 132.04 L253.74 132.4 L254.77 133.51 L254.02 136.65 L252.15 136.48 L252.28 137.82 L252.29 137.97 L254.93 139.82 L255.34 140.11 L257.91 139.94 L259.65 139.83 L261.9 139.68 L262.82 139.62 L263.56 139.58 L263.88 139.56 L262.95 142.44 L263.78 143.63 L263.86 143.74 L265.14 145.55 L265.26 145.72 L266.64 147.68 L266.9 148.05 L267.62 148 L269.1 147.9 L269.41 147.77 L270.22 147.43 L271.79 146.77 L270.28 147.53 L267.62 148.89 L267.23 149.09 L267.09 149.16 L266.71 148.73 L266.53 148.52 L264.02 145.71 L262.09 143.54 L253.07 145.48 L252.8 152.36 L253.41 152.5 L256.27 153.17 L261.05 154.4 L261.13 154.41 L263.69 152.29 L266.04 153.19 L267.28 152.42 L267.6 152.23 L270.14 150.68 L271.08 151.21 L272.65 150.21 L275.52 151.35 L273.73 155.53 L276.77 154.95 L279.38 158.25 L283.2 157.73 L283.24 160.03 L283.08 160.04 L283.11 164.26 L280.62 164.26 L279.42 161.03 L272.62 160.7 L270.81 164.98 L269.6 159.96 L269.74 159.96 L269.47 158.82 L268.47 159.95 L268.34 159.95 L267.47 160.96 L265.48 163.27 L263.9 162 L258.74 162.65 L255.16 159.87 L255.26 159.85 L253.34 158.4 L254.55 159.84 L254.48 159.87 L257.98 164.17 L258.74 165.12 L256.72 167.96 L257.7 170.56 L258.98 172.21 L253.68 172.69 L255.04 174.08 L256.13 175.2 L252.13 175.24 L254.73 179.99 L252.02 187.05 L250.37 188.19 L247.77 189.96 L249.33 193.65 L252.65 194.08 L256.47 201.52 L260.62 201.31 L257.29 203.6 L262.6 211.13 L269.97 208.9 L274.61 217.04 L269.83 213.36 L268.07 211.74 L265.97 213.01 L265.83 213.1 L265.54 213.27 L265.3 213.42 L264.99 213.6 L264.82 213.7 L264.44 213.93 L264.2 214.08 L263.49 214.49 L260.97 216 L260.68 216.17 L259.91 216.63 L259.48 216.47 L259.27 216.39 L259.09 216.39 L258.93 216.26 L257.36 215.69 L257 215.56 L256.98 215.46 L256.55 212.45 L257.18 211.35 L257.34 211.07 L257.1 210.94 L252.09 208.24 L249.61 206.9 L249.49 206.85 L249.37 206.79 L248.6 206.37 L248.55 206.34 L246.42 207.75 L243.43 209.73 L247.21 204.04 L249.33 203.74 L246.31 202.6 L243.82 201.66 L242.53 201.16 L242.49 201.15 L241.51 199.8 L240.19 198.08 L239.76 196.21 L239.4 194.65 L239.22 193.88 L240.19 192.19 L239.78 191.09 L238.37 192.43 L238.5 191.89 L238.89 190.15 L239.33 188.15 L239.33 188.13 L239.8 185.82 L234.69 186.02 L234.43 186.03 L236.05 184.09 L236.39 183.7 L239.94 179.45 L240.2 179.14 L240.05 174.9 L240.01 173.96 L239.97 173.05 L239.79 173 L238.15 172.46 L236.5 171.92 L234.72 171.34 L233.48 170.93 L232.7 170.67 L233.31 170.41 L235.94 169.27 L236.84 168.89 L237.69 168.52 L241.19 167.01 L242.66 164.75 L242.83 164.5 L244.66 161.7 L245.37 160.63 L245.23 159.8 L245.05 159.76 L244.44 156.46 L244.04 154.3 L244 154.1 L242.14 154.16 L241.76 154.18 L240.78 154.21 L241.42 151.92 L241.58 151.34 L241.85 150.31 L242.14 149.29 L241.58 149.37 L240.52 149.52 L240.21 149.56 L241.31 146.38 L241.49 145.86 L239.69 144.16 L238.98 143.48 L237.23 144.28 L236.11 144.79 L234.42 145.55 L233.75 145.85 L232.1 146.48 L227.47 148.26 L226.56 147.52 L225.6 146.76 L225.33 146.54 L223.53 145.1 L223.43 145.89 L223.08 148.46 L223 149.1 L222.7 151.37 L222.63 151.81 L221.64 152.49 L220.71 153.12 L219.69 153.8 L218.51 151.53 L217.66 149.9 L215.37 154.32 L214.84 153.38 L214.68 153.09 L214.68 153.07 L214.68 152.8 L213.9 151.4 L211.01 154.86 L207 156.82 L209.05 153.62 L210.97 149.95 L209.63 147.68 L214.75 141.77 L214.75 141.76 L215.65 140.73 L214.76 140.19 L214.76 140.14 L211.21 138 L208.99 137.31 L204.47 137.79 L198.2 140.04 L193.68 139.79 L187.24 134.8 L187.2 134.92 L185.83 133.83 L184.84 133.83 L187.73 136.57 L187.74 136.59 L186.1 140.66 L186.42 144.84 L186.73 149.02 L187 149.85 L187.45 151.16 L186.66 152.76 L186.65 152.79 L186.43 153.24 L185.92 154.4 L185.4 155.6 L184.7 157.17 L184.54 158.16 L184.36 159.21 L183.87 159.35 L184.05 159.39 L182.42 159.84 L181.23 160.16 L179.55 160.62 L179.31 160.64 L179.19 160.6 L178.73 160.63 L176.07 160.78 L175.2 160.61 L172.35 160.08 L171.15 159.85 L170.58 159.26 L170.52 159.26 L170.03 158.76 L169.44 158.98 L169.26 158.37 L169.05 157.69 L168.55 158.75 L168.32 159.23 L168.35 159.24 L166.91 162.29 L166.02 164.18 L163.66 169.2 L164.75 170.57 L165.53 171.55 L166.15 172.33 L166.84 173.18 L167.08 173.48 L169.19 176.1 L169.2 176.11 L170.58 177.81 L171.94 179.51 L172 179.59 L171.27 179.24 L170.74 178.97 L170.43 178.82 L168.18 177.74 L167.6 177.46 L163.49 175.48 L163.25 176.61 L162.41 180.45 L161.45 183.96 L156.9 186.25 L156.69 186.67 L156.26 187.57 L156.25 187.57 L155.94 187.98 L155.45 188.62 L154.3 190.13 L154.65 191.38 L155.13 193.13 L155.27 193.63 L156.14 196.76 L156.36 197.56 L159.93 199.74 L160.27 201.94 L162.36 206.73 L162.47 206.91 L162.61 207.02 L162.8 207.17 L163.19 207.48 L165.62 209.49 L166.97 210.61 L166.49 213.27 L167.34 216.04 L167.36 216.07 L167.85 217.75 L168.27 219.19 L168.87 221.2 L169 221.62 L169.76 224.21 L170.03 225.09 L170.09 225.63 L170.34 227.87 L170.6 230.14 L170.93 233.26 L170.64 234.18 L169.98 236.29 L169.96 236.33 L169.94 236.11 L169.28 227.9 L168.93 224.13 L168.72 221.64 L166.6 219.12 L165.62 217.96 L165.39 217.69 L163.98 216.01 L163.9 216.02 L163.82 215.93 L163.64 215.91 L163.53 215.89 L160.55 215.54 L160.09 215.48 L160.37 213.53 L160.69 211.29 L156.6 207.92 L156.47 206.44 L156.21 203.26 L156.15 202.64 L153.78 202.03 L153.54 201.97 L151.14 197.84 L149.9 195.73 L149.34 194.79 L147.56 196.33 L145.73 197.92 L144.84 198.7 L145.01 197.63 L145.05 197.37 L145.31 195.76 L143.75 195.78 L143.65 195.78 L139.63 195.83 L137.47 195.85 L137.25 195.85 L129.88 193.03 L128.37 192.44 L128.06 192.45 L128.73 192.31 L129.85 192.47 L130.97 192.62 L134.12 192.81 L135.12 192.87 L135.56 192.81 L137.15 192.55 L138.87 192.28 L140.06 192.1 L142.12 191.79 L143.68 190.23 L143.77 190.26 L146.46 187.52 L146.49 187.5 L147.22 186.76 L144.83 183.12 L153.92 177.57 L153.47 177.43 L151.99 176.97 L151.02 173.39 L150.59 171.87 L152.11 169.04 L151.81 168.96 L152.36 168.57 L152.6 168.13 L150.12 161.05 L154.55 163.62 L157.12 159.18 L157.07 159.17 L159.67 155.02 L158.56 151.76 L157.63 149.02 L157.25 147.9 L156.88 147.27 L156.42 146.83 L156.46 146.69 L154.65 147.23 L153.48 147.59 L150.19 148.59 L149.39 148.83 L147.92 149.29 L146.7 149.66 L144.88 147.35 L146.8 146.25 L146.93 145.76 L147.14 144.91 L147.26 144.38 L146.87 141.49 L146.76 140.69 L146.82 140.34 L147.01 139.28 L147.21 138.09 L147.52 136.27 L147.98 135.92 L149.48 134.79 L149.78 134.57 L148.52 133.72 L147.49 133.03 L145.64 131.78 L145.69 131.42 L145.73 131.16 L145.8 130.73 L145.83 130.7 L146.26 128.1 L146.29 127.9 L144.77 127.13 L144.26 126.87 L144.15 126.83 L141.95 125.67 L141.39 125.39 L142.68 123.21 L142.94 122.79 L140.49 121.75 L139.55 121.34 L137.11 120.3 L136.35 119.98 L133.86 121.21 L132.37 121.95 L133.28 123.3 L133.93 124.28 L134.05 124.45 L133.12 125.06 L132.25 125.63 L132.11 125.72 L130.73 126.34 L128.52 127.33 L125.72 128.6 L125.24 128.81 L124.7 129.06 L124.47 129.17 L124.69 130.57 L124.64 130.58 L124.73 131.15 L124.87 132.13 L125 132.97 L125.37 135.4 L120.24 134.63 L119.66 135.08 L118.52 135.98 L114.12 136.79 L114.21 137.36 L115.31 143.16 L115.44 143.81 L114.94 143 L113.42 140.52 L112.85 139.58 L112.56 139.11 L111.74 139.22 L110.66 139.38 L110.11 139.46 L109.49 139.55 L108.83 139.65 L108.71 139.6 L106.75 139.88 L101.93 141.68 L99.46 142.59 L99.55 144.66 L99.65 147.18 L96.16 152.84 L94.34 152.69 L92 152.52 L89.96 152.68 L87.89 152.84 L81.2 153.35 L80.45 152.95 L77.34 151.37 L76.34 150.34 L75.43 149.42 L73.5 148.03 L73.35 147.81 L71.99 148.82 L71.78 148.97 L70.49 150.87 L70.41 151.01 L69.96 152.08 L69.46 153.28 L67.93 154.98 L64.44 156.54 L61.3 157.46 L60.55 157.68 L59.62 157.81 L57.07 158.16 L56.63 158.48 L56.58 158.52 L55.68 159.17 L53.48 160.79 L53.39 160.94 L52.73 161.43 L47.02 160.76 L47.65 160.42 L46.8 160.39 L45.92 160.64 L45.85 161.39 L45.17 161.62 L45.11 161.64 L45.12 161.7 L44.86 161.99 L44.51 162.23 L44.12 162.35 L43.07 162.54 L41.87 162.19 L41.44 162.35 L40.51 162.77 L39.79 163.15 L38.71 164.34 L38.04 164.74 L37.83 164.65 L37.75 164.71 L37.6 164.26 L35.62 165.1 L35.09 164.7 L33.06 164.81 L32.71 164.8 L32.26 165.07 L30.79 164.69 L28.74 164.38 L28.07 164.45 L26.77 163.65 L26.66 163.64 L26.62 163.64 L26.16 163.59 L24.72 163.7 L21.83 163.29 L21.85 163.15 L20.7 163.17 L19.45 163.02 L19.21 162.99 L18.84 162.94 L17.62 162.6 L16.55 162.07 L16.26 161.95 L16 161.82 L15.64 161.64 L15.26 161.46 L14.38 161.05 L14.22 160.96 L13.65 161.28 L12.17 160.7 L10.56 160.06 L10.27 159.88 L9.78 159.89 L9.29 159.66 L8.66 160.01 L8.14 159.22 L8.13 159.02 L7.7 158.67 L7.1 158.5 L6.48 157.8 L6.31 157.28 L5.98 156.87 L5.31 156.47 L4.95 156.15 L4.48 156.08 L4.43 155.89 L3.04 155.27 L2.88 155.11 L2.68 155.1 L2.31 154.75 L1.82 154.27 L1.46 153.93 L0.51 154.25 L0.4 154.19 L0.22 154.02 L0 153.98 L0.03 153.68 L0.15 153.48 L0.3 153.2 L0.69 153.3 L0.86 153.34 L1.22 153.39 L1.6 153.3 L5.16 151.71 L5.23 151.48 L5.26 151.42 L6.63 151.75 L8.24 152.02 L8.57 152.12 L8.91 152.21 L15.48 155.34 L18.77 157.25 L19.98 158.2 L20.33 158.31 L20.43 158.15 L20.42 155.91 L21.17 156.19 L22.3 154.6 L24.61 153.13 L26.75 155.34 L27.37 154.49 L32.21 154.62 L32.51 153.6 L32.83 153.32 L33.19 152.83 L33.73 152.72 L33.86 153.38 L34.65 154.31 L36.24 155.34 L37.58 155.86 L38.14 156.4 L37.45 157.69 L39.72 156.83 L44.3 154.26 L45.03 153.25 L45.1 153.15 L46.53 151.17 L45.45 149.37 L46.28 148.49 L54.23 142.31 L53.43 138.03 L54.83 135.43 L62.29 134.06 L65.39 131.14 L73.22 125.9 L84.38 126.77 L80.05 120.85 L87.5 117.66 L88.76 117.12 L90.12 116.54 L89.94 116.2 L91.15 115.61 L90.06 114.1 L87.53 110.62 L86.48 109.18 L85.32 107.61 L88.97 95.37 L88.92 95.31 L96.03 93.89 L101.73 92.74 L108.78 91.31 L109.21 91.27 L109.38 91.23 L125.46 87.88 L126.88 87.6 L127.54 87.47 L128.6 89 L130.36 91.55 L131.57 93.27 L132.09 94.01 L135.02 98.15 L135.47 98.79 L136.4 100.1 L142.34 101.72 L143.76 102.1 L145.71 102.63 L156.58 97.45 L157.1 97.92 L156.72 99.28 L156.83 100.61 L156.98 101.08 L157.47 106.82 L158.93 110.26 L159.23 110.26 L160.88 114.24 L165.14 102.44 L165.4 101.74 L165.83 91.35 L168.05 79.92 L168.9 75.45 L170.64 74.16 L170.58 74.07 L172.27 72.81 L173.96 71.55 L177.09 69.21 L175.72 63.59 L177.12 60.54 L180.05 60.56 L179.98 60.39 L181.38 60.42 L184.74 62.56 L192.3 62.06 L194.2 53.9 L194.45 52.95 L195.01 50.68 L196.3 51.6 L198.36 53.06 L204.69 57.58 L207.06 59.27 L208.71 60.88 L210.12 62.23 L211.23 63.31 L213.56 65.57 L213.96 65.95 L214.8 66.77 L214.89 66.86 L215.16 67.12 L215.24 67.07 L218.26 70.06 L224.71 72.99 L225.69 73.44 L226.2 73.67 L227.93 74.46 L227.9 74.5 L230.15 75.53 L231.13 76.08 L231.93 76.55 L233.54 77.48 L236.11 78.96 L236.86 79.4 L238.59 80.4 L239.28 82.28 L240.3 85.09 L240.59 85.87 L241.77 89.11 L241.81 89.2 L242.99 87.08 L244.75 83.87 L244.31 78.83 L241.66 74.61 L241.59 74.55 L240.1 72.19 L246.78 74.58 L246.77 74.65 L249.63 75.66 L250.04 74.68 L249.91 74.6 L250.41 73.42 L250.51 73.52 L250.57 73.37 L250.65 73.23 L250.75 72.97 L251.45 71.34 L253.01 71.01 L255.69 70.42 L262.54 59.11 L254.96 52.56 L254.57 52.22 L254.54 52.21 L254.36 52.19 L253.97 51.91 L253.93 51.77 L253.87 51.71 L253.71 51.53 L253.51 51.38 L253.59 51.31 L253.75 51.46 L254.24 51.57 L261.24 53.67 L261.56 53.76 L262.25 54.23 L263.79 55.26 L265.31 56.31 L266.07 56.82 L265.08 54.09 L264.11 51.35 L263.2 48.84 L262.74 47.59 L262.72 47.51 L263.38 46.39 L263.37 46.31 L263.39 46.27 L263.43 46.27 L262.07 45.44 L264.28 44.02 L264.3 44.03 L264.14 42.53 L263.57 37.31 L263.51 36.79 L257.79 32.93 L257.86 32.38 L257.92 32.04 L258.14 30.53 L258.37 28.13 L258.53 26.54 L258.52 26.48 L258.41 25.21 L257.5 24.36 L257.12 24.02 L255.74 22.73 L255.6 22.61 L255.46 22.48 L255.34 22.37 L254.85 21.92 L255.46 21.67 L255.66 21.59 L258.23 20.53 L258.61 20.37 L258.28 19.75 L257.36 18.01 L257.43 17.82 L255.23 13.64 L257.31 10.78 L252.72 10.22 L249.68 10.01 L248.37 10.01 L247.06 8.96 L245.63 7.11 L244.64 5.85 L243.99 5.02 L238.62 5.35 L240.35 3.36 L241.31 3.5 L243.39 3.8 L249.42 4.68 L250.72 5.24 L250.81 5.09 L250.95 5.07 L251.09 4.89 L252.43 3.18 L252.57 3.01 L252.67 3.16 L253.99 5.08 L255.83 4.97 L256.28 4.92 L256.37 4.94 L258.24 4.83 L260.42 5.33 L260.72 5.41 L260.81 2.73 L260.99 2.65 L263.34 1.66 L263.62 1.56 L263.93 1.42 L264.03 1.38 L264.58 1.14 L266.24 0.44 L266.95 0.14 L267.26 0 L267.07 1.83 L267.01 2.37 L266.9 3.39 L265.6 7.3 L265.44 7.85 L265.24 8.6 L264.86 10.36 L264.95 10.55 L265.19 11.07 L266.76 10.21 L268.02 11.95 L268.37 11.33 L268.63 10.84 L268.9 10.95 L269.32 11.12 L269.35 11.06 L270.14 9.79 L270.38 9.42 L270.79 9.85 L271.58 10.68 L272.2 11.32 L272.4 11.52 L272.52 11.51 L273.44 11.43 L274.53 11.34 L274.71 11.15 L275.62 10.19 L275.66 10.15 L276.91 10.26 L277.66 10.32 L277.66 10.33 L277.73 10.41 L277.72 10.53 L277.71 10.78 L277.7 10.96 L277.66 11.6 L277.63 11.96 L277.63 11.97 L277.62 12.24 L277.87 12.24 L278.18 12.26 L278.88 12.3 L278.71 12.63 L278.65 12.75 L277.81 14.38 L278.74 14.75 L279.12 14.76 L280.34 14.8 L280.56 14.81 L281.14 15.19 L281.66 15.53 L282.31 15.95 L283.21 15.53 L283.97 15.17 L284.03 15.54 L284.19 16.65 L285.02 16.61 L286.07 16.55 L297.88 15.88 L298.14 15.86 L298.43 15.85 L298.59 15.84 L299.24 15.8 L303.88 15.53 L304.19 15.51 L304.25 15.64 L304.32 15.78 L305.33 17.59 L305.64 18.16 L305.64 18.29 L306.14 19.18 L306.54 19.9 L306.9 20.54 L307.96 22.43 L308.02 22.55 L308.48 23.96 L308.72 24.72 L308.76 24.86 L308.85 25.12 L308.94 25.41 L309.58 27.44 L309.99 28.76 L310.1 29.11 L311.06 32.11 L310.99 33.34 L310.96 33.85 L310.95 33.97 L310.94 34.12 L310.94 34.24 L310.91 34.62 L310.91 34.7 L310.86 34.82 L310.61 35.39 L310.47 35.72 L309.8 37.3 L309.72 37.46 L310.08 37.66 L310.27 38.03 L310.66 38.14 L310.82 38.4 L310.84 38.45 L310.84 38.57 L310.86 38.96 L310.38 38.86 L309.94 38.85 L309.6 39 L309.23 39.53 L309.13 39.35 L308.98 39.22 L308.12 41.19 L306.31 45.38 L305.88 46.36 L307.06 45.71 L309.87 44.15 L311.81 43.08 L316.41 40.52 L316.52 40.46 L317.54 39.89 L317.53 39.75 L317.21 35.02 L317.82 34.69 L321.24 32.82 L321.41 32.63 L322.03 28.25 L322.48 25 L322.95 21.75 L323.14 20.35 L323.19 19.96 L323.24 19.63 L323.53 20.09 L323.82 20.54 L323.87 20.64 L324.45 21.58 L324.68 21.96 L324.7 21.97 L324.88 22.28 L327.49 26.55 L325.3 27.96 L325.1 28.09 L326.92 28.76 L326.94 28.74 L327.06 28.81 L327.21 28.86 L327.46 29.21 L327.86 29.75 L327.7 30.43 L327.21 32.44 L327.57 32.37 L331.4 31.69 L331.28 31.89 L330.96 32.19 L330.58 32.52 L330.32 32.61 L328.9 33.13 L328.4 33.32 L328.54 35.1 L328.4 35.15 L326.75 35.65 L325.88 35.91 L325.57 36 L323.85 36.51 L322.13 37.03 L321.77 37.82 L321.39 38.58 L321.19 38.67 L320.97 39.11 L317.96 45.2 L317.38 46.37 L317.33 46.47 L321.16 44.36 L321.33 44.38 L321.62 44.22 L324.02 45.03 L325.84 45.63 L326.56 45.87 L325.82 46.54 L325.6 46.74 L325.63 46.8 L324.94 47.44 L321.29 50.76 L321.13 50.74 L319.83 51.91 L319.76 51.99 L318.04 54.44 L316.32 56.87 L316.19 57.06 L316.84 56.81 L321.12 55.08 L321.26 55.09 L328.93 52.01 L336.6 48.92 L332.96 54.91 L328.19 56.81 L324.7 58.55 L321.22 60.3 L321.09 60.3 L315.74 62.97 L315.77 64.14 L315.97 73.77 L316.9 75.05 L317.01 75.14 L319.97 79.23 L320.33 79.28 L321.08 79.39 L321.1 79.39 L327.85 80.34 L321.54 82.84 L321.08 83.03 L321.05 83.05 L319.06 83.86 L321.04 83.71 L321.07 83.69 L321.41 83.66 L329.71 83.03 L336.39 81.35 L343.07 79.69 L352.72 76.41 L354.55 76.1 L356.38 75.76 L356.49 75.86 L358.84 75.43 L358.75 75.36 L361.86 74.81 L363.96 74.2 L363.99 74.2 L367.36 73.2 L368.57 72.85 L369.24 72.65 L370.06 72.64 L370.43 72.63 L377.67 72.5 L377.85 72.5 L379.19 71.3 L379.3 71.2 L380.11 70.47 L382.29 70.5 L383.56 69.31 L384.12 68.77 L384.8 68.12 L386.93 66.85 L387.61 66.45 L387.99 66.22 L389.43 65.38 L389.75 64.93 L390.58 63.75 L389.58 62.51 L390.32 62.05 L390.66 61.85 L390.81 61.76 L390.72 59.68 L388.87 59.02 L388.45 59.18 L388.18 59.04 L386.78 58.38 L386.17 58.05 L382.14 56.59 L379.53 55.67 L378.64 55.34 L377.5 53.57 L376.8 52.5 L375.86 51.06 L375.83 51.01 L375.7 50.82 L375.6 50.66 L374.37 50.5 L373.95 50.44 L374.18 48.34 L374.18 48.26 L373.08 47.48 L372.92 47.36 L373.38 47.07 L373.38 47.06 L373.38 47.06 L374.16 46.55 L374.26 46.15 L374.59 44.83 L374.77 44.15 L374.79 44.09 L374.83 43.92 L374.88 43.73 L374.92 43.58 L375.16 42.64 L375.48 42.01 L375.66 41.64 L375.94 41.08 L375.97 41.01 L376.55 38.19 L376.57 38.09 L375.5 37.34 L374.02 36.52 L373.9 36.49 L372.75 35.85 L371.33 35.08 L371.84 35.09 L372.25 35.11 L376.57 35.25 L376.46 35.15 L376.29 34.97 L376.19 34.88 L376.13 34.82 L375.04 33.72 L374.62 32.62 L374.48 32.25 L374.73 32.1 L375.36 31.75 L375.57 31.63 L376.39 31.15 L376.68 30.97 L377.23 30.62 L376.97 29.72 L377.49 28.11 L378.35 27.41 L378.8 27.04 L379.56 26.41 L379.69 26.31 L380.91 26.47 L381.27 25.89 L381.32 24.56 L381.59 24.62 L381.73 24.66 L383.92 25.2 L387.89 23.58 L388.11 23.49 L388.29 23.42 L388.35 23.39 L389.92 22.74 L389.92 22.74 L390.66 22.44 L391.29 22.6 L392.1 22.8 L392.1 22.77 L394.41 23.34 L395.5 23.59 L396.52 23.95 L401.05 25.55 L402.07 25.91 L404.55 25.89 L404.71 25.89 L405.14 25.89 L405.31 25.95 L407.42 26.74 L407.71 26.86 L407.71 27.15 L407.71 27.54 L407.71 27.68 L407.72 28.06 L407.81 28.16 L408.35 28.69 L408.79 29.13 L408.82 29.17 L409.26 29.45 L409.72 29.75 L410.82 30.46 L411.67 30.42 L412 30.39 L412.12 30.65 L412.22 30.93 L412.3 31.18 L412.4 31.42 L412.84 32.25 L414.07 34.48 L414.01 34.64 L414.01 34.67 L414.68 34.63 L414.87 35.01 L415.01 35.13 L416.1 36.76 L416.95 38.04 L417.07 38.23 L417.18 38.4 L417.58 39.09 L417.74 39.36 L418.08 39.94 L418.48 40.62 L419.5 40.91 L420.77 41.26 L422.23 41.67 L423.53 42.04 L424.98 42.44 L426.09 42.75 L426.69 43.07 L427.26 43.36 L427.26 43.37 L431.19 45.44 L435.12 47.5 L435.09 47.5 L436.41 48.2 L436.49 48.16 L437.51 47.68 L437.86 47.52 L437.88 47.52 L438.09 47.42 L439.29 46.85 L439.36 46.5 L439.54 45.7 L439.91 43.96 L439.93 43.88 L439.97 43.93 L440.33 44.3 L440.77 44.75 L441.18 45.19 L441.74 45.42 L442.08 45.5 L442.49 45.72 L443.04 45.92 L442.95 46.11 L442.91 46.18 L442.47 47.09 L442.26 47.55 L442.23 47.55 L442.15 47.72 L441.73 48.58 L441.62 48.79 L440.58 50.89 L440.55 50.91 L442.07 51.57 L442.73 51.91 L442.91 52 L444.29 52.57 L444.41 52.65 L444.69 52.77 L446.17 53.86 L446.96 55.41 L447.24 55.63 L448.79 56.85 L451.03 58.62 L451.42 58.92 L451.73 59.16 L451.84 59.25 L452.12 59.47 L453.11 59.6 L453.59 59.67 L453.85 59.7 L454.86 59.85 L456.27 60.05 L457.14 60.17 L459.01 60.43 L459.96 60.56 L462.44 60.89 L462.44 60.88 L463.92 61.08 L464.95 61.18 L465 61.18 L464.82 60.84 L462.66 56.77 L462.48 56.6 L462.48 56.64 L459.27 53.44 L456.58 50.76 L453.87 48.09 L453.88 47.64 L453.9 47.64 L453.92 47.11 L454 45.04 L455.32 43.09 L455.33 43.05 L456.02 42.04 L456.11 41.9 L456.2 41.76 L456.83 40.83 L457.24 40.22 L457.43 39.93 L457.59 39.7 L457.87 39.28 L457.95 39.17 L461.38 37.02 L461.55 36.9 L461.73 36.9 L462.03 36.91 L462.42 36.91 L462.61 36.91 L463.46 36.92 L463.66 36.93 L464.98 36.93 L465.21 36.85 L465.49 36.94 L465.78 36.94 L467.12 36.63 L467.12 35.79 L467.35 35.95 L468.37 36.63 L470.03 37.62 L470.45 37.73 L470.61 37.77 L471.28 37.94 L471.72 38.05 L471.78 38.07 L471.89 38.1 L472.5 38.12 L473.51 38.17 L473.69 38.17 L475.2 36.57 L475.5 34.73 L475.49 34.72 L475.51 34.61 L475.52 34.59 L476.95 34.74 L477.87 33.54 L479.53 31.44 L480.93 29.69 L483.59 26.3 L483.62 26.27 L483.89 25.92 L484.4 25.29 L484.55 25.21 L486.12 24.41 L486.54 24.19 L487.53 23.68 L488.03 23.43 L488.95 22.97 L489.32 22.63 L489.45 22.6 L490.2 22.15 L490.74 21.7 L491.68 21.25 L492.42 21 L492.83 20.77 L493.42 20.64 L494.08 20.3 L494.7 19.98 L495.95 19.33 L495.94 19.36 L497.1 19.73 L499.23 20.4 L500.64 20.84 L501.64 21.62 L502.05 21.94 L502.12 21.99 L502.36 22.18 L503.64 23.17 L504.04 23.48 L504.4 23.76 L504.74 24.02 L504.95 24.14 L505.04 24.18 L505.25 24.3 L505.52 24.45 L505.84 24.62 L505.98 24.75 L506.17 24.78 L506.44 24.93 L506.81 25.13 L507.82 25.7 L508.46 25.82 L509.83 26.19 L510.37 26.68 L511.21 26.96 L511.81 27.83 L513.25 28.6 L513.57 28.96 L513.6 28.97 L514.06 29.23 L514.28 29.53 L514.34 29.8 L514.37 29.92 L514.44 29.98 L514.46 30.05 L515.04 30.7 L515.15 30.81 L515.9 31.64 L516.46 32.26 L516.64 32.44 L516.86 32.7 L516.98 32.79 L518.75 34.02 L520.54 35.27 L521.12 36.03 L521.38 38.19 L522.31 39.34 L523.62 41.03 z" class="polygon_1" style="fill:#571D6D;" />
      <path d="M294.94 60.68 L290.53 57.17 L290.19 56.89 L295.24 54.58 L295.12 46.55 L295.18 46.48 L295.14 42.63 L295.13 42.64 L295.09 39.82 L290.91 41.22 L290.22 39.09 L290.01 38.44 L288.98 35.24 L288.86 34.88 L288.63 34.15 L288.54 33.86 L286.04 34.54 L285.82 34.59 L285.56 34.66 L285.34 34.73 L281.79 35.72 L278.3 33.76 L272.7 30.56 L272.46 30.42 L274.61 33.14 L276.23 35.17 L277.84 37.21 L279.59 41.75 L281.3 46.31 L281.33 46.37 L281.29 46.47 L281.34 46.47 L281.68 50.66 L282 54.84 L281.93 54.87 L281.93 54.89 L281.96 55.14 L281.99 55.48 L282.02 55.83 L282.06 56.19 L282.09 56.56 L282.13 56.92 L282.16 57.27 L282.19 57.62 L282.22 57.9 L282.25 58.28 L282.28 58.61 L282.32 58.99 L282.35 59.29 L282.35 59.3 L282.41 60.03 L282.55 61.52 L282.63 61.55 L284.11 62.06 L285.6 62.59 L285.65 62.6 L285.82 62.67 L289.29 63.86 L292.07 63.03 L295.55 61.98 L295.6 61.2 L294.94 60.68 z" class="polygon_1" style="fill:#571D6D;" />
      <path d="M204.52 83.9 L202.74 82.22 L202.53 82.29 L201.44 82.66 L199.27 83.4 L197.31 82.9 L195.46 82.43 L194.99 82.32 L191.17 81.35 L190.54 81.2 L184.26 83.7 L183.46 86.88 L183.11 88.3 L182.32 91.44 L184.54 96.01 L183.57 99.42 L183.5 99.67 L182.3 100.48 L181.18 101.24 L181.38 102.49 L181.39 102.5 L181.39 102.52 L181.4 102.52 L181.72 104.31 L181.09 106.54 L179.62 111.66 L179.55 111.74 L179.55 111.77 L179.1 113.34 L178.78 114.46 L179.52 114.57 L179.6 114.51 L184.86 115.32 L185 115.89 L185.31 117.11 L185.86 119.32 L186.85 123.34 L186.18 123.56 L185.56 123.77 L183.67 124.38 L182.46 124.78 L182.21 125.28 L182.29 125.31 L182.05 125.55 L184.69 128.61 L187.34 130.98 L187.33 130.86 L190.6 133.93 L200.61 135.47 L203.72 134.12 L204.29 133.93 L208.02 132.36 L214.7 134.2 L219.42 132.34 L222.24 131.24 L222.24 131.17 L223.18 130.8 L224.19 130.39 L224.68 130.2 L228.4 126.5 L227.51 125.15 L226.92 124.24 L226.89 124.21 L226.35 123.37 L225.84 122.6 L225.81 122.56 L227.49 117.26 L227.33 117.05 L225.66 114.83 L225.83 113.86 L225.94 113.23 L226.06 112.55 L226.53 109.98 L226.59 109.64 L226.78 108.57 L226.81 108.45 L221.54 107.3 L220.99 107.18 L220.83 107.14 L219.96 106.95 L219.94 105.33 L219.93 104.69 L219.93 103.54 L219.84 103.43 L219.74 103.31 L219.34 102.83 L219.42 102.75 L216.86 99.7 L216.62 99.41 L216.39 99.13 L215.97 98.4 L215.02 96.72 L214.84 96.62 L214.39 95.81 L213.08 93.46 L213.07 93.45 L211.59 90.8 L211.39 90.44 L210.84 89.91 L209.37 88.5 L204.52 83.9 z" class="polygon_1" style="fill:#571D6D;" />
    </g>
    <g id="SiteLine" style="fill:none;" />
    <g id="SitePoint">
      <circle cx="109.4658" cy="129.5148" r="6" id="Dam_S2090" style="fill:#BDDB84;stroke:#97AC6E;">
        <title>翡翠水庫一 ：貧養 (32)</title>
      </circle>
      <circle cx="163" cy="160" r="6" id="Dam_S2091" style="fill:#BDDB84;stroke:#97AC6E;">
        <title>翡翠水庫二 ：貧養 (34)</title>
      </circle>
      <circle cx="249" cy="144" r="6" id="Dam_S2092" style="fill:#BDDB84;stroke:#97AC6E;">
        <title>翡翠水庫三 ：貧養 (34)</title>
      </circle>
      <circle cx="264" cy="71" r="6" id="Dam_S2093" style="fill:#BDDB84;stroke:#97AC6E;">
        <title>翡翠水庫四 ：貧養 (36)</title>
      </circle>
      <circle cx="305" cy="61" r="6" id="Dam_S2094" style="fill:#BDDB84;stroke:#97AC6E;">
        <title>翡翠水庫五 ：貧養 (37)</title>
      </circle>
      <circle cx="261" cy="14" r="6" id="Dam_S2095" style="fill:#BDDB84;stroke:#97AC6E;">
        <title>翡翠水庫六 ：貧養 (36)</title>
      </circle>
    </g>
    <g id="Mark" class="Heilight">
      <g transform="translate(109.4658, 129.5148) translate(-14, -14)" id="gMark" class="HeilightTrans">
        <path d="M17.2 27.5 L17.2 23.4 L22.8 23.4 L23.3 23.4 L23.3 22.9 L23.3 17.3 L27.4 17.3 L27.4 27.6 L17.2 27.5 z M0.5 27.5 L0.5 17.2 L4.6 17.2 L4.6 22.8 L4.6 23.3 L5.1 23.3 L10.1 23.3 L10.1 27.4 L0.5 27.5 z M27.5 10.2 L23.4 10.2 L23.4 5.2 L23.4 4.6 L22.9 4.6 L17.3 4.6 L17.3 0.5 L27.6 0.5 L27.6 10.2 z M4.6 10.2 L0.5 10.2 L0.5 0.5 L10.2 0.5 L10.2 4.6 L5.2 4.6 L4.6 4.6 L4.6 5.1 L4.6 10.2 z" class="st0" style="fill:#FF800E;" />
        <path d="M17.7 27 L27 27 L27 17.7 L23.9 17.7 L23.9 22.8 L23.9 23.8 L22.9 23.8 L17.8 23.8 L17.8 27 M1 27 L9.7 27 L9.7 23.9 L5.1 23.9 L4.1 23.9 L4.1 22.9 L4.1 17.8 L1 17.8 L1 27 M27 9.7 L27 1 L17.7 1 L17.7 4.1 L22.8 4.1 L23.8 4.1 L23.8 5.1 L23.8 9.6 L27 9.6 M4.1 9.7 L4.1 5.1 L4.1 4.1 L5.1 4.1 L9.6 4.1 L9.6 1 L1 1 L1 9.7 L4.1 9.7 M28 28 L28 28 L28 28 L16.7 28 L16.7 22.9 L22.8 22.9 L22.8 16.8 L28 16.8 L28 28 L28 28 z M10.7 28 L10.7 28 L10.7 28 L0 28 L0 16.7 L5.1 16.7 L5.1 22.8 L10.6 22.8 L10.6 28 L10.7 28 z M28 10.7 L28 10.7 L28 10.7 L22.9 10.7 L22.9 5.1 L16.8 5.1 L16.8 0 L28 0 L28 10.7 L28 10.7 z M5.1 10.7 L5.1 10.7 L0 10.7 L0 0 L10.7 0 L10.7 5.1 L5.1 5.1 L5.1 10.7 L5.1 10.7 z" class="st1" style="fill:#B55600;" />
      </g>
    </g>
  </g>
</svg>