<?xml version="1.0" encoding="utf-8"?>
<!DOCTYPE svg PUBLIC "-//W3C//DTD SVG 1.1//EN" "http://www.w3.org/Graphics/SVG/1.1/DTD/svg11.dtd">
<svg width="575px" height="448px" viewBox="0, 0, 575, 448" class="svgDam" xmlns="http://www.w3.org/2000/svg" xmlns:xlink="http://www.w3.org/1999/xlink" xmlns:xml="http://www.w3.org/XML/1998/namespace" version="1.1">
  <g id="MapArea">
    <g id="Key_Area">
      <path d="M34.9 397.1 L0 406.33 L20.97 225.08 L74.71 226.22 L104.82 230.24 L119.19 226.87 L173.34 170.3 L175.85 142.35 L181.28 77.67 L219.24 2.32 L234.95 3.74 L240.25 0 L278.31 4.38 L281.71 15.98 L274.22 20.66 L274.52 29.87 L281.79 41.06 L285.36 51.98 L292.28 72.9 L288.04 102.32 L321.87 119.85 L349.77 121.89 L383.31 132.53 L404.81 133.67 L438.16 148.48 L460.69 150.67 L466.15 165.24 L489.42 154.15 L495.85 140.86 L497.28 155.43 L506.58 162.16 L505.3 170.82 L505.11 177 L493.27 195.31 L496.71 205.36 L506.42 216.88 L514.81 219.08 L529.66 222.63 L542.63 223.5 L552.25 229.61 L559.06 238.45 L573.07 250.65 L575 255.87 L558.09 259.98 L550.66 258.98 L543.07 254.02 L536.37 250.26 L520.97 251.45 L493.76 254.09 L477.95 250.53 L458.09 241.14 L450.01 239.09 L427.92 238.61 L419.94 246.96 L406.73 244.33 L393.17 241.68 L376.92 249.96 L368.88 258.16 L364.35 270.42 L353.76 281.74 L355.53 292.27 L349.43 302.44 L333.21 318.46 L311.58 328.39 L298.37 335.5 L286.69 349.52 L268.59 350.42 L257.26 350.24 L250.08 358.86 L253.11 366.71 L247.67 377.39 L247.53 377.74 L230.29 394.78 L223.99 400.24 L221.43 413.97 L218.25 433.84 L215.44 447.81 L207.03 442.13 L210.17 422.3 L207.5 407.44 L201.17 395.47 L188.61 391.43 L179.4 378.1 L169.3 374.77 L156.12 371.41 L140.46 379.24 L126.55 388.12 L65.5 393.1 L34.9 397.1 z" class="polygon_1" style="fill:#571D6D;" />
    </g>
    <g id="SiteLine" style="fill:none;" />
    <g id="SitePoint">
      <circle cx="191" cy="392" r="6" id="Dam_S2193" style="fill:#ECEBEA;stroke:#AAAAAA;">
        <title>興仁水庫 ：無檢測資料</title>
      </circle>
    </g>
    <g id="Mark" class="Heilight">
      <g transform="translate(191, 392) translate(-14, -14)" id="gMark" class="HeilightTrans">
        <path d="M17.2 27.5 L17.2 23.4 L22.8 23.4 L23.3 23.4 L23.3 22.9 L23.3 17.3 L27.4 17.3 L27.4 27.6 L17.2 27.5 z M0.5 27.5 L0.5 17.2 L4.6 17.2 L4.6 22.8 L4.6 23.3 L5.1 23.3 L10.1 23.3 L10.1 27.4 L0.5 27.5 z M27.5 10.2 L23.4 10.2 L23.4 5.2 L23.4 4.6 L22.9 4.6 L17.3 4.6 L17.3 0.5 L27.6 0.5 L27.6 10.2 z M4.6 10.2 L0.5 10.2 L0.5 0.5 L10.2 0.5 L10.2 4.6 L5.2 4.6 L4.6 4.6 L4.6 5.1 L4.6 10.2 z" class="st0" style="fill:#FF800E;" />
        <path d="M17.7 27 L27 27 L27 17.7 L23.9 17.7 L23.9 22.8 L23.9 23.8 L22.9 23.8 L17.8 23.8 L17.8 27 M1 27 L9.7 27 L9.7 23.9 L5.1 23.9 L4.1 23.9 L4.1 22.9 L4.1 17.8 L1 17.8 L1 27 M27 9.7 L27 1 L17.7 1 L17.7 4.1 L22.8 4.1 L23.8 4.1 L23.8 5.1 L23.8 9.6 L27 9.6 M4.1 9.7 L4.1 5.1 L4.1 4.1 L5.1 4.1 L9.6 4.1 L9.6 1 L1 1 L1 9.7 L4.1 9.7 M28 28 L28 28 L28 28 L16.7 28 L16.7 22.9 L22.8 22.9 L22.8 16.8 L28 16.8 L28 28 L28 28 z M10.7 28 L10.7 28 L10.7 28 L0 28 L0 16.7 L5.1 16.7 L5.1 22.8 L10.6 22.8 L10.6 28 L10.7 28 z M28 10.7 L28 10.7 L28 10.7 L22.9 10.7 L22.9 5.1 L16.8 5.1 L16.8 0 L28 0 L28 10.7 L28 10.7 z M5.1 10.7 L5.1 10.7 L0 10.7 L0 0 L10.7 0 L10.7 5.1 L5.1 5.1 L5.1 10.7 L5.1 10.7 z" class="st1" style="fill:#B55600;" />
      </g>
    </g>
  </g>
</svg>