<?xml version="1.0" encoding="utf-8"?>
<!DOCTYPE svg PUBLIC "-//W3C//DTD SVG 1.1//EN" "http://www.w3.org/Graphics/SVG/1.1/DTD/svg11.dtd">
<svg width="307px" height="510px" viewBox="0, 0, 307, 510" class="svgDam" xmlns="http://www.w3.org/2000/svg" xmlns:xlink="http://www.w3.org/1999/xlink" xmlns:xml="http://www.w3.org/XML/1998/namespace" version="1.1">
  <g id="MapArea">
    <g id="Key_Area">
      <path d="M37.06 154.78 L36.51 152.33 L13.01 110.34 L0 91.21 L0.47 88.75 L2.23 86.7 L5.25 83.82 L8.44 79.71 L10.89 76.43 L12.23 72.33 L10.4 64.17 L2.73 47.85 L32.46 31.33 L86.17 11 L153.52 0 L157.19 1.62 L160.97 6.09 L175.08 15.01 L180.26 18.25 L219.51 40.94 L223.77 66.67 L223.53 93.66 L230.9 153.71 L233.54 174.96 L233.93 178.23 L232.35 215.45 L221.81 259.26 L208.21 294.07 L220.89 304.64 L302.17 323.82 L306.66 347.92 L195.66 332.99 L195.26 335.03 L196.55 342.39 L195.9 344.44 L193.09 346.09 L189.08 347.34 L184.66 346.95 L177.33 345.36 L171.27 344.16 L164.98 344.61 L157.36 350.94 L150.64 359.81 L145.84 366.79 L139.49 378.68 L136.47 387.29 L138.74 404.04 L140.22 408.53 L142.59 411.38 L146.77 412.17 L152.2 412.14 L156.18 412.94 L159.24 415.38 L160.4 419.05 L160.57 421.09 L159.8 424.78 L154.55 427.26 L151.94 427.27 L143.32 424.46 L132.73 427.79 L125.28 430.28 L122.97 433.97 L122.68 439.29 L121.34 442.57 L118.18 445.84 L114.52 448.32 L104.17 452.05 L96.76 454.96 L81.47 461.99 L78.22 467.32 L70.79 481.68 L57.14 505.47 L54.97 507.93 L50.69 510 L50.03 507.14 L50.09 503.87 L51.57 498.55 L59.94 481.74 L62.14 476.82 L66.75 457.16 L71.88 445.69 L79.45 436.67 L83.15 433.38 L83.38 428.88 L82.26 424.38 L80.67 421.53 L77.48 419.1 L75.91 416.65 L76.69 414.19 L79.43 412.13 L86.37 408.42 L88.7 407.18 L93.22 402.24 L97.07 396.09 L96.86 393.23 L94.51 389.97 L89.3 387.14 L86.26 387.56 L84.28 389.62 L83.41 396.98 L79.15 403.14 L71.63 408.5 L61.27 415.91 L55.79 417.58 L50.43 417.61 L48.53 414.76 L46.78 410.68 L45.47 405.78 L45.84 399.64 L48.04 394.71 L55.07 386.1 L59.77 382.39 L60.55 379.93 L59.8 377.89 L57.01 375.01 L55.53 368.92 L56.98 364.01 L60.71 361.53 L64.23 361.11 L69.71 361.73 L73.46 362.28 L84.52 365.9 L89.76 364.24 L92.04 363 L92.9 361.36 L94.48 336 L94.53 334.36 L99.59 331.06 L109.64 328.14 L114.92 326.89 L120.03 322.77 L129.23 315.36 L130.69 312.49 L129.79 308.41 L121.29 298.23 L82.65 280.86 L45.07 259.12 L31.45 242.72 L24.2 229.27 L22.48 226.01 L19.46 216.21 L23.08 200.24 L40.89 180.93 L41.72 174.79 L37.06 154.78 z" class="polygon_1" style="fill:#571D6D;" />
    </g>
    <g id="SiteLine" style="fill:none;" />
    <g id="SitePoint">
      <circle cx="144" cy="274" r="6" id="Dam_S2111" style="fill:#ECEBEA;stroke:#AAAAAA;">
        <title>菱湖水庫 ：無檢測資料</title>
      </circle>
    </g>
    <g id="Mark" class="Heilight">
      <g transform="translate(144, 274) translate(-14, -14)" id="gMark" class="HeilightTrans">
        <path d="M17.2 27.5 L17.2 23.4 L22.8 23.4 L23.3 23.4 L23.3 22.9 L23.3 17.3 L27.4 17.3 L27.4 27.6 L17.2 27.5 z M0.5 27.5 L0.5 17.2 L4.6 17.2 L4.6 22.8 L4.6 23.3 L5.1 23.3 L10.1 23.3 L10.1 27.4 L0.5 27.5 z M27.5 10.2 L23.4 10.2 L23.4 5.2 L23.4 4.6 L22.9 4.6 L17.3 4.6 L17.3 0.5 L27.6 0.5 L27.6 10.2 z M4.6 10.2 L0.5 10.2 L0.5 0.5 L10.2 0.5 L10.2 4.6 L5.2 4.6 L4.6 4.6 L4.6 5.1 L4.6 10.2 z" class="st0" style="fill:#FF800E;" />
        <path d="M17.7 27 L27 27 L27 17.7 L23.9 17.7 L23.9 22.8 L23.9 23.8 L22.9 23.8 L17.8 23.8 L17.8 27 M1 27 L9.7 27 L9.7 23.9 L5.1 23.9 L4.1 23.9 L4.1 22.9 L4.1 17.8 L1 17.8 L1 27 M27 9.7 L27 1 L17.7 1 L17.7 4.1 L22.8 4.1 L23.8 4.1 L23.8 5.1 L23.8 9.6 L27 9.6 M4.1 9.7 L4.1 5.1 L4.1 4.1 L5.1 4.1 L9.6 4.1 L9.6 1 L1 1 L1 9.7 L4.1 9.7 M28 28 L28 28 L28 28 L16.7 28 L16.7 22.9 L22.8 22.9 L22.8 16.8 L28 16.8 L28 28 L28 28 z M10.7 28 L10.7 28 L10.7 28 L0 28 L0 16.7 L5.1 16.7 L5.1 22.8 L10.6 22.8 L10.6 28 L10.7 28 z M28 10.7 L28 10.7 L28 10.7 L22.9 10.7 L22.9 5.1 L16.8 5.1 L16.8 0 L28 0 L28 10.7 L28 10.7 z M5.1 10.7 L5.1 10.7 L0 10.7 L0 0 L10.7 0 L10.7 5.1 L5.1 5.1 L5.1 10.7 L5.1 10.7 z" class="st1" style="fill:#B55600;" />
      </g>
    </g>
  </g>
</svg>