<?xml version="1.0" encoding="utf-8"?>
<!DOCTYPE svg PUBLIC "-//W3C//DTD SVG 1.1//EN" "http://www.w3.org/Graphics/SVG/1.1/DTD/svg11.dtd">
<svg width="549px" height="510px" viewBox="0, 0, 549, 510" class="svgDam" xmlns="http://www.w3.org/2000/svg" xmlns:xlink="http://www.w3.org/1999/xlink" xmlns:xml="http://www.w3.org/XML/1998/namespace" version="1.1">
  <g id="MapArea">
    <g id="Key_Area">
      <path d="M409.28 140.7 L411.9 140.27 L414.57 126.48 L413.54 122.19 L408.85 112.39 L402.05 101.38 L392.74 85.48 L383.34 70.31 L378.57 61 L379.36 53.04 L381.26 48.13 L385.56 45.03 L399.72 34.76 L428.04 14.31 L430.73 13 L445.18 8.29 L469.84 0 L471.42 6.2 L490.79 2.86 L495.82 4.54 L502.1 8.52 L506.9 14.82 L509.93 19.93 L524.41 22.48 L542.93 7.57 L548.16 14.54 L528.08 28.22 L527.75 44.55 L541.96 62.33 L524.15 75.75 L513.07 84.57 L497.05 106.43 L473.73 131.28 L444.67 150.14 L419.29 158.56 L409.28 140.7 z" class="polygon_1" style="fill:#174917;" />
      <path d="M412.63 162.72 L411.27 163.42 L410.09 164.51 L408.6 166.16 L407.24 168.05 L404.91 168.69 L396.6 170.74 L389.54 172.17 L389.65 173.86 L390.21 175.83 L390.11 177.88 L389.66 179.22 L389.55 181.92 L378.36 184.34 L368.97 186.48 L360.28 187.37 L342.91 188.53 L329.82 188.69 L326.74 188.32 L309.33 185.67 L289.84 182.86 L267.33 180.05 L245.93 177.64 L227.9 176.86 L218.22 176.57 L206.38 177.29 L198.16 177.78 L191.76 178.75 L184.52 180.49 L175.3 182.06 L160.44 187.95 L140.2 195.65 L111.25 200.19 L82.4 210.47 L49.63 224.54 L42.19 227.15 L26.77 224.07 L25.89 226.28 L13.25 222.7 L14.86 218.68 L14.83 217.45 L14.29 216.53 L6.55 213.56 L6.76 209.86 L10.22 201.16 L27.01 188.29 L31.19 185.15 L37.68 176.58 L62.3 148.51 L70.66 144.51 L74.83 139.46 L78.08 138.68 L81.57 138.69 L82.06 139.68 L81.22 141.51 L79.66 143.13 L79.19 145.5 L79.62 147.97 L81.47 151.85 L85.01 154.28 L88.81 156.06 L90.81 156.59 L100.12 156.41 L105.34 155.47 L110.02 153.3 L113.17 151.95 L127.67 140.82 L133.49 130.78 L140.33 126.5 L158.2 114.6 L189.31 100.49 L194.37 97.62 L206.03 92.62 L227.7 90.19 L281.47 87.18 L298.84 86.48 L302.4 84.69 L311.26 81.56 L314.95 80.22 L318.64 79.57 L324.48 79.19 L329.71 79.54 L333.31 80.76 L338.79 82.39 L344.42 84.99 L359.11 96.71 L383.96 136.93 L386.23 137.79 L388.66 138.22 L391.45 139.26 L395.37 140.8 L399.49 143.18 L402.07 142.89 L413.25 162.59 L412.63 162.72 z" class="polygon_1" style="fill:#174917;" />
      <path d="M9.55 228.35 L23.21 232.18 L23.38 233.6 L56.77 242.66 L73.32 312.6 L80.33 334.73 L92.7 376.76 L94.61 382.16 L98.43 395.51 L100.21 405.08 L106.75 435.03 L109.39 457.33 L111.9 484.51 L111.04 490.29 L106.41 494.65 L83.13 500.27 L42.14 510 L33.79 478.34 L31.77 472.12 L29.31 464.16 L29.92 457.85 L30.6 454.93 L31.17 447.96 L49.31 421.97 L45.68 409.41 L38.66 383.21 L29.06 346.12 L0 235.81 L1.48 231.7 L6.92 233.12 L9.55 228.35 z" class="polygon_1" style="fill:#174917;" />
    </g>
    <g id="SiteLine" style="fill:none;" />
    <g id="SitePoint">
      <circle cx="287" cy="145" r="6" id="Dam_S2110" style="fill:#ECEBEA;stroke:#AAAAAA;">
        <title>蓮湖水庫 ：無檢測資料</title>
      </circle>
    </g>
    <g id="Mark" class="Heilight">
      <g transform="translate(287, 145) translate(-14, -14)" id="gMark" class="HeilightTrans">
        <path d="M17.2 27.5 L17.2 23.4 L22.8 23.4 L23.3 23.4 L23.3 22.9 L23.3 17.3 L27.4 17.3 L27.4 27.6 L17.2 27.5 z M0.5 27.5 L0.5 17.2 L4.6 17.2 L4.6 22.8 L4.6 23.3 L5.1 23.3 L10.1 23.3 L10.1 27.4 L0.5 27.5 z M27.5 10.2 L23.4 10.2 L23.4 5.2 L23.4 4.6 L22.9 4.6 L17.3 4.6 L17.3 0.5 L27.6 0.5 L27.6 10.2 z M4.6 10.2 L0.5 10.2 L0.5 0.5 L10.2 0.5 L10.2 4.6 L5.2 4.6 L4.6 4.6 L4.6 5.1 L4.6 10.2 z" class="st0" style="fill:#FF800E;" />
        <path d="M17.7 27 L27 27 L27 17.7 L23.9 17.7 L23.9 22.8 L23.9 23.8 L22.9 23.8 L17.8 23.8 L17.8 27 M1 27 L9.7 27 L9.7 23.9 L5.1 23.9 L4.1 23.9 L4.1 22.9 L4.1 17.8 L1 17.8 L1 27 M27 9.7 L27 1 L17.7 1 L17.7 4.1 L22.8 4.1 L23.8 4.1 L23.8 5.1 L23.8 9.6 L27 9.6 M4.1 9.7 L4.1 5.1 L4.1 4.1 L5.1 4.1 L9.6 4.1 L9.6 1 L1 1 L1 9.7 L4.1 9.7 M28 28 L28 28 L28 28 L16.7 28 L16.7 22.9 L22.8 22.9 L22.8 16.8 L28 16.8 L28 28 L28 28 z M10.7 28 L10.7 28 L10.7 28 L0 28 L0 16.7 L5.1 16.7 L5.1 22.8 L10.6 22.8 L10.6 28 L10.7 28 z M28 10.7 L28 10.7 L28 10.7 L22.9 10.7 L22.9 5.1 L16.8 5.1 L16.8 0 L28 0 L28 10.7 L28 10.7 z M5.1 10.7 L5.1 10.7 L0 10.7 L0 0 L10.7 0 L10.7 5.1 L5.1 5.1 L5.1 10.7 L5.1 10.7 z" class="st1" style="fill:#B55600;" />
      </g>
    </g>
  </g>
</svg>