<?xml version="1.0" encoding="utf-8"?>
<!DOCTYPE svg PUBLIC "-//W3C//DTD SVG 1.1//EN" "http://www.w3.org/Graphics/SVG/1.1/DTD/svg11.dtd">
<svg width="508px" height="510px" viewBox="0, 0, 508, 510" class="svgDam" xmlns="http://www.w3.org/2000/svg" xmlns:xlink="http://www.w3.org/1999/xlink" xmlns:xml="http://www.w3.org/XML/1998/namespace" version="1.1">
  <g id="MapArea">
    <g id="Key_Area">
      <path d="M158.39 33.29 L164.41 35.24 L170.69 33.24 L173.77 32.81 L178.25 34.34 L180.64 38.13 L181.34 40.24 L183.58 41.36 L184.16 45.57 L180.96 51.07 L178.59 53.61 L175.94 54.33 L175.8 55.31 L178.88 55.72 L181.83 58.95 L182.41 64.71 L186.35 72.01 L187.2 73.84 L186.79 76.79 L187.91 78.76 L194.91 81.55 L198.14 83.08 L201.36 86.31 L201.51 88.56 L202.64 89.96 L214.65 85.7 L222.05 83 L230.58 83.11 L237.56 80.69 L239.88 80.39 L240.02 77.49 L241.38 76.41 L247.91 74.86 L249.88 72.72 L253.06 70.72 L258.38 71 L263.39 70.07 L265.2 67.77 L267.46 60.27 L270.78 55.52 L272.75 53.22 L274.88 54.28 L276.87 57.49 L280.07 61.75 L284.92 58.99 L294.17 52.07 L311.92 46.05 L318.6 44.34 L326.04 43.55 L330.6 42.77 L338.81 44.27 L340.03 46.56 L341.71 47.47 L351.74 48.81 L354.47 46.66 L357.04 44.82 L361.61 45.87 L363.42 44.34 L364.31 38.83 L364.77 38.37 L365.23 38.52 L367.68 44.93 L370.27 46.3 L374.37 45.37 L375.87 39.86 L377.38 37.87 L379.2 37.25 L381.49 40.6 L383.47 41.36 L390.31 44.09 L393.66 44.84 L395.94 45.44 L397.46 44.98 L398.21 42.22 L403.96 37.16 L409.26 31.94 L412.91 30.71 L415.95 31 L417.62 33.29 L418.1 38.03 L419.02 41.84 L421.47 46.11 L424.36 47.02 L428 45.79 L430.12 42.72 L431.63 41.03 L434.36 39.65 L435.58 40.26 L435.9 45.45 L437.73 47.74 L440.62 48.95 L442.75 48.18 L443.35 45.73 L446.38 44.04 L447.29 44.34 L448.06 47.85 L448.98 49.23 L452.47 49.37 L454.29 47.68 L456.41 45.84 L459.3 44.76 L461.58 47.19 L465.54 48.4 L469.55 52.57 L474.33 59.95 L478.04 63.5 L480.72 66.21 L482.81 67.19 L490.28 69.13 L495.8 69.85 L499.59 68.97 L503.26 67.64 L507.02 68.42 L507.66 70.53 L506.86 72.91 L505.72 74.12 L502.11 75.77 L494.96 76.67 L481.57 75.89 L473.64 74.47 L472.21 73.86 L469.36 72.63 L462.77 71.48 L460.76 71.96 L452.86 72.45 L449.37 74.29 L449.39 79.03 L447.58 82.4 L443.94 85.78 L443.8 88.07 L444.57 91.43 L444.58 93.57 L445.35 96.32 L453.14 109.13 L452.4 114.48 L452.41 117.38 L450.75 119.38 L450.59 118.77 L448.3 116.33 L447.24 116.79 L446.04 121.53 L436.81 131.04 L434.84 131.97 L433.02 132.89 L431.65 132.9 L430.89 131.98 L431.03 130.45 L433.75 125.09 L436.01 118.36 L435.39 115.15 L430.18 104.62 L425.61 101.13 L424.54 97.61 L423.93 96.55 L420.58 97.02 L414.81 96.73 L412.84 99.49 L409.51 102.71 L407.4 106.69 L407.27 111.74 L403.65 121.53 L403.67 126.88 L399.88 129.19 L395.18 129.97 L391.22 128.61 L389.09 128.46 L386.19 122.36 L384.2 120.84 L384.35 118.7 L385.56 116.55 L385.54 110.44 L382.94 105.86 L378.51 100.53 L373.49 99.32 L371.07 100.25 L362.12 105.17 L359.54 104.88 L357.13 102.64 L347.45 96.96 L345.43 97.1 L342.79 98.06 L340.4 101.12 L340.29 105.05 L341.24 108.48 L343.53 111.33 L347.83 114.23 L350.94 118.03 L352.15 121.96 L352.04 126.6 L350.47 129.46 L346.51 134.68 L345 135.83 L341.91 136.54 L340.21 136.17 L339.19 135.28 L334.82 131.17 L331.4 127.06 L325.83 121.93 L323.68 120.54 L312.37 118.93 L309.09 118.37 L308.14 118.88 L308.15 119.77 L309.17 122.75 L309.3 125.55 L308.12 128.66 L306.36 131.08 L303.27 133.63 L300.06 134.28 L297.09 134.42 L292.61 134.05 L290.65 133.68 L287.49 132.23 L283.82 129.13 L279.9 128.13 L277.19 128.77 L274.42 130.5 L273.16 132.47 L267.89 142.08 L267.08 144.88 L268.42 147.35 L270 149.37 L274.43 150.56 L279.73 150.23 L281.18 151.05 L282.26 153.84 L282.72 157.33 L285.44 158.46 L286.39 159.79 L287.47 162.39 L287.16 164.74 L286.73 166.65 L287.37 169.57 L287.06 170.71 L286.01 172.86 L283.44 174.11 L272.23 177.09 L270.89 177.77 L269.78 179.58 L268.66 181.27 L265.18 181.06 L258.12 181.88 L253.98 183.7 L249.83 184.39 L245.68 183.05 L243.2 180.46 L238.45 170.1 L234.51 164.81 L230.35 162.57 L228.11 164.27 L224.86 165.3 L221.61 165.08 L219.36 163.63 L198.34 149.82 L195.9 148.89 L194.89 149.66 L192.56 152.84 L191.19 153 L187.47 151.88 L181.96 148.32 L180.17 147.35 L175.16 147.53 L170.92 146.5 L166.34 143.34 L163.18 140.01 L162.2 139.69 L161.24 140.67 L160.14 151.08 L157.26 157.84 L156.87 160.93 L158.66 165.72 L160.04 167.26 L163.28 167.98 L167.64 168.7 L173.47 170.63 L175.82 171.68 L176.87 173.22 L177.36 174.68 L175.61 180.95 L174.25 185.91 L172.73 189.01 L172.01 191.21 L171.77 192.18 L172.26 192.91 L173.71 193.23 L179.53 192.24 L182.44 192.06 L187.04 191.56 L193.26 190.64 L198.11 189.57 L202.79 186.87 L205.05 186.53 L207.07 187.34 L209.51 190.99 L213.24 193.82 L219.95 195.67 L224.81 197.77 L228.38 200.6 L231.14 204.33 L232.85 207.9 L233.34 210.66 L233.19 212.78 L231.66 215.06 L226.97 215.48 L213.72 215.94 L210.73 216.11 L207.75 218.64 L205.5 222.15 L204.67 224.73 L204.21 228.26 L203.34 230.66 L200.63 234.62 L197.66 236.72 L193.16 237.94 L189.71 237.32 L185.22 235.56 L182.81 235.57 L178.92 236.75 L171.55 236.13 L170.89 235.79 L167.88 236.15 L165.83 237.85 L165.6 238.95 L166.08 239.79 L166.09 242.7 L166.95 247.55 L167.2 249.85 L166.98 254.7 L167.95 256.64 L170 255.78 L171.92 254.2 L174.08 252.13 L176.85 251.52 L180.11 251.02 L183.24 251.73 L186.27 253.91 L187.48 256.33 L188.82 259.35 L190.29 267.35 L190.78 268.92 L192.35 269.16 L193.43 268.07 L194.87 265.88 L197.75 261.99 L200.27 258.22 L204.6 255.54 L207.25 255.41 L210.75 257.46 L211.6 259.39 L213.91 263.63 L215.98 269.08 L217.81 274.16 L218.78 276.1 L218.43 280.59 L218.56 282.65 L220.99 287.73 L221.54 288.08 L221.27 288.3 L222.29 290.25 L222.92 291.04 L222.76 292.15 L222.3 293.41 L222 298.14 L221.38 300.67 L219.06 309.2 L215.78 314.1 L214.07 317.42 L212.67 320.58 L211.26 322.64 L209.86 324.53 L208.3 327.38 L206.58 328.18 L205.01 328.81 L205.65 332.12 L210.22 337 L212.9 339.98 L213.17 340.46 L217.12 347.77 L215.04 349.24 L213.11 349.89 L210.54 351.19 L208.14 352.49 L207.68 352.84 L206.36 353.73 L206.06 354.07 L205.57 354.44 L204.29 356.39 L202.69 358.98 L202.57 359.19 L200.74 362.12 L199 360.61 L197.87 359.48 L195.12 355.13 L193.03 352.22 L192.23 350.95 L191.33 349.85 L190.6 348.84 L188.3 345.62 L188.08 345.8 L188.04 345.83 L187.94 346.04 L186.65 348.78 L185.75 349.23 L183.88 351.29 L180.76 357.61 L180.62 361.08 L179.84 362.51 L178.76 366.14 L176.09 367.57 L171.23 366.17 L162.57 359.1 L161.16 359.1 L159.44 361 L158.36 366.37 L158.39 373 L157.93 377.26 L157.15 379.31 L154.36 388.95 L154.37 390.52 L160.03 393.19 L162.39 395.54 L166.48 399.32 L170.89 403.72 L172.78 405.76 L176.57 411.9 L177.35 411.9 L178.45 412.52 L179.39 412.99 L180.49 413.46 L181.43 412.36 L182.08 411.83 L183.45 412.7 L184.37 413.26 L186.62 418.93 L187.65 421.74 L188.58 424.03 L188.58 426.23 L188.38 427.51 L186.12 433.35 L183.84 435.92 L181.61 437.66 L178.97 440.95 L177.96 442.28 L176.44 442.7 L171.41 445.73 L168.82 447.07 L166.89 448.2 L165.32 449.03 L163.29 449.6 L161.36 450.07 L159.17 450.94 L155.77 452.39 L155.11 452.7 L154.4 453.62 L153.74 454.8 L152.99 456.08 L151.01 457.21 L150.7 457.62 L150.66 459.52 L150.46 460.69 L150.82 462.33 L150.98 463.45 L150.98 464.68 L150.38 465.76 L149.36 466.48 L148.24 467.15 L150.8 470.72 L149.94 471.44 L147.5 473.44 L145.78 474.93 L144.46 476.06 L143.55 476.78 L142.69 477.86 L142.49 478.68 L142.9 479.75 L143 480.41 L144.12 480.87 L143.52 482.51 L141.94 482.62 L140.52 482.47 L139.76 482.67 L138.43 482.37 L137.52 482.07 L136.65 481.71 L135.73 481.72 L135.23 482.08 L134.56 481.82 L133.95 481.62 L133.24 481.27 L133.04 481.62 L132.74 482.34 L132.99 483.01 L133.15 483.67 L133.76 483.82 L133.86 483.97 L133.86 484.59 L133.35 484.59 L133.1 484.95 L132.85 485.41 L132.9 485.92 L132.8 486.74 L132.24 487.31 L131.69 487.72 L130.72 487.62 L129.96 487.36 L129.5 487.57 L129.3 487.98 L128.94 488.44 L128.44 488.65 L128.08 488.65 L127.88 488.96 L128.13 489.37 L128.49 489.62 L128.29 490.03 L127.88 490.24 L127.37 490.29 L126.86 489.93 L126.15 489.83 L125.44 489.58 L125.03 489.79 L124.73 490.61 L124.73 491.58 L124.63 492.04 L124.33 492.24 L124.48 492.65 L124.89 492.65 L124.99 492.91 L124.74 493.21 L124.54 493.68 L124.23 494.19 L123.98 495.01 L123.83 496.18 L124.5 497 L125.01 497.61 L124.65 498.07 L124.55 498.64 L124.56 499.46 L124.15 500.22 L123.44 500.33 L122.73 500.23 L121.86 499.72 L121.15 499.16 L120.69 498.65 L119.98 497.99 L119.41 497.48 L118.55 497.28 L117.84 497.13 L117.38 496.57 L116.92 496.06 L116.46 496.31 L116.46 496.83 L116.11 497.64 L115.7 498.26 L114.99 498.62 L114.23 498.98 L113.06 498.83 L112.09 498.84 L111.13 498.74 L110.57 498.53 L110.11 498.08 L109.24 498.18 L108.48 498.18 L108.28 498.44 L107.26 498.14 L106.7 497.78 L106.04 497.17 L105.47 496.66 L104.86 496.66 L104.97 497.12 L104.82 497.63 L104.56 497.99 L104.97 498.5 L105.43 499.17 L105.69 499.58 L105.95 500.19 L105.59 500.7 L105.13 500.45 L103.81 499.07 L101.51 496.68 L98.49 493.21 L94.97 489.23 L88.23 481.89 L85.94 482.51 L82.03 483.91 L79.68 481.51 L79.88 481.23 L82.07 483.28 L88.06 481.31 L88.47 477.39 L80.51 469.34 L78.12 471.54 L78.84 472.36 L76.3 474.47 L75.49 473.55 L74.73 472.27 L74.05 470.57 L73.57 469.55 L71.19 466.42 L69.9 466.97 L67.26 468.34 L66.38 469.17 L65.51 470.87 L64.97 472.1 L64.64 473.6 L64.04 476.4 L62.9 480.36 L61.89 483.84 L60.96 487.53 L60.89 488.89 L61.31 490.39 L61.79 491.82 L61.59 493.6 L62.27 493.94 L62.81 494.62 L63.29 495.09 L63.16 496.05 L62.75 497.14 L62.96 498.44 L63.31 500.41 L63.99 502.18 L65.15 504.09 L66.78 505.31 L68.35 505.78 L68.96 505.85 L69.91 506.25 L71.27 506.93 L70.94 510 L69.17 509.05 L67.34 507.69 L65.7 506.61 L63.87 505.25 L62.57 502.26 L62.09 500.96 L61.95 499.33 L61.67 497.28 L60.38 496.19 L60.3 493.06 L59.95 491.69 L59.2 489.17 L58.99 487.54 L59.45 484.54 L62.2 474.98 L62.6 472.18 L62.39 470.82 L62.04 469.18 L61.15 467.21 L54.11 450.11 L53.82 446.36 L51.36 439.49 L44.24 421.03 L35.89 400.05 L29.6 385.35 L22.29 371.73 L19.82 363.35 L18.46 361.86 L16.68 358.25 L15.51 353.68 L13.86 347.82 L12.84 346.46 L10.8 343.74 L9.22 339.59 L8.33 337.48 L7.92 335.91 L7.78 334.41 L7.84 331.61 L8.1 329.77 L8.7 327.93 L9.31 326.22 L10.51 322.4 L11.85 315.64 L10.54 309.51 L10.93 305.96 L10.7 299.21 L10.54 291.98 L10.05 288.37 L8.68 284.76 L7.18 281.08 L5.81 277.95 L2.81 273.39 L1.51 271.28 L1.49 271.3 L1.37 270.86 L1.43 270.82 L0 269.67 L2.1 264.3 L3.53 259.75 L5.23 255.47 L6.13 253.01 L7.38 250.37 L9.9 245.45 L11.43 243.35 L12.77 240.98 L17.99 232.23 L19.25 230.41 L21.05 227.85 L24.37 222.57 L27.98 219.28 L29.24 217.46 L35.35 208.89 L42.01 198.22 L44.79 193.76 L47.95 191.2 L50.65 187.64 L56.95 178.71 L56.66 179 L57.51 177.92 L58.36 176.48 L59.84 177.26 L62.69 177.68 L66.42 177.17 L70.21 174.82 L72.15 165.9 L77.27 143.15 L78.04 136 L76.53 128.06 L82.82 91.78 L86.01 86.8 L91.43 84.3 L91.42 81.57 L90.43 79.09 L92.15 76.6 L91.15 73.13 L91.13 70.15 L93.84 66.66 L97.53 63.67 L99.96 53.48 L105.38 50.23 L105.6 43.52 L109.05 39.78 L113.48 36.79 L116.9 26.1 L119.85 22.86 L121.97 18.09 L125.32 15.82 L132.29 8.06 L141.91 0.29 L144.14 0 L145.4 0.56 L143.88 3.94 L142.36 8.45 L142.37 11.26 L143.49 13.51 L146.44 15.47 L146.73 19.26 L147.17 24.75 L150.26 29.94 L158.39 33.29 z" class="polygon_1" style="fill:#571D6D;" />
    </g>
    <g id="SiteLine" style="fill:none;" />
    <g id="SitePoint">
      <circle cx="122" cy="380" r="6" id="Dam_S2156" style="fill:#D3DD18;stroke:#8E9504;">
        <title>蘭潭水庫一 ：普養 (50)</title>
      </circle>
      <circle cx="105" cy="287" r="6" id="Dam_S2157" style="fill:#74B24E;stroke:#365B1F;">
        <title>蘭潭水庫二 ：優養 (51)</title>
      </circle>
      <circle cx="106" cy="210" r="6" id="Dam_S2158" style="fill:#74B24E;stroke:#365B1F;">
        <title>蘭潭水庫三 ：優養 (52)</title>
      </circle>
    </g>
    <g id="Mark" class="Heilight">
      <g transform="translate(122, 380) translate(-14, -14)" id="gMark" class="HeilightTrans">
        <path d="M17.2 27.5 L17.2 23.4 L22.8 23.4 L23.3 23.4 L23.3 22.9 L23.3 17.3 L27.4 17.3 L27.4 27.6 L17.2 27.5 z M0.5 27.5 L0.5 17.2 L4.6 17.2 L4.6 22.8 L4.6 23.3 L5.1 23.3 L10.1 23.3 L10.1 27.4 L0.5 27.5 z M27.5 10.2 L23.4 10.2 L23.4 5.2 L23.4 4.6 L22.9 4.6 L17.3 4.6 L17.3 0.5 L27.6 0.5 L27.6 10.2 z M4.6 10.2 L0.5 10.2 L0.5 0.5 L10.2 0.5 L10.2 4.6 L5.2 4.6 L4.6 4.6 L4.6 5.1 L4.6 10.2 z" class="st0" style="fill:#FF800E;" />
        <path d="M17.7 27 L27 27 L27 17.7 L23.9 17.7 L23.9 22.8 L23.9 23.8 L22.9 23.8 L17.8 23.8 L17.8 27 M1 27 L9.7 27 L9.7 23.9 L5.1 23.9 L4.1 23.9 L4.1 22.9 L4.1 17.8 L1 17.8 L1 27 M27 9.7 L27 1 L17.7 1 L17.7 4.1 L22.8 4.1 L23.8 4.1 L23.8 5.1 L23.8 9.6 L27 9.6 M4.1 9.7 L4.1 5.1 L4.1 4.1 L5.1 4.1 L9.6 4.1 L9.6 1 L1 1 L1 9.7 L4.1 9.7 M28 28 L28 28 L28 28 L16.7 28 L16.7 22.9 L22.8 22.9 L22.8 16.8 L28 16.8 L28 28 L28 28 z M10.7 28 L10.7 28 L10.7 28 L0 28 L0 16.7 L5.1 16.7 L5.1 22.8 L10.6 22.8 L10.6 28 L10.7 28 z M28 10.7 L28 10.7 L28 10.7 L22.9 10.7 L22.9 5.1 L16.8 5.1 L16.8 0 L28 0 L28 10.7 L28 10.7 z M5.1 10.7 L5.1 10.7 L0 10.7 L0 0 L10.7 0 L10.7 5.1 L5.1 5.1 L5.1 10.7 L5.1 10.7 z" class="st1" style="fill:#B55600;" />
      </g>
    </g>
  </g>
</svg>