<?xml version="1.0" encoding="utf-8"?>
<!DOCTYPE svg PUBLIC "-//W3C//DTD SVG 1.1//EN" "http://www.w3.org/Graphics/SVG/1.1/DTD/svg11.dtd">
<svg width="399px" height="510px" viewBox="0, 0, 319, 510" class="svgDam" xmlns="http://www.w3.org/2000/svg" xmlns:xlink="http://www.w3.org/1999/xlink" xmlns:xml="http://www.w3.org/XML/1998/namespace" version="1.1">
  <g id="MapArea">
    <g id="Key_Area">
      <path d="M304.41 154.65 L300.36 185.68 L291.85 279.08 L290.1 296.71 L285.37 340.19 L280.63 382.41 L278.85 391.59 L276.16 400.22 L263.77 423.77 L256.53 436.28 L241.3 453.78 L213.18 482.7 L199.03 496.89 L182.67 510 L179.55 505.23 L175.01 508.38 L132.68 456.82 L87.78 402.17 L64.69 373.48 L23.64 324.49 L0 296.36 L19.21 269.85 L21.92 266.53 L16.78 258.31 L17.67 252.62 L19.6 237.57 L22.68 233.7 L34.54 234.93 L48.22 237.62 L61.89 237.56 L66.8 233.86 L73.5 223.75 L76.4 220.25 L81.47 213.44 L97.85 207.86 L95.99 200.16 L93.09 201.09 L92.53 199.26 L97.44 197.78 L98.72 197.03 L123.88 157.85 L134 137.25 L133.44 134.32 L129.33 111.4 L134.6 109 L125.2 84.27 L121.91 82.27 L120.43 79.53 L118.96 76.59 L131.7 69.75 L182.7 44.01 L213.26 28.29 L251.64 9.22 L271.66 1.97 L283.68 0.09 L303.19 0 L308.12 1.81 L313.97 8.03 L318.11 17.19 L312.3 83.06 L305.11 147.31 L304.41 154.65 z" class="polygon_1" style="fill:#347523;" />
    </g>
    <g id="SiteLine" style="fill:none;" />
    <g id="SitePoint">
      <circle cx="-24" cy="262" r="6" id="Dam_S2209" style="fill:#ECEBEA;stroke:#AAAAAA;">
        <title>蘭湖水庫 ：無檢測資料</title>
      </circle>
    </g>
    <g id="Mark" class="Heilight">
      <g transform="translate(-24, 262) translate(-14, -14)" id="gMark" class="HeilightTrans">
        <path d="M17.2 27.5 L17.2 23.4 L22.8 23.4 L23.3 23.4 L23.3 22.9 L23.3 17.3 L27.4 17.3 L27.4 27.6 L17.2 27.5 z M0.5 27.5 L0.5 17.2 L4.6 17.2 L4.6 22.8 L4.6 23.3 L5.1 23.3 L10.1 23.3 L10.1 27.4 L0.5 27.5 z M27.5 10.2 L23.4 10.2 L23.4 5.2 L23.4 4.6 L22.9 4.6 L17.3 4.6 L17.3 0.5 L27.6 0.5 L27.6 10.2 z M4.6 10.2 L0.5 10.2 L0.5 0.5 L10.2 0.5 L10.2 4.6 L5.2 4.6 L4.6 4.6 L4.6 5.1 L4.6 10.2 z" class="st0" style="fill:#FF800E;" />
        <path d="M17.7 27 L27 27 L27 17.7 L23.9 17.7 L23.9 22.8 L23.9 23.8 L22.9 23.8 L17.8 23.8 L17.8 27 M1 27 L9.7 27 L9.7 23.9 L5.1 23.9 L4.1 23.9 L4.1 22.9 L4.1 17.8 L1 17.8 L1 27 M27 9.7 L27 1 L17.7 1 L17.7 4.1 L22.8 4.1 L23.8 4.1 L23.8 5.1 L23.8 9.6 L27 9.6 M4.1 9.7 L4.1 5.1 L4.1 4.1 L5.1 4.1 L9.6 4.1 L9.6 1 L1 1 L1 9.7 L4.1 9.7 M28 28 L28 28 L28 28 L16.7 28 L16.7 22.9 L22.8 22.9 L22.8 16.8 L28 16.8 L28 28 L28 28 z M10.7 28 L10.7 28 L10.7 28 L0 28 L0 16.7 L5.1 16.7 L5.1 22.8 L10.6 22.8 L10.6 28 L10.7 28 z M28 10.7 L28 10.7 L28 10.7 L22.9 10.7 L22.9 5.1 L16.8 5.1 L16.8 0 L28 0 L28 10.7 L28 10.7 z M5.1 10.7 L5.1 10.7 L0 10.7 L0 0 L10.7 0 L10.7 5.1 L5.1 5.1 L5.1 10.7 L5.1 10.7 z" class="st1" style="fill:#B55600;" />
      </g>
    </g>
  </g>
</svg>