<?xml version="1.0" encoding="utf-8"?>
<!DOCTYPE svg PUBLIC "-//W3C//DTD SVG 1.1//EN" "http://www.w3.org/Graphics/SVG/1.1/DTD/svg11.dtd">
<svg width="508px" height="510px" viewBox="0, 0, 508, 510" class="svgDam" xmlns="http://www.w3.org/2000/svg" xmlns:xlink="http://www.w3.org/1999/xlink" xmlns:xml="http://www.w3.org/XML/1998/namespace" version="1.1">
  <g id="MapArea">
    <g id="Key_Area">
      <path d="M54.84 249.93 L0 18.9 L37.31 14.71 L53.56 38.08 L69.67 47.68 L76.2 45.46 L94.34 43.95 L104.01 21.82 L131 7.63 L150.18 1.42 L175.14 1.26 L193.67 0 L196.62 10.69 L188.57 24.22 L185.14 38.79 L156.36 65.44 L156.73 75.45 L161.62 83.66 L157.43 106.78 L166.2 124.04 L164.13 160.73 L172.8 181.63 L166.97 204.38 L161.68 222.21 L179.43 224.03 L238.24 242.56 L275.41 227.83 L294.74 217.69 L320.22 210.58 L339.28 218.26 L362.74 188.73 L379.43 176.07 L390.41 215.2 L400.32 235.41 L500.86 299.01 L507.45 325.38 L503.03 349.93 L490.14 367.79 L481.37 372.72 L478.92 372.71 L441.63 367.32 L416.9 391.4 L405.67 406.03 L414.98 433.4 L416.98 452.21 L408.11 467.15 L407.46 467.15 L391.75 466.8 L372.15 457.93 L343.84 453.61 L307.34 451.27 L288.06 451.62 L277.42 465.27 L267.83 483.75 L250.57 502 L244.93 510 L230.8 502.01 L218.17 490.76 L206.41 473.16 L189.04 452.01 L176.08 455.36 L169.45 461.34 L152.4 449.9 L132.44 442.91 L121.18 447.25 L108.1 451.95 L54.84 249.93 z" class="polygon_1" style="fill:#571D6D;" />
    </g>
    <g id="SiteLine" style="fill:none;" />
    <g id="SitePoint">
      <circle cx="209" cy="371" r="6" id="Dam_S2195" style="fill:#ECEBEA;stroke:#AAAAAA;">
        <title>西安水庫 ：無檢測資料</title>
      </circle>
    </g>
    <g id="Mark" class="Heilight">
      <g transform="translate(209, 371) translate(-14, -14)" id="gMark" class="HeilightTrans">
        <path d="M17.2 27.5 L17.2 23.4 L22.8 23.4 L23.3 23.4 L23.3 22.9 L23.3 17.3 L27.4 17.3 L27.4 27.6 L17.2 27.5 z M0.5 27.5 L0.5 17.2 L4.6 17.2 L4.6 22.8 L4.6 23.3 L5.1 23.3 L10.1 23.3 L10.1 27.4 L0.5 27.5 z M27.5 10.2 L23.4 10.2 L23.4 5.2 L23.4 4.6 L22.9 4.6 L17.3 4.6 L17.3 0.5 L27.6 0.5 L27.6 10.2 z M4.6 10.2 L0.5 10.2 L0.5 0.5 L10.2 0.5 L10.2 4.6 L5.2 4.6 L4.6 4.6 L4.6 5.1 L4.6 10.2 z" class="st0" style="fill:#FF800E;" />
        <path d="M17.7 27 L27 27 L27 17.7 L23.9 17.7 L23.9 22.8 L23.9 23.8 L22.9 23.8 L17.8 23.8 L17.8 27 M1 27 L9.7 27 L9.7 23.9 L5.1 23.9 L4.1 23.9 L4.1 22.9 L4.1 17.8 L1 17.8 L1 27 M27 9.7 L27 1 L17.7 1 L17.7 4.1 L22.8 4.1 L23.8 4.1 L23.8 5.1 L23.8 9.6 L27 9.6 M4.1 9.7 L4.1 5.1 L4.1 4.1 L5.1 4.1 L9.6 4.1 L9.6 1 L1 1 L1 9.7 L4.1 9.7 M28 28 L28 28 L28 28 L16.7 28 L16.7 22.9 L22.8 22.9 L22.8 16.8 L28 16.8 L28 28 L28 28 z M10.7 28 L10.7 28 L10.7 28 L0 28 L0 16.7 L5.1 16.7 L5.1 22.8 L10.6 22.8 L10.6 28 L10.7 28 z M28 10.7 L28 10.7 L28 10.7 L22.9 10.7 L22.9 5.1 L16.8 5.1 L16.8 0 L28 0 L28 10.7 L28 10.7 z M5.1 10.7 L5.1 10.7 L0 10.7 L0 0 L10.7 0 L10.7 5.1 L5.1 5.1 L5.1 10.7 L5.1 10.7 z" class="st1" style="fill:#B55600;" />
      </g>
    </g>
  </g>
</svg>