<?xml version="1.0" encoding="utf-8"?>
<!DOCTYPE svg PUBLIC "-//W3C//DTD SVG 1.1//EN" "http://www.w3.org/Graphics/SVG/1.1/DTD/svg11.dtd">
<svg width="234px" height="510px" viewBox="0, 0, 234, 510" class="svgDam" xmlns="http://www.w3.org/2000/svg" xmlns:xlink="http://www.w3.org/1999/xlink" xmlns:xml="http://www.w3.org/XML/1998/namespace" version="1.1">
  <g id="MapArea">
    <g id="Key_Area">
      <path d="M208.41 91.41 L208.16 91.85 L207.08 93.07 L204.98 94.87 L203.51 96.38 L202.87 97.6 L202.66 98.69 L202.67 99.85 L202.82 101.03 L203.15 102.29 L204.72 105.82 L205.65 107.57 L207.55 110.47 L207.98 111.06 L208.32 111.43 L208.82 111.78 L212.71 114.27 L217.33 117.53 L218.73 118.67 L221.35 121.08 L222.09 122.53 L222.43 123.73 L222.54 125.05 L222.49 127.87 L222.59 129.22 L222.73 130.22 L223.15 131.29 L223.71 132.51 L226.4 137.67 L228.15 140.67 L228.77 142.31 L228.98 143.05 L229.47 145.5 L229.57 146.65 L229.39 148.69 L229.24 149.52 L229.11 149.97 L228.77 150.42 L225.23 154.49 L224.84 155.08 L224.41 156.08 L224.2 157.06 L224.05 158.45 L224.02 159.05 L224.3 162.48 L224.49 163.25 L224.97 164.44 L225.21 164.83 L225.38 165.07 L225.72 165.33 L226.27 165.64 L227.51 166.26 L228.92 167.17 L230.36 168.74 L230.8 169.48 L232.67 173.91 L233.35 175.59 L233.43 176.42 L233.29 177.22 L233.1 177.62 L232.38 178.31 L231.69 178.76 L229.08 180.34 L227 181.27 L224.43 181.65 L222.67 181.72 L221.32 181.61 L220.25 181.35 L216.67 180.09 L214.56 179.09 L213.6 178.75 L213.23 178.68 L212.98 178.66 L212.63 178.66 L212.2 178.71 L211.79 178.83 L211.44 179.03 L211.25 179.18 L211.01 179.41 L210.86 179.6 L210.71 179.92 L210.59 180.18 L208.07 187.66 L207 191.01 L206.96 191.39 L206.96 191.66 L207.11 192.48 L207.26 193 L207.4 193.29 L207.64 193.65 L208.14 194.21 L208.58 194.69 L209.43 195.51 L212.94 198.8 L215.36 201.13 L215.73 201.71 L215.87 202.31 L215.94 202.76 L215.84 203.97 L215.87 205.1 L215.88 205.53 L215.92 206.04 L216.08 206.5 L216.2 206.72 L217.39 208.39 L218.5 210.34 L218.61 210.73 L218.61 211.07 L218.55 211.41 L218.39 211.65 L218.26 211.77 L217.91 211.89 L217.14 211.92 L214.35 212.04 L213.82 212.09 L213.44 212.24 L213.19 212.44 L212.66 212.96 L208.57 217.26 L205.51 220.31 L204.98 220.74 L204.63 220.97 L203.83 221.25 L203.23 221.47 L202.75 221.6 L202.36 221.7 L201.86 221.72 L200.72 221.76 L200.04 221.81 L199.32 221.96 L198.16 222.36 L196.91 222.93 L196.42 223.25 L195.2 224.45 L194.03 225.49 L193.14 226.41 L192.48 227.32 L192.19 228.02 L191.93 229.09 L191.68 230.13 L191.44 231.9 L191.07 236.33 L190.73 238.9 L190.6 239.47 L190.42 239.91 L190.14 240.37 L189.16 241.5 L188.04 242.91 L187.48 243.75 L187.17 244.25 L186.7 245.4 L186.29 246.6 L185.62 248.84 L183.73 255.27 L183.26 256.59 L182.89 257.45 L182.31 258.33 L181.51 259.63 L180.89 260.67 L180.11 262.31 L179.94 262.79 L179.79 263.63 L179.75 266.96 L179.71 268.88 L179.74 269.32 L179.87 269.71 L180.21 270.38 L181.43 273.09 L181.81 274.21 L181.88 274.98 L181.89 275.85 L181.72 276.93 L181.34 277.94 L180.59 279.39 L179.55 280.72 L177.84 282.53 L176.97 283.14 L175.97 283.65 L175.26 283.83 L173.27 284.07 L171.72 284.2 L168.78 284.62 L165.14 285.22 L163.91 285.59 L162.92 286.07 L162.09 286.6 L161.18 287.8 L160.5 289.19 L158.62 295.06 L156.39 304.34 L155.73 306.61 L155.48 307.28 L153.6 311.47 L152.17 314.38 L150.89 316.23 L150.31 317.02 L148.96 318.47 L147.32 319.82 L146.39 320.44 L143.96 322.02 L142.15 323.37 L139.69 325.33 L137.68 326.81 L136.6 327.78 L134.72 329.88 L130.67 335.43 L127.4 340.08 L124.56 344.3 L120.36 349.45 L117.68 352.07 L114.49 355.75 L112.12 358.89 L111.17 360.39 L108.91 364.56 L108.11 367.38 L107.56 370.98 L107.48 372.91 L107.76 375.25 L108.32 376.56 L109.21 378.18 L112.61 383.19 L121.13 393.68 L123.7 396.74 L124.83 398.16 L125.31 398.51 L125.97 398.81 L128.19 399.53 L131.66 400.58 L138.11 402.48 L139.07 402.75 L148.5 405.23 L149.13 405.44 L149.82 405.69 L156.89 408.53 L162.15 410.46 L163.67 410.99 L174.72 416.27 L175.28 416.5 L175.51 416.63 L175.88 416.93 L182.32 422.98 L182.7 423.4 L183.21 424.09 L191.38 436.35 L197.23 444.98 L199.95 450.18 L200.21 450.85 L203.9 462.71 L204.69 466.37 L204.96 468.31 L205.03 471.71 L205.02 473.45 L204.71 477.8 L204.59 478.27 L204.36 478.86 L204.15 479.21 L203.9 479.5 L203.63 479.68 L203.3 479.79 L202.94 479.81 L202.15 479.8 L201.05 479.59 L200.44 479.36 L200.19 479.04 L200.08 478.63 L200.5 474.75 L200.51 473.36 L200.45 472.6 L199.41 469.34 L198.01 464.39 L195.95 458.68 L195.21 456.64 L194.73 455.75 L194.06 454.65 L190.97 450.09 L184.03 439.91 L179.99 432.52 L179.38 431.63 L179.17 431.35 L178.83 431.1 L177.93 430.48 L176.25 429.44 L175.64 429.1 L175.29 429.02 L174.95 429.02 L174.74 429.13 L174.59 429.31 L174.47 429.62 L174.36 430.08 L174.36 430.32 L174.46 430.54 L175.65 432.25 L181.05 438.89 L181.39 439.47 L181.68 440.43 L181.82 440.94 L182.26 444.14 L182.32 444.69 L182.26 445.08 L182.22 445.18 L182.1 445.24 L181.95 445.24 L181.77 445.19 L181.67 445.1 L180.37 442.98 L180.22 442.75 L180.01 442.5 L177.8 439.9 L176.47 438.43 L175.02 436.95 L174.44 436.38 L172.84 434.93 L165.38 429.72 L164.29 429.08 L159.97 427.18 L156.28 425.6 L155.36 425.28 L154 424.99 L151.31 424.48 L143.05 423.32 L142.39 423.27 L141.81 423.29 L138.59 423.66 L129.27 425.06 L125.68 425.63 L124.55 425.77 L123.68 425.83 L121.06 426 L117.85 426.34 L115.58 427.25 L113.66 428.12 L113.19 428.35 L111.08 429.66 L109.15 430.79 L108.21 431.47 L106.32 433.03 L106.17 433.15 L106.06 433.28 L105.89 433.59 L105.73 433.99 L105.6 434.43 L105.58 434.67 L105.29 439.01 L105.13 440.83 L105.07 441.24 L104.8 441.73 L104.45 442.07 L103.91 442.39 L103.44 442.59 L102.43 442.74 L95.72 443.25 L95.31 443.31 L94.9 443.41 L94.45 443.59 L89.58 446.17 L89.3 446.37 L89.03 446.66 L88.89 446.92 L88.75 447.34 L88.29 449.7 L88.13 450.11 L87.91 450.36 L87.69 450.52 L87.42 450.63 L87.2 450.66 L86.26 450.71 L84 450.65 L83.23 450.51 L83.02 450.38 L82.75 450.04 L82.62 449.83 L82.25 448.74 L82.12 448.23 L82.01 447.98 L81.26 446.77 L80.8 446.07 L80.24 445.47 L78.96 444.6 L77.8 444.17 L76.63 443.89 L74.61 443.66 L70.1 443.69 L64.59 443.94 L62.38 444.07 L61.89 444.14 L61.55 444.23 L58.07 445.28 L55.87 446.02 L51.83 448.2 L50.15 449.33 L49.48 449.86 L49.04 450.27 L48.4 451.02 L47.22 452.58 L45.47 454.6 L44.96 455.09 L43.1 456.55 L41.96 457.4 L41.12 458.03 L38.88 459.71 L38.35 460.07 L37.82 460.3 L27.72 462.54 L27.28 462.71 L27.01 462.9 L26.68 463.24 L24.33 465.88 L24.11 466.28 L24.02 466.59 L23.04 476.66 L22.62 480.07 L22.62 480.89 L22.67 481.41 L22.75 481.93 L23.3 485.78 L23.56 487.62 L23.42 488.82 L23.17 489.72 L22.69 490.7 L20.24 494.31 L17.02 498.45 L15.71 500.21 L12.94 503.12 L10.21 506.28 L7.57 509.96 L7.35 510 L7.19 510 L0.09 504.56 L0 504.39 L0 504.29 L0.1 504.17 L1.46 502.41 L3.16 500.22 L5.3 496.66 L7.56 492.91 L11.57 486.04 L12.45 484.82 L13.49 483.31 L13.74 482.23 L14.08 472.14 L14.04 470.63 L13.88 470.15 L13.59 469.83 L12.89 469.36 L12.31 468.95 L12.03 468.5 L9.3 459.38 L9.04 457.49 L9.04 456.2 L9.15 455.46 L9.65 454.25 L10.16 452.91 L10.62 451.82 L11.33 450.38 L13.18 447.47 L16.34 443.03 L20.2 435.5 L21.88 432.72 L22.6 431.86 L24.49 430.25 L25.71 429 L33.71 416.41 L34.41 415.13 L35.16 413.76 L37.16 408.1 L38.79 402.25 L39.81 394.41 L40.66 390 L41.66 379.72 L41.56 378.71 L41.25 377.83 L40.77 376.81 L39.63 375.47 L37.41 372.06 L34.3 366.37 L33.54 364.32 L32.85 362.44 L31.89 358.66 L31.42 356.41 L30.99 352.64 L30.87 347.77 L31.03 343.05 L30.96 341.38 L30.93 340.65 L30.65 339.45 L30.04 337.84 L29.33 336.09 L27.36 332.59 L26.72 331.47 L26.32 330.12 L25.85 324.3 L26.12 318.17 L26.25 317.11 L26.52 316.46 L27.04 315.43 L27.84 313.42 L28.41 311.26 L28.51 310.39 L28.7 307.89 L28.68 306.02 L28.39 303.84 L27.58 300.12 L27.39 299.6 L24.76 293.97 L24.66 293.51 L24.67 292.49 L24.72 291.68 L25.33 288.62 L25.78 286.45 L26.02 285.93 L26.63 284.99 L27.09 284.1 L27.26 283.62 L29.09 275.16 L29.29 273.98 L29.38 272.1 L29.28 269.32 L29.07 267.55 L28.56 265.89 L28.18 264.69 L26.81 261.81 L26.04 260.41 L23.86 253.82 L23.77 253.31 L23.76 253.02 L24.13 246.65 L24.11 246.31 L24.07 246.12 L23.51 245.1 L22.47 243.73 L22.22 243.44 L21.82 243.21 L17.84 241.41 L17.54 241.21 L17.36 240.92 L17.3 240.38 L17.34 239.52 L17.68 238.35 L18.2 237.27 L20.67 234.02 L21.05 233.62 L22.03 232.82 L25.71 230.19 L34.45 222.78 L34.8 222.31 L35 221.86 L35.38 220.6 L36.84 215.84 L37.9 212.45 L39.64 208.46 L40.91 205.86 L44.95 200.67 L45.62 199.75 L47.22 196.95 L50.87 190.16 L55.63 182.39 L55.89 181.94 L56.78 180.84 L60.66 176.38 L62.03 174.91 L63.81 173.09 L64.15 172.71 L64.76 172.29 L66.48 171.16 L70.35 168.93 L75.15 166.61 L78.56 164.82 L79.41 164.25 L79.96 163.77 L82.53 159.82 L86.44 154 L90.08 149.23 L90.3 148.89 L90.47 148.71 L90.69 148.52 L91.65 147.83 L99.04 143.01 L99.99 142.21 L101.13 141.01 L101.61 140.4 L103.37 137.55 L104.18 135.77 L105.16 132.85 L107.09 127.13 L110.24 116.17 L110.41 115.73 L110.65 115.37 L111.01 114.95 L111.44 114.47 L111.9 113.99 L112.93 112.8 L115.13 110.61 L115.65 109.95 L115.77 109.71 L115.82 109.52 L115.79 109.37 L115.75 109.21 L115.5 108.74 L114.94 107.81 L114.53 107.28 L114.04 106.75 L112.09 104.88 L111.58 104.44 L107.19 103 L105.3 101.08 L103.71 95.92 L100.36 66.99 L100.63 45.62 L105.75 39.03 L108.78 32.95 L120.91 19.74 L128.23 15.46 L141.02 8.35 L145.77 0 L160.4 12.62 L157 15.9 L155.92 17.45 L156.49 19.5 L157.74 21.45 L158.44 22.41 L158.62 23.78 L158.86 25.41 L161.33 28.3 L161.63 29.42 L161.63 30.42 L162.29 35.05 L165.71 51.95 L166.16 52.87 L167.56 53.28 L169.02 53.99 L171.08 54.76 L174.95 55.14 L184.36 53.98 L187.55 53.97 L191.09 54.88 L192.73 56.23 L194.87 59.12 L196.33 60.44 L198.44 61.1 L200.76 61.98 L201.53 62.92 L202 65.21 L202.56 67.96 L203.08 68.45 L209.29 65.17 L210.78 70.65 L212.03 73.82 L212.61 75.31 L212.73 76.04 L212.78 76.8 L212.73 77.71 L212.56 79.2 L212.38 80.17 L211.78 82.24 L211.34 83.71 L209.85 87.86 L209.05 89.99 L208.41 91.41 z" class="polygon_1" style="fill:#571D6D;" />
    </g>
    <g id="SiteLine" style="fill:none;" />
    <g id="SitePoint">
      <circle cx="162" cy="102" r="6" id="Dam_S2089" style="fill:#74B24E;stroke:#365B1F;">
        <title>西勢水庫 ：優養 (54)</title>
      </circle>
    </g>
    <g id="Mark" class="Heilight">
      <g transform="translate(162, 102) translate(-14, -14)" id="gMark" class="HeilightTrans">
        <path d="M17.2 27.5 L17.2 23.4 L22.8 23.4 L23.3 23.4 L23.3 22.9 L23.3 17.3 L27.4 17.3 L27.4 27.6 L17.2 27.5 z M0.5 27.5 L0.5 17.2 L4.6 17.2 L4.6 22.8 L4.6 23.3 L5.1 23.3 L10.1 23.3 L10.1 27.4 L0.5 27.5 z M27.5 10.2 L23.4 10.2 L23.4 5.2 L23.4 4.6 L22.9 4.6 L17.3 4.6 L17.3 0.5 L27.6 0.5 L27.6 10.2 z M4.6 10.2 L0.5 10.2 L0.5 0.5 L10.2 0.5 L10.2 4.6 L5.2 4.6 L4.6 4.6 L4.6 5.1 L4.6 10.2 z" class="st0" style="fill:#FF800E;" />
        <path d="M17.7 27 L27 27 L27 17.7 L23.9 17.7 L23.9 22.8 L23.9 23.8 L22.9 23.8 L17.8 23.8 L17.8 27 M1 27 L9.7 27 L9.7 23.9 L5.1 23.9 L4.1 23.9 L4.1 22.9 L4.1 17.8 L1 17.8 L1 27 M27 9.7 L27 1 L17.7 1 L17.7 4.1 L22.8 4.1 L23.8 4.1 L23.8 5.1 L23.8 9.6 L27 9.6 M4.1 9.7 L4.1 5.1 L4.1 4.1 L5.1 4.1 L9.6 4.1 L9.6 1 L1 1 L1 9.7 L4.1 9.7 M28 28 L28 28 L28 28 L16.7 28 L16.7 22.9 L22.8 22.9 L22.8 16.8 L28 16.8 L28 28 L28 28 z M10.7 28 L10.7 28 L10.7 28 L0 28 L0 16.7 L5.1 16.7 L5.1 22.8 L10.6 22.8 L10.6 28 L10.7 28 z M28 10.7 L28 10.7 L28 10.7 L22.9 10.7 L22.9 5.1 L16.8 5.1 L16.8 0 L28 0 L28 10.7 L28 10.7 z M5.1 10.7 L5.1 10.7 L0 10.7 L0 0 L10.7 0 L10.7 5.1 L5.1 5.1 L5.1 10.7 L5.1 10.7 z" class="st1" style="fill:#B55600;" />
      </g>
    </g>
  </g>
</svg>