<?xml version="1.0" encoding="utf-8"?>
<!DOCTYPE svg PUBLIC "-//W3C//DTD SVG 1.1//EN" "http://www.w3.org/Graphics/SVG/1.1/DTD/svg11.dtd">
<svg width="331px" height="510px" viewBox="0, 0, 331, 510" class="svgDam" xmlns="http://www.w3.org/2000/svg" xmlns:xlink="http://www.w3.org/1999/xlink" xmlns:xml="http://www.w3.org/XML/1998/namespace" version="1.1">
  <g id="MapArea">
    <g id="Key_Area">
      <path d="M240.09 236.78 L217.15 281.96 L217.03 283.41 L216.08 285.12 L214.89 287.4 L215.1 289.75 L210.51 299.54 L209.27 301.83 L207.94 309.15 L191.05 312.99 L187.17 319.21 L182.98 343.17 L183.4 363.67 L187.16 371.1 L187.18 376.07 L194.68 390.94 L189.88 409.13 L183.73 423.63 L174.94 439.6 L163.91 457.68 L156.35 461.87 L155.93 468.91 L146.16 490.4 L142.48 494.15 L139.39 495.41 L135.82 492.07 L129.23 488.52 L125.23 488.66 L112.1 493.47 L90.97 502.28 L72.46 510 L67.52 509.72 L59.63 507.12 L51.69 498.62 L41.6 490.76 L31.68 484.44 L27.96 483.22 L20.07 482.18 L13.26 479.58 L7.21 476.81 L2.71 472.02 L1.3 469.08 L0.49 461.78 L0.8 434.9 L0 402.28 L0.99 322.62 L0.81 319.2 L1.42 317.03 L4.44 304.59 L8.35 285.45 L10.94 277.21 L9.83 244.28 L9.58 198.92 L8.45 162.89 L14.29 101.96 L19.79 32.95 L48.12 13.53 L62.59 3.82 L72.47 0.35 L78.03 0 L81.45 2.47 L122.52 51.64 L136.84 69.58 L147.72 80.08 L154.85 82.84 L161.96 84.97 L170.63 86.79 L166.32 90.55 L164.81 96.15 L165.77 101.11 L167.65 106.38 L172.94 111.64 L182.86 117.79 L181.4 114.74 L181.84 110.65 L183.18 108.53 L187.97 104.87 L204.32 91.91 L211.53 87.49 L218.87 82.14 L278.71 36.09 L284.42 32.89 L292.54 32.08 L313.59 52.86 L319.79 58.72 L325.85 63.38 L327.81 65.03 L330.85 70.47 L330.43 74.7 L321.38 100.34 L314.87 119.9 L309.58 144.3 L307.23 155.36 L300.61 185.21 L296.17 198.56 L292.58 202.82 L286.57 205.57 L256.74 203.32 L252.82 203.04 L254.06 208.18 L253.79 214.84 L251.74 223.93 L246.35 230.32 L241.25 235.19 L240.09 236.78 z" class="polygon_1" style="fill:#571D6D;" />
    </g>
    <g id="SiteLine" style="fill:none;" />
    <g id="SitePoint">
      <circle cx="166" cy="245" r="6" id="Dam_S2109" style="fill:#ECEBEA;stroke:#AAAAAA;">
        <title>西湖水庫 ：無檢測資料</title>
      </circle>
    </g>
    <g id="Mark" class="Heilight">
      <g transform="translate(166, 245) translate(-14, -14)" id="gMark" class="HeilightTrans">
        <path d="M17.2 27.5 L17.2 23.4 L22.8 23.4 L23.3 23.4 L23.3 22.9 L23.3 17.3 L27.4 17.3 L27.4 27.6 L17.2 27.5 z M0.5 27.5 L0.5 17.2 L4.6 17.2 L4.6 22.8 L4.6 23.3 L5.1 23.3 L10.1 23.3 L10.1 27.4 L0.5 27.5 z M27.5 10.2 L23.4 10.2 L23.4 5.2 L23.4 4.6 L22.9 4.6 L17.3 4.6 L17.3 0.5 L27.6 0.5 L27.6 10.2 z M4.6 10.2 L0.5 10.2 L0.5 0.5 L10.2 0.5 L10.2 4.6 L5.2 4.6 L4.6 4.6 L4.6 5.1 L4.6 10.2 z" class="st0" style="fill:#FF800E;" />
        <path d="M17.7 27 L27 27 L27 17.7 L23.9 17.7 L23.9 22.8 L23.9 23.8 L22.9 23.8 L17.8 23.8 L17.8 27 M1 27 L9.7 27 L9.7 23.9 L5.1 23.9 L4.1 23.9 L4.1 22.9 L4.1 17.8 L1 17.8 L1 27 M27 9.7 L27 1 L17.7 1 L17.7 4.1 L22.8 4.1 L23.8 4.1 L23.8 5.1 L23.8 9.6 L27 9.6 M4.1 9.7 L4.1 5.1 L4.1 4.1 L5.1 4.1 L9.6 4.1 L9.6 1 L1 1 L1 9.7 L4.1 9.7 M28 28 L28 28 L28 28 L16.7 28 L16.7 22.9 L22.8 22.9 L22.8 16.8 L28 16.8 L28 28 L28 28 z M10.7 28 L10.7 28 L10.7 28 L0 28 L0 16.7 L5.1 16.7 L5.1 22.8 L10.6 22.8 L10.6 28 L10.7 28 z M28 10.7 L28 10.7 L28 10.7 L22.9 10.7 L22.9 5.1 L16.8 5.1 L16.8 0 L28 0 L28 10.7 L28 10.7 z M5.1 10.7 L5.1 10.7 L0 10.7 L0 0 L10.7 0 L10.7 5.1 L5.1 5.1 L5.1 10.7 L5.1 10.7 z" class="st1" style="fill:#B55600;" />
      </g>
    </g>
  </g>
</svg>