<?xml version="1.0" encoding="utf-8"?>
<!DOCTYPE svg PUBLIC "-//W3C//DTD SVG 1.1//EN" "http://www.w3.org/Graphics/SVG/1.1/DTD/svg11.dtd">
<svg width="279px" height="510px" viewBox="0, 0, 279, 510" class="svgDam" xmlns="http://www.w3.org/2000/svg" xmlns:xlink="http://www.w3.org/1999/xlink" xmlns:xml="http://www.w3.org/XML/1998/namespace" version="1.1">
  <g id="MapArea">
    <g id="Key_Area">
      <path d="M178.15 0 L185.85 0.19 L193.1 7.54 L196.89 11.5 L198.99 17.63 L198.32 24.77 L176.3 179.87 L176.56 187.32 L178.68 195.08 L184.2 205.66 L206.23 244.83 L214.92 268.23 L218.68 276.86 L228.48 294.34 L231.33 299.34 L246.77 315.89 L257.57 327.34 L265.4 333.9 L278.98 352.55 L276.09 362.77 L271.42 373.7 L260.95 384.7 L248.54 396.49 L229.26 416.75 L214.04 431.74 L206.08 440.9 L197.88 449.18 L190.27 456.27 L179.19 467.75 L168.43 478.02 L150.46 493.58 L137.03 500.49 L123.58 504.05 L110.33 507.39 L97.07 510 L86.92 509.16 L79.47 506.74 L73.81 502.73 L67.67 496.48 L64.68 489.76 L48.37 451.6 L33.59 416.94 L26.46 392.82 L19.89 372.41 L10.66 341.16 L5.08 321.28 L0 307.17 L0.05 293.24 L1.55 281.12 L2.68 269.59 L5.59 257.46 L9.53 243.89 L14.39 229.86 L18.03 223.58 L23.91 219.2 L29.51 217.06 L39.86 215.15 L60.75 210.43 L80.79 207.97 L88.86 207.97 L91.79 207.2 L92.89 204.23 L93.53 197.3 L82.1 195.77 L60.74 192.31 L52.49 191.39 L52.08 184.66 L96.67 174.36 L98.19 167.26 L99.9 164.49 L104.4 163.21 L133.74 155.58 L138.77 153.32 L142.12 149.08 L143.97 144.62 L143.78 139.55 L142.88 135.59 L140.52 124.98 L140.3 118.12 L140.19 110.48 L141.58 95.31 L144.65 73.98 L148.23 49.92 L150.19 35.91 L152.95 28.7 L157.67 21.41 L178.15 0 z" class="polygon_1" style="fill:#571D6D;" />
    </g>
    <g id="SiteLine" style="fill:none;" />
    <g id="SitePoint">
      <circle cx="144" cy="228" r="6" id="Dam_S2208" style="fill:#ECEBEA;stroke:#AAAAAA;">
        <title>金湖水庫 ：無檢測資料</title>
      </circle>
    </g>
    <g id="Mark" class="Heilight">
      <g transform="translate(144, 228) translate(-14, -14)" id="gMark" class="HeilightTrans">
        <path d="M17.2 27.5 L17.2 23.4 L22.8 23.4 L23.3 23.4 L23.3 22.9 L23.3 17.3 L27.4 17.3 L27.4 27.6 L17.2 27.5 z M0.5 27.5 L0.5 17.2 L4.6 17.2 L4.6 22.8 L4.6 23.3 L5.1 23.3 L10.1 23.3 L10.1 27.4 L0.5 27.5 z M27.5 10.2 L23.4 10.2 L23.4 5.2 L23.4 4.6 L22.9 4.6 L17.3 4.6 L17.3 0.5 L27.6 0.5 L27.6 10.2 z M4.6 10.2 L0.5 10.2 L0.5 0.5 L10.2 0.5 L10.2 4.6 L5.2 4.6 L4.6 4.6 L4.6 5.1 L4.6 10.2 z" class="st0" style="fill:#FF800E;" />
        <path d="M17.7 27 L27 27 L27 17.7 L23.9 17.7 L23.9 22.8 L23.9 23.8 L22.9 23.8 L17.8 23.8 L17.8 27 M1 27 L9.7 27 L9.7 23.9 L5.1 23.9 L4.1 23.9 L4.1 22.9 L4.1 17.8 L1 17.8 L1 27 M27 9.7 L27 1 L17.7 1 L17.7 4.1 L22.8 4.1 L23.8 4.1 L23.8 5.1 L23.8 9.6 L27 9.6 M4.1 9.7 L4.1 5.1 L4.1 4.1 L5.1 4.1 L9.6 4.1 L9.6 1 L1 1 L1 9.7 L4.1 9.7 M28 28 L28 28 L28 28 L16.7 28 L16.7 22.9 L22.8 22.9 L22.8 16.8 L28 16.8 L28 28 L28 28 z M10.7 28 L10.7 28 L10.7 28 L0 28 L0 16.7 L5.1 16.7 L5.1 22.8 L10.6 22.8 L10.6 28 L10.7 28 z M28 10.7 L28 10.7 L28 10.7 L22.9 10.7 L22.9 5.1 L16.8 5.1 L16.8 0 L28 0 L28 10.7 L28 10.7 z M5.1 10.7 L5.1 10.7 L0 10.7 L0 0 L10.7 0 L10.7 5.1 L5.1 5.1 L5.1 10.7 L5.1 10.7 z" class="st1" style="fill:#B55600;" />
      </g>
    </g>
  </g>
</svg>