<?xml version="1.0" encoding="utf-8"?>
<!DOCTYPE svg PUBLIC "-//W3C//DTD SVG 1.1//EN" "http://www.w3.org/Graphics/SVG/1.1/DTD/svg11.dtd">
<svg width="428px" height="510px" viewBox="0, 0, 428, 510" class="svgDam" xmlns="http://www.w3.org/2000/svg" xmlns:xlink="http://www.w3.org/1999/xlink" xmlns:xml="http://www.w3.org/XML/1998/namespace" version="1.1">
  <g id="MapArea">
    <g id="Key_Area">
      <path d="M114.21 224.85 L103.42 217.52 L73.34 197.38 L28.79 168.31 L15.47 159.38 L10.19 156.64 L4.43 149.75 L0.26 138.48 L0 130.88 L4.08 120.03 L10.67 110.09 L31.43 89.5 L39.41 81.86 L47.83 69.84 L47.56 62.7 L48.93 60.39 L48.43 50.71 L45.64 40.58 L46.07 34.59 L92.04 21.26 L157.9 0 L165 0.43 L169.83 3.64 L173.28 9.15 L174.23 16.75 L171.36 41.88 L166.52 87.75 L165.21 101.81 L163.43 113.81 L157.73 172.59 L158.9 178.11 L161.21 182.94 L232.45 243 L305.53 304.43 L337.01 330.57 L399.53 383.75 L423.89 403.92 L427.57 409.66 L426.68 414.97 L424.18 418.66 L420.74 419.14 L414.56 419.86 L407.5 428.42 L408.46 437.63 L398.43 449.65 L395.67 447.59 L387.7 456.15 L389.76 457.06 L390.69 460.28 L382.94 467.92 L382.03 470.69 L349 510 L343.27 506.8 L376.52 466.11 L378.11 462.64 L378.21 432.46 L377.47 419.56 L377.17 404.81 L374.86 400.44 L371.64 395.39 L364.98 390.58 L337.86 368.12 L317.23 361.99 L308.73 356.49 L282.78 339.32 L241.67 311.16 L236.85 306.34 L197.35 280.48 L158.08 254.15 L114.21 224.85 z" class="polygon_1" style="fill:#571D6D;" />
    </g>
    <g id="SiteLine" style="fill:none;" />
    <g id="SitePoint">
      <circle cx="167" cy="228" r="6" id="Dam_S2114" style="fill:#ECEBEA;stroke:#AAAAAA;">
        <title>金沙水庫 ：無檢測資料</title>
      </circle>
    </g>
    <g id="Mark" class="Heilight">
      <g transform="translate(167, 228) translate(-14, -14)" id="gMark" class="HeilightTrans">
        <path d="M17.2 27.5 L17.2 23.4 L22.8 23.4 L23.3 23.4 L23.3 22.9 L23.3 17.3 L27.4 17.3 L27.4 27.6 L17.2 27.5 z M0.5 27.5 L0.5 17.2 L4.6 17.2 L4.6 22.8 L4.6 23.3 L5.1 23.3 L10.1 23.3 L10.1 27.4 L0.5 27.5 z M27.5 10.2 L23.4 10.2 L23.4 5.2 L23.4 4.6 L22.9 4.6 L17.3 4.6 L17.3 0.5 L27.6 0.5 L27.6 10.2 z M4.6 10.2 L0.5 10.2 L0.5 0.5 L10.2 0.5 L10.2 4.6 L5.2 4.6 L4.6 4.6 L4.6 5.1 L4.6 10.2 z" class="st0" style="fill:#FF800E;" />
        <path d="M17.7 27 L27 27 L27 17.7 L23.9 17.7 L23.9 22.8 L23.9 23.8 L22.9 23.8 L17.8 23.8 L17.8 27 M1 27 L9.7 27 L9.7 23.9 L5.1 23.9 L4.1 23.9 L4.1 22.9 L4.1 17.8 L1 17.8 L1 27 M27 9.7 L27 1 L17.7 1 L17.7 4.1 L22.8 4.1 L23.8 4.1 L23.8 5.1 L23.8 9.6 L27 9.6 M4.1 9.7 L4.1 5.1 L4.1 4.1 L5.1 4.1 L9.6 4.1 L9.6 1 L1 1 L1 9.7 L4.1 9.7 M28 28 L28 28 L28 28 L16.7 28 L16.7 22.9 L22.8 22.9 L22.8 16.8 L28 16.8 L28 28 L28 28 z M10.7 28 L10.7 28 L10.7 28 L0 28 L0 16.7 L5.1 16.7 L5.1 22.8 L10.6 22.8 L10.6 28 L10.7 28 z M28 10.7 L28 10.7 L28 10.7 L22.9 10.7 L22.9 5.1 L16.8 5.1 L16.8 0 L28 0 L28 10.7 L28 10.7 z M5.1 10.7 L5.1 10.7 L0 10.7 L0 0 L10.7 0 L10.7 5.1 L5.1 5.1 L5.1 10.7 L5.1 10.7 z" class="st1" style="fill:#B55600;" />
      </g>
    </g>
  </g>
</svg>