<?xml version="1.0" encoding="utf-8"?>
<!DOCTYPE svg PUBLIC "-//W3C//DTD SVG 1.1//EN" "http://www.w3.org/Graphics/SVG/1.1/DTD/svg11.dtd">
<svg width="554px" height="223px" viewBox="0, 0, 554, 223" class="svgDam" xmlns="http://www.w3.org/2000/svg" xmlns:xlink="http://www.w3.org/1999/xlink" xmlns:xml="http://www.w3.org/XML/1998/namespace" version="1.1">
  <g id="MapArea">
    <g id="Key_Area">
      <path d="M21.82 222.57 L21.48 222.64 L19.64 219.19 L0.48 169.4 L0.31 168.31 L0.11 167.42 L0.04 166.59 L0 166.1 L0.01 166.05 L0.14 164.94 L0.2 164.59 L0.44 164.54 L1.19 164.4 L1.48 164.48 L5.22 169.63 L5.3 169.71 L5.3 169.72 L5.77 170.46 L6.73 171.46 L7.59 171.38 L7.94 171.05 L8.48 170.16 L8.7 169.72 L9.19 169.08 L11.44 164.56 L14.99 160.92 L18.93 157.5 L20.65 156.27 L21.58 153.96 L22.01 149.77 L22.5 145.27 L23.17 142.36 L23.84 140.6 L26.38 138.05 L26.44 137.98 L27.2 137.14 L28.8 134.58 L29.3 133.36 L30.23 132.09 L32.62 130.6 L32.93 130.4 L33.16 130.23 L34.12 129.48 L34.69 129.16 L35.46 128 L36.22 127.26 L37.36 125.86 L38.09 124.84 L38.84 123.79 L41.4 119.91 L42.41 117.8 L43.87 113.79 L44.03 113.1 L44.19 112.53 L44.41 111.74 L51.09 103.93 L51.68 103.3 L54.8 99.97 L57.85 96.75 L59.08 95.07 L59.37 94.68 L62.8 90.02 L63.76 88.63 L64.29 87.86 L64.43 85.15 L63.58 82.79 L62.99 81.18 L60.44 74.82 L60.37 74.37 L60.14 73.96 L57.56 57.1 L56.2 54.35 L55.46 52.56 L55.16 45.63 L53.71 36.76 L53.16 31.87 L53.35 27.92 L53.62 23.73 L53.62 22.06 L55.39 18.91 L57.36 16.06 L58.77 14.01 L62.36 9.4 L65.14 6.17 L68.7 2.53 L70.48 2.08 L71.12 1.91 L76.27 1.9 L77.36 2.05 L78.74 2.25 L81.45 2.77 L83.01 2.03 L83.27 1.91 L85.05 1.78 L90.58 1.96 L90.81 1.97 L91.04 1.9 L94.41 0.94 L96.19 1.01 L97.27 1.09 L99.75 1.28 L100.4 0.69 L105.73 0 L107.89 0.42 L109.56 1.41 L112.19 1.61 L113.16 1.43 L114.5 1.19 L116.56 0.94 L119.44 1.34 L126.57 3.23 L132.37 5.49 L133.3 5.85 L133.73 5.79 L134.96 5.6 L142.34 7.9 L143.24 8.79 L144.9 10.98 L147.63 13.33 L151.36 16.13 L155.51 19.99 L160.42 24.94 L161.64 26.81 L165.74 28.71 L168.34 30.65 L172.24 32.8 L173.08 33.48 L174.08 32.97 L174.63 33.12 L176.04 32.58 L176.6 31.67 L177.04 31.45 L179.97 32.12 L181.99 32.15 L183.16 30.4 L185.63 29.66 L186.48 28.51 L194.45 25.76 L201.65 23.12 L204.01 22.15 L208.25 21.54 L220.13 22.16 L222.83 23.15 L230.57 29.05 L239.18 34.23 L243.81 35.93 L248.92 38.25 L262.27 40.29 L265.16 39.15 L267.64 40.49 L283.93 42.63 L290.98 43.75 L293.82 44.48 L295.02 44.39 L296.08 43.77 L300.9 43.55 L305.35 40.89 L308.59 41.28 L311.54 39.68 L313.02 39.08 L315.17 39.09 L317.01 40.36 L318.84 41.41 L321.18 40.93 L322.71 39.28 L325.14 38.62 L326.76 37.72 L326.77 37.71 L328.52 37.63 L328.54 37.63 L328.58 37.65 L330.98 39.17 L331.52 38.89 L331.58 38.91 L337.52 37.8 L337.93 37.72 L342.51 35.75 L345.67 36.19 L346.23 36.26 L352.59 36.4 L357.66 38.14 L362.15 37.47 L363.49 37.59 L365.15 37.24 L366.35 36.98 L371.27 38.21 L376.38 40.88 L377.53 41.89 L382.6 46.32 L386.61 48.3 L388.44 49.97 L391.58 54.92 L392.79 55.26 L393.73 55.53 L398.31 58.61 L400.64 63.53 L401.26 65.54 L401.7 66.99 L403.29 69.63 L405.15 69.33 L406.16 70.31 L406.54 72.52 L406.22 73.81 L406.84 75.89 L407.3 76.97 L407.81 79.92 L408.15 83.28 L407.32 88.02 L408.67 91.56 L410.83 94.85 L412.13 96.15 L412.59 96.29 L415.22 98.46 L422.6 102.18 L429.24 103.75 L429.94 103.91 L434.56 105.36 L437.36 106.44 L439.59 107.3 L443.64 108.64 L444.43 109.87 L444.38 111.88 L443.63 116.16 L443.56 119.58 L442.31 122.72 L439.13 126.52 L436.75 130.77 L436.63 132.38 L436.56 133.29 L436.86 133.9 L438.07 136.26 L440.62 137.31 L443.86 137.75 L449.33 136.39 L456.32 133.43 L459.72 131.79 L461.4 126.08 L461.51 124.93 L465.14 115.64 L475.15 96.64 L476 95.81 L484.36 88.57 L490.31 85.45 L491.14 85.44 L491.27 85.37 L493.53 84.3 L500.21 83.75 L508.36 84.54 L516.71 86.22 L517.78 86.44 L523.06 87.56 L525.01 87.98 L525.42 89.47 L525.84 89.81 L525.04 91.28 L523.12 91.77 L522.63 92.02 L517.66 91.55 L510.47 90.42 L507.45 89.79 L501.53 89.01 L500.11 88.76 L497.66 88.5 L496.75 88.4 L493.25 89.11 L491.65 89.44 L487.36 91.17 L486.54 91.93 L484.33 93.99 L483.2 94.91 L477.3 103.37 L476.29 105.72 L474.3 110.31 L474.57 117.52 L474.9 123.11 L474.96 124.08 L474.88 125.59 L473.96 127.26 L473.75 127.4 L466.24 142.44 L466.11 142.76 L465.22 146.35 L465.36 148.89 L465.43 150.16 L465.88 152.07 L466.78 152.9 L467.35 153.25 L468.1 153.71 L468.9 153.81 L469.68 153.91 L470.57 152.73 L471.46 152.15 L474.73 149.7 L480.19 145.44 L480.7 145.44 L485.6 140.54 L497.69 134.63 L499.5 133.48 L501.27 132.78 L506.51 130.36 L510.27 127.42 L512.12 125.86 L516.31 123.18 L516.81 122.57 L517.36 122.22 L517.39 122.16 L517.81 121.89 L529.34 113.24 L529.98 112.2 L531.49 111.11 L533.82 110.78 L539.71 111.02 L543.3 111.36 L544.07 111.76 L545.04 112.27 L545.9 112.69 L555.25 117.28 L555.6 117.45 L556.51 117.73 L562.84 119.96 L564.53 120.12 L569.21 120.49 L569.78 120.96 L575 123.28 L562.22 127.89 L555.96 123.93 L554.25 122.54 L550.9 120.88 L548.9 120.12 L547.09 119.84 L541.06 119.1 L537.41 118.89 L536.08 118.88 L535.69 119.04 L535.34 119.19 L535.15 119.27 L535.03 119.51 L534.04 120.52 L530.8 123.01 L529.07 124.76 L516.41 133.96 L513.82 135.27 L504.26 140.94 L502.73 142.33 L498.07 145.7 L497.65 146.44 L497.29 146.71 L494.15 150.59 L492.84 152.61 L492.09 154.32 L492.08 155.27 L492.06 157.5 L491.17 161.33 L488.75 164.9 L485.6 168.78 L482.49 171.69 L477.97 175.8 L475.63 177.88 L473.93 178.38 L473.04 178.61 L472.07 178.87 L469.54 178.95 L468.34 178.76 L468.03 179 L467.72 179.24 L467.31 179.56 L467.32 180.05 L467.38 182.87 L467.39 183.37 L471.31 187.11 L471.45 187.24 L471.54 187.35 L472.3 188.24 L472.4 188.24 L472.44 188.28 L475.2 190.43 L474.68 193.89 L474.33 193.87 L474.23 194.14 L472.04 193.45 L471.39 192.83 L470.92 192.38 L470.6 192.07 L469.94 190.69 L469.64 189.79 L469.56 189.24 L469.43 188.19 L469 187.94 L465.41 185.82 L464.07 183.72 L462.88 181.87 L461.32 179.42 L459.9 177.89 L458.01 177.19 L454.35 177.22 L452.61 177.98 L450.54 178.82 L449.5 179.5 L448.16 180.38 L444.34 182.04 L443.53 182.35 L439.14 182.96 L431.42 183.33 L428.73 183.54 L425.88 183.1 L423.86 182.8 L415.81 181.59 L415.56 182.56 L415.27 183.69 L413.81 183.7 L406.64 178.37 L403.92 176.39 L402.76 175.55 L401.47 174.94 L399.99 174.23 L397.49 173.65 L395.04 173.4 L393.99 173.15 L393.36 172.99 L389.5 169.22 L388.3 168.06 L388.05 167.93 L387.39 167.13 L384.87 165.92 L382.56 164.42 L380.21 163.51 L377.55 163.15 L374.59 162.98 L373.16 163.13 L372.03 163.5 L371.06 165.41 L366.89 171.42 L363.76 175.54 L362.71 176.36 L362.17 177.01 L360.33 177.65 L355.82 178.52 L352.62 178.82 L348.36 178.41 L344.73 176.95 L339.08 174.75 L332.18 171.86 L328.27 170.11 L327.09 169.48 L325.39 168.57 L324.35 168.01 L322.34 166.93 L319.81 164.55 L316.41 161.25 L313.97 158.16 L311.55 154.91 L309.31 152.03 L308.29 150.22 L307.04 149.18 L304.34 147.58 L302.61 146.9 L300.39 142.18 L300.32 142.01 L299.32 140.48 L296.55 138.27 L295.64 137.53 L293.83 136.5 L292.13 136.04 L290.98 135.76 L288.95 136.05 L287.29 136.68 L286.8 136.87 L286.55 137 L285.7 137.41 L285.35 137.65 L285.21 137.65 L284.82 137.66 L284.42 137.67 L283.46 136.49 L283.32 136.31 L282.08 134.95 L281.29 134.79 L280.96 134.81 L280.78 134.81 L279.55 134.96 L278.13 135.47 L276.88 135.91 L275.38 136.5 L273.83 137.51 L270.39 140.66 L269.59 143.06 L268.31 146.75 L268.07 147.2 L268.03 147.2 L268.05 147.53 L266.86 148.57 L265.5 149.37 L262.69 149.2 L261.05 148.83 L259.77 146.95 L258.16 144.79 L257.91 144.41 L256.81 142.74 L255.73 140.73 L254.86 140.12 L254.45 140.05 L249.48 139.96 L249.29 139.98 L245.75 140.05 L245.4 140.03 L243.44 139.08 L242.2 138.7 L242.1 138.73 L241.82 138.64 L240.26 139.05 L239.39 139.93 L239.34 139.99 L237.71 141.34 L237.54 141.49 L234.63 143.98 L231.75 144.9 L231.66 144.94 L230.74 145.25 L228.29 145.34 L224.06 145.01 L221.81 144.02 L221.58 143.76 L221.43 141.34 L221.49 140 L221.53 139.26 L221.2 137.63 L220.46 136.9 L219.84 136.29 L219.02 135.69 L218.54 135.34 L216.78 135.16 L215.57 135.34 L214.96 135.28 L214.53 135.37 L212.56 135.48 L211.29 135.06 L210.29 134.41 L209.46 133.76 L208.16 131.67 L207.83 129.69 L207.6 128.6 L206.69 127.66 L206.49 127.61 L206.42 127.52 L205.49 127.56 L205.03 128.22 L204.71 129.81 L203.96 130.81 L203.36 131.01 L200.76 131.25 L198.76 130.89 L197.86 130.06 L196.79 128.27 L195.59 126.91 L194.66 126.68 L194.17 126.56 L194.13 126.55 L192.83 126.51 L190.69 127.47 L189.14 128.51 L187.96 129.3 L185.21 130.59 L182.92 131.25 L181.04 131.46 L179.04 131.51 L178.6 131.39 L177.05 130.96 L174.56 130.54 L172.92 129.95 L172.77 129.9 L168.05 126.6 L165.51 124.49 L165.52 124.4 L165.26 124.3 L161.59 121.73 L159.87 121.13 L156.99 121.56 L154.26 122.69 L151.62 124.51 L144.06 130.3 L137.44 135.38 L130.13 141.02 L128.53 142.79 L127.57 143.84 L125.97 146.4 L124.75 149.37 L124.46 150.41 L123.21 151.87 L122.98 152.15 L117.38 154.96 L111.94 157.42 L107.55 159.49 L106.5 160.07 L105.27 160.74 L102.79 163.44 L97.55 170.11 L85.49 185.37 L97.06 194.76 L94.48 195.79 L83.01 187.4 L81.37 187.42 L75.06 189.99 L70.49 191.94 L61.55 194.87 L59.11 195.2 L53.8 196.5 L47 197.85 L44.81 198.43 L42.97 199.41 L40.47 200.72 L38.83 202.32 L36.76 204.65 L33.49 208.14 L30.7 210.82 L30.66 210.86 L29.17 212.37 L26.02 216.8 L21.82 222.57 z" class="polygon_1" style="fill:#447556;" />
    </g>
    <g id="SiteLine" style="fill:none;" />
    <g id="SitePoint">
      <circle cx="24" cy="176" r="6" id="Dam_S2176" style="fill:#74B24E;stroke:#365B1F;">
        <title>鏡面水庫一 ：優養 (61)</title>
      </circle>
      <circle cx="37" cy="198" r="6" id="Dam_S2177" style="fill:#74B24E;stroke:#365B1F;">
        <title>鏡面水庫二 ：優養 (61)</title>
      </circle>
    </g>
    <g id="Mark" class="Heilight">
      <g transform="translate(24, 176) translate(-14, -14)" id="gMark" class="HeilightTrans">
        <path d="M17.2 27.5 L17.2 23.4 L22.8 23.4 L23.3 23.4 L23.3 22.9 L23.3 17.3 L27.4 17.3 L27.4 27.6 L17.2 27.5 z M0.5 27.5 L0.5 17.2 L4.6 17.2 L4.6 22.8 L4.6 23.3 L5.1 23.3 L10.1 23.3 L10.1 27.4 L0.5 27.5 z M27.5 10.2 L23.4 10.2 L23.4 5.2 L23.4 4.6 L22.9 4.6 L17.3 4.6 L17.3 0.5 L27.6 0.5 L27.6 10.2 z M4.6 10.2 L0.5 10.2 L0.5 0.5 L10.2 0.5 L10.2 4.6 L5.2 4.6 L4.6 4.6 L4.6 5.1 L4.6 10.2 z" class="st0" style="fill:#FF800E;" />
        <path d="M17.7 27 L27 27 L27 17.7 L23.9 17.7 L23.9 22.8 L23.9 23.8 L22.9 23.8 L17.8 23.8 L17.8 27 M1 27 L9.7 27 L9.7 23.9 L5.1 23.9 L4.1 23.9 L4.1 22.9 L4.1 17.8 L1 17.8 L1 27 M27 9.7 L27 1 L17.7 1 L17.7 4.1 L22.8 4.1 L23.8 4.1 L23.8 5.1 L23.8 9.6 L27 9.6 M4.1 9.7 L4.1 5.1 L4.1 4.1 L5.1 4.1 L9.6 4.1 L9.6 1 L1 1 L1 9.7 L4.1 9.7 M28 28 L28 28 L28 28 L16.7 28 L16.7 22.9 L22.8 22.9 L22.8 16.8 L28 16.8 L28 28 L28 28 z M10.7 28 L10.7 28 L10.7 28 L0 28 L0 16.7 L5.1 16.7 L5.1 22.8 L10.6 22.8 L10.6 28 L10.7 28 z M28 10.7 L28 10.7 L28 10.7 L22.9 10.7 L22.9 5.1 L16.8 5.1 L16.8 0 L28 0 L28 10.7 L28 10.7 z M5.1 10.7 L5.1 10.7 L0 10.7 L0 0 L10.7 0 L10.7 5.1 L5.1 5.1 L5.1 10.7 L5.1 10.7 z" class="st1" style="fill:#B55600;" />
      </g>
    </g>
  </g>
</svg>