<?xml version="1.0" encoding="utf-8"?>
<!DOCTYPE svg PUBLIC "-//W3C//DTD SVG 1.1//EN" "http://www.w3.org/Graphics/SVG/1.1/DTD/svg11.dtd">
<svg width="415px" height="510px" viewBox="0, 0, 415, 510" class="svgDam" xmlns="http://www.w3.org/2000/svg" xmlns:xlink="http://www.w3.org/1999/xlink" xmlns:xml="http://www.w3.org/XML/1998/namespace" version="1.1">
  <g id="MapArea">
    <g id="Key_Area">
      <path d="M164.7 427.75 L164.13 427.9 L163.84 428.24 L163.68 428.65 L163.37 429.3 L163.14 429.56 L162.75 429.56 L162.39 429.43 L162.25 429.32 L162 428.83 L161.66 427.94 L161.56 426.98 L161.63 426.33 L161.5 426.19 L161.32 426.18 L161.11 426.45 L161.05 426.76 L161.02 427.18 L161.05 427.89 L160.95 428.33 L160.8 428.68 L160.53 428.93 L160.03 429.03 L159.5 428.97 L156.79 428.44 L155.21 428.25 L154.5 428 L154.23 427.81 L154.12 427.16 L153.77 426.18 L153.36 425.44 L151.83 423.17 L150.11 420.58 L149.39 419.52 L147.96 417.38 L147.19 416.26 L146.42 415.1 L145.96 414.3 L145.7 413.7 L145.46 412.9 L145.39 412.34 L145.4 405.39 L145.38 402.87 L145.36 402.04 L145.33 401.38 L145.19 400.79 L144.82 400.19 L144.5 399.78 L144.04 399.41 L143.47 399.12 L142.75 398.96 L142.26 398.95 L141.74 399.03 L141.26 399.19 L140.83 399.41 L140.43 399.7 L140.1 400.03 L139.61 400.88 L138.16 403.47 L135.85 407.6 L134.53 410.02 L133.57 411.73 L131.4 415.67 L130.99 416.21 L130.66 416.55 L130.19 416.85 L129.73 417.03 L129.17 417.17 L128.79 417.17 L128.22 417.12 L127.79 416.96 L127.48 416.81 L127.31 416.73 L122.57 413.81 L120.19 412.38 L119.35 411.86 L118.76 411.54 L118.17 411.36 L117.68 411.28 L116.9 411.29 L116.01 411.48 L114.91 412.06 L113.84 413.28 L110.25 417.91 L110.74 418.31 L125.32 430.01 L137.77 439.85 L147.5 447.53 L147.25 447.88 L146.26 447.28 L143.76 445.35 L140.54 442.83 L138.7 441.4 L136.86 439.96 L135.37 438.8 L132.99 436.93 L130.14 434.71 L128.48 433.4 L125.98 431.47 L123.33 429.41 L121.46 427.97 L120.2 427 L114.95 422.92 L112.96 421.38 L110.75 419.67 L109.89 419 L105.16 415.34 L102.07 412.94 L98.62 410.27 L97.27 409.22 L95.96 408.21 L86.67 401.14 L81.19 396.98 L77.42 394.12 L73.47 391.13 L73.22 390.94 L70.93 389.2 L69.67 388.21 L68.73 387.43 L67.8 386.6 L66.23 385.06 L65.51 384.3 L64.66 383.35 L63.5 382.07 L62.16 380.51 L61.7 380.07 L58.52 376.46 L56.5 374.15 L55.85 373.44 L55.14 372.67 L54.49 371.95 L53.18 370.45 L46.77 363.24 L45.89 362.26 L41.34 357.16 L40.14 355.85 L39.48 355.24 L39.32 355.13 L39.15 355.08 L38.78 355.12 L38.09 355.37 L37.77 355.51 L37.07 355.82 L36.55 355.92 L36.19 356.04 L35.59 356.08 L34.97 356.01 L34.32 355.78 L33.39 355.14 L32.54 354.11 L32.43 353.93 L31.4 352.21 L30.55 350.81 L30.09 350.06 L28.29 347.93 L27.51 348.95 L27.2 349.65 L26.82 350.5 L26.43 351.61 L26.26 352.43 L26.03 353.06 L25.98 353.53 L26.12 354.31 L26.23 354.73 L21.06 355.88 L20.27 353.9 L20.17 353.55 L20.08 353.03 L20.01 352.67 L20.04 352.09 L20.15 351.64 L20.31 351.22 L20.64 350.69 L21.23 350.17 L22.52 349.22 L23.86 348.05 L24.35 347.61 L26.39 345.68 L24.42 343.41 L20.77 339.22 L18.14 336.16 L16.61 334.41 L14.89 332.38 L14.62 332.08 L13.16 330.44 L13.05 330.3 L12.09 329.07 L11.71 328.4 L11.32 327.82 L10.42 326.44 L9.11 324.54 L8.25 323.57 L6.84 322.06 L6.73 321.88 L6.37 321.46 L6.28 321.36 L5.66 320.64 L5.11 319.93 L4.78 319.41 L4.68 319.2 L4.43 318.72 L2.08 313.62 L1.29 311.85 L0.71 310.51 L0.59 310.27 L0.5 310.09 L0.37 309.82 L0.22 309.5 L0.11 309.18 L0.05 308.92 L0.01 308.65 L0 308.34 L0.29 308.01 L0.46 307.85 L0.71 307.63 L1.01 307.37 L1.87 306.53 L2.69 305.65 L3.59 304.55 L4.18 303.71 L4.56 303.17 L6.13 300.93 L6.49 300.39 L6.83 299.81 L6.97 299.53 L7.22 299.03 L7.41 298.63 L8.17 296.98 L8.74 295.94 L9.33 295.02 L9.88 294.26 L10.43 295.11 L11.74 295.04 L13.64 293.4 L14.43 292.71 L15.58 290.81 L17.66 290.31 L19.9 289.5 L20.39 289.8 L21.68 290.58 L25.32 288.12 L26.2 288.9 L28.64 286.7 L30.78 284.8 L32.1 286.02 L32.67 286.55 L34.99 284.46 L37.42 282.25 L38.98 280.83 L38.16 280.06 L36.82 278.81 L36.98 278.63 L35.66 278.03 L34.04 277.31 L34.95 275.78 L36.15 273.75 L36.19 272.99 L37.28 272.35 L37.81 273.11 L39.03 274.92 L39.53 275.59 L40.38 275.54 L41.26 274.6 L41.54 274.29 L42.06 274.93 L49.53 271.64 L51.53 270.69 L52.45 271.45 L53.32 272.17 L53.88 272.63 L55.11 273.65 L55.53 273.65 L56.11 273.65 L57.12 273.65 L57.24 273.08 L59.27 273.07 L61.64 272.84 L61.74 272.54 L62.39 270.3 L62.91 268.59 L63.42 267.5 L64.02 266.94 L64.46 266.52 L63.46 265.05 L61.59 261.41 L61.43 261.53 L55.65 265.64 L55.62 265.63 L54.49 266.43 L54.41 266.66 L53.63 268.72 L51.12 268.89 L49.8 267.56 L49.27 267.09 L48.56 266.94 L47.65 266.74 L46.48 267.3 L45.15 267.94 L44.59 266.68 L44.54 266.5 L41.25 266.85 L40.95 265.66 L39.12 265.77 L38.59 266.12 L37.46 267.64 L37.14 267.25 L34.3 267.22 L33.82 265.35 L34.25 265.1 L34.12 264.06 L33.66 263.94 L32.36 263.67 L31.86 262.87 L31.58 261.27 L31.85 260.74 L30.5 259.98 L30.22 258.89 L28.45 256.12 L28.29 255.91 L27.01 255.59 L26.07 254.21 L25.76 253.47 L25.43 252.63 L25.07 250.67 L24.58 250.01 L23.34 249.33 L21.97 249.33 L21.39 249.49 L22.68 246.45 L21.32 243.49 L19.93 242.15 L22.37 243.77 L24.71 245.66 L26.42 247.56 L28.42 249.49 L30.99 249.03 L31.04 248.89 L31.4 246.86 L32.99 249.38 L36.2 251.19 L37.97 257.57 L39.38 253.73 L39.94 253.64 L40.84 253.49 L43.08 256.28 L43.6 259.74 L46.33 260.26 L48.24 257.95 L49.6 256.79 L51.6 253.92 L54.18 252.61 L54.07 251.81 L50.36 249.8 L49.05 250.09 L47.82 249.46 L48.08 248.49 L46.76 246.09 L45.9 245.26 L47.81 243.57 L49.6 244.96 L51.41 246.25 L55.3 245.59 L56.02 244.97 L55.23 241.24 L49.76 235.59 L48.55 235.77 L47.8 236.41 L44.36 238.36 L43.35 238.95 L43.1 238.94 L42.22 238.92 L41.78 236.29 L40.89 233.82 L39.35 233.99 L38.49 234.28 L36.66 235.06 L34.52 235.98 L35.22 234.5 L35.19 231.48 L31.74 230.86 L30.63 230.66 L28.13 230.46 L26.28 230.32 L25.67 229.78 L26.6 229.57 L28.88 229.05 L32.33 228.24 L33.51 227.97 L38.43 226.2 L39.37 225.71 L40.38 225.17 L39.59 223.24 L35.94 222.7 L36.29 219.36 L39.9 219.51 L41.91 220.58 L43.21 221.27 L44.64 218.43 L45.04 217.33 L45.1 216.16 L44.7 211.93 L44.23 211.28 L42.17 211.09 L40.32 209.5 L39.49 209.77 L36.74 205.68 L37.63 204.42 L38.62 203.1 L37.44 202.44 L36.91 202.26 L38.11 200.38 L39.7 200.57 L41.44 200.8 L41.19 198.75 L40.82 197.97 L39.65 197.71 L38.37 197.43 L36.21 197.17 L35.54 196.34 L36.36 195.85 L37.21 195.34 L37.82 194.98 L36.49 193.68 L35.62 192.17 L33.98 191.47 L33.07 191.08 L35.22 190.11 L35.87 188.88 L36.16 188.34 L36.31 189.3 L36.93 189.65 L37.61 189.18 L38.11 190.74 L39 191.05 L40.9 191.72 L42.92 188.84 L43.97 190.8 L45.16 192.98 L45.73 193.83 L46.28 194.65 L45.74 197.14 L46.71 197.35 L46.66 199.53 L47.21 201.1 L49.17 201.92 L49.57 202.56 L50.01 203.14 L51.17 203.39 L52.33 201.29 L54.54 199.45 L57.99 202.13 L60.39 204.59 L60.59 204.8 L61.12 204.7 L61.49 204.64 L61.82 203.91 L61.72 202.94 L62.67 197.69 L63.46 193.3 L64.51 191.91 L61.78 192.18 L58.64 193.33 L57.11 192.88 L57.05 191.06 L55.19 191 L53.38 190.15 L54.27 188.79 L53.78 187.54 L52.36 186.93 L52.99 186.35 L52.66 184.65 L55.23 184.67 L55.58 182.8 L55.6 182.76 L57.17 184.13 L57.92 184.78 L58.57 186.29 L59.16 187.56 L59.79 186.36 L62.01 187.76 L61.53 186.53 L61.65 183.68 L61.1 181.5 L60.3 179.82 L60.21 179.23 L60.01 177.98 L58.5 177.33 L59.99 176.63 L60.65 174.76 L61.8 175.89 L63.43 178.03 L63.56 178.2 L64.25 178.23 L66.12 178.31 L66.1 179.65 L65.6 181.87 L66.1 185.37 L66.23 186.36 L66.31 186.91 L68.36 187.8 L69.72 186.85 L70.29 186.46 L71.09 185.92 L72.49 187.27 L72.91 188.28 L73.44 188.44 L75.92 189.2 L75.95 189.08 L76.07 188.05 L76.1 187.48 L74.55 185.07 L77.4 179.01 L78.44 176.79 L76.24 176.02 L76.13 175.97 L75.42 175.83 L71.01 175 L70.06 174.81 L70.21 174.29 L70.59 173.01 L69.08 172.95 L68 172.91 L68.62 171.17 L69.01 170.06 L68.63 169.55 L67.83 168.5 L68.4 167.31 L68.79 166.5 L66.91 163.51 L62.54 164.86 L63.02 162.92 L63.48 161.08 L63.65 160.37 L61.77 159.84 L56.32 159.63 L53.48 161.87 L53.31 163.89 L53.18 165.48 L51.18 165.14 L49.78 163.61 L49.41 163.21 L49.32 163.07 L49.32 162.87 L48.95 162.37 L47.89 164.96 L47.2 167.46 L48.12 169.58 L47.37 169.88 L45.11 171.58 L44.79 173.79 L46.56 175.22 L45.87 177.44 L44.66 176.06 L41.45 175.29 L38.93 175.65 L38.72 175.81 L37.4 176.11 L37.13 176.15 L34.96 176.63 L32.6 176.3 L30.62 176.46 L28.74 176.61 L27.84 176.21 L26.26 175.56 L26.59 173.19 L28.41 174.57 L31.27 174.41 L32.22 173.95 L33.33 173.42 L35.36 173.82 L36.7 172.8 L37.18 172.54 L38.78 171.69 L39.49 171.3 L39.78 169.98 L39.99 169.05 L40.13 168.28 L40.47 165.19 L41.09 165.12 L41.89 165.03 L42.97 163.33 L43.41 162.63 L44.69 161.21 L42.98 160.75 L36.1 160.9 L35.15 160.87 L33.45 160.76 L33.99 157.27 L34.98 157.32 L38.26 157.47 L39.11 157.5 L38.76 155.63 L38.63 154.93 L39.93 154.34 L41.19 155.78 L42.97 156.23 L45.14 157.21 L46.84 156.95 L47.23 156.09 L46.8 154.94 L46.25 153.51 L48.19 152.66 L49.78 150.89 L50.87 151.69 L51.87 151.18 L52.63 150.79 L52.97 150.62 L55.56 152.16 L55.62 152.17 L58.2 153.03 L59.42 153.44 L59.54 149.95 L59.58 149.96 L60.49 150.28 L61.22 152.68 L61.96 153.3 L63.45 153.76 L63.51 153.76 L63.55 153.69 L65.58 151.47 L66.79 148.84 L66.78 148.8 L67.93 145.7 L68.24 144.87 L70.71 146.21 L70.58 146.37 L69.34 147.97 L69.23 148.49 L69.16 149.6 L69.98 150.96 L70.87 152.39 L71.09 152.78 L70.87 153.03 L69.78 154.31 L69.74 155.14 L70.84 155.47 L71.3 155.65 L71.36 157.02 L71.4 157.88 L73.07 159.99 L73.62 160.71 L74.59 160.78 L74.54 159.37 L74.51 158.44 L74.48 157.7 L74.5 157.66 L75.84 155.32 L76.78 153.67 L78.68 154.51 L78.1 155.6 L77.78 156.2 L77.16 157.36 L77.47 157.87 L77.87 158.55 L79.79 160.15 L81.04 161.21 L83.07 162.5 L84.2 163.22 L84.87 163.66 L84.01 164.93 L82.34 167.32 L83.83 168.01 L86.12 169.05 L86.41 169.18 L86.61 169.09 L92.22 166.84 L92.14 164.72 L92.11 163.86 L92.07 162.72 L92.16 162.28 L92.56 161.08 L93.82 157.59 L94.51 155.67 L93.25 154.59 L92.04 153.57 L91.43 152.77 L91.65 152.13 L92.02 151.04 L94.34 150.98 L95.89 151.2 L96.62 151.29 L97 151.53 L97.24 151.68 L97.36 151.78 L98.49 152.46 L99.14 151.73 L99.81 150.97 L103.06 150.47 L103.64 150.39 L103.59 149.62 L101.97 148.93 L101.85 148.91 L100.95 148.68 L98.07 147.94 L96.53 146.81 L95.79 146.86 L94.35 145.51 L94.28 145.49 L90.35 143.99 L89.72 142.24 L91.25 140.89 L91.47 139.49 L92.42 139.77 L92.54 140.1 L92.86 141.03 L93.18 141.1 L94.1 141.35 L95.72 141.79 L95.87 141.72 L97.08 141 L97.18 141.53 L97.4 142.55 L98.21 142.54 L100.15 141.87 L100.73 141.69 L103.01 140.23 L102.61 138.3 L101.93 137.51 L101.43 136.88 L100.78 136.04 L100.63 135.37 L100.01 133.06 L99.61 132.71 L98.51 131.71 L97.35 130.68 L96.51 129.94 L95.69 129.23 L96.16 128.68 L96.45 128.35 L97.54 127.64 L98.17 127.22 L99.3 126.47 L98.77 125.31 L98.77 125.25 L99.46 125.7 L100.6 126.43 L101.02 126.7 L101.84 127.23 L101.94 127.37 L103.58 129.67 L103.63 129.68 L103.7 129.73 L104.51 130.4 L105.38 131.12 L106.19 131.21 L107.05 132.65 L107.75 133.83 L107.77 133.83 L109.04 135.7 L109.6 136.64 L109.72 136.62 L110.76 136.44 L110.54 136.78 L110.21 137.27 L110.09 137.46 L111.97 139.6 L112.21 140.61 L112.29 142.49 L112.31 143.37 L112.65 143.76 L113.02 144.16 L114.65 143.27 L114.66 143.24 L115.02 142.89 L115.59 142.33 L116.64 141.28 L116.72 141.18 L118.45 140.88 L119.57 140.66 L118.91 140.21 L118.34 139.82 L118.1 139.31 L117.83 138.72 L117.25 137.5 L117.73 137.1 L119.1 135.17 L119.32 133.9 L119.58 132.25 L119.44 131.7 L119.07 130.14 L118.7 129.81 L117.19 128.51 L116.91 128.27 L116.76 128.28 L115.16 128.4 L115.71 127.26 L114.32 126.32 L114.21 125.42 L114.14 124.95 L114.24 124.92 L115.15 124.64 L116.21 124.3 L116.23 123.46 L117.02 123.37 L118.17 123.22 L120.04 122.96 L120.04 122.94 L118.79 122.87 L118.82 122.33 L121.14 119.99 L121.36 117.96 L121.42 117.42 L121.4 117.4 L120.58 116.21 L120.56 116.13 L120.18 115.21 L120.04 114.87 L119.91 114.52 L118.88 113.91 L118.31 113.59 L117.97 113.37 L117.99 112.79 L117.99 112.3 L117.15 112.25 L115.14 112.13 L114.35 112.08 L111.88 109.79 L112.78 107.94 L115.14 106.61 L114.18 105.68 L115.04 104.4 L114.14 103.69 L114.95 102.2 L114.79 100.9 L114.68 100.15 L113.21 98.07 L112.63 97.24 L112.41 95.69 L111.11 95.38 L108.23 95.25 L107.77 95.69 L107.12 96.27 L106.3 93.47 L108.47 93.24 L109.58 93.1 L109.83 93.06 L111.04 92.96 L111.8 92.9 L112.37 92.85 L112.28 92.12 L112.19 91.44 L112 89.96 L111.96 89.62 L112.08 89.55 L112.84 88.94 L113.47 88.42 L113.74 88.2 L113.89 88.2 L113.86 88.1 L114.07 87.92 L115.19 88.33 L115.11 89.35 L115.06 90.14 L115.35 92.4 L115.48 93.48 L115.65 94.83 L115.67 94.98 L115.55 95.27 L115.3 95.8 L115.85 95.73 L116.89 95.59 L117.07 95.69 L117.55 95.92 L119.1 96.69 L121.35 96.7 L122.37 96.72 L122.63 96.39 L123.28 95.53 L123.97 94.79 L124.41 94.28 L124.52 94.17 L124.48 94.37 L123.44 97.45 L123.32 97.82 L123.25 97.84 L122.73 98.16 L122.64 98.22 L121.16 99.17 L120.24 99.79 L119.91 102.63 L120.91 103.73 L121.68 104.58 L122.47 105.42 L122.74 106.4 L123 107.36 L123.67 108.07 L124.39 108.91 L124.81 109.11 L125.38 109.36 L126.1 109.71 L126.75 110.05 L129.02 109.91 L129.62 109.87 L129.79 109.86 L130.16 109.6 L132.49 107.82 L132.58 105.66 L132.62 104.23 L134.48 104.17 L136.12 104.21 L136.79 104.19 L137.28 104.17 L138 104.15 L138.23 104.17 L139.03 104.26 L139.51 104.31 L140.21 104.38 L140.82 104.44 L140.97 104.45 L141.33 104.23 L141.68 104.04 L142.07 103.8 L142.49 103.57 L143.28 103.11 L143.81 102.82 L144.35 102.53 L145.17 102.08 L145.56 101.62 L145.88 101.3 L146.27 100.87 L146.76 100.33 L147.09 99.98 L147.45 99.59 L147.51 99.54 L147.78 99.37 L148.18 99.15 L148.8 98.8 L148.92 98.73 L149.32 98.49 L149.65 98.31 L150 98.1 L150.29 97.93 L150.57 97.77 L150.87 97.76 L151.28 97.73 L151.72 97.7 L152.19 97.65 L152.43 97.63 L152.54 97.63 L152.73 97.51 L153.16 97.28 L153.39 97.15 L153.68 96.75 L153.81 96.57 L154.16 96.1 L154.43 95.73 L154.53 95.58 L154.83 95.53 L155.05 95.48 L155.25 95.44 L155.78 95.33 L156.09 95.26 L156.33 95.21 L156.62 95.15 L156.9 95.07 L156.66 95.04 L156.37 94.92 L156.14 94.83 L155.87 94.73 L155.6 94.64 L155.33 94.55 L154.97 94.41 L154.48 94.23 L154.36 94.18 L154.07 94.08 L153.89 94.01 L153.73 93.96 L153.52 93.87 L153.17 93.76 L153.04 93.71 L152.92 93.66 L152.6 93.55 L152.25 93.43 L152.12 93.38 L151.98 93.33 L151.61 93.19 L151.33 93.1 L150.95 92.95 L150.38 92.73 L149.88 92.54 L149.76 92.49 L148.96 91.25 L148.53 90.58 L147.93 89.64 L147.89 89.5 L147.84 89.42 L147.83 89.37 L147.77 89.08 L147.69 88.77 L147.63 88.51 L147.52 88.13 L147.47 87.9 L147.38 87.54 L147.26 87.04 L147.19 86.79 L146.9 85.58 L146.74 84.93 L146.65 84.55 L146.53 84.12 L146.42 83.66 L146.3 83.16 L145.91 83.16 L144.95 83.17 L144.36 83.18 L143.44 83.19 L142.51 83.2 L141.6 83.21 L141.17 83.22 L140.23 83.23 L140.15 83.19 L140.07 83.19 L140.11 83.15 L139.77 82.84 L139.47 83.05 L139.4 83.12 L139.2 83.26 L138.91 83.46 L138.63 83.68 L138.33 83.9 L137.89 84.21 L137.66 84.38 L137.49 84.15 L137.31 83.92 L137.25 83.84 L137.06 83.58 L136.78 83.23 L136.54 82.9 L136.4 82.72 L136.47 82.47 L136.53 82.29 L136.58 82.14 L136.68 81.82 L136.76 81.55 L136.84 81.29 L136.94 80.96 L137.06 80.56 L136.66 80.22 L136.4 80.01 L136.1 79.78 L135.75 79.49 L135.61 79.39 L135.8 79.02 L135.95 78.76 L136.16 78.38 L136.43 78.48 L136.71 78.58 L137.08 78.72 L137.49 78.87 L137.85 79 L138.13 79.11 L138.54 79.25 L138.7 79.31 L138.89 79.39 L138.92 79.37 L139.26 79.27 L139.34 79.21 L139.56 79.07 L139.78 78.92 L139.78 78.85 L139.77 78.61 L140.5 78.41 L142.45 78.08 L143.45 77.93 L143.45 78.18 L143.86 78.27 L143.96 78.31 L144.35 78.4 L144.82 78.52 L145.1 78.6 L145.18 78.6 L145.58 78.72 L146.11 78.87 L146.61 78.99 L146.71 79.01 L147 78.45 L147.25 77.95 L147.44 77.56 L147.64 77.18 L147.79 76.87 L148.01 76.43 L148.24 75.97 L148.42 75.62 L148.65 75.16 L148.84 74.79 L148.94 74.57 L149.1 74.23 L149.31 73.81 L149.49 73.46 L149.69 73.06 L149.86 72.72 L150.08 72.27 L150.22 71.99 L150.4 71.63 L150.48 71.48 L150.78 71.4 L151.53 71.16 L151.8 71.08 L152.07 70.99 L152.37 70.9 L152.69 70.8 L152.95 70.72 L153.31 70.6 L153.64 70.5 L153.9 70.42 L154.27 70.3 L154.54 70.28 L154.84 70.26 L155.39 70.2 L155.69 70.18 L155.71 69.98 L155.74 69.78 L155.76 69.68 L155.84 69.31 L155.86 69.19 L155.94 68.86 L156.02 68.46 L156.05 68.31 L156.11 68.01 L156.18 67.71 L156.23 67.45 L156.24 67.37 L156.25 67.36 L156.34 67.33 L156.38 67.32 L156.3 67.11 L156.38 66.77 L156.42 66.52 L156.49 66.21 L156.6 65.67 L156.83 65.52 L157 64.71 L157.22 63.7 L157.35 63.19 L157.59 62.52 L157.96 61.54 L158.61 60.62 L159 60.07 L159.18 59.82 L159.8 58.95 L160.42 58.06 L161.06 57.17 L161.73 56.19 L162.34 55.34 L163 54.38 L163.68 53.43 L164.33 52.51 L164.52 52.22 L164.97 51.59 L165.42 50.95 L165.46 50.86 L165.51 50.79 L166.06 50.01 L166.34 49.68 L166.47 49.34 L166.56 49.1 L166.82 48.42 L167.05 47.82 L167.28 47.23 L167.47 46.7 L167.78 45.92 L168.04 45.28 L168.22 44.81 L168.43 44.26 L168.54 43.98 L168.77 43.38 L168.91 42.99 L168.97 42.87 L169.09 42.51 L169.21 42.36 L169.46 42.06 L169.62 41.85 L170.01 41.37 L170.09 41.25 L170.35 41.34 L170.59 41.45 L171.47 41.81 L172.13 42.07 L173 42.41 L173.14 42.07 L173.21 41.92 L173.49 41.26 L173.54 41.14 L173.6 40.99 L173.66 40.84 L173.72 40.71 L173.9 40.29 L174.07 39.9 L174.44 39.01 L174.55 38.75 L174.82 38.13 L175.03 37.61 L175.18 37.25 L175.53 36.42 L175.78 35.81 L175.84 35.65 L176.18 34.81 L176.54 33.91 L176.89 33.06 L177.25 32.15 L177.63 31.2 L177.94 30.42 L178 30.32 L178 30.3 L178.11 30.11 L178.35 29.56 L178.41 29.43 L178.7 28.8 L179.01 28.13 L179.36 27.37 L179.56 26.9 L179.65 26.68 L179.93 26.01 L180.21 25.34 L180.48 24.7 L180.76 24.03 L181.02 23.4 L181.27 22.77 L181.47 22.29 L181.73 21.64 L181.91 21.21 L180.56 20.62 L180.04 20.39 L179.13 19.98 L178.94 18.71 L178.91 18.51 L178.83 17.99 L178.7 17.2 L178.59 16.5 L178.46 15.74 L178.34 14.96 L178.22 14.26 L178.46 13.66 L178.76 12.89 L179.07 12.1 L179.37 11.34 L179.66 10.6 L179.9 9.97 L179.97 9.82 L180.26 9.05 L180.46 8.54 L180.55 8.33 L180.85 7.54 L180.88 7.45 L181.26 6.95 L181.75 6.24 L182.02 5.95 L182.33 5.61 L182.34 5.56 L182.39 5.54 L182.57 5.33 L182.62 5.3 L182.72 5.18 L182.79 5.09 L183.12 4.69 L183.43 4.3 L183.48 4.23 L183.71 3.94 L183.76 3.88 L184.01 3.57 L184.3 3.21 L184.54 2.91 L184.72 2.68 L185.55 1.64 L185.84 1.28 L186.39 0.61 L186.66 0.28 L187.2 0.25 L187.84 0.2 L188.76 0.12 L189.59 0.05 L189.74 0.04 L190.19 0 L190.41 0.47 L190.64 0.97 L190.86 1.46 L191.09 1.95 L191.21 2.2 L191.41 2.63 L191.62 3.1 L191.85 3.59 L192.06 4.04 L192.26 4.48 L192.37 4.72 L192.36 5.04 L192.36 5.41 L192.35 5.77 L192.35 6.13 L192.34 6.5 L192.34 6.95 L192.12 7.58 L191.86 8.37 L191.6 9.14 L191.39 9.75 L191.13 10.54 L190.87 11.32 L190.64 11.97 L190.44 12.58 L190.24 13.16 L190.2 13.31 L190.04 13.78 L189.82 14.44 L189.6 15.1 L189.37 15.76 L189.16 16.38 L188.9 17.19 L188.61 17.99 L188.35 18.76 L188.09 19.55 L187.83 20.31 L187.58 21.03 L187.24 22.04 L187.15 22.32 L185.69 22.88 L183.24 21.8 L182.88 22.65 L182.73 23.03 L182.41 23.79 L181.07 26.94 L180.56 28.14 L180.27 28.8 L179.88 29.69 L176.95 36.71 L176.8 37.07 L176.5 37.78 L176.3 38.26 L175.98 39 L175.25 40.75 L175.2 40.87 L175.1 41.1 L175.09 41.13 L174.92 41.52 L174.63 42.23 L174.32 42.95 L174.8 43.17 L175.98 43.68 L177.12 44.16 L177.13 45.09 L177.16 45.87 L176.76 47.32 L176.4 48.56 L176.07 49.73 L175.58 51.45 L175.14 52.96 L174.95 53.67 L174.6 54.46 L174.49 54.72 L174.02 55.89 L173.63 56.81 L173.41 57.33 L172.99 58.36 L172.42 59.75 L171.91 61 L171.64 61.66 L171.16 62.81 L170.69 63.96 L170.2 65.14 L169.74 65.63 L169.64 65.84 L169.59 65.97 L169.49 66.18 L169.38 66.45 L169.26 66.7 L169.21 66.86 L169.15 66.95 L169.14 66.99 L169.12 67.02 L169.09 67.08 L169.06 67.19 L169.01 67.35 L168.93 67.61 L168.81 68.02 L168.78 68.13 L168.69 68.42 L168.61 68.68 L168.59 68.77 L168.52 68.98 L168.47 69.13 L168.4 69.36 L168.34 69.55 L168.24 69.86 L168.17 70.09 L168.09 70.35 L168.03 70.54 L168 70.64 L167.95 70.78 L167.91 70.94 L167.82 71.21 L167.76 71.38 L167.71 71.56 L167.62 71.83 L167.47 72.31 L167.36 72.68 L167.27 72.98 L167.2 73.19 L167.16 73.31 L167.08 73.56 L166.99 73.84 L166.94 74.01 L166.86 74.25 L166.8 74.45 L166.73 74.7 L166.64 74.94 L166.59 75.11 L166.5 75.41 L166.44 75.6 L166.35 75.86 L166.3 76.05 L166.29 76.09 L166.21 76.26 L166.1 76.51 L166.03 76.65 L165.87 76.99 L165.77 77.19 L165.63 77.51 L165.54 77.71 L165.42 77.98 L165.31 78.22 L165.21 78.43 L165.1 78.68 L164.99 78.91 L164.86 79.2 L164.79 79.35 L164.67 79.63 L164.57 79.83 L164.49 79.99 L164.41 80.18 L164.27 80.47 L164.17 80.69 L164.08 80.89 L163.95 81.15 L163.86 81.35 L163.75 81.57 L163.64 81.82 L163.53 82.06 L163.43 82.27 L163.33 82.47 L163.2 82.76 L163.08 83.01 L162.98 83.23 L162.87 83.46 L162.75 83.7 L162.68 83.86 L162.58 84.07 L162.45 84.34 L162.41 84.43 L162.35 84.56 L162.26 84.75 L162.16 84.96 L162.11 85.07 L162.05 85.13 L162.3 85.24 L162.69 85.4 L163.01 85.53 L163.37 85.67 L163.65 85.79 L163.85 85.87 L164.06 85.95 L164.3 86.05 L164.6 86.18 L164.9 86.31 L165.08 86.37 L165.01 86.56 L164.94 86.77 L164.87 86.95 L164.7 87.4 L164.63 87.58 L164.55 87.81 L164.41 88.2 L164.32 88.44 L164.24 88.67 L164.12 89 L164.01 89.28 L163.92 89.53 L163.77 89.95 L163.69 90.18 L163.63 90.32 L163.58 90.45 L163.47 90.77 L163.32 91.17 L163.17 91.56 L163.02 91.96 L162.91 92.24 L162.9 92.28 L163.11 92.36 L163.27 92.43 L163.53 92.53 L163.81 92.65 L164.07 92.75 L164.33 92.87 L164.46 92.92 L164.71 93.02 L164.96 93.12 L165.14 93.19 L165.39 93.3 L165.7 93.43 L165.95 93.53 L166.25 93.66 L166.39 93.71 L166.64 93.82 L166.87 93.91 L167.07 93.99 L167.15 93.97 L167.26 93.97 L167.46 93.94 L167.81 93.91 L168.04 93.89 L168.33 93.85 L168.64 93.82 L168.91 93.79 L169.12 93.76 L169.48 93.73 L169.71 93.7 L169.98 93.68 L170.26 93.64 L170.57 93.61 L170.88 93.58 L171.13 93.55 L171.4 93.52 L171.52 93.5 L171.37 93.6 L170.95 93.81 L170.49 94.05 L170.12 94.24 L169.86 94.38 L169.73 94.44 L169.68 94.47 L169.43 94.59 L169.18 94.72 L168.91 94.85 L168.66 94.99 L168.34 95.15 L168.13 95.26 L167.84 95.41 L167.57 95.54 L167.29 95.69 L167.01 95.83 L166.69 95.98 L166.36 96.16 L166.03 96.33 L165.88 96.41 L165.58 96.56 L165.3 96.71 L165.05 96.84 L164.7 97.02 L164.46 97.14 L164.26 97.24 L164.28 97.29 L164.12 97.42 L163.95 97.61 L163.84 97.73 L163.77 97.79 L163.69 97.89 L163.47 98.11 L163.29 98.29 L163.17 98.42 L162.94 98.65 L162.74 98.87 L162.49 99.13 L162.35 99.28 L162.05 99.59 L161.79 99.86 L161.53 100.13 L161.32 100.36 L161.06 100.62 L160.7 101 L160.32 101.39 L160.04 101.69 L160.26 101.94 L160.61 102.33 L160.9 102.66 L161.08 102.86 L160.83 102.86 L160.73 102.87 L160.58 102.87 L160.29 102.88 L160.18 102.88 L160 102.88 L159.72 102.88 L159.49 102.89 L159.28 102.88 L158.97 103.2 L158.84 103.32 L158.7 103.46 L158.54 103.62 L158.28 103.88 L158.06 104.1 L157.88 104.27 L157.72 104.49 L157.54 104.75 L157.4 104.95 L157.22 105.21 L157.08 105.42 L156.93 105.63 L156.8 105.83 L156.63 106.08 L156.45 106.34 L156.23 106.66 L156.07 106.88 L156.06 106.91 L155.94 107 L155.84 107.08 L155.81 107.12 L155.9 107.12 L155.85 107.21 L155.58 107.6 L155.41 107.86 L155.34 107.89 L155.11 107.98 L154.85 108.09 L154.56 108.21 L154.31 108.3 L154.1 108.39 L153.81 108.51 L153.57 108.61 L153.28 108.73 L153.1 108.8 L153.04 108.82 L152.97 108.86 L152.73 108.95 L152.55 109.02 L152.31 109.2 L152.26 109.24 L152.14 109.34 L151.99 109.45 L151.77 109.6 L151.58 109.74 L151.37 109.9 L151.17 110.05 L150.98 110.19 L150.82 110.3 L150.8 110.31 L150.7 110.37 L150.49 110.53 L150.29 110.68 L150.19 110.75 L150.06 110.85 L149.84 111 L149.62 111.17 L149.46 111.27 L149.16 111.47 L148.74 111.78 L148.38 112.06 L148.04 112.3 L147.63 112.61 L147.25 112.9 L146.99 113.12 L146.76 113.27 L146.69 113.28 L146.5 113.34 L146.28 113.39 L145.89 113.51 L145.52 113.62 L145.05 113.75 L144.81 113.81 L144.51 113.9 L144.23 113.99 L143.93 114.07 L143.6 114.17 L143.39 114.22 L143.36 114.22 L143.31 114.25 L143.01 114.35 L142.59 114.47 L142.27 114.55 L142.22 114.56 L142.18 114.58 L141.86 114.68 L141.82 114.74 L141.38 115.29 L141.11 115.65 L140.9 115.93 L140.63 116.28 L140.36 116.63 L140.17 116.89 L139.92 116.84 L139.56 116.77 L139.17 116.7 L138.82 116.64 L138.43 116.55 L138.2 116.5 L137.82 116.65 L137.53 116.77 L137.32 116.85 L137.22 117.03 L137.19 117.14 L137.16 117.41 L137.13 117.75 L137.12 117.87 L137.12 117.27 L137.1 117.31 L136.99 117.54 L136.84 117.87 L136.65 118.28 L136.2 118.38 L135.93 118.43 L135.62 118.5 L134.7 118.77 L134.53 118.81 L134.5 118.82 L134.47 118.83 L134.21 118.91 L132.52 119.36 L131.14 119.74 L129.62 120.15 L129.45 120.1 L129.42 120.1 L129.4 120.22 L129.15 120.28 L129.3 120.66 L129.33 120.72 L129.6 121.37 L130.08 122.56 L129.57 123.58 L129.37 123.97 L129.35 124.01 L129.24 124.21 L129.34 124.45 L129.47 124.79 L129.62 125.18 L130.07 126.37 L130.43 127.31 L130.49 128.34 L130.5 128.66 L130.57 129.64 L130.83 130.08 L131.08 130.47 L131.38 130.99 L131.35 131.32 L131.28 132.19 L131.26 132.47 L131.16 133.78 L131.42 133.88 L133.95 134.81 L133.99 134.83 L134.25 134.92 L134.25 135.13 L134.25 135.48 L134.26 136.71 L134.28 136.79 L134.21 136.92 L134.07 137.22 L133.42 138.52 L133.23 138.76 L133.92 139.06 L135.67 138.83 L136.2 138.79 L136.78 138.71 L137.22 138.65 L137.59 138.6 L138.17 138.53 L138.46 138.49 L139.06 138.41 L139.31 138.38 L139.4 138.42 L139.54 138.45 L139.76 138.49 L140.34 138.63 L140.97 138.77 L140.95 138.5 L140.9 138.02 L140.84 137.62 L140.82 137.44 L140.79 137.13 L140.73 136.65 L140.69 136.24 L140.62 135.68 L140.57 135.2 L140.34 134.88 L140.32 134.72 L140.31 134.61 L140.28 134.3 L140.27 134.27 L140.26 134.05 L140.37 133.92 L140.58 133.62 L140.83 133.26 L141.02 133 L141.17 132.8 L141.46 132.4 L141.52 132.34 L141.62 132.19 L141.8 131.97 L142 131.69 L142.19 131.42 L142.25 131.35 L142.31 131.28 L142.42 131.11 L142.55 130.87 L142.68 130.64 L142.84 130.38 L142.99 130.12 L143.21 129.75 L143.35 129.52 L143.59 129.11 L143.68 128.97 L143.73 128.79 L143.8 128.51 L143.9 128.09 L143.96 127.84 L144.01 127.66 L144.1 127.29 L144.15 127.06 L144.18 126.89 L144.49 127 L144.81 127.08 L145.15 127.17 L145.51 127.27 L145.86 127.36 L146.02 127.4 L146.06 127.41 L146.16 127.41 L146.5 127.35 L146.98 127.27 L147.46 127.18 L147.7 127.13 L147.84 127.11 L147.73 127.28 L147.68 127.37 L147.47 127.73 L147.39 127.85 L147.36 127.92 L147.22 128.14 L147.2 128.19 L147.1 128.36 L146.92 128.67 L146.64 129.14 L146.57 129.35 L146.42 129.74 L146.32 130.05 L146.31 130.08 L146.2 130.37 L146.08 130.74 L145.94 131.1 L145.75 131.63 L145.68 131.85 L145.61 132.04 L145.51 132.32 L145.43 132.49 L145.5 132.72 L145.62 133.08 L145.74 133.49 L145.87 133.89 L145.94 134.11 L146.79 135.01 L147.06 135.04 L147.62 135.1 L147.63 135.1 L148.05 135.1 L148.17 135.13 L148.53 135.21 L148.52 135.26 L148.45 135.69 L148.38 136.19 L148.3 136.74 L148.22 137.23 L148.15 137.7 L148.07 138.17 L148.46 138.18 L149.09 138.21 L149.28 137.85 L149.59 137.28 L149.88 136.74 L150.18 136.18 L150.4 135.77 L150.54 135.57 L150.78 135.29 L151.04 135.04 L151.21 134.87 L151.39 134.68 L151.57 134.49 L151.83 134.22 L152.03 134.02 L152.35 133.68 L152.68 133.33 L152.86 133.14 L153.11 132.89 L153.18 132.85 L153.17 132.77 L153.25 132.59 L153.33 132.3 L153.44 131.93 L153.52 131.68 L153.62 131.3 L153.76 130.8 L153.8 130.65 L153.83 130.53 L154.2 130.69 L154.55 130.84 L154.73 130.92 L155.27 131.14 L155.46 131.22 L155.61 130.9 L155.81 130.51 L155.97 130.16 L156.08 129.92 L156.34 130.05 L156.5 130.13 L156.78 130.27 L156.87 130.31 L157.29 130.52 L157.6 130.68 L157.7 130.52 L157.86 130.27 L157.88 130.24 L157.99 130.09 L158.14 129.86 L158.24 129.71 L158.4 129.48 L158.61 129.16 L158.75 128.94 L158.98 128.59 L159.11 128.4 L159.2 128.27 L159.2 128.22 L159.32 128.1 L159.49 127.93 L159.66 127.77 L159.91 127.51 L160.1 127.33 L160.19 127.23 L160.33 127.09 L160.36 127.05 L160.43 126.99 L160.56 126.85 L160.79 126.63 L161.03 126.38 L161.22 126.19 L161.32 126.29 L161.58 126.52 L161.74 126.66 L161.82 126.73 L162.09 126.97 L162.12 126.73 L162.14 126.43 L162.16 126.16 L162.19 125.82 L162.2 125.62 L162.22 125.15 L162.19 125.15 L162.19 124.95 L162.18 124.78 L162.15 124.39 L162.14 124.17 L162.08 123.81 L162 123.38 L161.92 122.94 L161.86 122.55 L161.82 122.52 L161.85 122.48 L162.05 122.29 L162.26 122.08 L162.51 121.83 L162.67 121.67 L162.94 121.41 L163.04 121.31 L163.26 121.09 L163.5 120.85 L163.62 120.72 L163.63 120.71 L163.75 120.62 L163.77 120.6 L163.95 120.5 L164.16 120.37 L164.41 120.23 L164.62 120.1 L164.67 120.07 L164.86 119.96 L165.2 119.77 L165.58 119.55 L165.95 119.33 L166.32 119.11 L166.63 118.93 L166.9 118.77 L167.19 118.61 L167.2 118.9 L167.2 119.18 L167.21 119.52 L167.22 119.75 L167.22 120.09 L167.23 120.31 L167.24 120.72 L167.25 120.96 L167.26 121.36 L167.27 121.89 L167.27 122.17 L167.27 122.3 L167.28 122.48 L167.42 122.64 L167.53 122.79 L167.68 122.96 L167.8 123.1 L167.92 123.34 L168.06 123.54 L168.3 123.88 L168.42 124.04 L168.56 124.25 L168.73 124.17 L168.95 124.05 L169.19 123.92 L169.44 123.78 L169.63 123.68 L169.89 123.53 L170.14 123.4 L170.29 123.32 L170.51 123.2 L170.81 123.3 L170.85 123.32 L172.68 123.93 L172.95 124.02 L172.92 123.53 L172.9 123.17 L172.97 123.11 L173.2 122.92 L173.36 122.79 L173.54 122.64 L173.82 122.4 L174.04 122.22 L174.28 122.02 L174.54 121.81 L174.81 121.59 L175 121.42 L175.18 121.28 L175.33 121.14 L175.53 120.96 L175.76 120.77 L176.01 120.54 L176.22 120.35 L176.48 120.12 L176.65 119.97 L176.74 119.89 L176.8 119.85 L177.05 119.62 L177.29 119.41 L177.37 119.34 L177.44 119.27 L177.62 119.11 L177.79 118.97 L177.86 118.97 L178.19 119.14 L178.47 119.29 L178.77 119.45 L178.89 119.82 L178.95 120.03 L179.05 120.38 L179.17 120.78 L179.22 120.95 L179.34 121.35 L179.42 121.61 L179.46 121.69 L179.45 121.73 L179.41 121.94 L179.35 122.22 L179.3 122.48 L179.24 122.77 L179.14 123.22 L179.09 123.5 L178.94 123.61 L178.8 123.72 L178.56 123.92 L178.23 124.18 L177.97 124.4 L177.67 124.64 L177.5 124.77 L177.47 124.78 L177.33 125.02 L177.16 125.26 L176.91 125.63 L176.71 125.91 L176.5 126.22 L176.29 126.51 L176.05 126.88 L175.85 127.15 L175.63 127.47 L175.41 127.79 L175.21 128.08 L175.09 128.24 L174.94 128.32 L174.64 128.51 L174.3 128.72 L173.91 128.96 L173.58 129.17 L173.25 129.37 L172.99 129.52 L172.7 129.71 L172.42 129.87 L172.15 130.05 L171.72 130.3 L171.48 130.46 L171.25 130.6 L170.92 130.79 L170.67 130.94 L170.36 131.27 L170.24 131.41 L170.06 131.61 L169.81 131.88 L169.66 132.04 L169.82 132.24 L170.2 132.78 L170.38 133.04 L170.57 133 L170.89 132.93 L171.33 132.84 L171.68 132.78 L172.21 132.7 L172.66 132.65 L173.26 132.57 L173.38 132.79 L173.63 133.32 L173.91 133.87 L174.31 134.15 L174.82 134.5 L175.31 134.82 L175.67 135.03 L176.07 135.03 L176.46 135.28 L177.1 135.75 L177.49 135.51 L178.17 135.13 L178.38 134.9 L178.46 134.85 L178.52 134.83 L178.81 134.66 L179.15 134.47 L179.42 134.32 L179.62 134.21 L179.78 134.11 L179.91 134.03 L180 133.76 L180.1 133.41 L180.13 133.34 L180.19 133.16 L180.29 132.85 L180.37 132.56 L180.5 132.49 L180.73 132.37 L181 132.24 L181.34 132.07 L181.6 131.94 L181.86 131.8 L182.27 131.59 L182.56 131.45 L182.93 131.26 L183.21 131.12 L183.3 131.16 L183.63 131.33 L183.96 131.52 L184.32 131.7 L184.69 131.9 L185.14 132.14 L185.16 131.6 L185.18 131.2 L185.19 130.93 L185.2 130.47 L185.21 130.15 L185.21 129.69 L185.41 129.54 L185.65 129.37 L186.03 129.08 L186.42 128.79 L186.75 128.54 L186.92 128.39 L187.18 127.48 L187.33 126.96 L187.39 126.55 L187.43 126.21 L187.47 125.89 L187.52 125.54 L187.55 125.32 L187.57 125 L187.59 124.83 L187.62 124.79 L187.6 124.66 L187.54 124.07 L187.5 123.71 L187.43 123.14 L187.39 122.77 L187.51 122.58 L187.65 122.35 L187.88 121.98 L188.01 121.77 L188.23 121.45 L188.33 121.29 L188.37 121.27 L188.52 121.11 L188.74 120.85 L188.92 120.65 L189.16 120.39 L189.35 120.18 L189.64 119.84 L189.86 119.59 L190.12 119.28 L190.33 119.04 L190.51 118.82 L190.68 118.64 L190.86 118.74 L191.28 118.96 L191.72 119.18 L191.88 119.27 L191.77 119.58 L191.7 119.83 L191.55 120.2 L191.35 120.71 L191.19 121.15 L191.05 121.54 L191.02 121.62 L190.93 121.87 L191.1 122.12 L191.33 122.53 L191.48 122.78 L191.73 123.18 L191.88 123.45 L192 123.44 L192.27 123.39 L192.67 123.33 L192.99 123.28 L193.37 123.21 L193.71 123.15 L194.05 123.1 L194.34 123.04 L194.62 123 L194.83 122.96 L194.9 122.96 L195.08 122.92 L195.25 122.9 L195.45 122.86 L195.55 122.84 L195.69 122.82 L195.9 122.8 L196.14 122.76 L196.32 122.57 L196.46 122.44 L196.63 122.27 L196.8 122.1 L196.95 121.94 L197.08 121.83 L197.35 121.56 L197.58 121.33 L197.91 121 L198.12 120.79 L198.46 120.45 L198.57 120.35 L198.85 120.39 L199.24 120.46 L199.98 120.58 L200.2 120.61 L200.51 120.66 L200.87 120.72 L201.27 120.78 L201.51 120.83 L201.64 120.84 L201.71 120.99 L201.91 121.42 L202.07 121.69 L202.18 121.76 L202.49 121.92 L202.5 121.93 L202.54 121.94 L202.72 122.04 L203.64 122.53 L203.97 122.71 L204.08 122.84 L204.32 123.12 L204.37 123.17 L204.54 123.39 L204.85 123.75 L205.06 124 L205.26 123.78 L205.56 123.44 L205.74 123.24 L205.94 123.01 L205.99 122.95 L206.28 122.61 L206.31 122.57 L206.48 122.39 L206.72 122.12 L206.86 121.95 L207.08 121.68 L207.2 121.54 L207.4 121.29 L207.59 121.07 L207.81 120.81 L207.86 120.73 L207.96 120.62 L208.09 120.47 L208.24 120.28 L208.53 119.94 L208.81 119.6 L209.01 119.34 L209.29 119.02 L209.35 118.95 L209.5 118.77 L209.56 118.69 L209.79 118.4 L209.88 118.3 L209.94 118.22 L210.2 117.91 L210.28 117.8 L210.39 117.73 L210.41 117.7 L210.5 117.61 L210.64 117.47 L210.94 117.16 L211.04 117.05 L211.11 117.05 L211.35 116.95 L211.6 116.85 L211.98 116.7 L212.33 116.56 L212.59 116.45 L212.84 116.34 L213 116.28 L213.26 116.18 L213.46 116.09 L213.63 116.02 L213.84 115.94 L214.08 115.83 L214.31 115.73 L214.5 115.66 L214.62 115.44 L214.71 115.28 L214.85 115.05 L214.97 114.84 L215.09 114.64 L215.19 114.47 L215.3 114.3 L215.44 114.07 L215.55 113.88 L215.65 113.7 L215.75 113.54 L215.79 113.5 L215.89 113.32 L216.01 113.11 L216 113.21 L215.93 113.48 L215.84 113.84 L215.81 113.98 L215.71 114.35 L215.63 114.65 L215.56 114.92 L215.48 115.25 L215.41 115.53 L215.32 115.88 L215.27 116.11 L215.2 116.37 L215.19 116.43 L215.14 116.63 L215.08 116.85 L214.9 116.98 L214.58 117.22 L214.33 117.41 L214.07 117.6 L213.76 117.83 L213.44 118.07 L213.23 118.23 L212.93 118.44 L212.81 118.53 L212.6 118.7 L212.4 118.84 L212.25 118.95 L211.95 119.16 L211.76 119.3 L211.56 119.44 L211.55 119.49 L211.45 119.86 L211.33 120.28 L211.23 120.66 L211.11 121.07 L211 121.41 L210.94 121.5 L210.84 121.86 L210.71 122.3 L210.58 122.74 L210.45 123.17 L210.37 123.39 L210.21 123.47 L209.95 123.61 L209.67 123.75 L209.43 123.87 L209.16 124.01 L208.9 124.15 L208.61 124.28 L208.37 124.4 L208.33 124.62 L208.26 125.01 L208.19 125.39 L208.12 125.77 L208.04 126.18 L207.98 126.58 L207.92 126.82 L208 126.86 L208.31 126.91 L208.61 126.97 L208.87 127.01 L209.29 127.08 L209.56 127.12 L210.16 127.22 L210.58 127.27 L210.88 127.31 L211.22 127.35 L211.41 127.36 L211.57 127.39 L211.88 127.43 L212.36 127.48 L212.66 127.5 L213.17 127.52 L213.49 127.52 L213.86 127.53 L214.24 127.55 L214.49 127.55 L214.37 127.64 L214.12 127.83 L213.84 128.03 L213.5 128.3 L213.12 128.58 L212.83 128.78 L212.54 128.96 L212.43 129.04 L212.31 129.05 L211.72 129.16 L211.19 129.26 L210.77 129.35 L210.67 129.37 L210.63 129.42 L210.45 129.49 L210.14 129.61 L209.75 129.78 L209.66 129.83 L209.57 129.83 L209.3 129.85 L208.92 129.89 L208.49 129.94 L208.22 129.96 L207.92 129.99 L207.69 130.01 L207.3 130.05 L207 130.07 L206.62 130.1 L206.32 130.13 L205.97 130.15 L205.76 130.17 L205.6 129.99 L205.35 129.72 L205.11 129.46 L204.88 129.21 L204.6 128.91 L204.35 128.63 L204.1 128.37 L203.84 128.09 L203.6 127.83 L203.31 127.5 L203.1 127.25 L202.87 127.18 L202.39 127.03 L201.97 126.9 L201.54 126.77 L201.14 126.63 L200.95 126.72 L200.58 126.84 L200.14 127.03 L199.75 127.2 L199.32 127.39 L198.95 127.56 L198.58 127.72 L198.21 127.88 L197.91 128.01 L197.65 128.12 L197.57 128.16 L197.2 128.33 L196.78 128.51 L196.4 128.67 L196.01 128.85 L195.62 129.01 L195.16 129.2 L194.89 129.31 L194.84 129.42 L194.77 129.61 L194.62 130.03 L194.45 130.52 L194.34 130.84 L194.24 131.13 L194.2 131.23 L194.18 131.26 L194.11 131.48 L194.02 131.74 L193.84 132.24 L193.75 132.49 L193.64 132.79 L193.6 132.87 L193.47 133.02 L193.28 133.21 L193.25 133.26 L193.11 133.4 L192.89 133.64 L192.69 133.86 L192.47 134.09 L192.26 134.32 L192.07 134.52 L191.83 134.79 L191.68 134.94 L191.76 134.99 L192.03 134.96 L191.66 135.37 L191.3 135.75 L191.14 135.93 L191.11 136 L190.83 136.21 L190.35 136.59 L190.04 136.81 L190.1 136.87 L190.54 137.23 L190.89 137.54 L191.3 137.88 L191.22 138.19 L191.1 138.7 L190.99 139.09 L190.94 139.29 L190.8 139.81 L190.72 140.12 L190.06 139.98 L189.8 139.92 L189.39 139.83 L188.99 139.75 L188.22 139.58 L188.09 139.55 L187.44 139.41 L187.24 139.37 L186.85 139.29 L186.35 139.18 L185.92 139.41 L185.13 139.84 L184.26 140.29 L183.45 140.72 L182.51 141.21 L182.18 141.38 L181.43 141.78 L181.26 141.87 L180.75 142.14 L179.89 142.59 L179.1 143 L178.75 143.19 L178.35 143.26 L177.44 143.42 L176.61 143.57 L176.19 143.65 L175.84 143.96 L175.47 144.27 L175.27 144.45 L175.3 144.88 L175.34 145.4 L175.38 145.96 L175.42 146.48 L175.46 147.04 L175.49 147.51 L175.52 148.03 L175.55 148.48 L175.58 148.81 L175.56 148.98 L175.56 149.02 L175.51 149.58 L175.46 150.07 L175.4 150.69 L175.36 151.21 L175.3 151.72 L175.28 151.99 L176.02 152.02 L176.13 152.02 L177.11 152.06 L178.19 152.1 L179.17 152.14 L180.12 152.17 L181.16 152.2 L182.1 152.25 L182.19 152.44 L182.46 153.16 L182.56 153.42 L183.11 153.33 L183.95 153.21 L184.59 153.12 L184.62 153.28 L184.75 154.01 L184.87 154.68 L184.93 155 L184.28 155.31 L183.41 155.73 L182.69 156.07 L182.22 156.3 L182.03 156.38 L181.7 156.52 L181.61 156.72 L181.3 157.36 L181.06 157.84 L181.39 159.07 L182.42 159.18 L182.49 159.22 L182.94 158.56 L183.4 157.92 L183.76 157.41 L183.78 157.36 L184.78 157.48 L185.63 157.59 L186.62 157.44 L187.4 157.31 L188.2 157.17 L188.63 157.11 L188.85 157.16 L189.58 157.28 L190.05 157.38 L190.24 157.16 L190.79 156.58 L191.33 155.99 L191.85 155.43 L192.4 154.84 L192.85 154.35 L193.23 153.93 L193.66 153.46 L193.55 153.08 L193.4 152.57 L193.31 152.31 L193.55 152.02 L193.97 151.52 L194.44 150.96 L194.84 150.47 L195.26 149.95 L195.48 149.7 L196.12 149.62 L196.93 149.52 L197.51 149.45 L197.79 149.25 L198.4 148.79 L198.97 148.37 L199.61 147.9 L199.98 147.53 L200.43 147.11 L200.89 146.68 L201.38 146.19 L201.81 145.79 L202.32 145.32 L202.76 144.89 L203.12 144.52 L203.14 144.57 L203.25 144.93 L203.43 145.44 L203.46 145.56 L203.5 145.7 L203.59 145.95 L203.66 146.13 L203.75 146.42 L203.85 146.72 L203.87 146.84 L205.07 146.78 L206.22 146.73 L207 146.71 L207.58 146.62 L208.82 146.42 L210.19 146.2 L211.5 145.97 L212.06 145.88 L212.22 146.26 L212.42 146.73 L212.96 146.72 L213.56 146.69 L213.65 148.66 L213.79 149.58 L214.06 150.35 L214.28 151.36 L214.28 151.36 L213.56 151.11 L213.45 151.09 L212.46 150.95 L211.59 150.84 L210.86 150.73 L210.06 150.61 L209.97 150.62 L209.24 150.64 L209.15 150.64 L208.76 150.64 L208.73 150.96 L208.72 151.13 L208.65 151.66 L208.6 152.19 L208.56 152.62 L208.38 152.62 L207.72 152.63 L206.98 152.65 L206.43 152.66 L206.27 152.66 L205.57 152.67 L204.84 152.69 L204.24 152.69 L203.46 153.04 L202.86 153.32 L202.04 153.68 L201.26 154.02 L200.9 154.18 L200.63 154.47 L200.23 154.93 L199.98 155.23 L199.6 155.66 L199.17 156.15 L199.09 156.24 L198.74 156.63 L198.37 157.07 L197.97 157.51 L197.57 157.97 L196.87 158.79 L196.84 158.82 L196.44 159.27 L196.09 159.69 L195.81 159.87 L195.07 160.38 L194.59 160.71 L193.99 161.12 L193.33 161.55 L192.69 162 L191.96 162.49 L191.23 163 L190.27 163.45 L189.33 163.88 L188.42 164.31 L187.53 164.73 L186.8 165.07 L185.97 165.46 L185.12 165.84 L184.73 166.03 L185.04 166.06 L185.25 166.07 L185.41 166.08 L186.07 166.1 L187.11 166.12 L188.12 166.15 L189.24 166.19 L189.56 166.18 L190.09 166.12 L191.03 166.01 L192.1 165.88 L192.99 165.78 L194 165.66 L194.93 165.55 L195.37 165.49 L195.51 165.8 L195.62 166.07 L195.85 166.63 L196 166.98 L195.71 167.21 L195.3 167.59 L194.74 168.11 L194.5 168.33 L194.02 168.52 L193.27 168.84 L192.37 169.22 L191.96 169.39 L190.99 169.8 L190.49 170.01 L190.06 170.14 L189.17 170.42 L188.14 170.73 L187.31 170.97 L186.93 171.09 L186.39 171.26 L185.6 171.49 L184.83 171.72 L184.66 171.78 L184.91 171.9 L185.01 171.93 L185.31 172.06 L186.02 172.38 L186.2 172.46 L186.69 172.67 L187.51 173.02 L188.3 173.36 L188.84 173.6 L189.03 173.68 L189.65 173.94 L190.1 174.14 L190.9 174.49 L191.79 174.87 L192.37 175.13 L192.8 175.26 L193.82 175.59 L194.14 175.69 L194.66 175.86 L195.19 176.03 L195.49 176.41 L195.98 177 L196.44 177.57 L196.69 177.86 L197.08 178.33 L197.43 178.75 L197.74 179.13 L197.92 179.34 L198.01 179.45 L198.09 179.56 L198.41 180 L198.77 180.46 L199.13 180.93 L199.52 181.45 L199.73 181.72 L199.78 182.12 L199.85 182.65 L199.93 183.32 L200.02 184.05 L200.1 184.68 L200.09 184.82 L200.02 185.5 L199.95 186.13 L199.89 186.67 L199.84 187.19 L199.78 187.78 L199.72 188.41 L199.68 188.78 L200.03 188.93 L200.75 189.25 L201.49 189.58 L202.34 189.95 L203 190.23 L203.3 190.36 L203.38 190.35 L204 190.35 L204.77 190.35 L205.47 190.35 L205.93 190.35 L206.5 190.34 L206.97 190.34 L207.87 190.33 L207.79 189.69 L207.7 189.01 L207.63 188.38 L207.53 187.65 L207.45 186.94 L207.36 186.25 L207.27 185.46 L207.18 184.76 L207.09 184.03 L207.06 183.73 L207.26 183.29 L207.53 182.66 L207.79 182.06 L208.04 181.49 L208.2 181.12 L208.36 180.76 L208.54 180.33 L208.65 180.09 L208.82 179.71 L208.95 179.4 L209.15 178.93 L208.78 178.81 L207.77 178.49 L207.69 177.83 L207.64 177.51 L207.58 177.12 L207.52 176.62 L208.06 176.43 L208.57 176.25 L209.26 176.01 L210.06 175.73 L210.53 175.65 L211.11 175.52 L211.62 175.43 L212.62 175.24 L213.03 174.89 L213.41 174.57 L213.92 174.14 L214.42 173.72 L214.73 173.45 L215.35 172.93 L215.87 172.49 L216.39 172.05 L216.71 171.79 L216.98 171.55 L217.49 171.17 L218.09 170.71 L217.64 170.08 L217.25 169.51 L217.01 169.17 L217.06 168.82 L217.13 168.16 L217.21 167.44 L217.3 166.64 L217.45 165.16 L216.99 163.98 L216.45 162.6 L216.19 161.91 L216.18 161.17 L216.18 160.45 L216.18 159.66 L216.32 159.73 L216.79 160.01 L217.42 160.38 L217.78 160.59 L218.07 160.76 L218.53 161.02 L219.1 161.37 L219.18 161.6 L219.34 162.21 L219.54 162.9 L219.73 163.58 L219.92 164.24 L220.11 164.89 L220.24 165.38 L220.39 165.91 L220.58 166.58 L220.84 167.51 L221.09 167.4 L221.78 167.07 L221.79 166.73 L221.83 166.05 L221.86 165.37 L221.9 164.69 L221.95 163.82 L221.73 163.24 L221.48 162.58 L221.08 161.5 L221.96 161.34 L221.84 161.17 L222.8 160.6 L222.83 159.99 L223.75 159.41 L224.76 158.78 L224.88 159.39 L225.01 160.01 L225.48 160.67 L225.85 161.2 L226.45 161.12 L227.48 160.5 L227.6 160.41 L228.16 160.36 L229.47 160.19 L230.58 160.05 L231.66 159.54 L232.7 159.03 L233.9 158.46 L234.27 158.28 L235.52 157.68 L235.8 157.64 L236.96 157.51 L237.04 157.63 L237.7 158.43 L238.79 158.36 L239.89 158.29 L240.49 157.51 L241.04 156.78 L241.6 156.05 L241.96 155.57 L242.2 155.9 L242.61 156.44 L243.2 157.22 L243.56 157.69 L243.83 158.06 L244.49 158.9 L244.81 159.33 L245.27 159.95 L245.24 160.01 L244.72 160.62 L244.14 161.31 L243.36 162.22 L243.09 162.54 L242.51 163.24 L241.92 163.94 L241.79 164.11 L241.64 164.27 L241.46 164.49 L240.95 164.77 L240.14 165.23 L239.16 165.79 L238.74 165.59 L237.71 165.09 L237.43 164.94 L237.66 165.21 L238.47 166.08 L238.8 166.45 L238.95 166.61 L240.16 167.07 L240.46 167.18 L241.08 167.42 L242.58 167.98 L242.61 168.02 L243 168.89 L243.35 169.66 L244.19 169.3 L245.18 168.88 L246.23 168.42 L246.55 168.29 L246.75 168.22 L247.67 167.96 L248.39 167.76 L248.57 168.14 L248.91 168.8 L249.31 169.59 L248.98 170.14 L248.16 171.54 L247.61 172.44 L248.27 172.41 L249.45 172.33 L250.59 172.26 L251.52 172.09 L252.33 171.93 L252.63 171.58 L253.07 171.04 L253.24 170.84 L253.4 170.65 L253.97 169.94 L254.41 169.41 L254.66 169.1 L255.17 168.47 L255.46 168.14 L255.77 167.75 L256.34 167.06 L256.99 166.25 L257.51 165.61 L257.54 165.45 L257.67 164.61 L257.81 163.73 L257.91 163.02 L258.05 162.16 L258.19 161.23 L258.32 160.34 L258.46 159.41 L258.61 158.45 L258.75 157.51 L258.82 157.05 L259.3 156.14 L259.85 155.11 L260.31 154.24 L260.8 153.36 L261.34 152.39 L261.64 151.82 L262.58 151.87 L263.39 151.92 L263.09 152.38 L262.65 153.08 L262.21 153.76 L261.9 154.23 L261.84 154.91 L261.74 155.75 L261.69 156.12 L261.84 156.62 L262.16 157.62 L262.51 158.77 L262.91 160.06 L262.77 160.95 L262.63 161.94 L262.53 162.63 L262.4 163.48 L262.16 164.09 L261.94 164.65 L261.72 165.19 L261.52 165.7 L261.3 166.25 L261.09 166.77 L260.86 167.33 L260.65 167.87 L260.41 168.44 L260.19 168.98 L259.96 169.54 L259.74 170.09 L259.55 170.56 L259.16 171.13 L258.65 171.88 L258.04 172.77 L257.53 173.53 L257.16 174.09 L256.8 174.61 L256.58 174.94 L256.56 174.99 L256.49 175.45 L256.36 176.22 L256.22 177.11 L256.12 177.69 L255.8 177.93 L254.75 178.75 L254.01 179.34 L253.15 178.79 L252.64 178.45 L252.06 178.74 L251.26 179.15 L250.58 179.1 L249.53 179.05 L248.49 178.81 L248.04 178.68 L247.76 178.68 L246.29 178.69 L246.24 179.09 L246.16 179.87 L246.07 180.67 L245.97 181.53 L245.93 181.91 L245.94 182.27 L245.98 183.08 L246.25 183.53 L246.75 184.4 L246.88 184.62 L247.36 185.45 L248.36 185.4 L248.75 185.39 L248.89 185.33 L250.46 184.66 L250.54 184.62 L251.31 184.29 L251.97 184.68 L252.21 184.81 L252.36 184.7 L253.46 183.8 L254.78 183.65 L255.26 183.59 L255.24 183.69 L254.95 184.59 L254.85 184.95 L255.09 185.08 L255.62 185.47 L256.92 186.37 L258.26 187.3 L259.58 187.27 L261.32 187.23 L261.98 186.7 L262.78 186.04 L262.65 185.62 L262.35 184.69 L262.05 183.7 L262.04 183.67 L262.66 183.06 L263 182.72 L263.08 181.88 L263.16 181.1 L263.23 180.29 L263.3 179.48 L263.37 178.72 L263.42 178.17 L263.45 177.9 L263.39 177.78 L263.21 177.11 L263.1 176.62 L263 176.2 L262.86 175.66 L262.72 175.09 L263.55 175.44 L264.55 175.77 L264.57 175.77 L265.56 176.13 L265.54 176.8 L265.54 177.32 L265.53 177.57 L265.53 177.81 L265.52 178.54 L265.51 179.04 L266.88 178.98 L268.06 178.95 L268.88 179.99 L269.27 180.47 L269.67 180.98 L270.1 181.53 L270.52 182.03 L271 182.65 L271.5 183.28 L271.98 183.88 L272.24 184.23 L272.8 184.05 L273.54 183.82 L274.48 183.45 L274.6 183.42 L275.38 182.92 L275.83 182.63 L276.12 183.36 L276.37 184.01 L276.58 184.6 L276.27 185.41 L276.01 186.09 L275.81 186.63 L276.09 186.92 L276.61 187.45 L277.06 187.3 L278.1 186.94 L279.26 186.53 L279.44 187.2 L279.59 187.8 L279.7 188.27 L280.23 188.85 L280.38 189.03 L280.43 188.77 L280.53 188.14 L280.62 187.6 L280.73 186.93 L280.86 186.26 L280.96 185.61 L281.06 184.97 L281.18 184.28 L281.32 183.41 L281.46 182.57 L281.59 181.73 L281.73 180.93 L281.85 180.12 L282 179.24 L282.14 178.35 L282.29 177.46 L282.41 176.69 L282.54 175.89 L282.67 175.09 L282.78 174.42 L282.83 174.05 L283.37 173.68 L284.42 172.96 L284.6 172.83 L286.25 174.22 L287.64 175.17 L288.61 175.47 L289.36 175.49 L289.28 175.98 L289.15 176.69 L289.03 177.45 L288.9 178.21 L288.77 178.97 L288.7 179.33 L288.71 179.7 L288.7 180.42 L288.69 181.11 L288.69 181.82 L288.68 182.53 L288.68 183.25 L288.67 183.95 L288.67 184.67 L288.66 185.42 L288.64 186 L288.54 186.3 L288.39 186.8 L288.17 187.51 L288.03 187.94 L288 188.11 L287.98 188.14 L287.97 188.25 L287.74 188.97 L287.51 189.71 L287.28 190.45 L287.2 190.71 L287.08 191.09 L286.89 191.69 L286.59 192.38 L286.33 192.98 L286.02 193.69 L285.71 194.41 L285.41 195.12 L284.87 196.38 L284.93 196.44 L285.37 197.02 L285.88 197.68 L286.26 198.18 L286.86 198 L287.56 197.79 L287.54 198.01 L287.45 198.69 L287.35 199.4 L287.26 200.08 L288 200.72 L288.85 201.44 L289.57 202.06 L290.01 202.41 L290.77 201.98 L291.98 201.29 L292.86 200.78 L293.07 201.34 L293.38 202.24 L294.01 201.9 L295.21 201.25 L296.72 200.42 L296.55 199.61 L296.39 198.76 L296.2 197.84 L296.01 196.85 L296.34 196.53 L297.02 195.83 L297.62 195.21 L298.37 195.69 L299.13 196.18 L299.45 197.09 L299.77 197.94 L299.88 198.28 L300.58 198.02 L301.86 197.53 L303.25 197.18 L304.12 196.94 L304.57 196.82 L305.49 196.57 L306.8 196.22 L307.24 196.11 L308.22 195.84 L308.37 195.8 L308.31 195.21 L308.21 194.33 L308.17 194.06 L308.19 194.02 L308.29 193.52 L308.45 192.67 L308.6 191.89 L308.63 191.23 L308.81 190.8 L308.98 190.04 L309.2 189.08 L309.42 188.12 L309.62 187.23 L309.79 186.43 L309.93 186.28 L310.77 185.31 L311.61 184.34 L312.41 183.39 L313.24 182.43 L314.06 181.49 L314.54 180.93 L315.05 180.95 L315.67 180.98 L316.19 181.01 L317.47 181.06 L318.1 181.08 L319.85 181.88 L321.25 182.8 L322.14 183.38 L322.5 183.44 L323.98 183.68 L325.31 183.89 L325.33 183.04 L325.33 182.1 L325.34 181.06 L325.46 180.55 L325.68 179.54 L325.89 178.63 L327.07 177.81 L329.97 179.83 L329.68 179.86 L328.71 181.19 L329.18 182.45 L327.92 185.22 L323.8 187.69 L318.45 186.6 L315.94 188.04 L316.76 190.4 L321.34 191.18 L323.85 190 L332.96 185.71 L333.76 185.34 L337.15 184.65 L342.51 189.71 L342.18 191.35 L336.14 198.29 L340.75 198.15 L349.82 196.37 L353.6 199.4 L357.4 199.77 L358.75 205.08 L357.93 210.73 L361.62 211.99 L363.89 210.8 L364.77 213.87 L363.63 216.2 L370.63 217.82 L372.02 214.77 L373.18 215.01 L376.84 215.83 L378.06 217.15 L377.46 218.9 L376.34 221.41 L371.57 223.68 L370.87 223.83 L368.84 224.18 L367.85 224.34 L367.57 225.43 L367.18 226.88 L366.86 228.36 L367.34 230.47 L367.61 231.91 L367.01 231.91 L366.05 232.33 L365.49 233.01 L363.85 231.69 L363.6 229.72 L363.58 229.55 L363.45 228.15 L363.25 226.01 L363.25 226 L363.11 224.48 L362.78 224.45 L361.11 224.34 L358.69 223.25 L357.21 223.56 L355.05 217.7 L353.69 216.51 L350.88 215.26 L350.2 214.12 L349.95 213.7 L349.93 212.94 L349.86 209.99 L349.32 208.86 L349.27 208.76 L347.82 205.75 L345.79 204.12 L345.05 203.29 L342.81 202.5 L340.86 203.2 L340.84 203.2 L339.81 203.4 L335.36 204.46 L335.36 204.46 L332.19 203.7 L331.73 203.37 L331.26 203.04 L329.57 203.39 L330.45 201.85 L329.65 196.38 L329.57 195.8 L329.44 194.94 L329.41 194.73 L329.26 194.86 L328.07 195.87 L327.28 197.48 L326.05 196.76 L322.67 197.32 L322.72 199.18 L322.29 199.92 L322.14 200.19 L321.8 200.78 L321.65 200.78 L319.96 200.77 L319.82 199.86 L319.77 199.58 L319.6 198.42 L319.32 198.43 L318.13 198.5 L315.99 197.93 L316.16 199.38 L315.32 200.61 L313.54 200.42 L313.34 199.45 L312.22 199.46 L313.42 201.31 L311.58 201.18 L310.9 201.76 L309.12 202.6 L308.57 202.45 L308.23 202.37 L307.47 202.2 L307.38 202.21 L305.16 202.47 L304.08 201.31 L303.91 201.12 L303.76 201.19 L303.41 201.36 L303.45 201.52 L303.7 202.41 L304.31 204.48 L304.36 205.05 L303.21 206.63 L302.97 206.94 L302.77 207.22 L301.43 206.71 L299.61 207.7 L299.91 208.38 L299.31 209.52 L298.57 210.5 L297.85 210.46 L297.22 210.43 L296.65 211.5 L293.55 210.51 L289.93 209.85 L285.95 208.43 L282.78 204.25 L280.29 200.77 L271.07 198.73 L269.04 198.79 L267.56 198.83 L266.8 198.57 L264.67 197.82 L262.37 196.97 L261.25 196.56 L260.85 194 L260.81 193.74 L259.51 193.59 L258.58 193.48 L256.86 194.13 L256.37 193.74 L255.58 193.1 L254.81 193.22 L253.61 192.14 L252.94 192.17 L252.16 192.21 L251.95 192.22 L250.72 193.78 L248.46 196.64 L248.34 196.8 L248.86 197.76 L249.36 198.67 L249 198.75 L248.6 198.84 L247.33 199.12 L244.98 195.35 L244.4 194.51 L241.01 194.22 L237.44 186.55 L236.1 182.45 L236.01 182.36 L236.06 182.31 L235.88 181.75 L234.6 179.93 L234.26 179.44 L234.42 179.1 L235.4 177.03 L235.46 176.64 L235.81 174.26 L234.74 172.89 L234.63 172.82 L234.22 172.59 L232.27 171.49 L231.27 170.22 L229.99 168.55 L229.89 168.66 L229.32 169.78 L228.25 172.05 L228.22 172.74 L228.17 174.11 L227.24 174.11 L227.56 174.89 L227.71 175.24 L227.92 175.76 L228.35 176.8 L226.45 176.7 L226.04 176.68 L226.01 176.52 L225.83 175.58 L225.35 174.37 L224.73 175.2 L224.19 174.98 L223.52 175.24 L222.9 175.48 L222.4 175.95 L221.61 177 L221.56 177.06 L221.84 177.81 L222.37 178.81 L221.87 179.01 L220.73 179.28 L218.94 179.71 L217.24 180.12 L213.99 182.88 L213.89 182.97 L214.25 183.69 L215.08 183.63 L215.67 183.58 L215.64 184.22 L215.62 184.47 L215.54 185.89 L215.53 185.98 L217.55 188.36 L218.76 187.04 L219.3 187.13 L219.34 187.18 L219.38 187.15 L220.35 187.32 L220.33 187.38 L219.97 188.61 L219.26 191.02 L220.39 192.09 L221.19 191.42 L221.95 190.78 L222.14 190.36 L223.71 191.46 L224 192.78 L224.05 193.02 L224.39 193.73 L226.31 195.96 L225.4 198.4 L225.63 199.48 L225.82 199.91 L227.19 202.99 L228.86 204.36 L228.94 204.36 L229.04 204.36 L229.52 204.76 L229.73 203.26 L230.65 202.58 L231.27 201.27 L231.34 201.12 L231.51 201.48 L233.05 204.52 L233.03 204.87 L232.94 206.23 L233.3 206.66 L232.41 207.84 L232.71 208.22 L234.13 207.45 L236.25 205.27 L236.58 204.93 L237.57 204.48 L237.62 204.46 L237.62 204.47 L237.5 205.46 L236.32 208.03 L236.38 209.8 L235.8 212.58 L234.93 214.04 L234.65 214.75 L234.23 215.79 L234.04 216.29 L233.76 217.95 L235.01 217.71 L236.55 217.41 L236.85 217.9 L237.32 218.68 L237.95 218.53 L238.47 218.4 L241.65 214.73 L241.98 215.59 L241.99 215.62 L242.92 216.05 L243.17 216.16 L242.81 216.67 L241.49 218.57 L242.39 219.31 L243.11 219.15 L244.79 218.78 L245.03 219.26 L245.63 220.46 L242.83 221.94 L242.57 222.07 L239.63 222.24 L238.11 222.32 L240.38 224 L242.62 225.25 L243.7 224.97 L245.28 224.57 L245.54 225.52 L245.88 226.74 L246.59 227.83 L246.84 228.21 L247.04 228.53 L249.38 228.15 L250.4 229.97 L252.27 231.31 L253.64 231.43 L254.26 232.72 L256.54 232.86 L257.75 233.18 L259.93 233.74 L262.19 234.33 L263.09 234.28 L265.42 234.14 L266.8 232.9 L270.66 232.77 L270.91 232.71 L272.22 231.84 L273.62 230.92 L274.61 230.26 L275.45 229.49 L276.64 228.41 L277.29 227.5 L278.07 226.4 L278.55 225.74 L279.41 225.61 L279.67 225.57 L281.41 225.32 L282.92 225.1 L283.42 225.71 L284.86 227.45 L285.25 227.92 L286 228.8 L287.11 230.15 L287.89 231.08 L287.98 231.18 L288.17 233.14 L288.2 233.51 L288.26 234.19 L288.32 234.77 L286.9 234.56 L285.13 234.26 L282.99 233.89 L281.55 233.39 L280.23 232.93 L278.18 232.21 L277.74 232.05 L277.3 231.89 L276.38 232.38 L276.14 232.51 L274.62 233.31 L272.91 234.2 L272 234.69 L270.98 235.22 L270.48 235.49 L269.68 235.91 L269.52 236.01 L269.1 236.47 L267.88 237.86 L267.5 238.3 L266.26 238.22 L265.97 238.31 L265.7 238.23 L265.17 238.2 L265.09 238.23 L264.91 238.23 L264.94 238.2 L260.94 237.88 L259.95 237.75 L259.58 237.63 L256.57 236.6 L254.75 235.97 L253.56 235.57 L253.25 235.46 L251.41 234.83 L249.31 234.11 L247.97 233.21 L247.27 232.74 L244.59 230.95 L244.45 231.01 L244.03 231.18 L243.01 231.6 L239.11 228.38 L239.05 228.33 L235.39 229.09 L235.17 232.32 L235.77 234.61 L235.84 237.07 L236.09 238.46 L236.09 238.48 L237.07 239.37 L237.11 239.77 L237.23 240.82 L237.5 243.18 L236.97 243.89 L236.43 244.6 L236.1 245.04 L235.99 246 L235.99 246.05 L235.91 246.79 L235.06 246.45 L235.3 244.9 L234.68 244.63 L233.99 244.33 L233.45 244.1 L231.56 243.27 L231.05 243.05 L230.49 242.24 L230.37 242.07 L229.91 242.27 L226.99 243.54 L224.23 244.34 L223.62 245.76 L223.51 246.04 L223.93 247 L224.12 248.43 L221.59 248.79 L219.63 248.97 L218.72 248.99 L218.21 249.01 L217.45 249.03 L216.18 249.3 L215.23 248.46 L214.67 247.97 L214.27 247.86 L213.08 247.53 L211.15 246.98 L210.35 246.84 L207.55 246.34 L206.88 247.71 L206.36 248.8 L206.05 250.16 L205.93 250.7 L206.65 251.65 L206.18 253.07 L207.49 253.71 L208.73 252.42 L209.22 251.91 L209.88 252.49 L210.63 253.16 L211.27 253.72 L211.29 253.96 L211.33 254.5 L211.72 254.53 L211.74 254.53 L213 254.79 L213.22 255.51 L214.05 258.38 L214.61 258.94 L214.79 259.12 L215.77 263.34 L217.52 263.34 L219.87 263.33 L220.46 263.32 L220.63 263.32 L221.38 263.32 L221.62 263.32 L221.62 264.1 L221.59 267.45 L221.58 269.93 L221.55 273.12 L221.55 273.16 L220.44 273.9 L220.4 273.96 L219.45 274.7 L220.63 276.83 L220.4 278.29 L219.53 281.39 L219.49 281.62 L219.87 282.17 L220.44 283.05 L221.34 284.41 L223.04 284.24 L223.06 284.26 L224.93 285.74 L226.73 287.17 L227.09 288.36 L227.18 288.68 L227.33 289.19 L227.43 289.52 L226.89 289.85 L225.5 290.67 L224.84 291.06 L224.23 291.46 L222.35 291.68 L222.16 291.71 L222.09 291.71 L222.01 291.71 L220.16 291.77 L219.97 291.42 L219.93 291.34 L219.91 291.31 L219.88 291.31 L219.42 290.56 L217.43 290.56 L217.23 291.08 L217.18 291.21 L216.45 291.75 L215.97 292.11 L215.49 292.49 L213.53 292.5 L212.28 292.51 L212.28 292.4 L212.3 291.91 L212.33 291.15 L209.91 291.8 L208.87 292.06 L208.72 292.09 L206.47 292.59 L206.22 292.67 L206.03 292.71 L205.38 289.79 L204.54 289.08 L203.71 288.35 L203.86 287.85 L204.02 287.32 L204.58 286.92 L204.67 286.83 L205.32 286.37 L206.09 284.11 L206.81 284.22 L207.72 284.36 L208.17 284.44 L209.19 284.19 L210.09 283.98 L211.42 282.7 L212.48 282.26 L213.31 281.92 L213.75 281.74 L213.66 281.56 L213.68 281.54 L213.4 280.98 L213.16 280.51 L210.52 278.89 L210.43 278.83 L210.57 276.14 L209.76 274.01 L209.9 273.59 L210.06 272.66 L210.1 272.6 L210.15 271.83 L210.17 271.8 L210.22 271.72 L210.79 268.41 L209.44 266.9 L206.9 264.71 L206.42 264.29 L207.72 261.11 L207.19 259.74 L203.45 255.7 L201.05 257 L199.86 257.65 L198.92 258.16 L195.54 260.55 L195.63 258.88 L195.66 258.36 L195.69 257.86 L195.12 257.46 L194.34 258.68 L193.11 256.14 L195.14 254.31 L200.02 250.92 L200.58 246.05 L197.29 246.01 L196.12 246 L194.6 246.29 L193.42 246.52 L192.41 246.72 L192.25 246.64 L190.72 245.95 L187.26 244.39 L187.23 243.17 L187.65 241.04 L187.69 240.8 L187.29 240.51 L185.22 239.62 L185.19 239.58 L184.21 238.54 L185.26 235.81 L188.4 237.66 L189.32 238.29 L189.88 238.3 L193.43 238.35 L194.23 238.68 L194.91 238.66 L194.25 237.61 L196.72 236.81 L197.11 236.32 L197.41 234.78 L196.73 233.88 L198.54 229.32 L199.06 229.56 L200.13 230.04 L200.63 230.28 L200.94 230.43 L201.34 230.59 L201.67 230.74 L202.19 230.98 L202.71 232.13 L202.93 232.61 L203.87 234.66 L204.22 237.45 L205.46 237.45 L206.63 236.15 L209.13 237.42 L212.22 238.09 L213.99 238.14 L214.22 238.87 L214.59 240.01 L217.97 240.02 L219.53 239.95 L219.64 239.85 L219.86 239.61 L220.9 237.12 L222.08 236.29 L226.93 228.26 L227.29 227.98 L228.08 227.36 L228.81 225.66 L228.78 225.6 L228.34 224.75 L226.65 224.29 L225.22 224.58 L223.84 223.12 L224.03 222.37 L224.82 222.17 L224.88 222.16 L225.67 221.96 L226.23 221.82 L225.85 218.87 L226.89 217.64 L227.05 215.15 L226.42 213.89 L226.27 213.6 L223.46 214.47 L224.36 212.64 L225.31 210.75 L221.31 206.25 L219.37 204.38 L219.19 204.38 L215.89 200.99 L214.95 199.42 L212.73 199.36 L208.43 202.72 L200.56 198.92 L200.55 198.93 L200.2 200.31 L201.11 201.79 L201.65 202.67 L202 205.23 L201.96 207.67 L200.06 209.64 L199.8 209.91 L199.48 209.61 L197.94 208.18 L194.79 205.92 L192.75 203.52 L191.49 203.98 L191.6 201.06 L192.22 196.89 L192.18 194.57 L189.91 191.42 L189.06 190.87 L187.98 190.17 L187.73 190.01 L188.13 188.41 L188.48 187 L187.48 186.32 L186.01 187.81 L185.26 187 L184.62 187.06 L183.7 185.66 L182.46 185.26 L181.63 184.99 L181.44 186.38 L180.96 189.81 L180.59 190.49 L180.21 191.19 L179.4 192.69 L179.44 192.82 L180.51 196.07 L180.49 198.85 L180.62 199 L181.17 199.61 L180.77 201.16 L180.66 201.58 L180.34 202.81 L179.51 203.26 L179.39 203.32 L179.3 203.37 L178.28 201.42 L178.04 200.94 L177.49 199.09 L176.92 197.14 L176.6 196.96 L174.56 195.77 L172.89 192.23 L171.71 191.39 L170.44 190.48 L171.61 186.78 L170.69 186.91 L167.58 189.19 L165.81 189.03 L165.66 189.85 L166.51 190.7 L167.13 191.32 L166.82 192.99 L166.68 193.75 L167.49 193.72 L167.51 193.74 L166.94 196.53 L167.47 197.53 L167.37 199.39 L165.77 201.07 L165.58 201.15 L163.95 200.59 L161.49 203.9 L162.4 204.79 L163.59 203.97 L163.84 205.45 L163.85 205.9 L165.39 206.54 L165.05 207.2 L164.61 208.06 L164.57 208.07 L164.53 208.22 L164.24 208.8 L165.27 211.45 L165.67 212.03 L165.9 212.35 L166.57 213.32 L167.57 214.61 L168.05 216.96 L167.29 217.76 L165.82 218.63 L164.94 219.81 L163.81 219.99 L163.44 220.18 L162.25 220.79 L158.64 219.36 L157.88 222.53 L156.85 225.62 L157.37 226.3 L157.77 226.82 L157.7 229.22 L157.67 230.14 L156.56 230.09 L155.2 230.02 L154.78 230.56 L154.37 233.05 L154.74 235.96 L154.77 236.19 L155.22 238.25 L156.06 242.13 L153.96 246.59 L153.27 247.22 L151.51 248.83 L151.09 249.22 L149.11 247.2 L148.82 246.9 L148.71 246.63 L151.02 244.89 L151.12 244.61 L151.25 244.45 L151.91 242.89 L152.02 242.78 L152.4 240.64 L152.25 240.39 L151.79 239.59 L151.72 239.45 L151.55 239.14 L151.36 236.73 L151.01 231.98 L150.72 230.86 L150.12 228.36 L150.89 224.83 L151.24 223.24 L152.26 223.21 L152.34 223.08 L152.95 222.09 L152.96 221.66 L153.01 220.19 L151.76 217.63 L150.47 216.64 L151.15 215.6 L152.07 214.18 L157.64 215.89 L159.47 213.06 L159.69 212.71 L160.73 211.78 L159.8 207.73 L157.35 205.61 L157.13 205.42 L155.22 203.9 L156.09 200.9 L158.5 197.73 L161.57 197.2 L162.28 196.33 L162.91 195.56 L161.72 193.95 L159.29 192.87 L159.15 192.81 L158.99 192.51 L157.13 189.24 L155.8 189.71 L155.22 188.82 L153.42 186.05 L155.96 182.95 L158.92 183.47 L163.2 182.8 L167.77 182.7 L168.56 180.74 L167.78 177.15 L165.29 174.06 L165 173.7 L164.17 172.41 L163.6 171.43 L163.52 171.34 L163.9 170.31 L166.9 170.69 L169.66 171.68 L172.6 175.5 L172.86 176.21 L173.87 178.87 L175.23 179.55 L176.28 180.07 L176.22 177.95 L174.57 169 L174.66 166.74 L174.7 165.87 L172.8 165.63 L169.84 163.46 L167.52 163.56 L165.53 163.64 L163.86 162.73 L163.39 158.84 L161.52 157.62 L161.24 150.52 L163.61 149.12 L164.19 145.4 L163.35 142.94 L162.26 139.72 L160.78 140.14 L159.06 141.7 L158.3 142.65 L156.95 145.05 L156.85 146.06 L153.88 146.35 L152.11 149.62 L152.27 151.38 L150.9 151.1 L149.7 152.05 L148.78 151.41 L146.59 152.62 L144.49 152.69 L142.86 153.25 L139.73 152.08 L140.56 154.21 L140.98 154.38 L142.46 154.99 L143.61 155.49 L142.82 155.91 L147.91 156.77 L149.42 159.07 L149.45 160.8 L149.52 164.73 L148.87 165.54 L147.41 164.93 L145.51 162.65 L142.43 160.15 L139.07 159.01 L137.18 159.11 L134.34 157.75 L132.65 156.93 L132.44 156.67 L131.14 155.14 L130.51 154.41 L128.17 152.41 L127.82 152.11 L127.28 151.9 L126.63 151.65 L126.07 151.53 L122.45 150.86 L122.26 153.55 L122.24 153.83 L122.44 153.99 L123.67 154.98 L125.21 156.21 L125.45 156.41 L125.55 156.49 L125.52 156.66 L125.55 156.78 L125.49 156.8 L125.15 158.74 L123.08 159.96 L121.27 161.15 L118.37 160.16 L114.48 161 L113.05 162.3 L114.52 162.91 L121.25 165.69 L121.09 166.85 L120.8 168.45 L120.59 169.59 L120.44 170.45 L119.93 172.06 L119.88 172.23 L118.67 173.26 L118.93 174 L119 174.22 L119.43 174.11 L123.2 173.08 L124.7 172.04 L127.56 171.92 L127.79 172.92 L130.1 172.89 L132.16 173.78 L131.97 175.25 L131.93 175.6 L131.65 176.01 L131.22 176.65 L130.74 177.37 L127.2 177.97 L121.7 180.36 L120.57 181.96 L120.11 182.61 L122.32 184.56 L122.66 184.62 L125.09 185.04 L126.78 186.71 L126.96 186.9 L126.87 188.28 L126.87 188.35 L126.96 189.34 L127 189.85 L125.88 190.93 L125.45 190.97 L125.04 191.01 L124.32 191.07 L122.76 192.87 L120.99 198.53 L120.79 199.42 L119.93 203.2 L119.9 203.25 L119.28 204.59 L119.31 204.59 L117.41 208.49 L117.38 208.55 L118.05 209.67 L118.14 209.83 L117.34 211.22 L117.27 211.4 L117.19 211.46 L116.3 212.99 L116.19 213.08 L115.75 213.47 L114.87 214.24 L114.71 214.3 L114.06 214.55 L113.35 214.83 L112.46 216.02 L111.97 216.66 L110.88 218.11 L110.83 218.17 L110.41 218.04 L109.6 217.8 L107.13 217.04 L109.12 213.05 L109.91 212.63 L111.81 209.17 L111.89 209.06 L111.92 208.96 L113.42 203.91 L113.5 203.64 L113.45 202.69 L113.48 202.58 L113.53 202.3 L113.43 202.22 L113.4 201.56 L112.75 201.53 L112.42 201.52 L111.43 200.04 L111.35 199.93 L111.28 199.5 L110.84 197.17 L110.94 196.99 L111.97 195.23 L113.49 194.68 L115.44 193.98 L116.13 193.4 L116.43 192.42 L116.28 191.66 L115.09 189.61 L113.31 188.19 L113.16 188.05 L112.28 184.75 L112.01 177.97 L111.59 173.62 L111.83 170.68 L111.61 169.05 L111.6 168.95 L108.93 170.69 L105.82 171.18 L104.94 171.95 L104.51 172.32 L104.25 172.55 L100.95 176.42 L102.38 177.38 L102.39 178.25 L102.44 180.48 L102.3 180.44 L100.88 180.07 L100.41 179.95 L98.02 179.06 L94.74 180.81 L95.24 182.23 L95.21 185.72 L95.59 187.13 L95.68 189.84 L95.68 190.04 L96.53 191.68 L98.67 191.46 L98.65 190.72 L98.65 190.53 L99.85 190.63 L100.25 191.96 L100.74 193.59 L101.02 194.54 L100.29 195.08 L97.81 197.24 L97.05 197.9 L98.34 198.76 L99.21 199.01 L99.96 199.22 L99.44 201.89 L98.5 203.87 L98.18 204.05 L97.08 204.68 L96.07 205.22 L95.24 206.34 L94.89 208.47 L94.39 210.71 L94.3 211.1 L93.16 213.53 L92.95 213.99 L92.78 214.33 L92.34 214.41 L91.63 214.52 L90.63 214.32 L89.84 213.59 L89.84 213.56 L89.76 211.56 L89.72 210.73 L88.96 209.18 L88.11 207.56 L86.09 207.55 L84.7 207.83 L83.83 208.94 L83.26 211.95 L81.2 216.21 L80.52 215.64 L79.78 216.73 L79.71 216.83 L79.49 217.16 L80.63 218.32 L80.64 218.4 L80.64 218.72 L81.15 219.26 L81.16 220.2 L81.19 220.46 L81.21 220.56 L86.6 223.81 L86.98 224.74 L90.82 225.2 L90.84 225.65 L90.91 226.82 L90.95 227.67 L90.83 228.78 L90.76 229.41 L90.6 230.87 L90.17 230.81 L88.6 230.58 L87.36 230.74 L86.42 231.41 L85.65 231.35 L85.56 231.33 L82.27 230.4 L80.04 229.35 L79.71 229.2 L79.73 227.05 L79.73 226.97 L78.06 226.47 L78.01 226.6 L76.87 229.36 L75.82 231.89 L75.68 232.74 L75.24 235.47 L70.57 239.69 L70.61 240.46 L70.83 244.82 L70.88 245.71 L71.79 246.04 L72.41 242.58 L72.41 242.54 L75.13 242.87 L75.95 242.97 L76.55 246.59 L77.47 248.92 L77.72 249.55 L78.02 249.55 L78.83 249.55 L78.99 249.55 L79.88 248.72 L80.41 248.18 L81.06 247.52 L81.59 246.97 L82.66 245.87 L85.37 243.28 L85.44 243.24 L87.18 242.22 L88.26 241.6 L91.1 239.94 L95.29 236.29 L99.67 238.4 L98.92 241.18 L98.16 244.75 L94.59 246.29 L92.51 246.99 L91.15 250.43 L89.27 251.38 L86.88 254.09 L87.44 256.39 L91.28 257.59 L92.41 260.1 L92.48 260.24 L93.12 261.74 L93.55 261.6 L96.66 260.57 L98.4 260 L98.35 259.63 L97.78 255.22 L100.16 252.4 L103.52 253.41 L103.47 256.75 L104.82 259.62 L106.56 259.94 L108.26 263.27 L109.38 266.01 L110.25 267.42 L109.02 271.59 L107.87 272.26 L106.1 270.39 L103.58 267.19 L99.51 270.78 L97.42 269.81 L96.78 269.52 L96.46 272.52 L96.42 276.02 L96.72 276.14 L97.97 276.66 L98.45 277.03 L98.93 277.4 L99.68 278.56 L98.61 278.82 L98.69 279.12 L99.33 281.77 L99.75 283.47 L99.98 284.41 L99.33 286.99 L98.84 286.86 L98.96 285.93 L98.99 285.63 L98.8 285.46 L98.75 284.74 L98.38 283.78 L98.39 283.7 L97.17 283.29 L97.51 284.09 L96.6 283.3 L91.85 279.17 L91.55 278.91 L90.8 278.93 L90.83 279.37 L91.1 282.71 L91.31 285.48 L91.35 286.01 L89.97 286.63 L88.59 287.25 L88.27 287.41 L85.77 288.62 L87.25 289.35 L91.24 291.33 L92.63 292.03 L95.64 291.9 L98.01 292.43 L97.41 294.94 L97.29 296.4 L99.34 296.19 L100.99 298.11 L102.59 298.68 L104.8 300.66 L106.56 300.67 L107.3 298.44 L107.05 294.45 L107.43 291.22 L110.54 290.83 L113.32 289.54 L115.68 291.18 L114.52 294.95 L116.41 305.94 L117.13 307.14 L117.84 308.96 L118.39 310.02 L118.77 310.4 L120 310.18 L122.2 312.18 L123.22 312.87 L123.59 313.82 L123.76 314.23 L125.43 315.45 L125.69 315.05 L126.11 314.37 L126.19 314.24 L125.21 311.57 L127.93 310.05 L128.41 309.78 L129.77 308.45 L132.46 304.72 L134.03 305.84 L134.13 305.91 L134.2 305.96 L134.75 306.32 L134.65 307.64 L135.97 308.32 L136.22 308.38 L138.01 309.25 L139.8 310.12 L140.01 310.22 L140.27 310.34 L140.52 310.46 L139.91 312.19 L139.49 313.44 L138.59 315.98 L138.55 316.09 L137.2 318.15 L136.22 319.62 L136.09 319.83 L136 319.8 L135.7 320.34 L135.26 320.76 L134.78 321.23 L134.05 321.93 L132.92 323.01 L132.7 323.53 L132.49 324.11 L132.55 324.9 L133.46 329.96 L134.49 336.86 L134.75 338.67 L134.76 338.69 L134.68 338.79 L135.52 340.1 L137.09 341.89 L137.48 342.35 L138.07 342.9 L138.51 343.29 L138.91 343.69 L139.29 344.08 L139.48 343.79 L140.34 344.49 L140.45 344.89 L140.72 346.03 L141.01 347.16 L140.87 348.77 L140.8 349.66 L139.28 350 L139.25 350.01 L137.14 350.48 L137.21 350.85 L137.37 351.66 L137.44 352 L137.45 352.05 L137.46 352.11 L137.49 352.23 L137.57 352.68 L137.95 354.07 L138.27 354.68 L138.45 354.81 L139.13 355.44 L139.29 355.61 L139.43 355.68 L139.64 355.7 L139.9 355.68 L140.08 355.66 L141.62 355.22 L142.61 354.81 L147.63 352.74 L149.57 356.22 L151.49 359.7 L152.07 360.65 L152.19 360.79 L152.97 362.12 L154 363.76 L154.13 363.96 L152.4 365.14 L152.67 366.23 L152.71 366.39 L152.68 366.43 L150.97 368.17 L151.24 369.72 L151.37 370.46 L151.43 371.36 L151.63 371.86 L152.15 372.6 L152 372.9 L150.65 375.6 L149.3 378.29 L148.67 379.51 L149.9 383.31 L149.92 383.37 L150.53 383.18 L151.74 382.8 L152.68 382.47 L154.39 381.14 L156.89 381.87 L157.5 382.17 L158.12 382.51 L162.41 379.33 L163.67 379.71 L165.11 379.76 L167.92 379.23 L167.75 378.08 L166.27 376.72 L165.82 373.2 L165.7 372.2 L167.54 371.31 L169.11 371.06 L169.16 371.16 L169.76 372.3 L170.11 373.01 L168.72 373.59 L168.48 373.91 L169.16 375.62 L170.55 377.27 L172.2 377.33 L172.17 378.95 L171.98 380.4 L171.98 381.46 L172.12 382.15 L173.49 379.9 L175.58 379.15 L177.85 379.85 L178.49 379.66 L180.09 380.85 L180.35 381.07 L181.24 380.75 L181.63 380.63 L182.88 382.26 L182.22 384.16 L181.23 385.5 L181.24 386.33 L183.02 384.26 L187.62 382.3 L187.18 379.44 L188.47 379.17 L189.79 377.73 L192.83 376.82 L192.79 376.08 L193.75 375.27 L201.43 371.81 L202.35 372.95 L199.6 374.12 L201.14 376.13 L201.05 376.64 L202.7 377.58 L203.7 378.79 L202.99 379.44 L200.11 379.82 L199.74 378.94 L198.68 379.31 L196.77 380.02 L196.74 380.42 L196.5 385.17 L196.01 385.52 L195.61 385.81 L195.5 385.89 L194.48 386.59 L195.64 388.55 L194.26 390.73 L196.01 393.72 L200.42 395.59 L202.16 395.23 L203.01 395.65 L206.37 395.17 L207.64 394.63 L209.34 393.45 L209.55 392.45 L212.91 389.48 L215.65 388.46 L216.42 389.36 L218.16 389.82 L219.57 390.76 L221.14 391.4 L223.68 392.06 L224.01 392.14 L225.31 391.66 L225.59 391.56 L227.74 392.28 L227.84 393.93 L229.33 393.95 L230.33 393.77 L230.4 393.76 L231.14 393.63 L231.43 393.71 L232.26 393.94 L233.97 395.08 L233.21 395.61 L231.69 394.52 L230.62 394.67 L230.58 394.68 L230.49 394.77 L229.81 395.41 L230.96 396.31 L230.88 396.57 L230.54 397.69 L229.56 397.8 L229.3 397.83 L228.91 399.01 L228.16 399.49 L227.41 400 L224.72 400.01 L223.43 399.56 L222.87 399.35 L220.06 401.62 L219.13 403.04 L216.84 404.7 L216.13 404.88 L214.88 405.23 L214.51 404.92 L211.9 402.84 L211.9 402.84 L209.88 401.69 L209.47 402.44 L211.05 404.12 L209.3 404.95 L209.07 404.39 L207.62 403.28 L201.57 402.83 L201.17 403.78 L198.07 404.5 L195.97 403.09 L195.56 400.72 L193.64 401.54 L193.31 400.26 L192.82 399.75 L192.27 397.77 L190.77 398.17 L190.43 398.98 L189.5 398.99 L186.47 400.82 L186.11 400.75 L184.91 400.23 L182.98 399.37 L183.04 398.67 L183.11 397.97 L181.55 397.38 L176.82 396.87 L173.12 394.66 L172.87 393.08 L171.22 393.01 L171.29 394.71 L171.38 396.11 L171.47 397.4 L171.78 403.01 L169.23 403.18 L164.09 403.52 L163.7 401.75 L163.34 400.08 L162.86 400.16 L162.44 400.23 L162.81 401.13 L161.2 402.15 L160.63 402.51 L160.59 402.8 L160.49 403.51 L160.52 403.58 L160.46 403.67 L160.18 405.72 L161.4 406.07 L162.37 406.35 L162.97 406.53 L165.68 406.62 L169.2 406.73 L169.22 407.83 L173.22 408.62 L173.77 405.26 L175.13 404.97 L182.35 403.44 L185.82 405.11 L189.17 407.18 L190.09 408.21 L190.51 409.76 L188.47 412.6 L188.37 412.89 L187.95 414.32 L187.82 414.64 L186.95 416.38 L187.96 416.65 L188.92 416.6 L189.29 417.29 L190.06 417.91 L191.1 418.3 L193.12 419.8 L193.27 420.14 L196.04 421.7 L196.2 421.71 L196.49 421.7 L197.65 423.9 L195.29 425.84 L193.5 427.49 L193 428.53 L193.47 428.75 L196.14 426.05 L198.77 423.92 L201.7 423.18 L203.51 426.56 L204.44 426.9 L206.58 427.93 L207.95 427.3 L208.63 426.99 L209.1 426.77 L209.5 426.57 L210.84 426.72 L212.65 426.42 L214.07 426.16 L214.37 426.76 L218.15 431.19 L218.46 431.48 L221.06 432.51 L221.37 432.62 L223.99 431.52 L224.7 432.45 L224.87 432.69 L224.96 433.03 L226.14 435.99 L228.52 433.98 L228.99 433.06 L229.09 432.89 L231.01 428.93 L233.7 428.68 L235.84 428.19 L237.78 428.63 L240.63 432.34 L247.03 432.24 L249.44 431.82 L250.3 431.67 L252.4 431.59 L254.38 432.94 L256.12 434.14 L257.43 435.05 L255.74 435.58 L253.67 436.23 L253.09 436.41 L253.85 440.17 L253.84 445.45 L256.59 445.13 L260.36 444.99 L261.1 442.6 L262.77 440.83 L265.63 441.04 L266.47 440.7 L267.82 435.83 L269.09 435.38 L270.06 436.72 L272.46 436.5 L274.98 439.57 L277.59 438.22 L278.36 437.67 L279.14 436.96 L280.87 434.63 L281.54 432.92 L282.34 432.09 L283.1 431.93 L283.13 431.97 L283.21 431.91 L287.81 431.04 L288.56 430.89 L289.44 430.23 L291.9 432.13 L294.72 432.3 L296.49 431.98 L298.75 431.58 L300.06 431.36 L301.92 430.75 L303.72 430.52 L305.78 431.35 L306.21 431.67 L306.97 432.25 L308.07 432.45 L309.04 432.54 L310.44 432.49 L312.32 432.76 L312.51 433.59 L312.61 434.08 L311.75 434.57 L310.97 435.01 L305.75 434.91 L304.8 434.91 L303.63 435.74 L302.48 436.98 L300.73 437.34 L299.79 437.38 L299.37 437.32 L298.84 437.11 L297.82 437.37 L295.98 437.33 L295.8 437.62 L295.29 437.7 L292.74 438.11 L292.11 438.2 L290.74 438.41 L290.72 439.04 L286.28 440.06 L284.9 440.37 L284.11 441.17 L282.73 441.23 L280.95 441.88 L280.9 441.94 L279.46 443.77 L278.03 444.2 L278.35 446.12 L276.85 445.86 L274.05 447.66 L269.12 449.95 L267.99 450.3 L264.63 452.01 L264.6 453.12 L265.14 453.49 L267.16 452.74 L273.13 453.17 L274.18 453.02 L277.87 453.95 L278.36 455.44 L281.05 456.42 L282.74 454.71 L282.35 453.33 L287.52 450.49 L287.74 451.19 L288.83 451.05 L289.42 452.27 L289.51 453.96 L285.48 458.7 L282.9 462.63 L282.88 462.86 L287.02 463.18 L288.35 460.48 L294.71 457.49 L298.27 457.34 L298.59 458.34 L298.05 458.91 L298.1 459.85 L298.1 460.32 L298.12 460.9 L300.56 460.53 L304.19 460.68 L305.68 460.31 L306.79 460.02 L309.09 459 L309.17 459.18 L309.24 459.22 L309.28 459.28 L311.09 458.13 L311.73 457.72 L312.46 457.26 L313.19 456.78 L313.49 457.32 L314.05 458.31 L316.51 457.29 L316.72 455.75 L316.83 454.95 L319.11 454.57 L320.29 454.94 L322.17 455.54 L322.94 455.65 L326.73 460.77 L327.37 461.64 L331.4 465.08 L332.66 468.01 L332.66 468.01 L332.99 467.91 L336.88 468.03 L338.29 466.51 L339.42 463.98 L344.86 464 L345.73 464.42 L348.73 465.9 L352.58 467.79 L356.34 469.64 L358.72 470.84 L360.39 471.23 L362.34 469.64 L366.49 470.51 L366.72 470.82 L367.87 472.34 L368.77 473.52 L368.82 473.47 L369.1 473.23 L372.16 470.54 L372.51 470.24 L372.82 469.96 L372.76 469.48 L372.56 468.03 L372.41 466.81 L372.41 466.74 L372.64 466.32 L373.65 464.49 L375.32 461.45 L380.16 456.62 L382.8 456.75 L384.04 456.85 L392.66 459.38 L395.49 459.8 L395.49 459.77 L398.09 460.14 L401.24 461.72 L402.42 461.69 L405.46 459.03 L406.53 455.49 L409.41 455.8 L410.07 455.35 L410.05 455.28 L410.88 454.72 L410.74 452.72 L412.46 452.99 L413.01 453.08 L413.74 453.2 L414.68 453.34 L414.51 453.95 L414.05 455.55 L413.82 456.37 L410.88 457.94 L410.79 458.05 L410.81 458.08 L409.31 459.46 L409.24 459.58 L404.67 463.79 L403.92 464.47 L402.23 465.29 L399.09 463.45 L398.83 463.4 L396.49 462.9 L396.47 462.88 L390.03 461.42 L387.68 460.68 L386.56 460.32 L382.93 459.17 L381.43 459.15 L381.4 459.18 L376.91 465.2 L376.82 465.49 L376.44 465.98 L375.66 466.99 L376.22 470.24 L374.14 474.63 L374.1 474.65 L373.38 476.26 L373.1 476.89 L372.58 478.05 L372.5 478.24 L372.11 479.09 L371.95 479.46 L371.82 479.74 L371.2 479.54 L370.87 479.43 L369.7 479.04 L368.59 478.67 L367.27 477.35 L367.21 477.23 L366.36 475.59 L366.2 475.29 L360.64 473.64 L355.82 473.77 L355.67 473.66 L355.71 473.65 L355.45 473.48 L352.25 471.42 L351.05 470.63 L348.76 470.28 L347.57 468.19 L343.64 466.38 L341.93 466.86 L341.47 467.38 L338.8 470.36 L333.99 470.66 L333.44 470.7 L332.01 471.37 L331.99 471.3 L331.57 469.55 L330.79 470.48 L329.57 471.86 L329.14 472.35 L326.28 475.52 L325.97 475.74 L324.58 477.32 L322.3 472.53 L317.04 472.29 L316.32 472.27 L316.28 472.44 L315.24 473.87 L314.92 474.31 L313.42 473.03 L311.06 473.98 L308.69 474.92 L307.48 474.4 L306.26 473.89 L304.79 474.18 L303.75 473.58 L302.93 472.69 L301.94 473.7 L297.62 474.13 L293.97 473.85 L292.17 473.57 L290.37 473.29 L291.1 476.11 L289.72 477 L288.34 476.55 L287.31 477.3 L285.77 479.52 L284.6 477.35 L285.75 473.16 L282.16 472.44 L280.24 472.95 L279.78 474.08 L279.02 474.55 L277.23 471.8 L277.02 471.47 L276.14 471.13 L275.26 470.79 L274.59 470.36 L272.84 469.3 L271.35 467.88 L270.51 467.73 L268.72 468.35 L267.55 466.9 L266.3 466.29 L265.29 466.27 L264.51 464.83 L264.33 464.76 L263.59 464.54 L262.35 464.92 L261.17 464.42 L260.78 464.25 L260.4 465.08 L257.7 464.97 L256.53 463.95 L255.5 462.39 L254.42 461.82 L252.5 460.81 L250.59 460.29 L249.16 461.37 L248.45 461.98 L246.33 461.68 L245.54 458.09 L244.87 457.28 L242.82 456.57 L242.4 457.12 L241.77 457.86 L239.95 457.76 L238.44 457.69 L237.27 457.63 L236.59 458.27 L235.65 459.16 L235.39 457.62 L235.93 456.72 L235.77 455.63 L234.49 453.72 L233.85 453.76 L232.54 453.84 L230.98 452.4 L230.3 452.39 L229.54 451.74 L229.19 451.44 L227.19 450.74 L226.9 451.47 L227.7 452.93 L229.41 454.89 L229.89 455.71 L230.51 456.77 L231.63 458.13 L232.37 459.11 L231.91 460.16 L233.51 461.46 L234.89 461.51 L234.63 462.05 L234.26 462.82 L234.57 464.25 L235.72 465.97 L237.09 468.83 L237.07 469.96 L237.66 471.12 L238.34 472.44 L238.26 474.13 L238.93 476.12 L240.04 475.59 L240.52 476.33 L240.98 477.03 L239.98 477.7 L240.09 478.48 L241.38 479.17 L240.26 480.15 L241.15 481.15 L242.43 481.35 L242.05 482.02 L241.59 482.82 L242.03 483.11 L242.88 483.28 L243.62 483.42 L244.8 483.1 L245.12 483.45 L244.92 484.2 L248.31 484.45 L252.27 486.85 L254.62 488.11 L258.23 488.72 L259.25 488.36 L260.21 487.4 L260.65 486.97 L261.85 487.35 L262.26 488.39 L264.73 490.25 L264.73 491.99 L264.74 494.18 L265.36 495.93 L265.62 496.68 L266.17 498.23 L267.5 498.73 L269.03 497.55 L272.1 495.1 L272.55 495.87 L273.67 495.84 L274.81 496.1 L276.65 495.67 L277.37 495.27 L278.68 495.41 L278.69 495.96 L278.64 496.46 L278.69 496.58 L278.69 497.23 L278.51 497.25 L275.68 497.66 L273.13 498.04 L272.23 498.17 L271.64 498.25 L269.78 500.13 L269.55 500.32 L269.62 501.25 L269.95 505.6 L269.95 505.96 L269.95 506.12 L269.95 506.67 L269.64 507.89 L269.44 508.67 L269.35 509.02 L269.32 509.14 L268.05 510 L267.45 509.23 L266.68 508.09 L266.28 506.47 L265.51 506.4 L265.31 506.12 L263.67 505.77 L263.52 505.84 L261.54 503.08 L261.07 502.42 L261.07 501.1 L260.76 500.36 L261.26 499.39 L260.99 495.36 L260.35 493.56 L257.13 492.44 L255.66 492.77 L253.05 492.57 L251.8 492.48 L251.1 492.43 L251.09 494.09 L246.79 493.57 L245.37 494.75 L242.11 491.2 L241.15 491.62 L240.39 491.96 L239.9 492.18 L240.12 490.26 L238.09 488.69 L234.67 484.77 L232.92 483.49 L232.4 481.37 L230.66 480.37 L229.03 479.39 L228.03 476.68 L226.16 475.94 L224.46 475.99 L223.83 474.95 L222.98 474.45 L221.58 473.63 L221.52 473.54 L221.26 472.91 L220.38 470.91 L220.22 470.89 L218.95 470.69 L218.6 470.64 L218.72 470.19 L219.01 469.12 L221.47 468.66 L221.78 468.32 L222.2 467.84 L221.78 465.31 L221.69 464.13 L221.62 463.34 L221.56 462.65 L221.47 461.5 L220.64 461.09 L220.92 459.19 L220.25 458.81 L218.61 459.59 L217.81 458.29 L216.87 458.62 L216.15 457.85 L214.6 457.25 L209.98 454.57 L209.34 456.03 L209.02 458.21 L207.78 457.5 L208.33 455.74 L208.01 454.57 L206.83 454.31 L205.87 454.1 L204.98 453.91 L203.34 454.48 L202.71 455.19 L201.97 453.95 L202 449.94 L201.47 449.29 L200.39 450.06 L198.52 450.13 L197.74 451.1 L199.5 453.66 L200.37 454.92 L201.02 455.86 L201.26 456.15 L201.29 456.32 L200.87 457.39 L200.5 458.32 L200.14 458.33 L198.21 458.36 L198.13 458.99 L197.91 460.61 L197.76 461.73 L198 463.09 L201.79 464 L201.34 465.12 L202.52 466.52 L203.82 466.63 L200.92 467.21 L198.66 467.21 L197.56 468.46 L196.51 468.4 L195.87 466.05 L195.24 465.91 L194.84 467.08 L193.11 466.73 L193.43 468.8 L192.69 469.21 L191.27 469.8 L191.24 471.45 L191.25 471.7 L193.3 472.71 L191.73 473.28 L190.87 474.47 L189.67 474.05 L188.65 473.69 L187.76 473.37 L187.39 471.16 L186.89 468.11 L186.86 464.39 L185.57 464.37 L185.74 462.75 L186.66 461.24 L185.79 460.61 L185.94 458.63 L186.46 457.5 L185.86 457.12 L186.46 455.41 L187.09 455.64 L187.43 455.17 L187.59 454.31 L187.52 453.53 L188.27 453.51 L189.37 451.5 L188.27 450.98 L188.21 449.93 L187.77 449.69 L187.83 446.77 L187.88 444.51 L186.71 443.6 L188.46 440.9 L188.74 440.47 L189.82 440.73 L190.27 440.76 L191.5 438.45 L191.71 437.17 L191.28 435.99 L191.08 435.45 L190.42 435.02 L189.67 434.55 L189.08 434.17 L179.9 426.95 L178.83 426.11 L178.32 425.71 L177.86 425.35 L176.09 422.28 L169.75 421.56 L169.54 421.53 L169.24 421.68 L168.03 421.27 L167.39 421.02 L165.63 421.04 L165.54 422.58 L165.45 426.02 L164.7 427.75 z" class="polygon_1" style="fill:#571D6D;" />
    </g>
    <g id="SiteLine" style="fill:none;" />
    <g id="SitePoint">
      <circle cx="26" cy="305" r="6" id="Dam_S2075" style="fill:#ECEBEA;stroke:#AAAAAA;">
        <title> </title>
      </circle>
      <circle cx="109" cy="339" r="6" id="Dam_S2076" style="fill:#ECEBEA;stroke:#AAAAAA;">
        <title> </title>
      </circle>
      <circle cx="69" cy="253" r="6" id="Dam_S2077" style="fill:#ECEBEA;stroke:#AAAAAA;">
        <title> </title>
      </circle>
    </g>
    <g id="Mark" class="Heilight">
      <g transform="translate(26, 305) translate(-14, -14)" id="gMark" class="HeilightTrans">
        <path d="M17.2 27.5 L17.2 23.4 L22.8 23.4 L23.3 23.4 L23.3 22.9 L23.3 17.3 L27.4 17.3 L27.4 27.6 L17.2 27.5 z M0.5 27.5 L0.5 17.2 L4.6 17.2 L4.6 22.8 L4.6 23.3 L5.1 23.3 L10.1 23.3 L10.1 27.4 L0.5 27.5 z M27.5 10.2 L23.4 10.2 L23.4 5.2 L23.4 4.6 L22.9 4.6 L17.3 4.6 L17.3 0.5 L27.6 0.5 L27.6 10.2 z M4.6 10.2 L0.5 10.2 L0.5 0.5 L10.2 0.5 L10.2 4.6 L5.2 4.6 L4.6 4.6 L4.6 5.1 L4.6 10.2 z" class="st0" style="fill:#FF800E;" />
        <path d="M17.7 27 L27 27 L27 17.7 L23.9 17.7 L23.9 22.8 L23.9 23.8 L22.9 23.8 L17.8 23.8 L17.8 27 M1 27 L9.7 27 L9.7 23.9 L5.1 23.9 L4.1 23.9 L4.1 22.9 L4.1 17.8 L1 17.8 L1 27 M27 9.7 L27 1 L17.7 1 L17.7 4.1 L22.8 4.1 L23.8 4.1 L23.8 5.1 L23.8 9.6 L27 9.6 M4.1 9.7 L4.1 5.1 L4.1 4.1 L5.1 4.1 L9.6 4.1 L9.6 1 L1 1 L1 9.7 L4.1 9.7 M28 28 L28 28 L28 28 L16.7 28 L16.7 22.9 L22.8 22.9 L22.8 16.8 L28 16.8 L28 28 L28 28 z M10.7 28 L10.7 28 L10.7 28 L0 28 L0 16.7 L5.1 16.7 L5.1 22.8 L10.6 22.8 L10.6 28 L10.7 28 z M28 10.7 L28 10.7 L28 10.7 L22.9 10.7 L22.9 5.1 L16.8 5.1 L16.8 0 L28 0 L28 10.7 L28 10.7 z M5.1 10.7 L5.1 10.7 L0 10.7 L0 0 L10.7 0 L10.7 5.1 L5.1 5.1 L5.1 10.7 L5.1 10.7 z" class="st1" style="fill:#B55600;" />
      </g>
    </g>
  </g>
</svg>