<?xml version="1.0" encoding="utf-8"?>
<!DOCTYPE svg PUBLIC "-//W3C//DTD SVG 1.1//EN" "http://www.w3.org/Graphics/SVG/1.1/DTD/svg11.dtd">
<svg width="199px" height="510px" viewBox="0, 0, 199, 510" class="svgDam" xmlns="http://www.w3.org/2000/svg" xmlns:xlink="http://www.w3.org/1999/xlink" xmlns:xml="http://www.w3.org/XML/1998/namespace" version="1.1">
  <g id="MapArea">
    <g id="Key_Area">
      <path d="M90.98 294 L90.58 295.9 L90.64 298.38 L90.63 300.51 L90.4 303.44 L89.23 306.39 L88.82 309.35 L89.09 312.58 L89.49 315.95 L89.35 318.37 L87.87 322.68 L86.53 326.18 L86.42 329.64 L86.52 333.45 L86.99 337.13 L87.45 340.05 L87.18 343.82 L85.89 347.38 L84.9 351.08 L85.03 353.78 L85.6 355.04 L87.71 357 L91.55 359.94 L93.21 360.63 L95.9 360.64 L97.74 360.93 L101.22 364.15 L104.83 365.64 L108.21 366.69 L109.79 367.8 L112.84 369.75 L115.53 370.56 L117.19 371.89 L118.34 373.33 L117.82 374.08 L115.93 374.65 L114.2 374.94 L111.52 375.57 L108.83 375.05 L103.85 373.72 L98.64 372.16 L96.46 371.92 L93.05 372.9 L89.64 374.91 L85.8 377.15 L84.34 379.63 L84.2 382.86 L85.8 386.19 L88.6 389.02 L90.49 392.02 L90.83 394.15 L90.65 395.87 L89.73 400.42 L89.93 405.48 L88.99 410.19 L87.72 413.78 L87.51 417.86 L86.85 421.04 L84.9 424.26 L83.98 429.15 L82.49 433.35 L82.71 435.77 L84.01 439.27 L83.97 442.97 L83.06 446.03 L82.87 447.75 L83.27 452.88 L83.59 455.69 L82.92 463.77 L84.17 469.81 L84.91 471.54 L85.58 474 L85.44 478.04 L88.16 483.86 L89.71 486.86 L91.06 489.35 L90.68 490.03 L88.84 492.44 L86.89 496.07 L85.46 499.46 L84.82 502.63 L84.71 505.68 L84.87 509.6 L83.73 510 L82.64 509.65 L81.38 508.62 L80.29 507.06 L78.81 506.14 L77.6 506.14 L75.49 506.25 L73.31 507.17 L71.88 507.86 L69.53 508.32 L66.84 508.43 L61.8 507.73 L57.31 506.28 L51.67 505.48 L49.2 504.27 L45.43 502.53 L40.39 501.03 L36.16 498.99 L34.29 496.97 L31.92 492.62 L30.09 489.05 L28.67 485.42 L26.67 481.89 L25.75 478.1 L25.07 474.75 L24.1 472.74 L22.38 470.5 L19.99 468.42 L16.6 466.29 L14.89 464.5 L14.11 462.76 L14.14 461.79 L14.78 461.14 L17.05 460.74 L17.98 459.67 L18.33 458.11 L18.27 456.04 L17.76 454.02 L17.59 450.28 L17.42 444.58 L16.4 441.58 L16.11 438.76 L15.49 435.59 L13.54 432.42 L11.73 429.1 L9.88 423.55 L9.32 419.29 L8.75 415.49 L7.66 412.38 L7.19 410.25 L7.27 407.43 L6.92 405.7 L5.67 403.74 L2.65 402.03 L0.4 400.91 L0 399.93 L0.51 397.72 L3.68 396.16 L5.75 395.02 L6.5 393.88 L7.07 392.27 L6.7 389.62 L6.23 383.18 L6.99 378.91 L6.99 375.6 L7.36 372.28 L8.13 368.49 L8.98 365.27 L8.89 362.52 L8.42 359.68 L8.33 357.59 L9.37 356.46 L13.23 354.47 L16.15 352.39 L17.43 350.08 L18.5 346.85 L20.91 344.83 L23.32 342.54 L24.53 340.12 L26.27 337.43 L27.75 335.01 L29.36 332.59 L30.78 330.7 L31.1 327.87 L30.44 324.24 L29.19 320.94 L27.02 316.2 L24.86 312.5 L23.22 308.61 L21.08 305.11 L19.4 302.74 L18.65 300.94 L18.09 298.66 L18 296.96 L17.72 293.92 L16.87 290.42 L15.75 285.5 L15.62 282.88 L16.35 280.14 L17.55 276.79 L18.9 273.94 L21.35 270.11 L22.04 265.39 L21.09 259.62 L21 257.24 L21.54 255.06 L22.5 253.23 L24.89 249.78 L26.98 246.93 L28.03 244.68 L28.36 240.28 L28.28 237.18 L27.74 233.12 L25.51 229.96 L22.08 226.66 L19.39 222.6 L18.5 219.75 L16.56 215.54 L15.22 211.79 L15.42 209.15 L16.57 207.13 L18.42 203.95 L20.46 200.08 L21.36 197.23 L21.96 193.33 L24.05 190.03 L27.04 186.73 L29.78 184.43 L30.78 181.93 L31.42 177.68 L30.34 174.42 L28.85 169.76 L27.81 165.11 L27.62 161.52 L26.62 157.45 L26.17 154.15 L26.48 150.69 L27.67 148.14 L30.66 144.69 L33.5 140.04 L35.09 130.68 L36.91 128.04 L40.63 125.94 L42.48 121.88 L42.09 117.82 L38.74 114.35 L35.47 111.15 L34.28 109.11 L34.58 102.96 L35.34 97.55 L35.94 93.2 L36.09 89.3 L36.09 84.94 L36.55 80.89 L37.68 76.2 L39.69 72.1 L41.41 67.35 L43.6 63.43 L46.72 58.23 L48.96 52.67 L51.51 49.52 L54.87 45.74 L58.77 42.55 L62.77 41.18 L65.04 41.09 L68.76 40.73 L73.21 39 L77.34 36.65 L78.11 34.99 L77.93 33.53 L76.66 32.43 L75.12 32.16 L73.49 31.61 L72.03 30.7 L70.13 28.87 L68.97 26.8 L68.5 23.94 L69.62 18.37 L71.3 15.13 L74.53 11.38 L77.49 9.56 L79.91 6.26 L82.32 3.33 L84.31 2.69 L87.17 2.83 L92.32 2.97 L96.48 1.79 L102.65 0.79 L105.22 0 L108.19 0.7 L110.54 2.17 L115.08 1.99 L119.53 2.08 L123.25 2.36 L125.79 3.1 L127.33 3.83 L129.15 4.74 L131.23 6.11 L134.86 7.58 L138.13 8.58 L140.03 8.95 L141.85 9.32 L143.93 9.96 L145.84 10.6 L148.56 11.24 L151.83 12.07 L154.28 12.07 L157.09 12.07 L159.45 12.44 L162.36 12.62 L165.89 12.9 L169.25 13.64 L171.34 14.46 L173.06 16.2 L174.96 18.11 L176.51 19.58 L178.32 20.13 L180.5 20.4 L182.68 21.13 L184.85 21.5 L186.94 21.59 L189.85 21.69 L191.75 21.97 L194.38 22.88 L196.74 24.71 L198.46 26.99 L198.01 28.73 L194.83 29.45 L189.93 29.17 L186.75 28.8 L183.76 28.89 L180.31 28.43 L177.31 28.43 L174.23 27.7 L171.23 26.78 L168.88 26.23 L166.7 25.59 L164.79 25.86 L160.8 26.95 L159.16 26.77 L157.44 26.31 L155.81 25.94 L153.9 25.67 L151.72 25.94 L149.73 25.75 L147.91 25.75 L146.19 25.66 L144.1 25.11 L142.38 24.47 L140.38 23.65 L138.84 22.91 L137.57 21.91 L136.21 20.17 L135.58 18.62 L134.49 17.43 L132.95 16.52 L131.4 16.06 L129.23 16.06 L125.23 16.15 L121.6 16.77 L119.92 18.06 L119.34 19.62 L118.17 23.23 L117.16 26.5 L116.91 29.27 L117.07 32.29 L117.32 35.23 L118.24 38.92 L119.07 41.19 L119.45 43.44 L119.23 45.22 L118.1 47.94 L117.22 51.43 L117.38 54.79 L117.88 60.92 L117.62 64.86 L116.88 68.51 L115.68 73.76 L113.29 81.27 L109.99 88.32 L108.8 92.07 L108.64 95.67 L108.07 99.1 L107.41 100.61 L104.31 102.88 L99.83 105.12 L96.54 108.12 L95.04 109.62 L94.37 111.84 L94.89 115.78 L95.78 119.53 L95.48 123.29 L95.62 125.99 L96.52 129.89 L96.21 133.35 L95.76 135.75 L94.57 140.1 L93.52 144.3 L92.17 147.43 L91.75 150.28 L91.87 151.96 L91.74 155.91 L91.07 159.68 L91.15 162.62 L90.23 166.9 L88.27 169.52 L86.32 172.67 L84.53 177.17 L82.28 181.68 L80.79 184.38 L80.19 186.93 L78.84 189.78 L77.05 192.93 L76.45 195.18 L78.24 197.89 L79.28 203.74 L78.97 206.14 L79.87 209.3 L80.91 212.6 L81.06 215.15 L81.65 218.31 L81.94 221.76 L83.14 224.91 L84.92 229.12 L85.52 230.47 L86.11 232.87 L86.41 235.73 L86.85 238.43 L86.85 240.38 L86.7 243.83 L86.7 246.09 L87.89 248.19 L89.23 249.84 L92.07 253 L93.4 253.95 L93.85 255.85 L91.46 259 L89.52 262.45 L89.22 266.05 L91.3 272.51 L90.4 277.01 L90.99 280.47 L91.88 285.42 L92.48 288.13 L92.19 290.77 L90.98 294 z" class="polygon_1" style="fill:#571D6D;" />
    </g>
    <g id="SiteLine" style="fill:none;" />
    <g id="SitePoint">
      <circle cx="56" cy="469" r="6" id="Dam_S2140" style="fill:#74B24E;stroke:#365B1F;">
        <title>霧社水庫一 ：優養 (56)</title>
      </circle>
      <circle cx="54" cy="354" r="6" id="Dam_S2141" style="fill:#74B24E;stroke:#365B1F;">
        <title>霧社水庫二 ：優養 (61)</title>
      </circle>
      <circle cx="57" cy="253" r="6" id="Dam_S2142" style="fill:#74B24E;stroke:#365B1F;">
        <title>霧社水庫三 ：優養 (64)</title>
      </circle>
    </g>
    <g id="Mark" class="Heilight">
      <g transform="translate(56, 469) translate(-14, -14)" id="gMark" class="HeilightTrans">
        <path d="M17.2 27.5 L17.2 23.4 L22.8 23.4 L23.3 23.4 L23.3 22.9 L23.3 17.3 L27.4 17.3 L27.4 27.6 L17.2 27.5 z M0.5 27.5 L0.5 17.2 L4.6 17.2 L4.6 22.8 L4.6 23.3 L5.1 23.3 L10.1 23.3 L10.1 27.4 L0.5 27.5 z M27.5 10.2 L23.4 10.2 L23.4 5.2 L23.4 4.6 L22.9 4.6 L17.3 4.6 L17.3 0.5 L27.6 0.5 L27.6 10.2 z M4.6 10.2 L0.5 10.2 L0.5 0.5 L10.2 0.5 L10.2 4.6 L5.2 4.6 L4.6 4.6 L4.6 5.1 L4.6 10.2 z" class="st0" style="fill:#FF800E;" />
        <path d="M17.7 27 L27 27 L27 17.7 L23.9 17.7 L23.9 22.8 L23.9 23.8 L22.9 23.8 L17.8 23.8 L17.8 27 M1 27 L9.7 27 L9.7 23.9 L5.1 23.9 L4.1 23.9 L4.1 22.9 L4.1 17.8 L1 17.8 L1 27 M27 9.7 L27 1 L17.7 1 L17.7 4.1 L22.8 4.1 L23.8 4.1 L23.8 5.1 L23.8 9.6 L27 9.6 M4.1 9.7 L4.1 5.1 L4.1 4.1 L5.1 4.1 L9.6 4.1 L9.6 1 L1 1 L1 9.7 L4.1 9.7 M28 28 L28 28 L28 28 L16.7 28 L16.7 22.9 L22.8 22.9 L22.8 16.8 L28 16.8 L28 28 L28 28 z M10.7 28 L10.7 28 L10.7 28 L0 28 L0 16.7 L5.1 16.7 L5.1 22.8 L10.6 22.8 L10.6 28 L10.7 28 z M28 10.7 L28 10.7 L28 10.7 L22.9 10.7 L22.9 5.1 L16.8 5.1 L16.8 0 L28 0 L28 10.7 L28 10.7 z M5.1 10.7 L5.1 10.7 L0 10.7 L0 0 L10.7 0 L10.7 5.1 L5.1 5.1 L5.1 10.7 L5.1 10.7 z" class="st1" style="fill:#B55600;" />
      </g>
    </g>
  </g>
</svg>