<?xml version="1.0" encoding="utf-8"?>
<!DOCTYPE svg PUBLIC "-//W3C//DTD SVG 1.1//EN" "http://www.w3.org/Graphics/SVG/1.1/DTD/svg11.dtd">
<svg width="541px" height="510px" viewBox="0, 0, 541, 510" class="svgDam" xmlns="http://www.w3.org/2000/svg" xmlns:xlink="http://www.w3.org/1999/xlink" xmlns:xml="http://www.w3.org/XML/1998/namespace" version="1.1">
  <g id="MapArea">
    <g id="Key_Area">
      <path d="M273.87 197.88 L273.84 198.08 L273.65 199.34 L273.43 200.71 L273.23 201.96 L273.08 202.86 L273.03 203.22 L273 203.34 L272.81 203.68 L272.33 204.61 L271.65 205.93 L270.87 207.44 L270.09 208.95 L269.41 210.26 L268.93 211.2 L268.74 211.55 L268.7 211.66 L268.64 211.72 L268.38 212.04 L267.7 212.89 L266.73 214.08 L265.62 215.44 L264.51 216.8 L263.54 218 L262.86 218.83 L262.59 219.17 L262.52 219.25 L262.45 219.32 L262.28 219.71 L261.81 220.73 L261.16 222.17 L260.4 223.8 L259.65 225.44 L258.99 226.87 L258.53 227.88 L258.35 228.28 L258.31 228.35 L258.27 228.43 L258.26 228.51 L258.23 228.59 L258.17 228.59 L258.1 228.6 L258.07 228.92 L257.97 229.75 L257.85 230.91 L257.71 232.17 L257.58 233.34 L257.5 234.23 L257.45 234.62 L257.43 234.87 L257.41 235.17 L257.39 235.43 L257.36 235.9 L257.29 237.07 L257.18 238.75 L257.07 240.71 L256.94 242.77 L256.82 244.72 L256.71 246.38 L256.65 247.53 L256.61 247.98 L256.61 248.18 L256.6 248.39 L256.6 248.87 L256.57 250.16 L256.54 252.1 L256.5 254.53 L256.45 257.28 L256.4 260.2 L256.35 263.12 L256.3 265.88 L256.26 268.34 L256.22 270.31 L256.2 271.63 L256.19 272.15 L256.14 272.55 L256.09 273.04 L256.09 273.43 L256.26 273.88 L256.68 274.87 L257.25 276.2 L257.87 277.61 L258.44 278.91 L258.86 279.85 L259.04 280.24 L259.2 280.36 L259.36 280.46 L259.6 280.6 L260.14 280.89 L260.82 281.23 L261.48 281.57 L261.98 281.79 L262.52 281.96 L263.8 282.37 L265.69 282.97 L268.08 283.71 L270.84 284.56 L273.84 285.49 L276.96 286.45 L280.07 287.42 L283.06 288.34 L285.79 289.18 L288.15 289.91 L290 290.48 L291.23 290.87 L291.71 291.01 L292 291.11 L292.38 291.25 L292.51 291.29 L293.75 288.55 L294.12 288.73 L303.65 280.43 L317.29 270.62 L326.61 266.68 L330.96 266.07 L352.49 263.78 L359.1 262.98 L371.34 260.34 L384.98 255.28 L403.63 249.42 L417.07 245.99 L426.7 245.57 L439.49 245.92 L441.15 245.97 L443.3 246.35 L456.6 248.77 L467.43 249.98 L477.26 250.98 L483.89 253.2 L494.52 256.42 L505.96 261.05 L513.19 265.88 L522.82 270.72 L522.83 270.72 L530.35 279.84 L536.21 290.29 L538.82 297.49 L540.78 303.58 L540.35 312.52 L538.6 317.75 L533.86 331.93 L529.11 344.79 L511.34 356.57 L496.61 365.96 L481.86 374.18 L480.7 374.82 L479.4 375.55 L476.24 377.3 L462.82 385.59 L452.85 406.53 L449.61 408.92 L434.01 406.71 L433.6 406.7 L430.36 406.57 L427.13 406.43 L424.03 406.3 L421.19 406.18 L418.76 406.07 L416.84 406 L415.59 405.94 L415.11 405.93 L414.85 405.92 L414.52 405.9 L414.36 405.89 L414.26 405.89 L414.16 405.88 L413.73 405.81 L412.51 405.63 L410.62 405.34 L408.23 404.97 L405.43 404.54 L402.37 404.08 L399.17 403.59 L395.96 403.1 L392.88 402.63 L390.05 402.2 L387.58 401.82 L385.63 401.53 L384.33 401.33 L383.78 401.25 L383.37 401.19 L382.83 401.11 L382.26 401.03 L381.72 400.96 L381.31 400.89 L380.74 400.83 L379.36 400.64 L377.29 400.37 L374.69 400.01 L371.68 399.61 L368.4 399.16 L364.98 398.72 L361.56 398.25 L358.28 397.82 L355.26 397.41 L352.66 397.06 L350.59 396.79 L349.21 396.6 L348.63 396.52 L348.19 396.46 L347.63 396.38 L347.02 396.3 L346.45 396.22 L346.01 396.18 L345.49 396.14 L344.76 396.11 L344.01 396.09 L343.5 396.07 L343.24 396.09 L343.15 396.1 L343.13 396.1 L343.11 396.12 L343.08 396.18 L343.06 396.31 L343.04 396.53 L343.02 396.74 L342.95 397.06 L342.81 397.71 L342.66 398.45 L342.55 398.96 L342.5 399.22 L342.48 399.3 L342.48 399.32 L342.47 399.32 L342.41 399.32 L342.37 399.32 L342.2 399.34 L341.91 399.4 L341.74 399.41 L341.68 399.26 L341.64 399.09 L341.53 398.84 L341.27 398.27 L340.96 397.58 L340.7 396.97 L340.56 396.63 L340.5 396.3 L340.44 395.9 L340.4 395.69 L340.32 395.69 L340.23 395.69 L340.01 395.72 L339.5 395.79 L338.85 395.87 L338.22 395.96 L337.75 396.03 L337.24 396.15 L336.23 396.4 L334.9 396.73 L333.42 397.12 L331.96 397.49 L330.68 397.81 L329.76 398.05 L329.36 398.16 L329.09 398.21 L328.75 398.29 L328.49 398.37 L328.1 398.6 L327.22 399.14 L326.04 399.89 L324.77 400.68 L323.6 401.43 L322.75 401.96 L322.4 402.19 L322.24 402.29 L322.08 402.41 L321.74 402.67 L320.91 403.29 L319.79 404.13 L318.57 405.05 L317.44 405.9 L316.61 406.52 L316.26 406.79 L316.08 407 L315.91 407.21 L315.7 407.42 L315.23 407.9 L314.62 408.55 L313.98 409.25 L313.41 409.9 L313.03 410.39 L312.76 410.92 L312.42 411.69 L312.09 412.54 L311.78 413.32 L311.56 413.91 L311.48 414.14 L311.42 414.24 L311.38 414.33 L311.34 414.69 L311.24 415.6 L311.11 416.75 L310.98 417.91 L310.88 418.8 L310.84 419.16 L310.83 419.25 L310.82 419.34 L310.84 419.74 L310.92 420.79 L311.02 422.21 L311.12 423.78 L311.21 425.23 L311.29 426.33 L311.32 426.83 L311.34 427.23 L311.33 427.72 L311.31 428.11 L311.27 428.49 L311.17 429.22 L311.05 430.11 L310.94 431 L310.84 431.68 L310.79 431.96 L310.74 432.15 L310.68 432.32 L310.51 432.58 L310.13 433.2 L309.63 433.98 L309.14 434.78 L308.76 435.37 L308.6 435.63 L308.55 435.73 L308.51 435.83 L308.46 435.91 L308.4 435.97 L308.1 436.19 L307.37 436.72 L306.5 437.34 L305.75 437.87 L305.41 438.11 L305.21 438.23 L305.05 438.33 L304.94 438.35 L304.83 438.37 L304.66 438.37 L304.45 438.35 L304.13 438.39 L303.38 438.51 L302.43 438.66 L301.48 438.81 L300.75 438.93 L300.45 438.97 L300.35 438.95 L300.27 438.94 L299.97 438.91 L299.25 438.84 L298.33 438.76 L297.39 438.66 L296.67 438.6 L296.36 438.56 L296.18 438.51 L296.01 438.44 L295.64 438.28 L294.74 437.91 L293.58 437.42 L292.4 436.91 L291.46 436.5 L291.01 436.3 L290.66 436.11 L290.24 435.84 L289.89 435.64 L289.49 435.43 L288.59 434.96 L287.33 434.33 L285.93 433.61 L284.52 432.9 L283.29 432.27 L282.41 431.83 L282.05 431.65 L281.86 431.56 L281.64 431.45 L281.45 431.36 L281.06 431.12 L280.06 430.52 L278.62 429.65 L276.94 428.62 L275.17 427.56 L273.49 426.54 L272.08 425.68 L271.1 425.1 L270.74 424.87 L270.65 424.83 L270.55 424.79 L270.42 424.76 L270.27 424.72 L270.02 424.62 L269.4 424.37 L268.52 424.02 L267.5 423.64 L266.48 423.28 L265.57 423 L264.89 422.88 L264.22 422.95 L263.1 423.15 L261.66 423.46 L260.07 423.83 L258.45 424.22 L256.94 424.59 L255.68 424.91 L254.82 425.13 L254.5 425.21 L254.32 425.27 L254.19 425.31 L254.14 425.36 L254.08 425.41 L253.94 425.59 L253.59 426.03 L253.17 426.57 L252.77 427.1 L252.52 427.47 L252.32 427.93 L252.1 428.52 L251.92 429.12 L251.8 429.6 L251.77 430.06 L251.76 430.82 L251.75 431.72 L251.75 432.59 L251.76 433.23 L251.76 433.49 L251.74 433.57 L251.72 433.65 L251.82 434.08 L252.11 435.24 L252.55 436.98 L253.09 439.13 L253.69 441.54 L254.33 444.05 L254.93 446.48 L255.49 448.67 L255.93 450.48 L256.25 451.74 L256.38 452.27 L256.47 452.73 L256.58 453.33 L256.69 453.93 L256.79 454.38 L256.94 454.8 L257.21 455.55 L257.56 456.45 L257.92 457.42 L258.23 458.3 L258.42 458.97 L258.55 459.72 L258.68 460.78 L258.79 461.99 L258.89 463.14 L258.99 464.07 L259.06 464.58 L259.22 465.04 L259.46 465.64 L259.7 466.24 L259.86 466.7 L259.9 467.23 L259.94 468.19 L259.99 469.35 L260.02 470.47 L260.04 471.32 L260.06 471.67 L260.06 471.83 L260.07 471.98 L260.05 472.1 L260.02 472.21 L259.95 472.35 L259.87 472.49 L259.63 472.77 L259.04 473.46 L258.29 474.34 L257.54 475.23 L256.94 475.92 L256.69 476.22 L256.53 476.35 L256.36 476.48 L256.06 476.67 L255.32 477.16 L254.29 477.85 L253.1 478.64 L251.89 479.42 L250.84 480.12 L250.05 480.63 L249.69 480.86 L249.33 481.06 L248.89 481.28 L248.52 481.45 L248.05 481.67 L246.98 482.15 L245.52 482.81 L243.87 483.56 L242.22 484.3 L240.79 484.94 L239.77 485.41 L239.37 485.58 L239.22 485.66 L239.06 485.74 L238.7 485.82 L237.89 485.98 L236.92 486.16 L236.12 486.32 L235.76 486.4 L235.61 486.43 L235.46 486.44 L235.29 486.44 L235.09 486.43 L234.76 486.42 L234.07 486.39 L233.24 486.35 L232.53 486.33 L232.2 486.31 L231.97 486.25 L231.74 486.18 L231.38 486.01 L230.54 485.61 L229.45 485.08 L228.37 484.56 L227.52 484.15 L227.15 483.98 L226.97 483.89 L226.77 483.77 L226.6 483.68 L226.35 483.5 L225.85 483.16 L225.22 482.72 L224.62 482.3 L224.2 481.96 L223.79 481.62 L223.27 481.13 L222.72 480.62 L222.3 480.21 L222.09 480.01 L221.91 479.83 L221.75 479.67 L221.64 479.51 L221.55 479.36 L221.35 479.03 L220.9 478.26 L220.34 477.25 L219.76 476.23 L219.3 475.43 L219.1 475.06 L219.04 474.82 L218.96 474.52 L218.91 474.28 L218.81 473.93 L218.58 473.2 L218.28 472.23 L217.98 471.18 L217.72 470.21 L217.54 469.5 L217.43 468.74 L217.3 467.69 L217.18 466.52 L217.07 465.42 L216.99 464.61 L216.96 464.25 L216.93 463.99 L216.89 463.73 L216.8 463.31 L216.56 462.37 L216.25 461.16 L215.94 459.94 L215.7 458.99 L215.61 458.58 L215.55 458.37 L215.5 458.14 L215.36 457.81 L215.04 457.01 L214.61 455.95 L214.14 454.8 L213.72 453.73 L213.39 452.95 L213.27 452.65 L213.2 452.49 L213.13 452.34 L212.88 452.02 L212.27 451.26 L211.47 450.28 L210.67 449.3 L210.06 448.54 L209.81 448.24 L209.73 448.15 L209.64 448.05 L209.27 447.87 L208.3 447.39 L206.95 446.71 L205.39 445.93 L203.83 445.16 L202.48 444.49 L201.52 444.01 L201.16 443.82 L201.07 443.81 L200.97 443.82 L200.63 443.97 L199.75 444.38 L198.46 444.97 L196.94 445.67 L195.32 446.4 L193.8 447.09 L192.52 447.69 L191.62 448.09 L191.3 448.25 L191.22 448.28 L191.14 448.31 L190.75 448.47 L189.74 448.9 L188.26 449.54 L186.52 450.29 L184.68 451.09 L182.92 451.83 L181.44 452.47 L180.42 452.91 L180.03 453.08 L179.88 453.15 L179.75 453.2 L179.63 453.24 L179.5 453.29 L179.1 453.43 L177.97 453.79 L176.27 454.35 L174.15 455.04 L171.74 455.82 L169.18 456.65 L166.63 457.47 L164.23 458.26 L162.1 458.95 L160.4 459.5 L159.28 459.87 L158.88 460 L158.77 460.03 L158.69 460.06 L158.62 460.1 L158.31 460.22 L157.53 460.54 L156.47 460.96 L155.31 461.43 L154.24 461.87 L153.46 462.19 L153.14 462.32 L152.99 462.36 L152.84 462.41 L152.47 462.48 L151.58 462.63 L150.44 462.84 L149.3 463.04 L148.42 463.19 L148.08 463.25 L147.96 463.29 L147.58 463.39 L146.58 463.65 L145.24 464.01 L143.77 464.4 L142.43 464.76 L141.45 465.02 L141.07 465.13 L140.96 465.18 L140.65 465.37 L139.83 465.82 L138.72 466.46 L137.51 467.14 L136.4 467.78 L135.59 468.23 L135.27 468.42 L135.21 468.46 L134.92 468.71 L134.2 469.35 L133.22 470.22 L132.15 471.18 L131.17 472.06 L130.45 472.7 L130.17 472.95 L130.1 473.03 L129.9 473.27 L129.45 473.84 L128.9 474.52 L128.45 475.09 L128.25 475.33 L128.22 475.39 L128.02 475.73 L127.58 476.54 L127.04 477.51 L126.59 478.32 L126.4 478.65 L126.36 478.77 L126.26 479.17 L126 480.19 L125.65 481.6 L125.26 483.13 L124.9 484.53 L124.64 485.56 L124.54 485.97 L124.52 486.1 L124.5 486.23 L124.36 486.57 L124 487.39 L123.54 488.45 L123.08 489.52 L122.73 490.34 L122.59 490.66 L122.54 490.77 L122.27 490.98 L121.59 491.51 L120.7 492.21 L119.81 492.91 L119.13 493.45 L118.84 493.68 L118.73 493.78 L118.64 493.89 L118.54 493.9 L118.44 493.93 L118.16 493.97 L117.42 494.09 L116.36 494.24 L115.15 494.4 L113.94 494.52 L112.86 494.58 L112.09 494.57 L111.33 494.39 L110.33 494.04 L109.2 493.6 L108.08 493.14 L107.11 492.72 L106.4 492.4 L106.09 492.27 L105.87 492.17 L105.61 492.07 L105.41 491.96 L105.17 491.72 L104.62 491.14 L103.83 490.3 L102.93 489.31 L101.98 488.24 L101.09 487.2 L100.35 486.27 L99.86 485.54 L99.49 484.73 L99.07 483.62 L98.64 482.32 L98.21 480.97 L97.83 479.69 L97.51 478.59 L97.3 477.82 L97.21 477.49 L97.11 477.26 L96.99 476.97 L96.88 476.73 L96.76 476.4 L96.45 475.55 L95.98 474.33 L95.39 472.83 L94.73 471.16 L94.03 469.46 L93.33 467.81 L92.67 466.36 L92.08 465.19 L91.59 464.45 L90.84 463.72 L89.7 462.83 L88.34 461.88 L86.89 460.92 L85.51 460.05 L84.33 459.32 L83.51 458.83 L83.21 458.65 L83.13 458.59 L82.76 458.64 L81.77 458.79 L80.33 458.99 L78.63 459.24 L76.85 459.49 L75.15 459.75 L73.72 459.95 L72.73 460.1 L72.36 460.15 L72.24 460.16 L71.87 460.37 L70.91 460.92 L69.51 461.72 L67.85 462.65 L66.11 463.65 L64.45 464.59 L63.05 465.39 L62.08 465.93 L61.72 466.13 L61.67 466.16 L61.59 466.24 L61.51 466.33 L61.21 466.66 L60.43 467.58 L59.25 468.92 L57.8 470.59 L56.17 472.45 L54.5 474.37 L52.88 476.22 L51.42 477.9 L50.24 479.24 L49.45 480.14 L49.17 480.47 L49.09 480.54 L49.02 480.61 L48.94 480.71 L48.9 480.77 L48.7 481.1 L48.15 482.02 L47.34 483.36 L46.36 484.99 L45.29 486.77 L44.22 488.57 L43.23 490.2 L42.42 491.56 L41.86 492.49 L41.65 492.83 L41.55 493 L41.46 493.14 L41.41 493.18 L41.31 493.34 L41.18 493.56 L40.93 493.95 L40.24 494.96 L39.23 496.47 L37.99 498.33 L36.6 500.41 L35.16 502.55 L33.78 504.62 L32.53 506.49 L31.52 508.01 L30.83 509.03 L30.57 509.43 L30.48 509.63 L30.36 509.87 L30.26 510 L30.05 509.95 L29.82 509.83 L29.56 509.68 L28.97 509.35 L28.19 508.89 L27.35 508.37 L26.6 507.89 L26.07 507.49 L25.66 507.03 L24.97 506.18 L24.09 505.04 L23.1 503.74 L22.08 502.4 L21.13 501.12 L20.34 500.06 L19.79 499.32 L19.56 499.01 L19.45 498.84 L19.31 498.6 L19.2 498.41 L19.06 498.12 L18.71 497.43 L18.23 496.46 L17.65 495.31 L17.04 494.07 L16.45 492.89 L15.94 491.85 L15.55 491.07 L15.21 490.37 L14.61 489.15 L13.81 487.51 L12.88 485.57 L11.85 483.46 L10.78 481.26 L9.73 479.11 L8.75 477.09 L7.9 475.32 L7.22 473.92 L6.78 473 L6.61 472.66 L6.55 472.54 L6.49 472.4 L6.4 472.03 L6.17 471.12 L5.86 469.93 L5.55 468.75 L5.31 467.84 L5.22 467.44 L5.13 467.21 L5.06 467.03 L5.13 466.97 L5.19 466.91 L5.24 466.52 L5.31 465.54 L5.41 464.16 L5.48 462.6 L5.5 461.12 L5.46 460.09 L5.38 459.52 L5.31 459.24 L5.26 459.15 L5.2 459.07 L5.02 458.88 L4.64 458.59 L3.97 458.18 L2.95 457.65 L1.9 457.16 L0.95 456.75 L0.37 456.52 L0.1 456.4 L0.01 456.38 L0 456.38 L0.01 456.36 L0.03 456.32 L0.04 456.3 L0.18 455.95 L0.52 455.14 L0.92 454.16 L1.26 453.35 L1.4 452.99 L1.39 452.9 L1.39 452.8 L1.42 452.39 L1.53 451.3 L1.67 449.72 L1.84 447.84 L2.03 445.87 L2.2 444 L2.35 442.42 L2.45 441.31 L2.49 440.89 L2.51 440.74 L2.54 440.6 L2.63 440.17 L2.88 438.99 L3.27 437.25 L3.74 435.1 L4.26 432.71 L4.8 430.22 L5.34 427.82 L5.8 425.67 L6.18 423.93 L6.44 422.76 L6.54 422.32 L6.56 422.15 L6.6 421.99 L6.74 421.56 L7.08 420.47 L7.59 418.9 L8.2 417.04 L8.83 415.09 L9.44 413.23 L9.95 411.66 L10.31 410.57 L10.44 410.15 L10.52 409.94 L10.58 409.78 L10.65 409.68 L10.71 409.63 L10.77 409.58 L10.96 409.32 L11.45 408.71 L12.1 407.94 L12.74 407.21 L13.23 406.71 L13.7 406.37 L14.73 405.71 L16.2 404.77 L18.01 403.62 L20.02 402.35 L22.14 401 L24.27 399.67 L26.26 398.42 L28.01 397.32 L29.43 396.44 L30.39 395.84 L30.76 395.6 L31.06 395.42 L31.42 395.18 L31.74 395 L32.2 394.88 L33.22 394.64 L34.49 394.35 L35.74 394.07 L36.7 393.86 L37.09 393.77 L37.16 393.75 L37.24 393.74 L37.59 393.74 L38.56 393.75 L39.94 393.76 L41.51 393.79 L43.08 393.8 L44.47 393.81 L45.47 393.83 L45.88 393.84 L46.09 393.85 L46.35 393.86 L46.56 393.85 L46.74 393.71 L46.95 393.48 L47.05 393.37 L47.36 393.43 L48.42 393.7 L49.98 394.11 L51.85 394.6 L53.86 395.13 L55.83 395.65 L57.57 396.1 L58.91 396.46 L59.68 396.66 L60.38 396.84 L61.34 397.09 L62.42 397.37 L63.49 397.65 L64.4 397.89 L64.96 398.03 L65.22 398.11 L65.3 398.14 L65.31 398.14 L65.3 398.17 L65.22 398.21 L65.05 398.29 L64.88 398.39 L64.94 398.54 L65.07 398.76 L65.15 398.94 L65.06 399.32 L64.85 400.13 L64.62 401.13 L64.49 401.89 L64.47 402.35 L64.51 402.58 L64.53 402.66 L64.57 402.71 L64.72 402.84 L65.13 403.09 L65.9 403.49 L67.11 404.06 L68.42 404.63 L69.59 405.12 L70.47 405.48 L70.81 405.63 L70.98 405.71 L71.12 405.79 L71.22 405.83 L71.31 405.87 L71.39 405.87 L71.48 405.88 L71.76 405.89 L72.45 405.91 L73.32 405.93 L74.18 405.94 L74.81 405.94 L75.41 405.92 L76.34 405.88 L77.4 405.82 L78.42 405.77 L79.17 405.71 L79.49 405.7 L79.66 405.69 L79.82 405.66 L80.26 405.51 L81.4 405.14 L83.11 404.58 L85.22 403.89 L87.58 403.12 L90.02 402.32 L92.37 401.55 L94.49 400.85 L96.21 400.28 L97.38 399.9 L97.83 399.75 L98.06 399.68 L98.35 399.59 L98.5 399.54 L98.61 399.5 L98.71 399.44 L98.84 399.09 L99.17 398.13 L99.66 396.71 L100.26 394.99 L100.9 393.12 L101.55 391.26 L102.14 389.55 L102.63 388.12 L102.97 387.17 L103.09 386.81 L103.12 386.7 L103.15 386.61 L103.1 386.54 L103.04 386.48 L102.82 386.21 L102.27 385.52 L101.46 384.55 L100.53 383.41 L99.59 382.26 L98.72 381.19 L98.08 380.38 L97.74 379.95 L97.49 379.51 L97.19 378.92 L96.87 378.29 L96.58 377.7 L96.34 377.25 L96.04 376.75 L95.55 375.95 L94.97 375.01 L94.43 374.12 L94.01 373.45 L93.84 373.16 L93.74 373.02 L93.65 372.86 L93.51 372.51 L93.2 371.68 L92.8 370.59 L92.4 369.5 L92.08 368.66 L91.95 368.3 L91.89 368.14 L91.84 367.97 L91.83 367.56 L91.78 366.44 L91.72 364.77 L91.63 362.67 L90.14 357.33 L90.13 357.32 L90.12 357.25 L90.09 357.08 L90.07 356.92 L90.05 356.79 L90.02 356.64 L90.01 356.48 L90 356.3 L90.03 355.85 L90.1 354.69 L90.19 353.07 L90.31 351.21 L90.43 349.35 L90.53 347.73 L90.6 346.56 L90.64 346.1 L90.66 345.83 L90.69 345.58 L90.7 345.35 L90.71 345.11 L90.87 344.7 L91.31 343.64 L91.94 342.07 L92.71 340.18 L93.54 338.13 L94.38 336.08 L95.15 334.19 L95.78 332.62 L96.21 331.56 L96.38 331.15 L96.45 330.95 L96.53 330.76 L96.6 330.59 L96.68 330.43 L96.77 330.3 L96.91 330.1 L97.03 329.94 L97.26 329.64 L97.82 328.92 L98.59 327.89 L99.49 326.75 L100.38 325.58 L101.16 324.57 L101.74 323.83 L101.99 323.5 L102.2 323.24 L102.46 322.92 L102.68 322.67 L103 322.3 L103.81 321.42 L104.95 320.16 L106.28 318.68 L107.68 317.14 L109.01 315.68 L110.13 314.43 L110.91 313.57 L111.22 313.23 L111.37 313.06 L111.52 312.9 L111.75 312.68 L112.13 312.3 L112.45 312 L112.76 311.68 L113.56 310.91 L114.72 309.79 L116.14 308.41 L117.71 306.88 L119.33 305.31 L120.88 303.8 L122.29 302.43 L123.42 301.32 L124.18 300.58 L124.48 300.3 L124.61 300.16 L124.74 300.01 L124.99 299.66 L125.62 298.79 L126.5 297.54 L127.51 296.12 L128.52 294.69 L129.42 293.44 L130.06 292.53 L130.32 292.16 L130.5 291.93 L130.72 291.65 L130.84 291.5 L130.91 291.4 L130.97 291.29 L131.21 290.92 L131.82 289.95 L132.68 288.58 L133.67 287 L134.67 285.42 L135.55 284.01 L136.2 282.99 L136.49 282.53 L136.65 282.27 L136.87 281.92 L137.07 281.56 L137.24 281.3 L137.52 280.87 L138.24 279.77 L139.33 278.12 L140.71 276.02 L142.31 273.58 L144.06 270.92 L145.88 268.16 L147.7 265.38 L149.46 262.72 L151.05 260.28 L152.45 258.16 L153.53 256.49 L154.27 255.37 L154.57 254.92 L154.82 254.54 L155.13 254.04 L155.44 253.55 L155.68 253.17 L155.93 252.72 L156.48 251.69 L157.28 250.24 L158.21 248.52 L159.23 246.64 L160.26 244.76 L161.2 243.02 L162 241.57 L162.56 240.53 L162.82 240.07 L163.13 239.53 L163.55 238.86 L163.92 238.25 L164.08 237.99 L164.14 238.02 L164.4 237.77 L165.07 237.13 L165.94 236.3 L166.81 235.48 L167.49 234.83 L167.8 234.54 L167.99 234.34 L168.2 234.14 L168.49 233.9 L169.11 233.42 L169.86 232.86 L170.49 232.37 L170.8 232.14 L170.98 232.02 L171.21 231.88 L171.39 231.77 L171.76 231.6 L172.59 231.23 L173.64 230.76 L174.7 230.29 L175.53 229.94 L175.9 229.76 L176.06 229.68 L176.28 229.59 L176.45 229.52 L176.9 229.38 L178 229 L179.54 228.51 L181.29 227.93 L183.04 227.35 L184.6 226.85 L185.72 226.47 L186.21 226.31 L186.55 226.19 L186.98 226.02 L187.33 225.92 L187.77 225.84 L188.6 225.72 L189.56 225.58 L190.43 225.46 L190.92 225.39 L191.29 225.31 L191.75 225.22 L192.22 225.11 L192.59 225.03 L193.12 224.94 L194.34 224.69 L196.1 224.34 L198.21 223.92 L200.5 223.46 L202.81 223.01 L204.94 222.58 L206.73 222.22 L208 221.97 L208.59 221.85 L209.08 221.76 L209.75 221.64 L210.42 221.5 L210.99 221.37 L211.28 221.26 L211.47 220.94 L211.62 220.48 L211.71 220.09 L211.72 219.68 L211.7 218.88 L211.68 217.9 L211.65 216.92 L211.61 216.15 L211.59 215.8 L211.52 215.6 L211.41 215.35 L211.35 215.15 L211.41 214.94 L211.52 214.66 L211.59 214.45 L211.61 214.12 L211.62 213.62 L211.65 213.23 L211.74 212.77 L211.95 211.86 L212.23 210.7 L212.5 209.55 L212.73 208.64 L212.85 208.2 L212.98 207.87 L213.17 207.49 L213.3 207.16 L213.35 206.7 L213.45 205.84 L213.54 204.82 L213.62 203.91 L213.66 203.41 L213.69 203.05 L213.7 202.59 L213.73 202.12 L213.77 201.76 L213.88 201.39 L214.11 200.7 L214.4 199.86 L214.69 199.04 L214.93 198.37 L215.04 198.04 L215.15 197.68 L215.28 197.26 L215.37 196.9 L215.43 196.53 L215.55 195.76 L215.69 194.8 L215.85 193.82 L215.96 192.99 L216.03 192.5 L216.08 191.95 L216.15 191.21 L216.2 190.55 L216.25 190.18 L216.32 189.93 L216.43 189.62 L216.53 189.37 L216.66 188.93 L216.94 187.99 L217.3 186.78 L217.67 185.54 L217.96 184.57 L218.13 184.08 L218.26 183.79 L218.45 183.43 L218.65 183.06 L218.8 182.78 L219.01 182.37 L219.42 181.57 L219.92 180.59 L220.42 179.6 L220.81 178.83 L221 178.46 L221.14 178.21 L221.31 177.88 L221.44 177.61 L221.61 177.25 L221.89 176.63 L222.18 175.95 L222.41 175.42 L222.61 174.97 L222.9 174.28 L223.19 173.53 L223.44 172.93 L223.54 172.64 L223.52 172.47 L223.45 172.26 L223.43 172.07 L223.49 171.9 L223.59 171.67 L223.7 171.51 L223.95 171.29 L224.33 170.95 L224.53 170.7 L224.32 170.46 L223.93 170.18 L223.71 170.04 L223.65 169.97 L223.58 169.9 L223.36 169.57 L222.79 168.71 L221.98 167.5 L221.05 166.11 L220.12 164.71 L219.32 163.51 L218.75 162.64 L218.53 162.31 L218.48 162.26 L218.42 162.19 L218.32 162.05 L218.2 161.86 L218.01 161.55 L217.51 160.77 L216.79 159.64 L215.91 158.3 L215 156.88 L214.12 155.5 L213.34 154.31 L212.77 153.4 L212.48 152.95 L212.18 152.47 L211.78 151.81 L211.37 151.13 L211.05 150.61 L210.92 150.4 L210.87 150.34 L210.67 150.08 L210.19 149.47 L209.58 148.68 L208.98 147.89 L208.54 147.32 L208.17 146.81 L207.56 145.94 L206.82 144.88 L206.02 143.78 L205.28 142.78 L204.69 142.04 L204.33 141.69 L203.89 141.63 L203.23 141.66 L202.53 141.74 L201.96 141.82 L201.7 141.86 L201.5 141.87 L201.31 141.87 L200.87 141.98 L199.73 142.23 L198.06 142.62 L196.04 143.07 L193.84 143.57 L191.62 144.08 L189.6 144.55 L187.92 144.93 L186.77 145.2 L186.31 145.31 L186.1 145.37 L185.84 145.47 L185.63 145.53 L185.19 145.61 L184.04 145.84 L182.35 146.17 L180.27 146.57 L177.96 147.01 L175.56 147.48 L173.25 147.92 L171.18 148.31 L169.49 148.63 L168.36 148.84 L167.93 148.92 L167.72 148.81 L167.51 148.67 L167.16 148.43 L166.25 147.77 L164.87 146.8 L163.19 145.58 L161.29 144.21 L159.31 142.76 L157.37 141.34 L155.59 140.02 L154.1 138.88 L152.99 138 L152.43 137.47 L151.96 136.75 L151.4 135.72 L150.81 134.51 L150.27 133.3 L149.8 132.23 L149.47 131.44 L149.34 131.12 L149.35 130.88 L149.37 130.63 L149.46 130.17 L149.69 128.88 L150.03 126.91 L150.49 124.39 L151.02 121.43 L151.61 118.14 L152.23 114.68 L152.85 111.16 L153.47 107.69 L154.05 104.41 L154.58 101.45 L155.02 98.92 L155.37 96.97 L155.6 95.69 L155.67 95.24 L155.48 94.74 L155.58 94.46 L155.66 94.29 L155.79 94.06 L155.9 93.86 L156.08 93.41 L156.52 92.17 L157.19 90.34 L158.02 88.06 L158.97 85.47 L159.97 82.73 L160.97 79.99 L161.91 77.4 L162.74 75.13 L163.4 73.31 L163.84 72.11 L164 71.66 L164.04 71.54 L164.1 71.44 L164.52 71.24 L165.74 70.69 L167.6 69.84 L170.02 68.75 L172.85 67.47 L175.98 66.05 L179.3 64.54 L182.67 63.01 L185.99 61.51 L189.14 60.09 L191.99 58.8 L194.43 57.69 L196.34 56.83 L197.6 56.26 L198.08 56.04 L198.37 55.91 L198.74 55.75 L199.11 55.58 L199.4 55.43 L199.81 55.16 L200.78 54.49 L202.21 53.5 L203.95 52.29 L205.86 50.96 L207.85 49.58 L209.76 48.25 L211.48 47.05 L212.88 46.08 L213.81 45.43 L214.16 45.18 L214.32 45.03 L214.49 44.89 L214.76 44.49 L215.5 43.4 L216.63 41.74 L218.07 39.61 L219.74 37.14 L221.58 34.44 L223.48 31.64 L225.4 28.82 L227.23 26.12 L228.9 23.66 L230.34 21.54 L231.46 19.88 L232.2 18.8 L232.46 18.4 L232.51 18.24 L232.55 18.11 L234.93 14.85 L234.97 14.83 L235.06 14.73 L235.18 14.57 L235.29 14.4 L235.47 14.04 L235.95 13.14 L236.63 11.84 L237.42 10.31 L238.25 8.7 L239.04 7.16 L239.72 5.86 L240.19 4.94 L240.39 4.56 L240.53 4.28 L240.71 3.95 L240.79 3.76 L240.87 3.64 L240.87 3.36 L241.21 3.37 L242.1 3.39 L243.37 3.41 L244.84 3.44 L246.34 3.45 L247.67 3.45 L248.66 3.43 L249.14 3.39 L249.52 3.14 L249.97 2.73 L250.43 2.29 L250.81 2 L251.23 1.83 L252.02 1.55 L253.08 1.19 L254.23 0.81 L255.38 0.47 L256.37 0.2 L257.05 0.05 L257.8 0.01 L258.76 0 L259.84 0.03 L260.89 0.12 L261.81 0.26 L262.47 0.49 L262.99 0.9 L263.67 1.59 L264.4 2.47 L265.09 3.37 L265.69 4.19 L266.04 4.7 L266.2 4.96 L266.24 5.06 L266.24 5.08 L266.21 5.11 L266.1 5.12 L265.82 5.1 L265.33 5 L264.7 4.91 L264.32 4.95 L264.23 5.36 L264.19 6.28 L264.17 7.49 L264.13 8.75 L264.04 9.86 L263.88 10.6 L263.53 11.15 L262.97 11.79 L262.28 12.48 L261.58 13.17 L260.98 13.81 L260.57 14.36 L260.29 14.98 L259.93 15.98 L259.53 17.16 L259.15 18.38 L258.81 19.46 L258.57 20.24 L258.46 20.55 L258.33 20.71 L258.19 20.84 L257.99 21.08 L257.61 21.58 L257.2 22.14 L256.91 22.58 L256.72 23.06 L256.34 24.15 L255.8 25.7 L255.16 27.55 L254.47 29.56 L253.79 31.55 L253.16 33.4 L252.62 34.94 L252.25 36.03 L252.09 36.49 L251.95 36.89 L251.75 37.41 L251.56 37.89 L251.41 38.2 L251.09 38.54 L250.67 38.92 L250.43 39.1 L250.31 39 L250.17 38.87 L249.76 38.79 L248.85 38.61 L247.77 38.39 L247.02 38.25 L246.64 38.18 L246.51 38.16 L246.48 38.16 L246.46 38.18 L246.43 38.24 L246.41 38.28 L246.18 38.53 L245.57 39.19 L244.69 40.18 L243.64 41.35 L242.55 42.59 L241.5 43.83 L240.62 44.92 L240 45.76 L239.55 46.53 L238.94 47.68 L238.21 49.13 L237.43 50.74 L236.64 52.41 L235.86 54.04 L235.18 55.5 L234.63 56.68 L234.24 57.5 L234.09 57.84 L233.96 58.09 L233.79 58.38 L233.65 58.62 L233.43 58.87 L233.11 59.2 L232.86 59.48 L232.56 59.87 L231.81 60.81 L230.72 62.18 L229.41 63.83 L227.98 65.62 L226.53 67.42 L225.18 69.09 L224.04 70.49 L223.2 71.48 L222.79 71.92 L222.26 72.2 L221.51 72.5 L220.72 72.77 L220.07 73 L219.77 73.12 L219.66 73.35 L219.56 73.65 L219.47 73.88 L219.16 74.12 L218.46 74.64 L217.53 75.3 L216.5 75.97 L215.55 76.51 L214.83 76.8 L214.18 76.84 L213.31 76.78 L212.31 76.63 L211.28 76.45 L210.34 76.28 L209.59 76.12 L209.15 76.04 L208.71 75.94 L208.14 75.83 L207.53 75.71 L206.96 75.59 L206.52 75.52 L205.97 75.51 L204.95 75.48 L203.63 75.47 L202.19 75.46 L200.81 75.46 L199.65 75.45 L198.91 75.46 L198.19 75.46 L197.23 75.46 L196.19 75.48 L195.19 75.52 L194.37 75.56 L193.88 75.64 L193.44 75.85 L192.91 76.18 L192.36 76.58 L191.88 76.97 L191.57 77.26 L191.33 77.68 L191.09 78.28 L190.84 78.88 L190.62 79.32 L190.26 79.64 L189.49 80.26 L188.47 81.09 L187.3 82.02 L186.1 82.93 L185.01 83.76 L184.16 84.38 L183.68 84.7 L183.06 84.94 L182.2 85.21 L181.3 85.46 L180.7 85.65 L180.39 85.75 L180.28 85.81 L180.26 85.83 L180.26 85.87 L180.27 85.97 L180.37 86.15 L180.56 86.46 L180.81 86.84 L180.95 87.1 L181.01 87.39 L181.07 87.77 L181.07 88.07 L180.9 88.5 L180.46 89.5 L179.87 90.83 L179.22 92.26 L178.59 93.61 L178.09 94.62 L177.8 95.09 L177.36 95.27 L176.71 95.39 L176.08 95.51 L175.71 95.69 L175.65 96.14 L175.65 97.18 L175.69 98.62 L175.75 100.32 L175.83 102.07 L175.91 103.76 L175.97 105.16 L176.03 106.15 L176.05 106.54 L176.03 106.8 L176.02 107.02 L176.17 107.1 L176.34 107.18 L176.41 107.49 L176.59 108.24 L176.82 109.29 L177.08 110.45 L177.31 111.52 L177.49 112.35 L177.58 112.76 L177.66 113.12 L177.76 113.58 L177.84 114.01 L177.88 114.18 L177.91 114.25 L178.13 114.33 L178.65 114.51 L179.33 114.72 L179.99 114.92 L180.48 115.03 L181.06 115.03 L181.92 114.97 L182.83 114.88 L183.56 114.81 L183.89 114.77 L184.06 114.73 L184.24 114.69 L184.59 114.6 L185.41 114.4 L186.54 114.13 L187.77 113.84 L188.88 113.57 L189.71 113.37 L190.02 113.29 L190.14 113.29 L190.5 113.27 L191.44 113.2 L192.75 113.11 L194.28 113 L195.79 112.89 L197.12 112.8 L198.06 112.73 L198.42 112.72 L198.55 112.72 L198.65 112.73 L198.65 112.8 L198.65 112.86 L198.81 113.04 L199.15 113.38 L199.44 113.61 L199.87 113.67 L200.86 113.78 L202.26 113.92 L203.91 114.08 L205.63 114.25 L207.28 114.41 L208.65 114.54 L209.61 114.63 L209.97 114.67 L210.12 114.67 L210.25 114.69 L210.33 114.7 L210.39 114.71 L210.52 114.77 L210.69 114.82 L211.04 114.97 L211.96 115.34 L213.2 115.84 L214.55 116.38 L215.8 116.89 L216.7 117.26 L217.07 117.42 L217.21 117.51 L217.34 117.62 L217.68 117.87 L218.52 118.53 L219.7 119.45 L221.05 120.51 L222.4 121.57 L223.58 122.5 L224.42 123.15 L224.73 123.4 L224.84 123.51 L224.94 123.6 L225.23 123.91 L226.04 124.7 L227.25 125.91 L228.73 127.4 L230.38 129.04 L232.09 130.76 L233.75 132.41 L235.23 133.9 L236.43 135.11 L237.24 135.92 L237.54 136.21 L237.65 136.33 L237.76 136.44 L240.74 138.45 L241.54 139.66 L241.81 140.54 L242.01 141.03 L242.34 141.35 L242.83 141.71 L243.34 142.04 L243.74 142.28 L244.17 142.48 L244.92 142.79 L245.85 143.18 L246.78 143.55 L247.58 143.87 L248.07 144.04 L248.52 144.17 L249.08 144.33 L249.7 144.48 L250.28 144.62 L250.73 144.73 L251.25 144.87 L252 145.07 L252.83 145.28 L253.55 145.47 L254 145.56 L254.42 145.63 L254.99 145.69 L255.54 145.73 L255.97 145.73 L256.02 145.72 L256.2 145.69 L256.59 145.6 L257.29 145.43 L258.29 145.13 L259.27 144.83 L259.88 144.58 L262.22 144.97 L262.69 145.16 L263.68 145.52 L264.58 145.81 L265.28 145.95 L265.93 145.94 L267.32 145.83 L269.29 145.66 L271.71 145.43 L274.45 145.15 L277.37 144.85 L280.34 144.55 L283.23 144.25 L285.9 143.97 L288.21 143.72 L290.02 143.53 L291.21 143.4 L291.64 143.36 L291.74 143.34 L291.81 143.33 L291.91 143.33 L291.98 143.66 L292.13 144.55 L292.34 145.8 L292.59 147.22 L292.84 148.65 L293.05 149.89 L293.18 150.63 L293.25 150.98 L293.26 151.1 L293.31 151.15 L293.29 151.31 L293.09 151.43 L292.84 151.56 L292.6 151.72 L292.17 152 L291.75 152.32 L291.58 152.55 L291.78 152.73 L292.21 152.97 L292.69 153.21 L293.03 153.44 L293.28 153.78 L293.57 154.3 L293.81 154.78 L293.92 154.98 L293.93 155.04 L293.58 155.11 L292.6 155.27 L291.19 155.51 L289.51 155.79 L287.75 156.1 L286.07 156.38 L284.66 156.62 L283.68 156.78 L283.29 156.84 L283.15 156.87 L283.02 156.88 L282.96 156.94 L282.9 156.99 L282.93 156.92 L282.63 156.9 L281.88 156.84 L280.95 156.81 L280.26 156.82 L279.84 156.86 L279.66 156.9 L279.59 156.94 L279.55 156.98 L279.45 157.1 L279.32 157.35 L279.15 157.8 L278.95 158.43 L278.75 159.03 L278.56 159.45 L278.19 159.85 L277.58 160.38 L276.9 160.97 L276.34 161.48 L276.05 161.86 L276.05 162.31 L276.2 162.95 L276.36 163.6 L276.46 164.1 L276.43 164.62 L276.35 165.83 L276.22 167.58 L276.06 169.75 L275.88 172.19 L275.69 174.75 L275.48 177.32 L275.3 179.72 L275.14 181.83 L275.01 183.52 L274.92 184.65 L274.89 185.05 L274.88 185.19 L274.87 185.31 L274.87 185.38 L274.85 185.46 L274.83 185.82 L274.77 186.8 L274.66 188.22 L274.54 189.91 L274.42 191.68 L274.31 193.38 L274.2 194.81 L274.13 195.81 L274.1 196.21 L274.08 196.48 L274.06 196.75 L273.99 197.15 L273.87 197.88 z" class="polygon_1" style="fill:#571D6D;" />
    </g>
    <g id="SiteLine" style="fill:none;" />
    <g id="SitePoint">
      <circle cx="250" cy="303" r="6" id="Dam_S2139" style="fill:#74B24E;stroke:#365B1F;">
        <title>頭社水庫 ：優養 (60)</title>
      </circle>
    </g>
    <g id="Mark" class="Heilight">
      <g transform="translate(250, 303) translate(-14, -14)" id="gMark" class="HeilightTrans">
        <path d="M17.2 27.5 L17.2 23.4 L22.8 23.4 L23.3 23.4 L23.3 22.9 L23.3 17.3 L27.4 17.3 L27.4 27.6 L17.2 27.5 z M0.5 27.5 L0.5 17.2 L4.6 17.2 L4.6 22.8 L4.6 23.3 L5.1 23.3 L10.1 23.3 L10.1 27.4 L0.5 27.5 z M27.5 10.2 L23.4 10.2 L23.4 5.2 L23.4 4.6 L22.9 4.6 L17.3 4.6 L17.3 0.5 L27.6 0.5 L27.6 10.2 z M4.6 10.2 L0.5 10.2 L0.5 0.5 L10.2 0.5 L10.2 4.6 L5.2 4.6 L4.6 4.6 L4.6 5.1 L4.6 10.2 z" class="st0" style="fill:#FF800E;" />
        <path d="M17.7 27 L27 27 L27 17.7 L23.9 17.7 L23.9 22.8 L23.9 23.8 L22.9 23.8 L17.8 23.8 L17.8 27 M1 27 L9.7 27 L9.7 23.9 L5.1 23.9 L4.1 23.9 L4.1 22.9 L4.1 17.8 L1 17.8 L1 27 M27 9.7 L27 1 L17.7 1 L17.7 4.1 L22.8 4.1 L23.8 4.1 L23.8 5.1 L23.8 9.6 L27 9.6 M4.1 9.7 L4.1 5.1 L4.1 4.1 L5.1 4.1 L9.6 4.1 L9.6 1 L1 1 L1 9.7 L4.1 9.7 M28 28 L28 28 L28 28 L16.7 28 L16.7 22.9 L22.8 22.9 L22.8 16.8 L28 16.8 L28 28 L28 28 z M10.7 28 L10.7 28 L10.7 28 L0 28 L0 16.7 L5.1 16.7 L5.1 22.8 L10.6 22.8 L10.6 28 L10.7 28 z M28 10.7 L28 10.7 L28 10.7 L22.9 10.7 L22.9 5.1 L16.8 5.1 L16.8 0 L28 0 L28 10.7 L28 10.7 z M5.1 10.7 L5.1 10.7 L0 10.7 L0 0 L10.7 0 L10.7 5.1 L5.1 5.1 L5.1 10.7 L5.1 10.7 z" class="st1" style="fill:#B55600;" />
      </g>
    </g>
  </g>
</svg>