<?xml version="1.0" encoding="utf-8"?>
<!DOCTYPE svg PUBLIC "-//W3C//DTD SVG 1.1//EN" "http://www.w3.org/Graphics/SVG/1.1/DTD/svg11.dtd">
<svg width="322px" height="510px" viewBox="0, 0, 322, 510" class="svgDam" xmlns="http://www.w3.org/2000/svg" xmlns:xlink="http://www.w3.org/1999/xlink" xmlns:xml="http://www.w3.org/XML/1998/namespace" version="1.1">
  <g id="MapArea">
    <g id="Key_Area">
      <path d="M214.42 494.98 L211.78 493.16 L210.73 492.31 L209.76 491.2 L209.1 490.24 L207.89 488.78 L207.26 488.13 L206.7 487.46 L205.84 486.98 L205.19 486.87 L203.34 486.42 L201.59 485.96 L199.66 485.31 L198.3 484.8 L196.01 483.96 L194.68 483.37 L192.95 482.99 L191.1 482.64 L189.15 482.35 L187.35 481.92 L185.65 481.79 L183.55 481.61 L181.97 481.52 L173.16 480.37 L172.62 480.2 L172.21 479.92 L171.97 479.64 L171.76 479.41 L171.55 479.09 L171.38 478.84 L171.2 478.69 L171.05 478.46 L170.93 478.11 L170.65 477.61 L170.05 477.2 L169.8 477.03 L169.26 476.61 L168.89 476.24 L168.61 475.79 L168.5 475.36 L168.49 474.93 L168.43 474.51 L168.35 474.31 L168.16 474.04 L167.62 473.68 L167.28 473.38 L167.19 473.31 L166.85 473.26 L166.55 473.25 L166.01 473.39 L165.58 473.63 L165.01 473.74 L164.18 473.97 L163.68 473.96 L163.43 473.82 L163.16 473.49 L162.97 473.21 L162.73 473.08 L161.91 472.81 L161.31 472.65 L160.89 472.39 L160.63 472.09 L160.58 471.96 L160.5 471.83 L160.3 471.65 L160.03 471.54 L159.72 471.55 L159.52 471.74 L159.19 472.05 L159.07 472.1 L158.67 472.11 L158.33 472.1 L157.81 472.12 L157.34 472.16 L157.04 472.23 L156.77 472.3 L156.36 472.62 L155.72 472.81 L155.05 473.21 L154.65 473.58 L153.89 474.25 L153.33 474.99 L153.01 475.25 L152.46 475.48 L151.83 475.54 L151.35 475.72 L150.65 475.76 L150.09 475.71 L149.27 475.59 L148.61 475.48 L147.71 475.27 L147.01 474.87 L146.4 474.37 L146.01 473.89 L145.47 473.54 L145.1 473.4 L144.74 473.11 L144.61 472.79 L144.5 472.16 L144.37 471.75 L144.13 471.4 L143.64 471.02 L143.13 470.67 L142.9 470.62 L142.32 470.48 L142.08 470.36 L141.85 470.14 L141.72 469.92 L141.41 469.6 L140.83 469.21 L140.25 468.55 L139.72 468.26 L139.15 468.25 L138.56 468.29 L138.39 468.41 L138.09 468.65 L137.98 468.85 L137.77 468.98 L137.55 469.02 L137.34 469 L137 468.9 L136.62 468.59 L136.29 468.36 L135.95 468.25 L135.74 468.25 L135.66 468.28 L135.58 468.39 L135.47 468.75 L135.2 469.27 L134.96 469.6 L134.19 470.21 L133.29 471.4 L132.86 473.09 L132.63 473.95 L132.21 474.41 L130.56 474.85 L127.64 475.26 L125.67 474.86 L118.76 471.65 L117.57 471.49 L115.6 471.28 L110.53 472.02 L106.53 472.6 L104.84 472.3 L100.95 469.6 L95.66 465.94 L94.44 464.7 L87.88 455.83 L86.19 454.33 L82 451.82 L79.58 450.37 L78.82 450.25 L77.57 450.18 L74.92 451.08 L72.71 451.82 L71.48 452.4 L70.44 453.12 L66.07 457.31 L64.66 457.77 L57.86 456.93 L55.38 456.26 L48.43 454.03 L47.56 453.49 L47.29 453.17 L47.12 452.59 L47.05 451.26 L47.78 446.98 L47.68 445.69 L46.32 444.58 L40.87 442.84 L39.72 442.78 L39.34 442.84 L38.13 442.89 L33.4 445.36 L28.61 447.88 L27.53 448.8 L26.78 449.2 L26.22 449.42 L20.37 455.24 L18.65 456.8 L15.96 458.01 L10.44 460.49 L9.19 460.67 L8.11 460.63 L2.56 459.3 L1.09 458.53 L0.7 458.07 L0.63 457.84 L0.67 457.27 L0.99 456.32 L1.43 455.43 L4.78 450.31 L8.36 440.24 L12.49 431.72 L16.56 425.11 L17.98 421.23 L18.94 413.65 L19.62 407.18 L18.81 403.17 L17.19 399.4 L15.97 398.38 L15.13 398.44 L13.66 398.55 L8.07 402.55 L6.4 402.96 L5.73 403.02 L4.54 403 L0.86 399.53 L0 397.52 L1.62 390.65 L5.11 382.78 L11.01 374.39 L12.81 372.56 L20.23 367.79 L27.34 364 L34.28 360.45 L40.22 357.41 L43.05 355.32 L45.9 352.16 L49.16 350.19 L53.17 348.43 L59.64 347.4 L68.48 342.76 L73.09 337.27 L75.71 335.07 L81.36 332.16 L86.27 331.26 L88.78 331.23 L91.6 330.76 L97.99 327.91 L99.51 326.86 L107.03 319.51 L114.46 312.91 L117.11 311.2 L123.26 309.16 L125.64 307.48 L131.48 301.2 L141.33 295.04 L146.28 292.43 L148.71 290.22 L151.6 284.31 L151.56 281.17 L149.68 276.83 L149.55 275.5 L149.99 273.8 L151.7 272.98 L157.99 272.21 L164.61 270.32 L165.53 269.3 L165.88 267.45 L164.25 261.88 L162.64 258.95 L157.03 252.26 L155.33 248.38 L154.44 244.4 L154.47 242.93 L155.22 241.72 L155.88 241.47 L156.38 241.47 L156.99 241.47 L159.94 241.64 L161.88 242.23 L167.42 246.4 L175.68 250.66 L181.24 252.52 L182.22 253 L184.32 254.54 L187.58 258.39 L190.4 260.24 L195.48 262.03 L196.52 262.16 L197.87 261.99 L198.27 261.44 L199.94 253.13 L201.36 241.42 L201.42 235.55 L203.03 229.92 L205.24 227 L209.49 225.44 L218.47 228.33 L226.56 233.42 L231.97 233.35 L237.48 229.34 L245.82 223.48 L251.89 213.17 L252.53 202.08 L252.05 193.51 L248.34 186.79 L246.87 178.33 L250.26 169.94 L253.7 164.09 L257.71 160.78 L260.51 159.83 L263.49 156.11 L263.55 151.88 L264.61 148.84 L268.88 143.45 L270.29 134.46 L272.37 125.22 L275.95 115.85 L278.25 107.6 L277.27 103.98 L275.03 100.56 L273.47 94.65 L273.15 90.4 L272.01 88.27 L269.73 86.37 L266.79 85.27 L262.84 84.42 L260.33 82.12 L258.81 79.93 L258.61 77.7 L259.35 76.1 L261.8 74.62 L263.28 72.74 L263.37 63.62 L261.47 53.66 L262.41 47.15 L263.25 45.93 L264.42 45.29 L267.1 45.07 L272.4 45.89 L274.66 45.59 L277.06 44.36 L282.54 39.22 L284.1 36.28 L286.98 27.79 L289.45 19.04 L291.11 15.83 L297.26 10.61 L303.83 6.34 L307.6 1.59 L310.33 0.15 L315.98 0 L317.3 0.74 L318.37 2.05 L319.79 7.17 L321.57 12.9 L321.42 16.87 L320.53 19.79 L319.18 20.31 L316.17 20.31 L314.16 20.05 L311.82 20.53 L311.28 20.91 L310.07 22.77 L308.87 26.86 L305.78 35.75 L303.7 46.18 L302.33 48.65 L297.69 52.9 L296.49 55.43 L296.26 56.16 L296.17 60.35 L296.76 65.11 L298.79 76.13 L300.85 85.15 L306.2 92.55 L307.81 97.38 L308.2 101.1 L307.63 107.82 L305.43 113.58 L304.98 122.79 L305.29 126.97 L307.8 133.75 L308.66 139.03 L308.65 143.93 L309.61 149.44 L309.94 150.5 L312.41 155.36 L314.04 157.13 L314.64 159.02 L314.45 159.52 L313.24 160.6 L307.4 161.84 L300.73 164.08 L298.85 164.78 L297.98 165.35 L297.69 165.63 L297.54 166.07 L297.52 166.45 L297.52 167.04 L297.51 167.27 L297.7 169.1 L298 170.61 L298.08 171.58 L298.11 172.12 L298.03 172.45 L297.96 172.73 L297.81 172.84 L297.59 172.95 L297.49 172.97 L297.11 173.01 L296.91 173.04 L296.83 173.04 L296.46 173.05 L295.79 173.11 L292.32 172.93 L290.87 173.21 L289.51 174.09 L282.03 180.57 L281.38 182 L280.67 189.63 L280.82 192.28 L282.82 200.24 L283.33 201.03 L284.75 202.3 L290.11 205.72 L291.87 207.26 L293.84 209.31 L294.74 212.6 L294.3 214.69 L290.85 220.2 L285.07 230.87 L281.68 243.18 L281.66 255.25 L282.57 261.93 L282.43 267.3 L282.19 268.68 L281.09 272.24 L280.69 273.15 L280.59 273.35 L280.36 273.47 L280.25 273.48 L279.96 273.45 L279.4 273.33 L273.19 270.99 L272.79 270.94 L272.65 270.93 L272.49 270.93 L272.28 271.04 L268.58 277.49 L267.92 279.56 L267.12 285.18 L266.96 286.9 L266.92 287.35 L266.9 287.53 L266.97 287.69 L266.99 287.72 L267.12 287.84 L267.16 287.88 L267.38 288.04 L267.46 288.09 L267.93 288.37 L274.28 290.95 L274.84 291.32 L274.94 291.38 L275.08 291.5 L275.1 291.66 L275.1 291.8 L275.06 291.88 L274.99 292.04 L274.85 292.25 L274.54 292.75 L274.42 293 L269.39 299.68 L262.58 304.87 L259.42 308.27 L255.85 316.48 L249.92 323.96 L245.1 330.27 L240.02 336.15 L237.14 341.11 L233.75 349.41 L231.6 356.72 L230.39 359.36 L229.8 360.08 L228.01 360.66 L219.08 360.98 L207.56 361.27 L204.42 360.95 L193.31 358.16 L184.05 355.99 L180.25 356.03 L173.41 357.6 L171.47 358.74 L166.45 363.38 L165.34 364.82 L164.65 367.03 L164.34 373.36 L163.73 376.61 L160.49 385.28 L159.35 388.51 L159.08 389.85 L158.94 391.03 L158.78 392.49 L158.7 393.56 L158.58 395.06 L158.68 396.41 L158.81 397.53 L159 398.37 L159.21 399.73 L159.61 400.28 L159.98 400.84 L160.29 401.17 L160.94 401.82 L161.57 402.51 L161.78 403.02 L162.01 403.51 L162.28 404.09 L162.65 404.53 L163.39 405.24 L164.1 405.74 L164.69 405.92 L165.07 406.06 L166.63 406.41 L168.12 406.73 L168.33 406.82 L168.73 406.87 L169.52 407.22 L170.06 407.24 L170.35 407.31 L170.6 407.42 L170.86 407.76 L171.06 408.03 L171.48 408.25 L171.61 408.28 L171.93 408.21 L172.08 408.12 L172.35 408.09 L172.64 408.13 L172.95 408.34 L173.14 408.53 L173.31 408.89 L173.52 409.12 L173.81 409.23 L174.03 409.24 L174.74 409.24 L175.2 409.15 L175.73 408.81 L176.23 408.66 L176.94 408.5 L177.18 408.48 L177.4 408.51 L177.97 408.58 L178.47 408.53 L178.88 408.55 L179.36 408.46 L179.67 408.44 L180.15 408.28 L180.59 407.94 L181.2 407.5 L181.73 407.34 L182.48 407.25 L183.08 407.16 L183.32 407.19 L183.72 407.3 L184.21 407.29 L184.73 407.06 L185.31 407.01 L185.61 407.01 L185.94 407.05 L186.27 407.1 L186.37 407.16 L186.62 407.44 L186.81 407.56 L187.11 407.77 L187.51 407.84 L187.84 407.92 L188.29 407.97 L188.56 407.97 L188.94 407.85 L189.19 407.66 L189.47 407.47 L189.63 407.41 L189.97 407.36 L190.25 407.4 L190.52 407.39 L191.58 407.23 L192.18 407.09 L192.52 407 L193.02 406.99 L193.61 407.04 L194.34 407.04 L195.03 406.92 L196.8 406.87 L197.82 407.06 L198.39 407.21 L198.96 407.45 L199.51 407.73 L199.97 407.88 L200.63 408.02 L201.56 408.07 L202.19 408.16 L202.55 408.16 L203.01 408.18 L203.37 408.24 L203.95 408.51 L204.14 408.65 L204.37 408.92 L204.72 409.16 L204.74 409.17 L205.37 409.32 L205.8 409.33 L206.25 409.11 L208.75 409.23 L208.83 409.2 L209.33 409.11 L209.79 409.13 L210.53 409.32 L211.09 409.36 L211.92 409.34 L212.56 409.42 L213.56 409.64 L214.26 409.7 L215.75 409.69 L216.56 409.54 L216.75 409.49 L217.48 409.31 L218.46 409.13 L218.93 409.11 L219.73 409.13 L220.24 409.2 L221.02 409.24 L221.89 409.36 L222.64 409.5 L222.98 409.64 L223.2 409.77 L223.47 409.79 L227.24 410.33 L230.81 410.93 L233.86 411.35 L235.52 411.82 L235.67 411.87 L238.75 412.74 L244.68 414.29 L248.08 415.33 L253.86 417.54 L257.99 420.17 L270.92 428.7 L278.78 435.74 L283.92 439.4 L289.97 442.82 L295.64 446.69 L295.72 446.74 L306.36 453.99 L309.54 456.97 L311.69 460.89 L314.66 475.64 L316.6 478.91 L318.28 480.69 L320.43 481.82 L321.04 482.7 L320.52 483.68 L283.1 509.87 L282.36 510 L281.63 509.83 L281.1 509.57 L279.89 508.59 L279.75 508.48 L269.99 500.55 L264.58 495.15 L263.02 494.36 L257.84 493.86 L255.88 494.31 L252.9 495.89 L246.39 499.11 L244.64 499.27 L237.05 498.23 L227.12 497.92 L216.99 496.22 L215.5 495.63 L214.42 494.98 z" class="polygon_1" style="fill:#571D6D;" />
    </g>
    <g id="SiteLine" style="fill:none;" />
    <g id="SitePoint">
      <circle cx="235.7651" cy="282.2841" r="6" id="Dam_S2185" style="fill:#74B24E;stroke:#365B1F;">
        <title>鳳山水庫一 ：優養 (80)</title>
      </circle>
      <circle cx="174" cy="329" r="6" id="Dam_S2186" style="fill:#74B24E;stroke:#365B1F;">
        <title>鳳山水庫二 ：優養 (77)</title>
      </circle>
      <circle cx="131" cy="338" r="6" id="Dam_S2187" style="fill:#74B24E;stroke:#365B1F;">
        <title>鳳山水庫三 ：優養 (78)</title>
      </circle>
      <circle cx="162" cy="441" r="6" id="Dam_S2188" style="fill:#74B24E;stroke:#365B1F;">
        <title>鳳山水庫四 ：優養 (76)</title>
      </circle>
    </g>
    <g id="Mark" class="Heilight">
      <g transform="translate(235.7651, 282.2841) translate(-14, -14)" id="gMark" class="HeilightTrans">
        <path d="M17.2 27.5 L17.2 23.4 L22.8 23.4 L23.3 23.4 L23.3 22.9 L23.3 17.3 L27.4 17.3 L27.4 27.6 L17.2 27.5 z M0.5 27.5 L0.5 17.2 L4.6 17.2 L4.6 22.8 L4.6 23.3 L5.1 23.3 L10.1 23.3 L10.1 27.4 L0.5 27.5 z M27.5 10.2 L23.4 10.2 L23.4 5.2 L23.4 4.6 L22.9 4.6 L17.3 4.6 L17.3 0.5 L27.6 0.5 L27.6 10.2 z M4.6 10.2 L0.5 10.2 L0.5 0.5 L10.2 0.5 L10.2 4.6 L5.2 4.6 L4.6 4.6 L4.6 5.1 L4.6 10.2 z" class="st0" style="fill:#FF800E;" />
        <path d="M17.7 27 L27 27 L27 17.7 L23.9 17.7 L23.9 22.8 L23.9 23.8 L22.9 23.8 L17.8 23.8 L17.8 27 M1 27 L9.7 27 L9.7 23.9 L5.1 23.9 L4.1 23.9 L4.1 22.9 L4.1 17.8 L1 17.8 L1 27 M27 9.7 L27 1 L17.7 1 L17.7 4.1 L22.8 4.1 L23.8 4.1 L23.8 5.1 L23.8 9.6 L27 9.6 M4.1 9.7 L4.1 5.1 L4.1 4.1 L5.1 4.1 L9.6 4.1 L9.6 1 L1 1 L1 9.7 L4.1 9.7 M28 28 L28 28 L28 28 L16.7 28 L16.7 22.9 L22.8 22.9 L22.8 16.8 L28 16.8 L28 28 L28 28 z M10.7 28 L10.7 28 L10.7 28 L0 28 L0 16.7 L5.1 16.7 L5.1 22.8 L10.6 22.8 L10.6 28 L10.7 28 z M28 10.7 L28 10.7 L28 10.7 L22.9 10.7 L22.9 5.1 L16.8 5.1 L16.8 0 L28 0 L28 10.7 L28 10.7 z M5.1 10.7 L5.1 10.7 L0 10.7 L0 0 L10.7 0 L10.7 5.1 L5.1 5.1 L5.1 10.7 L5.1 10.7 z" class="st1" style="fill:#B55600;" />
      </g>
    </g>
  </g>
</svg>